<?xml version="1.0" encoding="utf-8"?>
<!-- Generator: Adobe Illustrator 16.0.0, SVG Export Plug-In . SVG Version: 6.00 Build 0)  -->
<!DOCTYPE svg PUBLIC "-//W3C//DTD SVG 1.1//EN" "http://www.w3.org/Graphics/SVG/1.1/DTD/svg11.dtd">
<svg version="1.1" id="Calque_1" xmlns="http://www.w3.org/2000/svg" xmlns:xlink="http://www.w3.org/1999/xlink" x="0px" y="0px"
	 width="800px" height="600px" viewBox="0 0 800 600" enable-background="new 0 0 800 600" xml:space="preserve">
<g>
	<defs>
		<rect id="SVGID_1_" x="-1" y="1" width="800" height="600"/>
	</defs>
	<clipPath id="SVGID_2_">
		<use xlink:href="#SVGID_1_"  overflow="visible"/>
	</clipPath>
	<g clip-path="url(#SVGID_2_)">
		
			<image overflow="visible" width="595" height="842" xlink:href="../../Pictures/Book/Dessin/2013/Arbre-Mojo.png"  transform="matrix(0.7838 0 0 0.7838 166.8047 -8)">
		</image>
	</g>
</g>
<circle opacity="0.7" fill="#51341F" cx="402.592" cy="526.579" r="64.497"/>
<circle opacity="0.5" fill="#77002B" cx="234.592" cy="246.579" r="64.497"/>
<circle opacity="0.5" fill="#A00000" cx="247.592" cy="137.579" r="64.497"/>
<circle opacity="0.5" fill="#E27600" cx="339.592" cy="70.579" r="64.497"/>
<circle opacity="0.5" fill="#F7D900" cx="460.592" cy="70.579" r="64.497"/>
<circle opacity="0.5" fill="#60F400" cx="559.592" cy="132.579" r="64.497"/>
<circle opacity="0.5" fill="#00F2C3" cx="580.592" cy="238.579" r="64.497"/>
<image overflow="visible" width="512" height="512" xlink:href="Google_Chrome_logo.png"  transform="matrix(0.0663 0 0 0.0663 353.5405 509.1563)">
</image>
<image overflow="visible" width="900" height="900" xlink:href="FB-f-Logo__blue_1024.png"  transform="matrix(0.033 0 0 0.033 424.8633 510.3604)">
</image>
<g>
	<path d="M94.359,243.846h0.51v13.464c0,0.765-0.089,1.462-0.268,2.091c-0.179,0.629-0.463,1.173-0.854,1.632
		s-0.905,0.816-1.542,1.071c-0.638,0.255-1.415,0.383-2.333,0.383c-0.867,0-1.606-0.127-2.218-0.383
		c-0.612-0.255-1.114-0.603-1.504-1.045c-0.391-0.442-0.676-0.964-0.854-1.568c-0.178-0.604-0.268-1.263-0.268-1.977v-1.096h0.51
		v1.096c0,1.496,0.37,2.614,1.109,3.354c0.74,0.739,1.814,1.109,3.226,1.109c0.731,0,1.373-0.084,1.925-0.255
		c0.552-0.17,1.02-0.45,1.403-0.841c0.382-0.391,0.671-0.909,0.867-1.556c0.195-0.646,0.293-1.445,0.293-2.397V243.846z"/>
	<path d="M98.261,261.543h11.679v0.51H97.75v-18.207h12.087v0.51H98.261v7.956h10.888v0.51H98.261V261.543z"/>
	<path d="M124.296,243.846h0.51v11.424c0,2.431-0.574,4.242-1.721,5.431c-1.147,1.19-2.801,1.785-4.959,1.785
		c-2.159,0-3.813-0.595-4.96-1.785c-1.147-1.189-1.721-3-1.721-5.431v-11.424h0.51v11.424c0,2.176,0.505,3.837,1.517,4.985
		c1.011,1.147,2.563,1.721,4.654,1.721c2.091,0,3.642-0.574,4.653-1.721s1.518-2.809,1.518-4.985V243.846z"/>
	<path d="M139.187,243.846h0.638l-6.63,8.849l6.936,9.358h-0.637l-6.656-8.95l-6.706,8.95h-0.638l7.012-9.358l-6.63-8.849h0.663
		l6.298,8.44L139.187,243.846z"/>
</g>
<g>
	<path d="M23.455,142.059h-0.51v-18.207h7.37c1.75,0,3.111,0.417,4.08,1.25c0.969,0.833,1.454,2.074,1.454,3.723
		c0,0.799-0.145,1.509-0.434,2.129s-0.688,1.139-1.198,1.555c-0.51,0.417-1.122,0.731-1.836,0.944
		c-0.714,0.212-1.488,0.318-2.321,0.318h-6.604V142.059z M23.455,133.262h6.859c0.714,0,1.377-0.098,1.989-0.293
		c0.612-0.195,1.143-0.484,1.594-0.867c0.45-0.383,0.803-0.846,1.058-1.39c0.255-0.544,0.383-1.173,0.383-1.887
		c0-1.445-0.417-2.55-1.25-3.315c-0.833-0.765-2.091-1.147-3.774-1.147h-6.859V133.262z"/>
	<path d="M50.433,123.852h0.51v11.424c0,2.431-0.574,4.242-1.721,5.431c-1.147,1.19-2.801,1.785-4.959,1.785
		c-2.159,0-3.813-0.595-4.96-1.785c-1.147-1.189-1.721-3-1.721-5.431v-11.424h0.51v11.424c0,2.176,0.505,3.837,1.517,4.985
		c1.011,1.147,2.563,1.721,4.654,1.721c2.091,0,3.642-0.574,4.653-1.721s1.518-2.809,1.518-4.985V123.852z"/>
	<path d="M53.518,123.852h7.828c0.714,0,1.381,0.094,2.002,0.281c0.62,0.187,1.164,0.472,1.632,0.854
		c0.467,0.383,0.833,0.854,1.097,1.416c0.263,0.561,0.395,1.224,0.395,1.989c0,0.544-0.098,1.063-0.293,1.556
		s-0.463,0.922-0.803,1.288c-0.34,0.366-0.744,0.667-1.211,0.905c-0.468,0.238-0.982,0.374-1.543,0.408v0.051
		c0.595,0.017,1.16,0.132,1.696,0.344c0.536,0.213,1.003,0.51,1.402,0.893s0.718,0.85,0.957,1.402
		c0.238,0.553,0.357,1.177,0.357,1.875c0,0.816-0.149,1.534-0.446,2.155c-0.298,0.621-0.71,1.134-1.237,1.542
		s-1.16,0.718-1.899,0.931c-0.74,0.213-1.543,0.319-2.41,0.319h-7.522V123.852z M54.028,132.318h7.318
		c0.612,0,1.194-0.081,1.747-0.242s1.042-0.408,1.466-0.74s0.765-0.744,1.02-1.237c0.255-0.493,0.383-1.062,0.383-1.708
		c0-0.68-0.119-1.275-0.357-1.785c-0.238-0.51-0.565-0.931-0.981-1.262c-0.417-0.332-0.905-0.578-1.466-0.74
		c-0.561-0.161-1.165-0.242-1.811-0.242h-7.318V132.318z M54.028,141.549h7.242c0.731,0,1.419-0.089,2.066-0.268
		c0.646-0.178,1.202-0.45,1.67-0.816c0.467-0.365,0.837-0.824,1.109-1.377c0.271-0.552,0.408-1.203,0.408-1.951
		c0-0.799-0.149-1.47-0.446-2.015c-0.298-0.544-0.689-0.986-1.173-1.326s-1.037-0.587-1.657-0.74
		c-0.621-0.153-1.254-0.229-1.9-0.229h-7.318V141.549z"/>
	<path d="M80.42,141.549v0.51H69.276v-18.207h0.51v17.697H80.42z"/>
	<path d="M81.542,123.852h0.51v18.207h-0.51V123.852z"/>
	<path d="M100.309,134.919c-0.153,1.105-0.442,2.121-0.867,3.047c-0.425,0.927-0.973,1.726-1.645,2.397
		c-0.672,0.672-1.471,1.194-2.397,1.568c-0.927,0.374-1.959,0.561-3.098,0.561c-1.208,0-2.316-0.234-3.328-0.701
		c-1.012-0.468-1.883-1.118-2.614-1.951c-0.731-0.833-1.297-1.823-1.696-2.971c-0.4-1.148-0.599-2.401-0.599-3.761
		c0-1.105,0.157-2.231,0.472-3.379c0.314-1.147,0.812-2.188,1.492-3.124c0.68-0.935,1.564-1.7,2.652-2.295s2.405-0.893,3.953-0.893
		c1.207,0,2.261,0.2,3.162,0.599s1.653,0.901,2.257,1.504c0.604,0.604,1.058,1.246,1.364,1.925c0.306,0.68,0.467,1.3,0.484,1.861
		h-0.51c-0.051-0.663-0.247-1.313-0.586-1.951c-0.34-0.637-0.803-1.211-1.39-1.721c-0.587-0.51-1.284-0.922-2.091-1.237
		c-0.808-0.314-1.705-0.472-2.69-0.472c-1.003,0-1.896,0.14-2.678,0.421c-0.782,0.28-1.471,0.655-2.065,1.122
		c-0.595,0.468-1.105,1.011-1.53,1.632c-0.425,0.621-0.77,1.271-1.033,1.951c-0.264,0.68-0.455,1.369-0.574,2.065
		c-0.119,0.697-0.179,1.36-0.179,1.989c0,1.156,0.17,2.269,0.51,3.34c0.34,1.071,0.841,2.014,1.504,2.831
		c0.663,0.816,1.475,1.47,2.435,1.963s2.053,0.739,3.277,0.739c1.087,0,2.065-0.178,2.932-0.535c0.867-0.357,1.615-0.85,2.244-1.479
		s1.139-1.377,1.53-2.244c0.391-0.867,0.654-1.802,0.79-2.805H100.309z"/>
	<path d="M103.599,136.066l-2.423,5.993h-0.586l7.395-18.207h0.663l7.191,18.207h-0.561l-2.397-5.993H103.599z M112.676,135.557
		l-4.335-11.194h-0.051l-4.488,11.194H112.676z"/>
	<path d="M113.237,124.362v-0.51h13.617v0.51h-6.554v17.697h-0.51v-17.697H113.237z"/>
	<path d="M127.798,123.852h0.51v18.207h-0.51V123.852z"/>
	<path d="M130.5,132.956c0-1.292,0.183-2.516,0.548-3.672c0.365-1.156,0.901-2.167,1.606-3.035c0.705-0.867,1.581-1.555,2.626-2.065
		c1.045-0.51,2.248-0.765,3.608-0.765c1.36,0,2.563,0.255,3.608,0.765c1.045,0.51,1.921,1.199,2.626,2.065
		c0.706,0.867,1.241,1.879,1.606,3.035c0.366,1.156,0.548,2.38,0.548,3.672c0,1.292-0.183,2.516-0.548,3.672
		c-0.366,1.156-0.901,2.167-1.606,3.035s-1.581,1.556-2.626,2.065c-1.045,0.51-2.248,0.765-3.608,0.765
		c-1.36,0-2.563-0.255-3.608-0.765c-1.045-0.51-1.921-1.198-2.626-2.065c-0.706-0.867-1.241-1.878-1.606-3.035
		C130.683,135.472,130.5,134.248,130.5,132.956z M131.011,132.956c0.017,1.31,0.204,2.516,0.561,3.621
		c0.357,1.105,0.875,2.057,1.555,2.856c0.68,0.799,1.504,1.424,2.474,1.874c0.969,0.451,2.065,0.676,3.29,0.676
		c1.224,0,2.32-0.225,3.289-0.676c0.969-0.45,1.789-1.075,2.461-1.874c0.671-0.799,1.19-1.75,1.556-2.856
		c0.365-1.105,0.557-2.312,0.574-3.621c-0.017-1.309-0.208-2.516-0.574-3.621c-0.366-1.105-0.884-2.057-1.556-2.856
		c-0.672-0.799-1.492-1.423-2.461-1.874c-0.969-0.45-2.065-0.676-3.289-0.676c-1.224,0-2.321,0.226-3.29,0.676
		c-0.969,0.451-1.794,1.075-2.474,1.874c-0.68,0.799-1.198,1.751-1.555,2.856C131.214,130.44,131.027,131.647,131.011,132.956z"/>
	<path d="M149.447,123.852h0.765l12.444,17.569h0.051v-17.569h0.51v18.207h-0.765l-12.444-17.569h-0.051v17.569h-0.51V123.852z"/>
</g>
<g>
	<path d="M96.951,46.064h-0.51V27.857h7.446c1.887,0,3.277,0.383,4.169,1.148c0.893,0.765,1.355,1.938,1.39,3.519
		c0.034,1.208-0.289,2.219-0.969,3.035c-0.68,0.816-1.658,1.369-2.933,1.657v0.051c0.765,0.102,1.385,0.285,1.861,0.548
		c0.476,0.264,0.842,0.608,1.097,1.033s0.425,0.927,0.51,1.504c0.085,0.578,0.127,1.233,0.127,1.963
		c0,0.272,0.008,0.595,0.026,0.969c0.017,0.374,0.042,0.748,0.076,1.122c0.034,0.375,0.077,0.714,0.127,1.02
		c0.051,0.306,0.119,0.519,0.204,0.638h-0.561c-0.085-0.187-0.149-0.438-0.191-0.752c-0.043-0.314-0.081-0.65-0.115-1.007
		c-0.035-0.357-0.056-0.718-0.064-1.084c-0.009-0.365-0.013-0.692-0.013-0.982c0-0.748-0.056-1.415-0.166-2.001
		s-0.335-1.08-0.676-1.479c-0.34-0.399-0.829-0.705-1.466-0.918c-0.638-0.212-1.475-0.319-2.512-0.319h-6.859V46.064z
		 M96.951,37.012h6.808c0.663,0,1.309-0.085,1.938-0.255c0.629-0.169,1.186-0.441,1.67-0.816c0.484-0.374,0.867-0.845,1.147-1.415
		c0.28-0.569,0.421-1.253,0.421-2.053c-0.018-1.292-0.408-2.299-1.173-3.022c-0.765-0.722-2.014-1.083-3.749-1.083h-7.063V37.012z"
		/>
	<path d="M112.531,45.554h11.679v0.51h-12.189V27.857h12.087v0.51h-11.577v7.956h10.888v0.51h-10.888V45.554z"/>
	<path d="M137.877,32.957c-0.035-0.935-0.208-1.721-0.523-2.358c-0.315-0.638-0.731-1.152-1.25-1.543s-1.135-0.676-1.849-0.854
		c-0.714-0.179-1.479-0.268-2.295-0.268c-0.646,0-1.305,0.064-1.977,0.191s-1.284,0.353-1.836,0.676
		c-0.552,0.323-1.007,0.752-1.364,1.288c-0.357,0.536-0.535,1.211-0.535,2.027s0.182,1.471,0.548,1.963
		c0.365,0.493,0.841,0.893,1.428,1.198c0.586,0.306,1.253,0.544,2.002,0.714c0.748,0.17,1.513,0.349,2.295,0.535
		c0.85,0.221,1.653,0.43,2.41,0.625c0.756,0.196,1.415,0.468,1.976,0.816c0.561,0.349,1.007,0.803,1.339,1.364
		s0.497,1.318,0.497,2.27c0,0.867-0.187,1.606-0.561,2.218c-0.374,0.612-0.867,1.118-1.479,1.518
		c-0.612,0.399-1.3,0.693-2.065,0.879c-0.765,0.187-1.539,0.281-2.32,0.281c-1.037,0-1.993-0.124-2.869-0.37
		c-0.876-0.247-1.632-0.629-2.27-1.147c-0.638-0.519-1.131-1.186-1.479-2.002c-0.349-0.816-0.514-1.802-0.497-2.958h0.51
		c0,1.088,0.162,2.011,0.484,2.767c0.323,0.757,0.778,1.373,1.364,1.849c0.586,0.477,1.284,0.821,2.091,1.033
		c0.807,0.212,1.695,0.318,2.665,0.318c0.714,0,1.423-0.081,2.129-0.242c0.705-0.161,1.338-0.42,1.899-0.778
		c0.561-0.357,1.016-0.816,1.364-1.377c0.348-0.561,0.523-1.232,0.523-2.014c0-0.918-0.2-1.645-0.599-2.18
		c-0.4-0.536-0.91-0.96-1.53-1.275c-0.621-0.314-1.309-0.552-2.065-0.714c-0.757-0.161-1.483-0.327-2.18-0.497
		c-0.749-0.17-1.483-0.348-2.206-0.536c-0.723-0.187-1.377-0.446-1.964-0.778c-0.586-0.332-1.058-0.769-1.415-1.313
		s-0.536-1.266-0.536-2.167c0-0.901,0.187-1.653,0.561-2.257c0.374-0.603,0.858-1.083,1.454-1.441
		c0.595-0.357,1.262-0.612,2.001-0.765c0.74-0.153,1.475-0.229,2.206-0.229c0.884,0,1.708,0.098,2.473,0.293
		c0.765,0.196,1.432,0.51,2.002,0.944c0.569,0.433,1.024,1.003,1.364,1.708c0.34,0.706,0.536,1.568,0.586,2.588H137.877z"/>
	<path d="M141.804,45.554h11.679v0.51h-12.189V27.857h12.087v0.51h-11.577v7.956h10.888v0.51h-10.888V45.554z"/>
	<path d="M156.313,40.071l-2.423,5.993h-0.586l7.395-18.207h0.663l7.191,18.207h-0.561l-2.397-5.993H156.313z M165.391,39.562
		l-4.335-11.194h-0.051l-4.488,11.194H165.391z"/>
	<path d="M182.501,27.857h0.51v11.424c0,2.431-0.574,4.242-1.721,5.431c-1.147,1.19-2.801,1.785-4.959,1.785
		c-2.159,0-3.813-0.595-4.96-1.785c-1.147-1.189-1.721-3-1.721-5.431V27.857h0.51v11.424c0,2.176,0.505,3.837,1.517,4.985
		c1.011,1.147,2.563,1.721,4.654,1.721c2.091,0,3.642-0.574,4.653-1.721s1.518-2.809,1.518-4.985V27.857z"/>
	<path d="M183.955,28.367v-0.51h13.617v0.51h-6.554v17.697h-0.51V28.367H183.955z"/>
	<path d="M197.954,40.071l-2.423,5.993h-0.586l7.395-18.207h0.663l7.191,18.207h-0.561l-2.397-5.993H197.954z M207.032,39.562
		l-4.335-11.194h-0.051l-4.488,11.194H207.032z"/>
	<path d="M219.527,38.057v-0.51h7.574v8.542h-0.51V41.55h-0.051c-0.238,0.765-0.583,1.454-1.033,2.066
		c-0.451,0.612-0.991,1.13-1.62,1.555c-0.629,0.425-1.334,0.752-2.116,0.982c-0.782,0.229-1.615,0.344-2.499,0.344
		c-1.411,0-2.648-0.251-3.71-0.752c-1.063-0.501-1.951-1.186-2.665-2.053c-0.714-0.867-1.254-1.878-1.619-3.034
		c-0.366-1.156-0.548-2.388-0.548-3.698c0-1.326,0.195-2.571,0.586-3.735s0.952-2.176,1.683-3.035s1.623-1.534,2.677-2.027
		c1.054-0.493,2.252-0.739,3.596-0.739c1.02,0,1.959,0.145,2.818,0.433c0.858,0.29,1.615,0.702,2.27,1.237
		c0.654,0.536,1.189,1.178,1.606,1.925c0.416,0.749,0.701,1.59,0.854,2.524h-0.51c-0.153-0.85-0.43-1.619-0.829-2.308
		s-0.901-1.279-1.504-1.772s-1.305-0.871-2.104-1.135c-0.799-0.264-1.667-0.396-2.601-0.396c-1.275,0-2.41,0.238-3.404,0.714
		c-0.995,0.477-1.836,1.122-2.524,1.938c-0.688,0.816-1.211,1.772-1.568,2.869c-0.357,1.096-0.535,2.265-0.535,3.506
		c0,1.241,0.169,2.41,0.51,3.506c0.34,1.097,0.85,2.053,1.53,2.869c0.68,0.816,1.526,1.462,2.538,1.938
		c1.011,0.476,2.188,0.714,3.532,0.714c1.003,0,1.946-0.174,2.83-0.522c0.884-0.348,1.653-0.833,2.308-1.454
		c0.654-0.62,1.168-1.36,1.542-2.218s0.561-1.789,0.561-2.792v-0.943H219.527z"/>
	<path d="M230.211,45.554h11.679v0.51h-12.189V27.857h12.087v0.51h-11.577v7.956h10.888v0.51h-10.888V45.554z"/>
</g>
<g>
	<path d="M593.945,38.924c-0.153,1.105-0.443,2.121-0.867,3.047c-0.426,0.927-0.974,1.726-1.645,2.397
		c-0.672,0.672-1.471,1.194-2.397,1.568c-0.927,0.374-1.96,0.561-3.099,0.561c-1.207,0-2.316-0.234-3.327-0.701
		c-1.012-0.468-1.884-1.118-2.614-1.951s-1.297-1.823-1.695-2.971c-0.4-1.148-0.6-2.401-0.6-3.761c0-1.105,0.157-2.231,0.473-3.379
		c0.314-1.147,0.811-2.188,1.491-3.124c0.68-0.935,1.563-1.7,2.651-2.295s2.406-0.893,3.953-0.893c1.207,0,2.261,0.2,3.162,0.599
		c0.9,0.399,1.652,0.901,2.256,1.504c0.604,0.604,1.059,1.246,1.365,1.925c0.306,0.68,0.467,1.3,0.484,1.861h-0.51
		c-0.052-0.663-0.247-1.313-0.587-1.951c-0.341-0.637-0.804-1.211-1.39-1.721c-0.587-0.51-1.284-0.922-2.092-1.237
		c-0.807-0.314-1.704-0.472-2.689-0.472c-1.004,0-1.896,0.14-2.678,0.421c-0.782,0.28-1.471,0.655-2.065,1.122
		c-0.595,0.468-1.104,1.011-1.53,1.632c-0.425,0.621-0.77,1.271-1.032,1.951c-0.265,0.68-0.455,1.369-0.573,2.065
		c-0.119,0.697-0.18,1.36-0.18,1.989c0,1.156,0.17,2.269,0.511,3.34c0.34,1.071,0.841,2.014,1.505,2.831
		c0.662,0.816,1.475,1.47,2.435,1.963s2.053,0.739,3.276,0.739c1.088,0,2.066-0.178,2.933-0.535c0.867-0.357,1.615-0.85,2.244-1.479
		s1.139-1.377,1.53-2.244c0.391-0.867,0.654-1.802,0.79-2.805H593.945z"/>
	<path d="M595.348,36.96c0-1.292,0.182-2.516,0.548-3.672c0.365-1.156,0.901-2.167,1.606-3.035c0.705-0.867,1.581-1.555,2.627-2.065
		c1.045-0.51,2.248-0.765,3.607-0.765c1.36,0,2.563,0.255,3.608,0.765c1.046,0.51,1.921,1.199,2.626,2.065
		c0.706,0.867,1.241,1.879,1.607,3.035c0.365,1.156,0.548,2.38,0.548,3.672c0,1.292-0.183,2.516-0.548,3.672
		c-0.366,1.156-0.901,2.167-1.607,3.035c-0.705,0.867-1.58,1.556-2.626,2.065c-1.046,0.51-2.248,0.765-3.608,0.765
		c-1.359,0-2.563-0.255-3.607-0.765c-1.046-0.51-1.922-1.198-2.627-2.065s-1.241-1.878-1.606-3.035
		C595.529,39.477,595.348,38.253,595.348,36.96z M595.857,36.96c0.017,1.31,0.203,2.516,0.561,3.621
		c0.357,1.105,0.875,2.057,1.556,2.856c0.68,0.799,1.505,1.424,2.474,1.874c0.969,0.451,2.065,0.676,3.289,0.676
		c1.225,0,2.32-0.225,3.289-0.676c0.97-0.45,1.789-1.075,2.461-1.874c0.672-0.799,1.19-1.75,1.557-2.856
		c0.365-1.105,0.557-2.312,0.573-3.621c-0.017-1.309-0.208-2.516-0.573-3.621c-0.366-1.105-0.885-2.057-1.557-2.856
		c-0.672-0.799-1.491-1.423-2.461-1.874c-0.969-0.45-2.064-0.676-3.289-0.676c-1.224,0-2.32,0.226-3.289,0.676
		c-0.969,0.451-1.794,1.075-2.474,1.874c-0.681,0.799-1.198,1.751-1.556,2.856S595.874,35.652,595.857,36.96z"/>
	<path d="M630.588,27.857h0.842v18.207h-0.51V28.495h-0.052l-7.726,17.569h-0.562l-7.727-17.569h-0.051v17.569h-0.511V27.857h0.842
		l7.701,17.544h0.051L630.588,27.857z"/>
	<path d="M650.478,27.857h0.841v18.207h-0.51V28.495h-0.051l-7.727,17.569h-0.561l-7.727-17.569h-0.051v17.569h-0.51V27.857h0.841
		l7.701,17.544h0.051L650.478,27.857z"/>
	<path d="M654.583,45.554h11.679v0.51h-12.189V27.857h12.088v0.51h-11.577v7.956h10.888v0.51h-10.888V45.554z"/>
	<path d="M668.275,46.064h-0.51V27.857h7.445c1.888,0,3.277,0.383,4.17,1.148c0.893,0.765,1.355,1.938,1.39,3.519
		c0.034,1.208-0.289,2.219-0.969,3.035c-0.681,0.816-1.657,1.369-2.933,1.657v0.051c0.766,0.102,1.385,0.285,1.861,0.548
		c0.476,0.264,0.842,0.608,1.097,1.033s0.425,0.927,0.51,1.504c0.085,0.578,0.128,1.233,0.128,1.963
		c0,0.272,0.008,0.595,0.025,0.969c0.017,0.374,0.042,0.748,0.076,1.122c0.034,0.375,0.076,0.714,0.127,1.02
		c0.052,0.306,0.119,0.519,0.205,0.638h-0.562c-0.085-0.187-0.149-0.438-0.19-0.752c-0.043-0.314-0.082-0.65-0.115-1.007
		c-0.035-0.357-0.056-0.718-0.064-1.084c-0.008-0.365-0.012-0.692-0.012-0.982c0-0.748-0.057-1.415-0.166-2.001
		c-0.111-0.586-0.336-1.08-0.676-1.479s-0.829-0.705-1.467-0.918c-0.637-0.212-1.475-0.319-2.512-0.319h-6.859V46.064z
		 M668.275,37.012h6.809c0.663,0,1.309-0.085,1.938-0.255c0.629-0.169,1.187-0.441,1.671-0.816c0.484-0.374,0.866-0.845,1.147-1.415
		c0.28-0.569,0.421-1.253,0.421-2.053c-0.018-1.292-0.408-2.299-1.173-3.022c-0.766-0.722-2.015-1.083-3.749-1.083h-7.063V37.012z"
		/>
	<path d="M698.85,38.924c-0.152,1.105-0.442,2.121-0.867,3.047c-0.425,0.927-0.973,1.726-1.645,2.397
		c-0.672,0.672-1.471,1.194-2.396,1.568c-0.928,0.374-1.96,0.561-3.099,0.561c-1.208,0-2.316-0.234-3.327-0.701
		c-1.012-0.468-1.884-1.118-2.614-1.951c-0.731-0.833-1.297-1.823-1.696-2.971c-0.399-1.148-0.599-2.401-0.599-3.761
		c0-1.105,0.157-2.231,0.472-3.379s0.812-2.188,1.492-3.124c0.68-0.935,1.563-1.7,2.651-2.295s2.405-0.893,3.952-0.893
		c1.207,0,2.262,0.2,3.162,0.599s1.653,0.901,2.257,1.504c0.604,0.604,1.058,1.246,1.364,1.925c0.307,0.68,0.467,1.3,0.484,1.861
		h-0.51c-0.051-0.663-0.246-1.313-0.586-1.951c-0.341-0.637-0.804-1.211-1.391-1.721c-0.586-0.51-1.283-0.922-2.091-1.237
		c-0.808-0.314-1.704-0.472-2.69-0.472c-1.003,0-1.896,0.14-2.678,0.421c-0.781,0.28-1.471,0.655-2.064,1.122
		c-0.596,0.468-1.105,1.011-1.53,1.632s-0.77,1.271-1.032,1.951c-0.265,0.68-0.455,1.369-0.574,2.065
		c-0.119,0.697-0.179,1.36-0.179,1.989c0,1.156,0.17,2.269,0.511,3.34c0.34,1.071,0.841,2.014,1.504,2.831
		c0.663,0.816,1.475,1.47,2.436,1.963c0.96,0.493,2.053,0.739,3.276,0.739c1.087,0,2.065-0.178,2.933-0.535s1.615-0.85,2.244-1.479
		s1.139-1.377,1.529-2.244s0.654-1.802,0.791-2.805H698.85z"/>
	<path d="M701.323,45.554h11.679v0.51h-12.189V27.857H712.9v0.51h-11.577v7.956h10.888v0.51h-10.888V45.554z"/>
</g>
<g>
	<path d="M640.441,123.857h6.375c0.9,0,1.814,0.141,2.74,0.421c0.927,0.281,1.76,0.765,2.5,1.454
		c0.738,0.688,1.342,1.619,1.811,2.792c0.467,1.173,0.701,2.652,0.701,4.437c0,1.632-0.238,3.026-0.715,4.182
		c-0.477,1.156-1.113,2.095-1.912,2.818s-1.713,1.253-2.741,1.594c-1.028,0.34-2.087,0.51-3.175,0.51h-5.584V123.857z
		 M640.951,141.554h5.201c1.071,0,2.087-0.174,3.048-0.523c0.96-0.348,1.802-0.875,2.524-1.581c0.723-0.705,1.291-1.598,1.709-2.677
		c0.416-1.08,0.624-2.35,0.624-3.813c0-1.7-0.212-3.102-0.638-4.208c-0.425-1.104-0.986-1.984-1.683-2.639
		c-0.697-0.654-1.483-1.109-2.358-1.364c-0.876-0.255-1.772-0.382-2.69-0.382h-5.737V141.554z"/>
	<path d="M656.965,123.857h0.51v18.207h-0.51V123.857z"/>
	<path d="M672.393,128.957c-0.035-0.935-0.209-1.721-0.523-2.358c-0.314-0.638-0.73-1.152-1.25-1.543
		c-0.518-0.391-1.135-0.676-1.848-0.854c-0.715-0.179-1.479-0.268-2.295-0.268c-0.646,0-1.306,0.064-1.977,0.191
		c-0.672,0.127-1.284,0.353-1.836,0.676c-0.553,0.323-1.008,0.752-1.365,1.288c-0.356,0.536-0.535,1.211-0.535,2.027
		s0.183,1.471,0.549,1.963c0.365,0.493,0.842,0.893,1.428,1.198c0.586,0.306,1.254,0.544,2.002,0.714s1.513,0.349,2.295,0.535
		c0.85,0.221,1.652,0.43,2.41,0.625c0.756,0.196,1.414,0.468,1.976,0.816c0.562,0.349,1.007,0.803,1.339,1.364
		s0.497,1.318,0.497,2.27c0,0.867-0.187,1.606-0.562,2.218c-0.373,0.612-0.866,1.118-1.479,1.518
		c-0.611,0.399-1.301,0.693-2.065,0.879c-0.765,0.187-1.538,0.281-2.32,0.281c-1.037,0-1.993-0.124-2.868-0.37
		c-0.877-0.247-1.633-0.629-2.27-1.147c-0.639-0.519-1.131-1.186-1.479-2.002s-0.515-1.802-0.497-2.958h0.51
		c0,1.088,0.162,2.011,0.484,2.767c0.322,0.757,0.777,1.373,1.364,1.849c0.587,0.477,1.284,0.821,2.091,1.033
		c0.808,0.212,1.695,0.318,2.665,0.318c0.714,0,1.423-0.081,2.13-0.242c0.705-0.161,1.338-0.42,1.898-0.778
		c0.562-0.357,1.016-0.816,1.365-1.377c0.348-0.561,0.522-1.232,0.522-2.014c0-0.918-0.2-1.645-0.599-2.18
		c-0.4-0.536-0.91-0.96-1.531-1.275c-0.62-0.314-1.309-0.552-2.064-0.714c-0.758-0.161-1.484-0.327-2.181-0.497
		c-0.749-0.17-1.483-0.348-2.206-0.536c-0.723-0.187-1.377-0.446-1.963-0.778c-0.587-0.332-1.059-0.769-1.416-1.313
		c-0.356-0.544-0.535-1.266-0.535-2.167c0-0.901,0.188-1.653,0.561-2.257c0.375-0.603,0.859-1.083,1.454-1.441
		c0.595-0.357,1.263-0.612,2.001-0.765c0.74-0.153,1.475-0.229,2.207-0.229c0.883,0,1.708,0.098,2.473,0.293
		c0.766,0.196,1.432,0.51,2.002,0.944c0.569,0.433,1.023,1.003,1.364,1.708c0.34,0.706,0.536,1.568,0.587,2.588H672.393z"/>
	<path d="M691.313,134.924c-0.152,1.105-0.442,2.121-0.867,3.047c-0.425,0.927-0.973,1.726-1.645,2.397
		c-0.672,0.672-1.471,1.194-2.396,1.568c-0.928,0.374-1.96,0.561-3.099,0.561c-1.208,0-2.316-0.234-3.327-0.701
		c-1.012-0.468-1.884-1.118-2.614-1.951c-0.731-0.833-1.297-1.823-1.696-2.971c-0.399-1.148-0.599-2.401-0.599-3.761
		c0-1.105,0.157-2.231,0.472-3.379s0.812-2.188,1.492-3.124c0.68-0.935,1.563-1.7,2.651-2.295s2.405-0.893,3.952-0.893
		c1.207,0,2.262,0.2,3.162,0.599s1.653,0.901,2.257,1.504c0.604,0.604,1.058,1.246,1.364,1.925c0.307,0.68,0.467,1.3,0.484,1.861
		h-0.51c-0.051-0.663-0.246-1.313-0.586-1.951c-0.341-0.637-0.804-1.211-1.391-1.721c-0.586-0.51-1.283-0.922-2.091-1.237
		c-0.808-0.314-1.704-0.472-2.69-0.472c-1.003,0-1.896,0.14-2.678,0.421c-0.781,0.28-1.471,0.655-2.064,1.122
		c-0.596,0.468-1.105,1.011-1.53,1.632s-0.77,1.271-1.032,1.951c-0.265,0.68-0.455,1.369-0.574,2.065
		c-0.119,0.697-0.179,1.36-0.179,1.989c0,1.156,0.17,2.269,0.511,3.34c0.34,1.071,0.841,2.014,1.504,2.831
		c0.663,0.816,1.475,1.47,2.436,1.963c0.96,0.493,2.053,0.739,3.276,0.739c1.087,0,2.065-0.178,2.933-0.535s1.615-0.85,2.244-1.479
		s1.139-1.377,1.529-2.244s0.654-1.802,0.791-2.805H691.313z"/>
	<path d="M706.128,123.857h0.51v11.424c0,2.431-0.573,4.242-1.722,5.431c-1.146,1.19-2.801,1.785-4.959,1.785
		c-2.159,0-3.813-0.595-4.96-1.785c-1.147-1.189-1.722-3-1.722-5.431v-11.424h0.511v11.424c0,2.176,0.505,3.837,1.517,4.985
		s2.563,1.721,4.654,1.721c2.091,0,3.643-0.574,4.653-1.721s1.518-2.809,1.518-4.985V123.857z"/>
	<path d="M721.555,128.957c-0.035-0.935-0.209-1.721-0.523-2.358c-0.314-0.638-0.73-1.152-1.249-1.543s-1.135-0.676-1.849-0.854
		c-0.714-0.179-1.479-0.268-2.295-0.268c-0.646,0-1.305,0.064-1.977,0.191s-1.283,0.353-1.836,0.676
		c-0.553,0.323-1.007,0.752-1.364,1.288c-0.356,0.536-0.535,1.211-0.535,2.027s0.183,1.471,0.548,1.963
		c0.365,0.493,0.842,0.893,1.428,1.198c0.587,0.306,1.254,0.544,2.002,0.714s1.514,0.349,2.295,0.535
		c0.85,0.221,1.653,0.43,2.41,0.625c0.756,0.196,1.415,0.468,1.977,0.816c0.561,0.349,1.007,0.803,1.338,1.364
		c0.332,0.561,0.498,1.318,0.498,2.27c0,0.867-0.188,1.606-0.562,2.218c-0.374,0.612-0.866,1.118-1.479,1.518
		c-0.611,0.399-1.3,0.693-2.064,0.879c-0.766,0.187-1.539,0.281-2.32,0.281c-1.037,0-1.994-0.124-2.869-0.37
		c-0.876-0.247-1.633-0.629-2.27-1.147c-0.638-0.519-1.131-1.186-1.479-2.002c-0.35-0.816-0.515-1.802-0.498-2.958h0.51
		c0,1.088,0.162,2.011,0.484,2.767c0.323,0.757,0.778,1.373,1.365,1.849c0.586,0.477,1.283,0.821,2.091,1.033
		s1.695,0.318,2.665,0.318c0.713,0,1.423-0.081,2.129-0.242c0.705-0.161,1.338-0.42,1.899-0.778
		c0.562-0.357,1.016-0.816,1.364-1.377c0.348-0.561,0.523-1.232,0.523-2.014c0-0.918-0.201-1.645-0.6-2.18
		c-0.4-0.536-0.91-0.96-1.53-1.275c-0.62-0.314-1.31-0.552-2.065-0.714c-0.757-0.161-1.483-0.327-2.18-0.497
		c-0.749-0.17-1.484-0.348-2.206-0.536c-0.724-0.187-1.377-0.446-1.964-0.778c-0.586-0.332-1.059-0.769-1.415-1.313
		s-0.536-1.266-0.536-2.167c0-0.901,0.188-1.653,0.562-2.257c0.374-0.603,0.858-1.083,1.454-1.441
		c0.594-0.357,1.262-0.612,2.001-0.765c0.739-0.153,1.475-0.229,2.206-0.229c0.884,0,1.709,0.098,2.473,0.293
		c0.766,0.196,1.433,0.51,2.002,0.944c0.57,0.433,1.024,1.003,1.365,1.708c0.34,0.706,0.535,1.568,0.586,2.588H721.555z"/>
	<path d="M737.135,128.957c-0.035-0.935-0.209-1.721-0.523-2.358c-0.314-0.638-0.73-1.152-1.249-1.543s-1.135-0.676-1.849-0.854
		c-0.714-0.179-1.479-0.268-2.295-0.268c-0.646,0-1.305,0.064-1.977,0.191s-1.283,0.353-1.836,0.676
		c-0.553,0.323-1.007,0.752-1.364,1.288c-0.356,0.536-0.535,1.211-0.535,2.027s0.183,1.471,0.548,1.963
		c0.365,0.493,0.842,0.893,1.428,1.198c0.587,0.306,1.254,0.544,2.002,0.714s1.514,0.349,2.295,0.535
		c0.85,0.221,1.653,0.43,2.41,0.625c0.756,0.196,1.415,0.468,1.977,0.816c0.561,0.349,1.007,0.803,1.338,1.364
		c0.332,0.561,0.498,1.318,0.498,2.27c0,0.867-0.188,1.606-0.562,2.218c-0.374,0.612-0.866,1.118-1.479,1.518
		c-0.611,0.399-1.3,0.693-2.064,0.879c-0.766,0.187-1.539,0.281-2.32,0.281c-1.037,0-1.994-0.124-2.869-0.37
		c-0.876-0.247-1.633-0.629-2.27-1.147c-0.638-0.519-1.131-1.186-1.479-2.002c-0.35-0.816-0.515-1.802-0.498-2.958h0.51
		c0,1.088,0.162,2.011,0.484,2.767c0.323,0.757,0.778,1.373,1.365,1.849c0.586,0.477,1.283,0.821,2.091,1.033
		s1.695,0.318,2.665,0.318c0.713,0,1.423-0.081,2.129-0.242c0.705-0.161,1.338-0.42,1.899-0.778
		c0.562-0.357,1.016-0.816,1.364-1.377c0.348-0.561,0.523-1.232,0.523-2.014c0-0.918-0.201-1.645-0.6-2.18
		c-0.4-0.536-0.91-0.96-1.53-1.275c-0.62-0.314-1.31-0.552-2.065-0.714c-0.757-0.161-1.483-0.327-2.18-0.497
		c-0.749-0.17-1.484-0.348-2.206-0.536c-0.724-0.187-1.377-0.446-1.964-0.778c-0.586-0.332-1.059-0.769-1.415-1.313
		s-0.536-1.266-0.536-2.167c0-0.901,0.188-1.653,0.562-2.257c0.374-0.603,0.858-1.083,1.454-1.441
		c0.594-0.357,1.262-0.612,2.001-0.765c0.739-0.153,1.475-0.229,2.206-0.229c0.884,0,1.709,0.098,2.473,0.293
		c0.766,0.196,1.433,0.51,2.002,0.944c0.57,0.433,1.024,1.003,1.365,1.708c0.34,0.706,0.535,1.568,0.586,2.588H737.135z"/>
	<path d="M740.551,123.857h0.511v18.207h-0.511V123.857z"/>
	<path d="M743.254,132.96c0-1.292,0.183-2.516,0.549-3.672c0.365-1.156,0.9-2.167,1.605-3.035c0.705-0.867,1.582-1.555,2.627-2.065
		c1.045-0.51,2.248-0.765,3.608-0.765s2.563,0.255,3.608,0.765c1.045,0.51,1.92,1.199,2.626,2.065
		c0.706,0.867,1.241,1.879,1.606,3.035c0.365,1.156,0.549,2.38,0.549,3.672c0,1.292-0.184,2.516-0.549,3.672
		c-0.365,1.156-0.9,2.167-1.606,3.035s-1.581,1.556-2.626,2.065c-1.046,0.51-2.248,0.765-3.608,0.765s-2.563-0.255-3.608-0.765
		c-1.045-0.51-1.922-1.198-2.627-2.065s-1.24-1.878-1.605-3.035C743.437,135.477,743.254,134.253,743.254,132.96z M743.764,132.96
		c0.018,1.31,0.204,2.516,0.562,3.621c0.356,1.105,0.875,2.057,1.556,2.856c0.68,0.799,1.504,1.424,2.473,1.874
		c0.969,0.451,2.066,0.676,3.29,0.676s2.32-0.225,3.289-0.676c0.97-0.45,1.789-1.075,2.461-1.874c0.671-0.799,1.19-1.75,1.556-2.856
		c0.365-1.105,0.557-2.312,0.574-3.621c-0.018-1.309-0.209-2.516-0.574-3.621s-0.885-2.057-1.556-2.856
		c-0.672-0.799-1.491-1.423-2.461-1.874c-0.969-0.45-2.065-0.676-3.289-0.676s-2.321,0.226-3.29,0.676
		c-0.969,0.451-1.793,1.075-2.473,1.874c-0.681,0.799-1.199,1.751-1.556,2.856C743.968,130.445,743.781,131.652,743.764,132.96z"/>
	<path d="M762.2,123.857h0.765l12.444,17.569h0.051v-17.569h0.511v18.207h-0.766l-12.443-17.569h-0.051v17.569H762.2V123.857z"/>
</g>
<g>
	<path d="M655.951,264.064h-0.51v-18.207h7.369c1.75,0,3.111,0.417,4.08,1.25c0.969,0.833,1.453,2.074,1.453,3.723
		c0,0.799-0.145,1.509-0.434,2.129s-0.688,1.139-1.198,1.555c-0.511,0.417-1.122,0.731-1.836,0.944s-1.487,0.318-2.321,0.318h-6.604
		V264.064z M655.951,255.267h6.859c0.714,0,1.377-0.098,1.988-0.293c0.612-0.195,1.144-0.484,1.594-0.867
		c0.451-0.383,0.804-0.846,1.059-1.39c0.256-0.544,0.383-1.173,0.383-1.887c0-1.445-0.417-2.55-1.25-3.315s-2.091-1.147-3.773-1.147
		h-6.859V255.267z"/>
	<path d="M670.002,258.071l-2.424,5.993h-0.586l7.395-18.207h0.664l7.19,18.207h-0.562l-2.396-5.993H670.002z M679.079,257.562
		l-4.335-11.194h-0.051l-4.488,11.194H679.079z"/>
	<path d="M683.848,264.064h-0.51v-18.207h7.445c1.887,0,3.277,0.383,4.17,1.148c0.893,0.765,1.355,1.938,1.389,3.519
		c0.034,1.208-0.289,2.219-0.969,3.035s-1.657,1.369-2.932,1.657v0.051c0.765,0.102,1.385,0.285,1.861,0.548
		c0.475,0.264,0.842,0.608,1.096,1.033c0.256,0.425,0.426,0.927,0.51,1.504c0.086,0.578,0.128,1.233,0.128,1.963
		c0,0.272,0.009,0.595,0.026,0.969c0.016,0.374,0.041,0.748,0.076,1.122c0.033,0.375,0.076,0.714,0.127,1.02
		c0.051,0.306,0.119,0.519,0.204,0.638h-0.562c-0.084-0.187-0.148-0.438-0.19-0.752c-0.043-0.314-0.081-0.65-0.114-1.007
		c-0.035-0.357-0.057-0.718-0.064-1.084c-0.009-0.365-0.013-0.692-0.013-0.982c0-0.748-0.056-1.415-0.166-2.001
		s-0.335-1.08-0.676-1.479c-0.34-0.399-0.829-0.705-1.466-0.918c-0.638-0.212-1.475-0.319-2.512-0.319h-6.859V264.064z
		 M683.848,255.012h6.809c0.662,0,1.309-0.085,1.938-0.255c0.629-0.169,1.186-0.441,1.67-0.816c0.484-0.374,0.867-0.845,1.148-1.415
		c0.279-0.569,0.42-1.253,0.42-2.053c-0.018-1.292-0.408-2.299-1.173-3.022c-0.765-0.722-2.015-1.083-3.749-1.083h-7.063V255.012z"
		/>
	<path d="M697.107,246.367v-0.51h13.617v0.51h-6.555v17.697h-0.51v-17.697H697.107z"/>
	<path d="M711.107,258.071l-2.424,5.993h-0.586l7.395-18.207h0.664l7.19,18.207h-0.562l-2.396-5.993H711.107z M720.185,257.562
		l-4.335-11.194h-0.051l-4.488,11.194H720.185z"/>
	<path d="M732.68,256.057v-0.51h7.573v8.542h-0.511v-4.539h-0.051c-0.238,0.765-0.582,1.454-1.032,2.066
		c-0.45,0.612-0.991,1.13-1.62,1.555c-0.629,0.425-1.334,0.752-2.115,0.982c-0.783,0.229-1.615,0.344-2.5,0.344
		c-1.41,0-2.647-0.251-3.71-0.752c-1.063-0.501-1.95-1.186-2.665-2.053c-0.713-0.867-1.254-1.878-1.619-3.034
		s-0.548-2.388-0.548-3.698c0-1.326,0.195-2.571,0.587-3.735c0.391-1.165,0.951-2.176,1.683-3.035s1.623-1.534,2.677-2.027
		c1.055-0.493,2.253-0.739,3.596-0.739c1.021,0,1.959,0.145,2.818,0.433c0.857,0.29,1.615,0.702,2.27,1.237
		c0.654,0.536,1.189,1.178,1.606,1.925c0.416,0.749,0.701,1.59,0.854,2.524h-0.51c-0.154-0.85-0.43-1.619-0.83-2.308
		c-0.398-0.688-0.9-1.279-1.504-1.772s-1.305-0.871-2.104-1.135s-1.666-0.396-2.602-0.396c-1.274,0-2.409,0.238-3.404,0.714
		c-0.994,0.477-1.836,1.122-2.523,1.938c-0.689,0.816-1.212,1.772-1.568,2.869c-0.357,1.096-0.535,2.265-0.535,3.506
		c0,1.241,0.169,2.41,0.51,3.506c0.34,1.097,0.85,2.053,1.529,2.869s1.525,1.462,2.537,1.938c1.012,0.476,2.189,0.714,3.532,0.714
		c1.003,0,1.946-0.174,2.83-0.522c0.884-0.348,1.653-0.833,2.308-1.454c0.654-0.62,1.169-1.36,1.543-2.218s0.561-1.789,0.561-2.792
		v-0.943H732.68z"/>
	<path d="M743.363,263.554h11.68v0.51h-12.189v-18.207h12.087v0.51h-11.577v7.956h10.889v0.51h-10.889V263.554z"/>
</g>
<image overflow="visible" width="1280" height="472" xlink:href="Habbo-logo.png"  transform="matrix(0.0383 0 0 0.0383 211.4351 277.9424)">
</image>
<image overflow="visible" width="367" height="184" xlink:href="zynga-logo.jpeg"  transform="matrix(0.1304 0 0 0.1304 187.5801 245.0054)">
</image>
<image overflow="visible" width="70" height="69" xlink:href="Gallery.png"  transform="matrix(0.488 0 0 0.488 187.9146 201.3247)">
</image>
<image overflow="visible" width="200" height="200" xlink:href="playfish.png"  transform="matrix(0.1768 0 0 0.1768 250.3086 232.3091)">
</image>
<image overflow="visible" width="101" height="105" xlink:href="playdom-logo-feature.png"  transform="matrix(0.3335 0 0 0.3335 231.6538 195.3203)">
</image>
<image overflow="visible" width="250" height="250" xlink:href="wordpress.png"  transform="matrix(0.144 0 0 0.144 186.3325 112.9995)">
</image>
<image overflow="visible" width="600" height="598" xlink:href="blogger_logo.png"  transform="matrix(0.0523 0 0 0.0523 223.2813 81.6675)">
</image>
<image overflow="visible" width="240" height="240" xlink:href="240px-Tumblr-logo.png"  transform="matrix(0.15 0 0 0.15 225.9985 120.6646)">
</image>
<image overflow="visible" width="1139" height="926" xlink:href="Twitter_logo_blue.png"  transform="matrix(0.0287 0 0 0.0287 265 102)">
</image>
<image overflow="visible" width="500" height="500" xlink:href="500px-Wiki_logo.PNG"  transform="matrix(0.062 0 0 0.062 267.5 140.5)">
</image>
<image overflow="visible" width="1058" height="1058" xlink:href="Wikipedia_logo_silver.png"  transform="matrix(0.0308 0 0 0.0308 214.9995 161)">
</image>
<image overflow="visible" width="2508" height="608" xlink:href="LinkedIn-Logo-2C.png"  transform="matrix(0.0307 0 0 0.0307 299.8345 20.334)">
</image>
<image overflow="visible" width="400" height="300" xlink:href="plaxo4.png"  transform="matrix(0.1582 0 0 0.1582 268.9995 39.917)">
</image>
<image overflow="visible" width="300" height="225" xlink:href="badoo transparent.png"  transform="matrix(0.26 0 0 0.26 321.334 32.25)">
</image>
<image overflow="visible" width="919" height="1024" xlink:href="myspace_logo.png"  transform="matrix(0.0447 0 0 0.0447 345.0884 77.6665)">
</image>
<image overflow="visible" width="1000" height="1088" xlink:href="Viadeo_favicon_300dpi_RGB.png"  transform="matrix(0.058 0 0 0.058 292.9932 65.9995)">
</image>
<image overflow="visible" width="1000" height="439" xlink:href="Groupon_logo.png"  transform="matrix(0.063 0 0 0.063 405 68.8174)">
</image>
<image overflow="visible" width="1280" height="298" xlink:href="Vente_Privée_Logo.svg.png"  transform="matrix(0.0641 0 0 0.0641 414.001 44.4556)">
</image>
<image overflow="visible" width="476" height="68" xlink:href="logo-showroomprive.com_.png"  transform="matrix(0.1766 0 0 0.1766 419.9346 98.9907)">
</image>
<image overflow="visible" width="1150" height="610" xlink:href="Etsy_logo.png"  transform="matrix(0.0377 0 0 0.0377 471.6191 68.9434)">
</image>
<image overflow="visible" width="1100" height="480" xlink:href="EBay_logo.png"  transform="matrix(0.0374 0 0 0.0374 422.874 34)">
</image>
<image overflow="visible" width="257" height="52" xlink:href="img_logo_classic2013.gif"  transform="matrix(0.25 0 0 0.25 428.875 16.5)">
</image>
<image overflow="visible" width="860" height="397" xlink:href="Phpbb3-ccw-logo.png"  transform="matrix(0.0628 0 0 0.0628 518.8223 77)">
</image>
<image overflow="visible" width="969" height="900" xlink:href="msn.png"  transform="matrix(0.0338 0 0 0.0338 505.7461 128.9883)">
</image>
<image overflow="visible" width="800" height="267" xlink:href="reddit-logo.png"  transform="matrix(0.0775 0 0 0.0775 540.833 103.9868)">
</image>
<image overflow="visible" width="1024" height="638" xlink:href="4chan-logo.png"  transform="matrix(0.045 0 0 0.045 552.2236 135)">
</image>
<image overflow="visible" width="400" height="106" xlink:href="intense-debate-comments-blogger.png"  transform="matrix(0.1447 0 0 0.1447 530.4023 168.3335)">
</image>
<image overflow="visible" width="773" height="481" xlink:href="YouTube-logo-full_color.png"  transform="matrix(0.0867 0 0 0.0867 517.001 221.6543)">
</image>
<image overflow="visible" width="2000" height="607" xlink:href="Flickr_logo.png"  transform="matrix(0.0267 0 0 0.0267 537 258.7881)">
</image>
<image overflow="visible" width="550" height="550" xlink:href="Logo-Dailymotion.png"  transform="matrix(0.0556 0 0 0.0556 544 195.666)">
</image>
<image overflow="visible" width="500" height="300" xlink:href="Vimeo_logo.png"  transform="matrix(0.1067 0 0 0.1067 578.333 229)">
</image>
<image overflow="visible" width="1000" height="1000" xlink:href="instagram-logo.png"  transform="matrix(0.0331 0 0 0.0331 585.4063 194.9063)">
</image>
<image overflow="visible" width="360" height="111" xlink:href="Deezer_logo.png"  transform="matrix(0.1667 0 0 0.1667 551 279.25)">
</image>
</svg>
