<?xml version="1.0" encoding="utf-8"?>
<!-- Generator: Adobe Illustrator 16.0.0, SVG Export Plug-In . SVG Version: 6.00 Build 0)  -->
<!DOCTYPE svg PUBLIC "-//W3C//DTD SVG 1.1//EN" "http://www.w3.org/Graphics/SVG/1.1/DTD/svg11.dtd">
<svg version="1.1" id="Calque_1" xmlns="http://www.w3.org/2000/svg" xmlns:xlink="http://www.w3.org/1999/xlink" x="0px" y="0px"
	 width="800px" height="600px" viewBox="0 0 800 600" enable-background="new 0 0 800 600" xml:space="preserve">
<symbol  id="Bloc-notes" viewBox="-31.947 -32 63.894 64">
	<path fill="#12100B" d="M-7.636,21.898v2.074h5.845v-2.074c0-1.098,0.899-2,2-2h0.5c1.1,0,2,0.902,2,2v2.074h5.845v-2.074
		c0-1.098,0.899-2,2-2h0.5c1.1,0,2,0.902,2,2v2.074h1.192l3.807-3.738v-5.98h4v7.66l-6.172,6.059h-2.827V30c0,1.098-0.9,2-2,2h-0.5
		c-1.101,0-2-0.902-2-2v-2.027H2.709V30c0,1.098-0.9,2-2,2h-0.5c-1.101,0-2-0.902-2-2v-2.027h-5.845V30c0,1.098-0.9,2-2,2h-0.5
		c-1.101,0-2-0.902-2-2v-2.027h-5.845V30c0,1.098-0.9,2-2,2h-0.5c-1.101,0-2-0.902-2-2v-2.027h-9.466V-32h17.666l1.002,4h-14.668
		v51.973h5.466v-2.074c0-1.098,0.899-2,2-2h0.5c1.1,0,2,0.902,2,2v2.074h5.845v-2.074c0-1.098,0.899-2,2-2h0.5
		C-8.536,19.898-7.636,20.801-7.636,21.898z"/>
	<path fill="#12100B" d="M30.761,1.594l-6.402,6.402c-1.556,1.559-4.074,1.586-5.597,0.066c-0.001-0.002-0.002-0.004-0.004-0.006
		l-0.001,0.002L-4.586-15.285l-0.47-0.465l-4.041-16.133L7.019-27.84l1.505,1.531l0,0l22.3,22.305h-0.001
		C30.823-4.002,30.825-4.002,30.826-4C32.346-2.48,32.317,0.039,30.761,1.594z M-3.402-17.377l8.811-8.809l-8.272-2.072
		l-2.583,2.719L-3.402-17.377z M7.027-20.734l-4.996,4.996L18.757,0.988l4.995-4.996L7.027-20.734z"/>
</symbol>
<symbol  id="Favoris" viewBox="-32 -30.485 63.999 60.971">
	<g>
		<path fill="#E30613" d="M14.696,30.485c0.904,0,1.868-0.049,2.898-0.149c6.27-0.612,13.52-6.353,14.404-17.353V9.322
			c-0.822-10.528-8.771-23.515-32-39.808C-23.23-14.192-31.178-1.206-32,9.322v3.661c0.883,11,8.133,16.74,14.402,17.353
			c1.03,0.101,1.994,0.149,2.898,0.149c7.244,0,10.72-3.131,14.698-7.872C3.978,27.354,7.451,30.485,14.696,30.485 M14.696,23.485
			c-4.162,0-5.898-1.275-9.335-5.372L0,11.724l-5.363,6.39c-3.438,4.097-5.174,5.372-9.336,5.372c-0.682,0-1.428-0.039-2.219-0.116
			c-2.894-0.283-7.396-3.364-8.082-10.687V9.619c0.852-9.196,9.255-19.77,24.999-31.473c15.745,11.704,24.148,22.277,25,31.473
			v3.063c-0.688,7.323-5.19,10.405-8.085,10.688C16.124,23.446,15.378,23.485,14.696,23.485L14.696,23.485z"/>
	</g>
</symbol>
<symbol  id="Jeux" viewBox="-32 -21.196 64 42.393">
	<path fill="#12100B" d="M26.279,13.699C17.826,27.588,5.09,17.926,5.09,17.926c-0.825-0.625-2.347-1.137-3.382-1.141h-3.411
		c-1.035-0.004-2.558,0.51-3.383,1.135c0,0-12.736,9.664-21.188-4.225c-8.452-13.883-5.047-29.004-5.047-29.004
		c0.599-3.701,2.564-6.172,6.277-5.861c3.701,0.309,11.734,9.969,11.734,9.969c0.663,0.795,2.051,1.445,3.086,1.445l20.447,0.004
		c1.035,0,2.424-0.65,3.086-1.445c0,0,8.034-9.66,11.74-9.969c3.707-0.313,5.68,2.16,6.271,5.861
		C31.319-15.305,34.73-0.188,26.279,13.699z M-6.547,8.135V3.777V3.402h-0.375h-4.375v-4.375v-0.375h-0.375h-4.367h-0.375v0.375
		v4.375h-4.371h-0.376v0.375v4.357V8.51h0.376h4.371v4.379v0.375h0.375h4.367h0.375v-0.375V8.51h4.375h0.375V8.135z M12.429-2.422
		c-1.921,0-3.469,1.551-3.469,3.471s1.547,3.471,3.469,3.471c1.913,0,3.473-1.551,3.473-3.471S14.341-2.422,12.429-2.422z
		 M12.429,7.125c-1.921,0-3.469,1.553-3.469,3.473s1.547,3.469,3.469,3.469c1.913,0,3.473-1.549,3.473-3.469
		S14.341,7.125,12.429,7.125z M21.072,2c-1.921,0-3.469,1.553-3.469,3.473s1.547,3.469,3.469,3.469c1.913,0,3.473-1.549,3.473-3.469
		S22.984,2,21.072,2z"/>
</symbol>
<symbol  id="Musique" viewBox="-30.953 -30.311 61.905 60.622">
	<path fill="#12100B" d="M30.875-15.991h0.057v46.146l0.021,0.155l-0.021-0.003v0.003l-0.048-0.009l-44.898-6.012l-0.003,0v-36.461
		c-1.777,0.568-3.777,0.798-5.862,0.595c-6.597-0.641-11.538-5.337-11.038-10.489c0.501-5.153,6.253-8.813,12.849-8.172
		c6.598,0.641,11.539,5.337,11.038,10.49c-0.009,0.087-0.03,0.171-0.042,0.258h0.057v31.628l30.947,4.52V-8.671
		c-1.777,0.568-3.776,0.798-5.862,0.595C11.472-8.718,6.53-13.414,7.03-18.566c0.501-5.153,6.253-8.813,12.849-8.172
		c6.598,0.641,11.539,5.337,11.038,10.49C30.908-16.161,30.887-16.078,30.875-15.991z"/>
</symbol>
<symbol  id="Photo" viewBox="-33 -26.128 65.999 52.256">
	<path fill="#12100B" d="M24.91,17.682l-4.124,5.772c-1.341,1.692-3.041,2.565-5.195,2.673H9.498
		c-2.156-0.108-3.854-0.981-5.195-2.673l-3.991-5.583H-23c-5.5,0-10-4.5-10-10v-23.999c0-5.5,4.5-10,10-10h45.999
		c5.5,0,10,4.5,10,10V7.871C32.999,12.717,29.504,16.783,24.91,17.682z M8.371,20.548c-0.005,0.01,0.229,0.241,0.518,0.38
		c0.278,0.154,0.604,0.208,0.609,0.202h6.093c0.005,0.008,0.329-0.048,0.609-0.202c0.287-0.14,0.52-0.37,0.518-0.378l1.913-2.679
		H6.459L8.371,20.548z M-2.019-18.044c-7.852,0-14.239,6.388-14.239,14.239c0,7.851,6.388,14.238,14.239,14.238
		c7.851,0,14.238-6.387,14.238-14.238C12.22-11.656,5.832-18.044-2.019-18.044z M-27-16.128V7.871c0,2.168,1.832,4,4,4h6.688
		c-4.258-3.884-6.945-9.459-6.945-15.676c0-6.563,2.979-12.427,7.656-16.323H-23C-25.168-20.128-27-18.296-27-16.128z
		 M26.999-16.128c0-2.168-1.832-4-4-4H11.564c4.676,3.896,7.655,9.76,7.655,16.323c0,6.216-2.688,11.792-6.945,15.676h10.725
		c2.168,0,4-1.832,4-4V-16.128z"/>
</symbol>
<symbol  id="Vidéo" viewBox="-32.283 -32.811 64.566 65.622">
	<path fill="#12100B" d="M31.651-25.703c-0.83-0.076-1.576-0.108-2.246-0.108c-3.374,0.014-4.649,0.824-5.158,1.339
		c-0.514,0.513-0.746,1.243-0.756,2.307c-0.002,0.642,0.107,1.314,0.229,1.826c4.974,5.64,7.996,13.04,7.996,21.15
		c0,17.674-14.327,32-32,32c-17.673,0-32-14.326-32-32c0-17.673,14.327-32,32-32c6.433,0,12.417,1.905,17.434,5.171
		c0.427-1.166,1.091-2.336,2.124-3.381c2.225-2.247,5.631-3.413,10.051-3.413c0.026,0,0.053,0,0.08,0
		c0.908,0,1.862,0.045,2.878,0.137L31.651-25.703z M-17.783-8.188c-4.349,0-7.875,4.028-7.875,8.999s3.525,9,7.875,9
		s7.874-4.029,7.874-9S-13.434-8.188-17.783-8.188z M-0.283-24.563c-4.971,0-8.999,3.525-8.999,7.875s4.028,7.875,8.999,7.875
		s8.999-3.525,8.999-7.875S4.688-24.563-0.283-24.563z M-4.616,0.812c0,2.393,1.939,4.333,4.333,4.333S4.05,3.204,4.05,0.812
		S2.11-3.521-0.283-3.521S-4.616-1.581-4.616,0.812z M-0.283,10.437c-4.971,0-8.999,3.525-8.999,7.875s4.028,7.875,8.999,7.875
		s8.999-3.525,8.999-7.875S4.688,10.437-0.283,10.437z M9.342,0.812c0,4.971,3.525,9,7.875,9s7.875-4.029,7.875-9
		s-3.525-8.999-7.875-8.999S9.342-4.159,9.342,0.812z"/>
</symbol>
<path d="M377.127,323.854c14.4-2.252,25.418-14.71,25.418-29.743c0-16.628-13.48-30.109-30.109-30.109s-30.109,13.48-30.109,30.109
	c0,15.033,11.019,27.491,25.419,29.743c-26.576,1.693-47.412,17.618-47.412,37.021c0,20.533,104.205,20.533,104.205,0
	C424.538,341.472,403.702,325.547,377.127,323.854z"/>
<path fill="none" stroke="#E30613" stroke-width="2" stroke-miterlimit="10" d="M396.089,238.893c-0.508,0-1.013,0.012-1.519,0.02
	c40.726,12.596,70.313,50.548,70.313,95.412c0,54.642-43.89,99.024-98.337,99.837c9.336,2.888,19.258,4.444,29.543,4.444
	c55.148,0,99.855-44.707,99.855-99.855C495.944,283.6,451.237,238.893,396.089,238.893z"/>
<path fill="none" stroke="#E30613" stroke-width="2" stroke-miterlimit="10" d="M460.919,359.914
	c0.129-0.491,0.246-0.982,0.366-1.473c-22.534,36.186-66.763,55.152-110.152,43.747c-52.846-13.893-84.614-67.622-71.557-120.488
	c-5.167,8.294-9.194,17.495-11.809,27.442c-14.02,53.338,17.853,107.94,71.19,121.961
	C392.295,445.123,446.898,413.25,460.919,359.914z"/>
<path fill="none" stroke="#009FE3" stroke-width="2" stroke-miterlimit="10" d="M349.605,402.44c0.507-0.028,1.011-0.066,1.515-0.1
	c-41.338-10.412-72.902-46.734-75.29-91.535c-2.909-54.564,38.556-101.22,92.884-104.93c-9.477-2.387-19.467-3.413-29.738-2.866
	c-55.071,2.936-97.334,49.958-94.4,105.029C247.513,363.111,294.536,405.375,349.605,402.44z"/>
<path fill="none" stroke="#009FE3" stroke-width="2" stroke-miterlimit="10" d="M278.427,285.041
	c-0.103,0.497-0.193,0.994-0.288,1.49c20.576-37.334,63.732-58.628,107.667-49.548c53.511,11.061,88.093,63.023,77.869,116.509
	c4.717-8.559,8.249-17.96,10.331-28.031c11.16-54.009-23.572-106.837-77.58-118C342.419,196.3,289.588,231.034,278.427,285.041z"/>
<text transform="matrix(1 0 0 1 334.3335 358.0547)" fill="#FFFFFF" font-family="'Origin-Light'" font-size="12">Inspirations</text>
<text transform="matrix(1 0 0 1 364.874 309.668)" fill="#FFFFFF" font-family="'Origin-Light'" font-size="30">?</text>
<circle fill="#EA5B0C" cx="656" cy="122.701" r="47.667"/>
<circle fill="#EA5B0C" cx="573.958" cy="475.658" r="69.958"/>
<circle fill="#EA5B0C" cx="102.333" cy="397.366" r="61.667"/>
<rect x="102.333" y="396.367" fill="#EA5B0C" width="184.667" height="2"/>
<rect x="453.333" y="121.701" fill="#EA5B0C" width="184.667" height="2"/>
<rect x="452.333" y="122.034" fill="#EA5B0C" width="2" height="119.786"/>
<rect x="399.041" y="473.658" fill="#EA5B0C" width="184.667" height="2"/>
<rect x="398.041" y="438.605" fill="#EA5B0C" width="2" height="37.053"/>
<use xlink:href="#Favoris"  width="63.999" height="60.971" id="XMLID_1_" x="-32" y="-30.485" transform="matrix(0.3958 0 0 -0.3958 371.9463 327.6299)" overflow="visible"/>
<use xlink:href="#Photo"  width="65.999" height="52.256" x="-33" y="-26.128" transform="matrix(0.3737 0 0 -0.3737 424.5381 318.8652)" overflow="visible"/>
<use xlink:href="#Vidéo"  width="64.566" height="65.622" x="-32.283" y="-32.811" transform="matrix(0.4071 0 0 -0.4071 327.1914 268.0249)" overflow="visible"/>
<use xlink:href="#Musique"  width="61.905" height="60.622" x="-30.953" y="-30.311" transform="matrix(0.3539 0 0 -0.3539 384.8984 389)" overflow="visible"/>
<use xlink:href="#Bloc-notes"  width="63.894" height="64" x="-31.947" y="-32" transform="matrix(0.337 0 0 -0.337 423.0645 279.8091)" overflow="visible"/>
<use xlink:href="#Jeux"  width="64" height="42.393" x="-32" y="-21.196" transform="matrix(0.3867 0 0 -0.3867 306.5742 310.6689)" overflow="visible"/>
<text transform="matrix(1 0 0 1 625 127.0015)" fill="#FFFFFF" font-family="'Origin-Light'" font-size="9">Communication</text>
<text transform="matrix(1 0 0 1 507.001 114.002)" font-family="'Origin-Light'" font-size="12">Publicités</text>
<text transform="matrix(0 1 -1 0 465.4883 131.4336)" font-family="'Origin-Light'" font-size="12">Réseaux sociaux</text>
<text transform="matrix(1 0 0 1 537.667 479.3359)" fill="#FFFFFF" font-family="'Origin-Light'" font-size="16">Recherche</text>
<text transform="matrix(1 0 0 1 421.3975 466.6689)" font-family="'Origin-Light'" font-size="12">Cookies</text>
<text transform="matrix(1 0 0 1 90.0005 405.7002)" fill="#FFFFFF" font-family="'Origin-Light'" font-size="21">Vie</text>
<text transform="matrix(1 0 0 1 199.667 389)" font-family="'Origin-Light'" font-size="12">public</text>
<circle fill="#D60B52" cx="180.575" cy="131.433" r="78.242"/>
<text transform="matrix(1 0 0 1 62.6665 144.001)"><tspan x="0" y="0" font-family="'Origin-Light'" font-size="36">Co</tspan><tspan x="40.644" y="0" fill="#FFFFFF" font-family="'Origin-Light'" font-size="36">nnaitre</tspan><tspan x="148.102" y="0" font-family="'Origin-Light'" font-size="36"> </tspan><tspan x="155.733" y="0" fill="#FFFFFF" font-family="'Origin-Light'" font-size="36">?</tspan></text>
<text transform="matrix(1 0 0 1 144.334 170.3677)" fill="#FFFFFF" font-family="'Origin-Light'" font-size="12">qui suis-je ?</text>
<polygon fill="#FFFFFF" points="228.187,233.48 132.963,233.48 180.575,185.869 "/>
<text transform="matrix(1 0 0 1 129.667 227.3345)" font-family="'Origin-Light'" font-size="12">demande à internet</text>
<polygon fill="#D60B52" points="132.963,237.48 228.188,237.48 180.575,285.092 "/>
<rect x="593.667" y="304.474" fill="#E71D73" width="86.149" height="38.313"/>
<text transform="matrix(1 0 0 1 507.001 332.002)"><tspan x="0" y="0" font-family="'Origin-Light'" font-size="24">Mon éco</tspan><tspan x="86.831" y="0" fill="#FFFFFF" font-family="'Origin-Light'" font-size="24">système</tspan><tspan x="169.149" y="0" font-family="'Origin-Light'" font-size="24"> ?</tspan></text>
<rect x="449.713" y="273.028" fill="#FFFFFF" width="57.288" height="92.307"/>
<polygon fill="#D60B52" points="499.898,271.028 499.898,366.252 452.287,318.641 "/>
<text transform="matrix(1 0 0 1 491.373 241.8193)" fill="#E6332A" font-family="'Origin-Light'" font-size="11">524 amis</text>
<text transform="matrix(1 0 0 1 557.666 261.2861)" fill="#E6332A" font-family="'Origin-Light'" font-size="11">150 followers</text>
<text transform="matrix(1 0 0 1 169.667 452.001)" fill="#D60B52" font-family="'Origin-Light'" font-size="11">3 amis</text>
<text transform="matrix(1 0 0 1 215.667 472.3359)" fill="#D60B52" font-family="'Origin-Light'" font-size="11">0 followers</text>
</svg>
