<?xml version="1.0" encoding="utf-8"?>
<!-- Generator: Adobe Illustrator 15.0.2, SVG Export Plug-In . SVG Version: 6.00 Build 0)  -->
<!DOCTYPE svg PUBLIC "-//W3C//DTD SVG 1.1//EN" "http://www.w3.org/Graphics/SVG/1.1/DTD/svg11.dtd">
<svg version="1.1" id="Calque_1" xmlns="http://www.w3.org/2000/svg" xmlns:xlink="http://www.w3.org/1999/xlink" x="0px" y="0px"
	 width="800px" height="600px" viewBox="0 0 800 600" enable-background="new 0 0 800 600" xml:space="preserve">
<polygon fill="#CCCCCC" points="719.752,0.005 756.293,62.988 805,-0.21 "/>
<polygon fill="#E6E6E6" points="719.752,0.005 620.948,81.652 756.293,62.988 "/>
<polygon fill="#CCCCCC" points="427.551,0.005 199.721,139.74 620.948,81.652 "/>
<polygon fill="#B3B3B3" points="719.752,0.005 427.551,0.005 620.948,81.652 "/>
<polygon fill="#B3B3B3" points="805,-0.21 756.293,62.988 805,56.532 "/>
<polygon fill="#B3B3B3" points="-55,0.005 -55,600.347 -50.877,600.347 471.737,600.347 318.046,411.078 396.084,270.304 
	199.721,139.74 427.551,0.005 "/>
<polygon fill="#CCCCCC" points="-55,0.005 -54.608,161.542 261.559,101.813 "/>
<polygon fill="#F2F2F2" points="-54.608,161.542 91.26,214.854 199.721,139.74 261.559,101.813 "/>
<polygon fill="#E6E6E6" points="17.936,423.996 317.45,410.922 -55,325.501 "/>
<polygon fill="#CCCCCC" points="-55,329.694 317.45,415.115 91.26,219.047 "/>
<polygon fill="#CCCCCC" points="17.936,423.996 -54.807,600.347 -54.077,600.347 318.046,411.078 "/>
<polygon fill="#E6E6E6" points="-55,325.501 90.87,214.854 -55,161.542 "/>
<polygon fill="#B3B3B3" points="199.721,139.74 509.897,246.112 318.046,411.078 689.771,442.191 491.776,600.347 805,600.347 
	805,56.271 "/>
<polygon fill="#CCCCCC" points="492.348,600.347 495.729,600.347 758.582,574.541 805.001,496.855 805.001,495.791 "/>
<polygon fill="#E6E6E6" points="509.859,246.053 805,331.186 805,329.625 748.096,232.975 "/>
<polygon fill="#CCCCCC" points="689.771,442.191 805.001,332.559 805.001,331.186 509.859,246.054 "/>
<polygon fill="#CCCCCC" points="509.389,245.897 748.095,232.974 805,59.466 805,56.8 "/>
<polygon fill="#E6E6E6" points="690.227,442.191 805,494.948 805,332.698 "/>
<polygon fill="#70371E" points="271.015,548.069 274.667,613.483 303.333,613.483 303.333,423.996 276.458,423.996 "/>
<polygon fill="#70371E" points="261.559,417.756 242.417,475.989 234.354,475.989 254.281,413.824 "/>
<polygon fill="#70371E" points="238.833,397.085 176.125,413.824 176.125,405.455 230.978,391.09 "/>
<polygon fill="#70371E" points="223.604,353.555 182.396,317.081 182.396,310.636 228.979,347.925 "/>
<polygon fill="#70371E" points="297.063,296.292 291.692,339.479 303.333,339.479 303.333,296.292 "/>
<polygon fill="#70371E" points="338.271,353.555 389.487,317.081 396.5,317.887 346.293,360.123 "/>
<polygon fill="#70371E" points="349.916,375.734 421.593,391.09 421.593,397.658 349.916,383.675 "/>
<polygon fill="#70371E" points="332,423.996 342.75,464.837 338.271,468.975 327.515,426.977 "/>
<polygon fill="#70371E" points="218.218,158.334 214.016,191.217 176.125,214.854 112.51,232.975 75.792,264.829 65.042,344.123 
	65.042,453.268 65.042,525.276 51.604,600.347 33.688,600.347 44.438,523.4 43.542,449.073 45.333,344.123 57.875,258.963 
	97.292,219.047 157.312,199.663 195.833,182.7 205.688,158.334 "/>
<polygon fill="#70371E" points="112.51,144.298 120.583,174.327 157.312,203.984 161.723,198.354 125.953,168.511 117,144.298 "/>
<polygon fill="#70371E" points="134.911,175.984 152.833,151.349 145.422,151.349 131.225,172.91 "/>
<path fill="#70371E" d="M632.652,253.149l16.021,34.385l8.756,37.966c0,0,8.814,6.423,8.716,0c-0.099-6.422-8.952-43.42-8.952-43.42
	l-15.234-28.931H632.652z"/>
<polygon fill="#70371E" points="688.62,548.069 682.271,573.133 657.43,595.654 633.549,609.729 649.399,613.483 673.313,595.654 
	695.038,575.948 700.414,548.069 "/>
<path fill="#70371E" d="M580.146,258.963l11.646,23.118l24.187,8.672l33.421-0.073c0,0,0.726-14.053,0-8.599s-34.465,0-34.465,0
	l-13.97-7.223L590,253.149L580.146,258.963z"/>
<polygon fill="#329E32" points="367.018,360.852 338.489,426.971 249.05,427.023 216.369,387.041 218.764,345.026 307.47,331.978 
	"/>
<text transform="matrix(0.9547 0 0 1 238.8335 387.4424)" fill="#FFFFFF" font-family="'CenturyGothic'" font-size="27.2127">Internet</text>
<polygon fill="#329E32" points="486.088,289.575 461.006,336.494 400.084,334.44 376.797,296.292 400.084,263.301 460.109,258.963 
	"/>
<text transform="matrix(0.9547 0 0 1 400.084 296.291)"><tspan x="0" y="0" fill="#FFFFFF" font-family="'CenturyGothic'" font-size="14.4853">Bases de</tspan><tspan x="0" y="17.383" fill="#FFFFFF" font-family="'CenturyGothic'" font-size="14.4853">données</tspan></text>
<polygon fill="#329E32" points="518.333,402.155 493.249,449.073 432.327,447.021 409.041,408.871 432.327,375.881 492.353,371.542 
	"/>
<text transform="matrix(0.9547 0 0 1 447.5576 414.501)" fill="#FFFFFF" font-family="'CenturyGothic'" font-size="14.4853">API</text>
<polygon fill="#329E32" points="412.624,491.257 387.54,538.174 326.619,536.122 303.333,497.973 326.619,464.981 386.645,460.644 
	"/>
<text transform="matrix(0.9547 0 0 1 327.5151 503.6025)" fill="#FFFFFF" font-family="'CenturyGothic'" font-size="14.4853">Serveurs</text>
<polygon fill="#329E32" points="248.687,256.732 273.77,303.65 334.691,301.599 357.978,263.449 334.691,230.458 274.666,226.12 "/>
<text transform="matrix(0.9547 0 0 1 280.9316 268.1406)" fill="#FFFFFF" font-family="'CenturyGothic'" font-size="14.4853">Codes</text>
<polygon fill="#329E32" points="102.666,279.382 127.749,326.301 188.671,324.247 211.958,286.098 188.671,253.107 128.645,248.769 
	"/>
<text transform="matrix(0.9547 0 0 1 134.9106 290.7891)" fill="#FFFFFF" font-family="'CenturyGothic'" font-size="14.4853">CMS</text>
<polygon fill="#329E32" points="80.265,406.348 105.348,453.268 166.27,451.214 189.556,413.064 166.27,380.074 106.244,375.734 "/>
<text transform="matrix(0.9547 0 0 1 112.5098 417.7559)" fill="#FFFFFF" font-family="'CenturyGothic'" font-size="14.4853">Web</text>
<polygon fill="#329E32" points="161.723,495.45 186.806,542.367 247.728,540.315 271.015,502.166 247.728,469.176 187.702,464.837 
	"/>
<text transform="matrix(0.9547 0 0 1 201.1343 508.498)" fill="#FFFFFF" font-family="'CenturyGothic'" font-size="14.4853">SVG</text>
<polygon fill="#329E32" points="418.271,114.624 389.605,140.898 291.959,157.203 196.105,161.542 119.064,157.203 49.189,143.713 
	25.476,118.292 18.164,73.178 56.282,39.397 190.731,24.383 319.645,37.373 410.209,73.178 "/>
<text transform="matrix(0.9547 0 0 1 145.4229 56.624)"><tspan x="0" y="0" fill="#FFFFFF" font-family="'CenturyGothic'" font-size="17.8121">Les écosystèmes</tspan><tspan x="0" y="26.718" fill="#FFFFFF" font-family="'CenturyGothic'" font-size="22.2651">d&apos;information : </tspan></text>
<text transform="matrix(0.9547 0 0 1 64.5659 109.0146)"><tspan x="0" y="0" fill="#FFFFFF" font-family="'CenturyGothic'" font-size="15.0139">Milieu donné où les éléments entretiennent</tspan><tspan x="-18.331" y="18.017" fill="#FFFFFF" font-family="'CenturyGothic'" font-size="15.0139">des relations COMPLEXES et MULTIPLES entre eux</tspan></text>
<polygon fill="#329E32" points="754.08,118.333 748.667,195.841 713.66,247.278 607.069,264.829 504.82,254.168 460.324,222.988 
	449.196,139.836 465.241,85.579 508.03,41.994 610.005,14.651 697.584,31.188 742.165,67.442 "/>
<text transform="matrix(0.9547 0 0 1 552.4141 63.8643)"><tspan x="0" y="0" fill="#FFFFFF" font-family="'CenturyGothic'" font-size="17.8121">Différentes</tspan><tspan x="0" y="30.028" fill="#FFFFFF" font-family="'CenturyGothic'" font-size="30.9662">visions</tspan></text>
<text transform="matrix(0.9547 0 0 1 482.6709 116.2559)" fill="#FFFFFF" font-family="'CenturyGothic'" font-size="15.0139">Vision marketing</text>
<text transform="matrix(0.9547 0 0 1 545.0166 138.2861)" fill="#FFFFFF" font-family="'CenturyGothic'" font-size="15.0139">Vision identité numérique</text>
<text transform="matrix(0.9547 0 0 1 463.2256 158.9404)" fill="#FFFFFF" font-family="'CenturyGothic'" font-size="15.0139">Vision Web Service Application</text>
<text transform="matrix(0.9547 0 0 1 528.6348 182.7002)" fill="#FFFFFF" font-family="'CenturyGothic'" font-size="15.0139">Vision Interactivité dynamique</text>
<text transform="matrix(0.9547 0 0 1 471.1338 203.9844)" fill="#FFFFFF" font-family="'CenturyGothic'" font-size="15.0139">Vision digitale</text>
<text transform="matrix(0.9547 0 0 1 568.3955 226.1201)" fill="#FFFFFF" font-family="'CenturyGothic'" font-size="15.0139">etc...</text>
<polygon fill="#329E32" points="771.854,360.123 780.646,498.039 726.938,557.465 641.959,544.045 615.534,464.38 600.965,390.795 
	624.938,325.501 720.083,310.636 "/>
<text transform="matrix(0.9547 0 0 1 648.6758 360.1221)" fill="#FFFFFF" font-family="'CenturyGothic'" font-size="17.8121">À lire :</text>
<text transform="matrix(0.9547 0 0 1 653.3281 391.0898)"><tspan x="0" y="0" fill="#FFFFFF" font-family="'CenturyGothic'" font-size="11.2604">&quot;La méthode&quot;</tspan><tspan x="4.093" y="13.513" fill="#FFFFFF" font-family="'CenturyGothic'" font-size="11.2604">Edgar Morin</tspan></text>
<text transform="matrix(0.9547 0 0 1 632.7725 434.0732)"><tspan x="0" y="0" fill="#FFFFFF" font-family="'CenturyGothic'" font-size="11.2604">&quot;qu&apos;est-ce que le virtuel&quot;</tspan><tspan x="34.543" y="13.513" fill="#FFFFFF" font-family="'CenturyGothic'" font-size="11.2604">Pierre Levy </tspan></text>
<text transform="matrix(0.9547 0 0 1 651.1777 475.9883)"><tspan x="0" y="0" fill="#FFFFFF" font-family="'CenturyGothic'" font-size="11.2604">«Stats that reshape</tspan><tspan x="10.982" y="13.513" fill="#FFFFFF" font-family="'CenturyGothic'" font-size="11.2604">your world-vie»</tspan><tspan x="14.278" y="27.025" fill="#FFFFFF" font-family="'CenturyGothic'" font-size="11.2604">Hans Roseling</tspan></text>
</svg>
