<?xml version="1.0" encoding="utf-8"?>
<!-- Generator: Adobe Illustrator 12.0.0, SVG Export Plug-In . SVG Version: 6.00 Build 51448)  -->
<!DOCTYPE svg PUBLIC "-//W3C//DTD SVG 1.1//EN" "http://www.w3.org/Graphics/SVG/1.1/DTD/svg11.dtd" [
	<!ENTITY ns_svg "http://www.w3.org/2000/svg">
	<!ENTITY ns_xlink "http://www.w3.org/1999/xlink">
]>
<svg  version="1.1" id="Layer_1" xmlns="&ns_svg;" xmlns:xlink="&ns_xlink;" width="800" height="600" viewBox="0 0 800 600"
	 overflow="visible" enable-background="new 0 0 800 600" xml:space="preserve">
<g id="Layer_1_1_">
	<rect fill="#E4C3A8" width="800" height="600"/>
	<text transform="matrix(1 0 0 1 24 47)" fill="#636466" font-family="'Myriad-BoldItalic'" font-size="32">Les écosystèmes d’information</text>
</g>
<g id="Layer_3">
	<path fill="none" stroke="#ED1C24" stroke-width="7" d="M449.5,547.5c0,0-76.5-128.5-237-211S52,254,52,254"/>
	<path fill="none" stroke="#BD1A8D" stroke-width="4" d="M177.5,254.5c0,0-15,32,35,82"/>
	<path fill="none" stroke="#000000" d="M606,410.529"/>
	<path fill="none" stroke="#2E3192" stroke-width="4" d="M741,379.529c0,0-23.5,62-23.5,88.5"/>
	<path fill="none" stroke="#2E3192" stroke-width="7" d="M606,410.529c0,0,92-14,106,66c10.516,60.087,44,86,44,86"/>
	<path fill="none" stroke="#91278F" stroke-width="7" d="M474.401,299.079C474.401,299.079,488,181,556,75
		c19.116-56.116-63-49-63-49"/>
	<path fill="none" stroke="#91278F" stroke-width="4" d="M556,75c0,0,56-105,75.5-46.5"/>
	<path fill="none" stroke="#000000" stroke-width="5" d="M475.858,289C591,182,698,261,728,231s28.75-47.75,2.5-80.5"/>
	<path fill="none" stroke="#000000" stroke-width="2" d="M681,175c0,28.604,17.332,51.75,38.75,51.75"/>
	<path fill="none" stroke="#000000" stroke-width="5" d="M728,231c0,0,44,12,52.5-58.5"/>
	<path fill="none" stroke="#FFF200" stroke-width="8" d="M475.858,289c0-101.299-105.51-183.269-235.9-183.269"/>
	<path fill="none" stroke="#00ADEF" stroke-width="8" d="M449.5,547.5c0,0,55.5-52.5,23.5-258.5"/>
	<path fill="none" stroke="#686868" stroke-width="7" d="M449.5,547.5c0-34.27-128.813-62-288-62"/>
</g>
<g id="Layer_2">
	<circle fill="#0DB14B" stroke="#000000" cx="449.5" cy="547.5" r="21.5"/>
	<circle fill="#FFF200" stroke="#000000" cx="212.5" cy="336.5" r="15.5"/>
	<circle fill="#008FD4" stroke="#000000" cx="52" cy="254" r="14"/>
	<circle fill="#ED1C24" stroke="#000000" cx="177.5" cy="254.5" r="7.5"/>
	<circle fill="#F7931D" stroke="#000000" cx="233" cy="107" r="26"/>
	<circle fill="#91278F" stroke="#000000" cx="161.5" cy="485.5" r="12.5"/>
	<circle fill="#ED1C24" stroke="#000000" cx="473" cy="289" r="41"/>
	<circle fill="#8CC63F" stroke="#000000" cx="728" cy="231" r="15"/>
	<circle fill="#6C9D31" stroke="#000000" cx="556" cy="75" r="13"/>
	<circle fill="#967348" stroke="#000000" cx="493" cy="26" r="8"/>
	<circle fill="#FFF200" stroke="#000000" cx="631.5" cy="28.5" r="7.5"/>
	<circle fill="#008FD4" stroke="#000000" cx="730.5" cy="150.5" r="6.5"/>
	<circle fill="#F7931D" stroke="#000000" cx="756" cy="562.529" r="12"/>
	<circle fill="#808284" stroke="#000000" cx="712" cy="476.529" r="14"/>
	<circle fill="#CADB2A" stroke="#000000" cx="606" cy="410.529" r="9"/>
	<circle fill="#ED1C24" stroke="#000000" cx="741" cy="379.529" r="6"/>
	<circle fill="#FFF200" stroke="#000000" cx="780.5" cy="172.5" r="6.5"/>
	<circle fill="#636466" stroke="#000000" cx="681" cy="175" r="13"/>
</g>
<g id="Layer_4">
	<text transform="matrix(1 0 0 1 734.5293 487.0586)" font-family="'Myriad-Bold'" font-size="20">Presse</text>
	<text transform="matrix(1 0 0 1 669.876 572.5293)" font-family="'Myriad-Roman'" font-size="25">Papier</text>
	<text transform="matrix(1 0 0 1 562 389.5293)" font-family="'Myriad-Roman'" font-size="20">Magazine</text>
	<text transform="matrix(1 0 0 1 713 365.5293)" font-family="'Myriad-Roman'" font-size="20">Journal</text>
	<text transform="matrix(1 0 0 1 482.5 560.5)" font-family="'Myriad-Bold'" font-size="25">Numérique</text>
	<text transform="matrix(1 0 0 1 332.5 294.5)" font-family="'Myriad-Bold'" font-size="25">Internet</text>
	<text transform="matrix(1 0 0 1 232.5 337.5)" font-family="'Myriad-Bold'" font-size="20">Mobile</text>
	<text transform="matrix(1 0 0 1 23 232)" font-family="'Myriad-Roman'" font-size="18">Smartphone</text>
	<text transform="matrix(1 0 0 1 195 257)" font-family="'Myriad-Roman'" font-size="20">Tablette</text>
	<text transform="matrix(1 0 0 1 578 73)" font-family="'Myriad-Bold'" font-size="18">Réseaux </text>
	<text transform="matrix(1 0 0 1 578 94.5996)" font-family="'Myriad-Bold'" font-size="18">sociaux</text>
	<text transform="matrix(1 0 0 1 644 37)" font-family="'Myriad-Roman'" font-size="18">Facebook</text>
	<text transform="matrix(1 0 0 1 462 56)" font-family="'Myriad-Roman'" font-size="18">Twitter</text>
	<text transform="matrix(1 0 0 1 696 266)" font-family="'Myriad-Bold'" font-size="22">Cloud</text>
	<text transform="matrix(1 0 0 1 711.75 133.5)" font-family="'Myriad-Roman'" font-size="20">SaaS</text>
	<text transform="matrix(1 0 0 1 125.7822 155)" font-family="'Myriad-Bold'" font-size="20">Moteurs de recherche</text>
	<text transform="matrix(1 0 0 1 111.9976 533)" font-family="'Myriad-Roman'" font-size="28">Minitel</text>
	<text transform="matrix(1 0 0 1 624.5801 181.5)" font-family="'Myriad-Roman'" font-size="20">IaaS</text>
	<text transform="matrix(1 0 0 1 755.2207 159)" font-family="'Myriad-Roman'" font-size="20">PaaS</text>
</g>
</svg>
