<?xml version="1.0" encoding="utf-8"?>
<!-- Generator: Adobe Illustrator 16.0.0, SVG Export Plug-In . SVG Version: 6.00 Build 0)  -->
<!DOCTYPE svg PUBLIC "-//W3C//DTD SVG 1.1//EN" "http://www.w3.org/Graphics/SVG/1.1/DTD/svg11.dtd">
<svg version="1.1" id="Calque_1" onload="ajoutEvent(evt)"
	 xmlns="http://www.w3.org/2000/svg" xmlns:xlink="http://www.w3.org/1999/xlink" x="0px" y="0px" width="800px" height="600px"
	 viewBox="0 0 800 600" enable-background="new 0 0 800 600" xml:space="preserve">
<script  type="text/ecmascript" xlink:href="js/d3.js"></script>
<script  type="text/ecmascript" xlink:href="js/mac.js"></script>
<script  type="text/ecmascript" xlink:href="js/mac2.js"></script>
<g id="fond">
	<rect x="1" y="416.5" fill="#3E6270" width="800" height="184.5"/>
	<rect x="1" fill="#3E6270" width="800" height="184.5"/>
</g>
<g id="lignedutemps" display="none" opacity="0.3">
	<g display="inline">
		<g>
			<path fill="none" stroke="#000000" stroke-miterlimit="10" d="M525.529,382"/>
		</g>
	</g>
	<g display="inline">
		<g>
			<path fill="none" stroke="#000000" stroke-miterlimit="10" d="M271.748,200.487"/>
		</g>
	</g>
	<g display="inline">
		<g>
			<path fill="none" stroke="#000000" stroke-miterlimit="10" d="M175.95,191.244"/>
		</g>
	</g>
	
		<line display="inline" fill="none" stroke="#27AAE1" stroke-width="26" stroke-miterlimit="10" x1="32.252" y1="49.067" x2="734.771" y2="49.067"/>
	
		<line display="inline" fill="none" stroke="#27AAE1" stroke-width="26" stroke-miterlimit="10" x1="734.771" y1="308" x2="734.771" y2="36.622"/>
	
		<line display="inline" fill="none" stroke="#27AAE1" stroke-width="26" stroke-miterlimit="10" x1="747.26" y1="299.25" x2="44.74" y2="299.25"/>
	
		<line display="inline" fill="none" stroke="#27AAE1" stroke-width="26" stroke-miterlimit="10" x1="734.771" y1="546" x2="32.252" y2="546"/>
	
		<line display="inline" fill="none" stroke="#27AAE1" stroke-width="26" stroke-miterlimit="10" x1="44.74" y1="286.25" x2="44.74" y2="558.445"/>
	<g id="Calque_3" display="inline">
		<polygon fill="#27AAE1" stroke="#27AAE1" stroke-miterlimit="10" points="734.771,524.5 734.771,567.5 780.771,546 		"/>
	</g>
</g>
<g id="avis">
	<rect id="extra1" x="98.115" y="309.195" fill="#F1F2F2" width="85.73" height="85.729"/>
	<rect id="extra2" x="200.115" y="309.195" fill="#D1D3D4" width="85.73" height="85.729"/>
	<rect id="extra3" x="302.115" y="309.195" fill="#A7A9AC" width="85.73" height="85.729"/>
	<rect id="extra4" x="405.115" y="309.195" fill="#808285" width="85.729" height="85.729"/>
	<rect id="extra5" x="509.115" y="309.195" fill="#58595B" width="85.729" height="85.729"/>
	<rect id="extra6" x="614.115" y="309.195" stroke="#414042" stroke-miterlimit="10" width="85.729" height="85.729"/>
	<rect id="bon3" x="98.115" y="206.888" fill="#00A14B" width="85.73" height="85.73"/>
	<rect id="bon2" x="200.115" y="206.888" fill="#39B54A" width="85.73" height="85.73"/>
	<rect id="bon1" x="302.115" y="206.888" fill="#8DC63F" width="85.73" height="85.73"/>
	<rect id="mauvais1" x="405.113" y="206.888" fill="#FFF210" width="85.73" height="85.73"/>
	<rect id="mauvais2" x="509.115" y="206.888" fill="#F26522" width="85.729" height="85.73"/>
	<rect id="mauvais3" x="614.115" y="206.888" fill="#B20F1B" width="85.729" height="85.73"/>
</g>
</svg>
