<?xml version="1.0" encoding="utf-8"?>
<!-- Generator: Adobe Illustrator 16.0.0, SVG Export Plug-In . SVG Version: 6.00 Build 0)  -->
<!DOCTYPE svg PUBLIC "-//W3C//DTD SVG 1.1//EN" "http://www.w3.org/Graphics/SVG/1.1/DTD/svg11.dtd">
<svg version="1.1" id="Calque_1" xmlns="http://www.w3.org/2000/svg" xmlns:xlink="http://www.w3.org/1999/xlink" x="0px" y="0px"
	 width="800px" height="600px" viewBox="0 0 800 600" enable-background="new 0 0 800 600" xml:space="preserve">
<circle opacity="0.8" fill="#86BFBF" cx="-204.818" cy="299.289" r="93.227"/>
<circle opacity="0.8" fill="#D9E0E0" cx="-142.091" cy="392.283" r="93.227"/>
<circle opacity="0.8" fill="#B3FFFF" cx="-268.08" cy="392.283" r="93.227"/>
<line stroke="#CCCCCC" stroke-miterlimit="10" x1="399.5" y1="47" x2="399.5" y2="554"/>
<line stroke="#CCCCCC" stroke-miterlimit="10" x1="83" y1="300.5" x2="717" y2="300.5"/>
<polygon points="-186.776,31.059 -204.666,41.396 -222.563,31.072 -222.57,10.41 -204.681,0.074 -186.784,10.397 "/>
<polygon fill="#272C3E" points="735.224,311.059 717.334,321.396 699.438,311.072 699.43,290.41 717.318,280.074 735.217,290.397 
	"/>
<polygon fill="#1D2A57" points="635.224,311.059 617.334,321.396 599.438,311.072 599.43,290.41 617.318,280.074 635.217,290.397 
	"/>
<polygon fill="#2E428A" points="526.224,310.059 508.334,320.396 490.438,310.072 490.43,289.41 508.318,279.074 526.217,289.397 
	"/>
<polygon fill="#9459BB" points="312.224,312.059 294.334,322.396 276.438,312.072 276.43,291.41 294.318,281.074 312.217,291.397 
	"/>
<polygon fill="#441266" points="212.224,312.059 194.334,322.396 176.438,312.072 176.43,291.41 194.318,281.074 212.217,291.397 
	"/>
<polygon fill="#1C032D" points="103.224,311.059 85.334,321.396 67.438,311.072 67.43,290.41 85.318,280.074 103.217,290.397 "/>
<polygon fill="#E1E0FF" points="418.224,309.059 400.334,319.396 382.438,309.072 382.43,288.41 400.318,278.074 418.217,288.397 
	"/>
<polygon fill="#BBF07F" points="418.224,226.059 400.334,236.396 382.438,226.072 382.43,205.41 400.318,195.074 418.217,205.397 
	"/>
<polygon fill="#80A457" points="418.224,141.059 400.334,151.396 382.438,141.072 382.43,120.41 400.318,110.074 418.217,120.397 
	"/>
<polygon fill="#40522C" points="418.224,57.059 400.334,67.396 382.438,57.072 382.43,36.41 400.318,26.074 418.217,36.397 "/>
<polygon fill="#2C1317" points="418.224,563.059 400.334,573.396 382.438,563.072 382.43,542.41 400.318,532.074 418.217,542.397 
	"/>
<polygon fill="#85404C" points="418.224,478.059 400.334,488.396 382.438,478.072 382.43,457.41 400.318,447.074 418.217,457.397 
	"/>
<polygon fill="#C07784" points="418.224,394.059 400.334,404.396 382.438,394.072 382.43,373.41 400.318,363.074 418.217,373.397 
	"/>
<g>
	<path d="M441.66,36.396c0.942,0,1.857,0.124,2.744,0.371s1.72,0.597,2.499,1.05c0.779,0.453,1.493,0.999,2.142,1.638
		s1.204,1.346,1.666,2.121c0.462,0.774,0.821,1.607,1.078,2.499c0.257,0.891,0.385,1.817,0.385,2.779s-0.121,1.89-0.364,2.786
		c-0.242,0.896-0.588,1.734-1.035,2.513c-0.448,0.78-0.99,1.491-1.624,2.135c-0.635,0.644-1.34,1.197-2.114,1.659
		c-0.775,0.462-1.61,0.819-2.506,1.071c-0.896,0.252-1.834,0.378-2.814,0.378H440.4v-21H441.66z M444.026,55.884
		c0.765-0.205,1.49-0.499,2.177-0.882c0.686-0.382,1.318-0.849,1.896-1.4c0.579-0.551,1.078-1.171,1.498-1.862
		c0.42-0.691,0.749-1.442,0.987-2.254s0.357-1.675,0.357-2.59c0-1.092-0.149-2.079-0.448-2.961s-0.695-1.668-1.19-2.359
		c-0.494-0.691-1.062-1.286-1.701-1.785c-0.639-0.499-1.302-0.912-1.987-1.239c-0.687-0.326-1.367-0.567-2.044-0.721
		c-0.677-0.154-1.3-0.231-1.869-0.231v18.592C442.486,56.192,443.261,56.09,444.026,55.884z"/>
	<path d="M453.574,36.187h14.476v1.302h-13.16v5.628h9.842v1.302h-9.842v11.676h13.16v1.302h-14.476V36.187z M457.857,34.968
		l2.324-4.228h-1.414l-2.31,4.228H457.857z"/>
	<path d="M483.786,36.396v1.302h-6.272v19.698h-1.288V37.698h-6.775v-1.302H483.786z"/>
	<path d="M499.522,37.698h-13.034v5.558h9.744v1.302h-9.744v11.536h13.034v1.302h-14.336v-21h14.336V37.698z"/>
	<path d="M502.196,36.396v3.024c0.233-0.373,0.495-0.705,0.784-0.994c0.289-0.289,0.59-0.541,0.903-0.756
		c0.313-0.214,0.63-0.394,0.952-0.539c0.321-0.145,0.632-0.264,0.931-0.357c0.7-0.224,1.418-0.35,2.156-0.378
		c1.055,0,2.014,0.203,2.877,0.609c0.863,0.406,1.601,0.94,2.212,1.603c0.611,0.663,1.082,1.412,1.414,2.247
		c0.331,0.835,0.497,1.683,0.497,2.541c0,0.737-0.097,1.421-0.287,2.051c-0.191,0.63-0.455,1.204-0.791,1.722
		s-0.73,0.978-1.184,1.379c-0.452,0.401-0.938,0.74-1.456,1.015c-0.518,0.275-1.057,0.483-1.616,0.623
		c-0.561,0.14-1.111,0.21-1.652,0.21c-0.131,0-0.275-0.009-0.434-0.028c-0.131-0.019-0.28-0.04-0.448-0.063
		s-0.336-0.059-0.504-0.105l7.195,7.196h-1.735l-9.828-9.814v9.814h-1.26v-21H502.196z M510.212,48.779
		c0.704-0.303,1.32-0.718,1.848-1.246s0.942-1.144,1.246-1.848c0.303-0.705,0.455-1.458,0.455-2.261
		c0-0.802-0.152-1.556-0.455-2.261c-0.304-0.705-0.719-1.321-1.246-1.848s-1.144-0.942-1.848-1.246
		c-0.705-0.303-1.459-0.455-2.262-0.455s-1.556,0.152-2.261,0.455c-0.705,0.304-1.321,0.719-1.848,1.246
		c-0.527,0.527-0.943,1.144-1.246,1.848c-0.304,0.705-0.455,1.458-0.455,2.261c0,0.803,0.151,1.557,0.455,2.261
		c0.303,0.705,0.719,1.321,1.246,1.848c0.526,0.527,1.143,0.942,1.848,1.246c0.705,0.304,1.458,0.455,2.261,0.455
		S509.507,49.083,510.212,48.779z"/>
	<path d="M516.322,57.396V36.55l12.726,12.726l12.88-12.88v21h-1.204V39.28L529.09,50.915l-11.536-11.536l-0.028,18.018H516.322z"/>
	<path d="M557.649,36.396v1.302h-6.258v18.396h6.258v1.302h-14.321v-1.302h6.775V37.698h-6.775v-1.302H557.649z"/>
	<path d="M559.05,36.396l13.327,17.374V36.396h1.303v20.916l-13.342-17.346v17.43h-1.288V36.396z"/>
	<path d="M575.079,36.187h14.476v1.302h-13.16v5.628h9.842v1.302h-9.842v11.676h13.16v1.302h-14.476V36.187z M579.362,34.968
		l2.324-4.228h-1.414l-2.31,4.228H579.362z"/>
</g>
<g>
	<path d="M652.132,347v19.698h13.021V368H650.83v-21H652.132z"/>
	<path d="M680.887,348.302h-13.033v5.558h9.744v1.303h-9.744v11.536h13.033V368h-14.336v-21h14.336V348.302z"/>
	<path d="M682.287,368v-13.818c0-1.101,0.205-2.095,0.616-2.981s0.95-1.643,1.616-2.269c0.668-0.625,1.431-1.104,2.289-1.435
		c0.859-0.331,1.736-0.497,2.633-0.497c0.598,0,1.188,0.072,1.771,0.217c0.582,0.145,1.141,0.355,1.672,0.631
		c0.532,0.275,1.024,0.615,1.478,1.021c0.452,0.406,0.847,0.875,1.183,1.406c0.336,0.533,0.598,1.123,0.784,1.771
		s0.28,1.352,0.28,2.107V368h-1.303v-12.544h-11.731L683.59,368H682.287z M695.434,354.168c0-0.682-0.139-1.377-0.414-2.086
		s-0.669-1.354-1.182-1.932c-0.514-0.579-1.142-1.053-1.884-1.422c-0.741-0.368-1.575-0.553-2.499-0.553
		c-0.934,0-1.769,0.185-2.506,0.553c-0.737,0.369-1.365,0.843-1.883,1.422c-0.518,0.578-0.915,1.223-1.19,1.932
		s-0.413,1.404-0.413,2.086H695.434z"/>
	<path d="M699.27,347c0.941,0,1.856,0.124,2.743,0.371s1.72,0.598,2.499,1.05c0.779,0.453,1.493,0.999,2.143,1.638
		c0.648,0.64,1.203,1.347,1.666,2.121c0.461,0.775,0.82,1.607,1.078,2.5c0.256,0.891,0.385,1.816,0.385,2.778
		s-0.121,1.89-0.364,2.786s-0.588,1.734-1.036,2.513c-0.447,0.78-0.989,1.491-1.624,2.136c-0.635,0.644-1.339,1.196-2.114,1.658
		c-0.774,0.463-1.609,0.819-2.506,1.071S700.305,368,699.324,368h-1.315v-21H699.27z M701.635,366.488
		c0.766-0.205,1.491-0.5,2.178-0.883c0.686-0.382,1.317-0.849,1.896-1.399c0.578-0.551,1.078-1.171,1.498-1.862
		c0.42-0.69,0.749-1.441,0.986-2.254c0.238-0.813,0.357-1.675,0.357-2.59c0-1.092-0.149-2.079-0.447-2.961
		c-0.299-0.882-0.695-1.668-1.19-2.359c-0.495-0.69-1.062-1.285-1.701-1.785c-0.64-0.498-1.302-0.912-1.987-1.238
		c-0.687-0.326-1.368-0.567-2.045-0.721c-0.677-0.154-1.3-0.231-1.869-0.231v18.592
		C700.095,366.796,700.869,366.693,701.635,366.488z"/>
	<path d="M725.519,348.302h-13.034v5.558h9.744v1.303h-9.744v11.536h13.034V368h-14.336v-21h14.336V348.302z"/>
	<path d="M728.192,347v3.023c0.233-0.373,0.495-0.704,0.784-0.994c0.289-0.289,0.59-0.541,0.902-0.756
		c0.313-0.214,0.631-0.394,0.953-0.539c0.321-0.145,0.632-0.264,0.931-0.356c0.7-0.224,1.419-0.351,2.155-0.378
		c1.055,0,2.014,0.203,2.877,0.609s1.602,0.939,2.213,1.603s1.082,1.412,1.414,2.247c0.331,0.836,0.496,1.683,0.496,2.541
		c0,0.737-0.096,1.421-0.287,2.051c-0.191,0.631-0.454,1.204-0.791,1.723c-0.336,0.518-0.729,0.978-1.182,1.379
		c-0.453,0.4-0.938,0.739-1.457,1.015c-0.518,0.275-1.057,0.483-1.617,0.623c-0.56,0.14-1.11,0.21-1.651,0.21
		c-0.131,0-0.275-0.01-0.435-0.027c-0.131-0.02-0.279-0.04-0.447-0.063s-0.336-0.059-0.504-0.104l7.195,7.195h-1.736l-9.827-9.814
		V368h-1.261v-21H728.192z M736.207,359.383c0.705-0.303,1.321-0.719,1.849-1.246c0.526-0.527,0.942-1.143,1.246-1.848
		s0.454-1.458,0.454-2.262c0-0.802-0.15-1.556-0.454-2.26c-0.304-0.705-0.72-1.321-1.246-1.849
		c-0.527-0.527-1.144-0.942-1.849-1.246c-0.704-0.304-1.458-0.455-2.26-0.455c-0.804,0-1.557,0.151-2.262,0.455
		s-1.32,0.719-1.848,1.246s-0.943,1.144-1.246,1.849c-0.304,0.704-0.455,1.458-0.455,2.26c0,0.804,0.151,1.557,0.455,2.262
		c0.303,0.705,0.719,1.32,1.246,1.848s1.143,0.943,1.848,1.246c0.705,0.304,1.458,0.455,2.262,0.455
		C734.749,359.838,735.503,359.687,736.207,359.383z"/>
</g>
<g>
	<path d="M454.722,542.396v1.302h-6.258v18.396h6.258v1.302H440.4v-1.302h6.775v-18.396H440.4v-1.302H454.722z"/>
	<path d="M456.122,542.396l13.327,17.374v-17.374h1.303v20.916l-13.342-17.346v17.43h-1.288V542.396z"/>
	<path d="M473.411,542.396c0.942,0,1.857,0.124,2.744,0.371s1.72,0.598,2.499,1.05c0.779,0.453,1.493,0.999,2.142,1.638
		c0.648,0.64,1.204,1.347,1.666,2.121c0.462,0.775,0.821,1.607,1.078,2.5c0.257,0.891,0.385,1.816,0.385,2.778
		s-0.121,1.89-0.364,2.786c-0.242,0.896-0.588,1.734-1.035,2.513c-0.448,0.78-0.99,1.491-1.624,2.136
		c-0.635,0.644-1.34,1.196-2.114,1.658c-0.775,0.463-1.61,0.819-2.506,1.071c-0.896,0.252-1.834,0.378-2.814,0.378h-1.315v-21
		H473.411z M475.777,561.885c0.765-0.205,1.49-0.5,2.177-0.883c0.686-0.382,1.318-0.849,1.896-1.399
		c0.579-0.551,1.078-1.171,1.498-1.862c0.42-0.69,0.749-1.441,0.987-2.254s0.357-1.675,0.357-2.59c0-1.092-0.149-2.079-0.448-2.961
		s-0.695-1.668-1.19-2.359c-0.494-0.69-1.062-1.285-1.701-1.785c-0.639-0.498-1.302-0.912-1.987-1.238
		c-0.687-0.326-1.367-0.567-2.044-0.721c-0.677-0.154-1.3-0.231-1.869-0.231v18.592C474.237,562.192,475.012,562.09,475.777,561.885
		z"/>
	<path d="M485.325,542.187h14.476v1.302h-13.16v5.629h9.842v1.301h-9.842v11.677h13.16v1.302h-14.476V542.187z M489.608,540.969
		l2.324-4.229h-1.414l-2.31,4.229H489.608z"/>
	<path d="M515.537,542.396v1.302h-6.272v19.698h-1.288v-19.698h-6.775v-1.302H515.537z"/>
	<path d="M531.273,543.698h-13.034v5.558h9.744v1.303h-9.744v11.536h13.034v1.302h-14.336v-21h14.336V543.698z"/>
	<path d="M533.947,542.396v3.023c0.233-0.373,0.495-0.704,0.784-0.994c0.289-0.289,0.59-0.541,0.903-0.756
		c0.313-0.214,0.63-0.394,0.952-0.539c0.321-0.145,0.632-0.264,0.931-0.356c0.7-0.224,1.418-0.351,2.156-0.378
		c1.055,0,2.014,0.203,2.877,0.609s1.601,0.939,2.212,1.603s1.082,1.412,1.414,2.247c0.331,0.836,0.497,1.683,0.497,2.541
		c0,0.737-0.097,1.421-0.287,2.051c-0.191,0.631-0.455,1.204-0.791,1.723c-0.336,0.518-0.73,0.978-1.184,1.379
		c-0.452,0.4-0.938,0.739-1.456,1.015c-0.518,0.275-1.057,0.483-1.616,0.623c-0.561,0.14-1.111,0.21-1.652,0.21
		c-0.131,0-0.275-0.01-0.434-0.027c-0.131-0.02-0.28-0.04-0.448-0.063s-0.336-0.059-0.504-0.104l7.195,7.195h-1.735l-9.828-9.814
		v9.814h-1.26v-21H533.947z M541.963,554.779c0.704-0.303,1.32-0.719,1.848-1.246s0.942-1.143,1.246-1.848
		c0.303-0.705,0.455-1.458,0.455-2.262c0-0.802-0.152-1.556-0.455-2.26c-0.304-0.705-0.719-1.321-1.246-1.849
		s-1.144-0.942-1.848-1.246c-0.705-0.304-1.459-0.455-2.262-0.455s-1.556,0.151-2.261,0.455s-1.321,0.719-1.848,1.246
		c-0.527,0.527-0.943,1.144-1.246,1.849c-0.304,0.704-0.455,1.458-0.455,2.26c0,0.804,0.151,1.557,0.455,2.262
		c0.303,0.705,0.719,1.32,1.246,1.848c0.526,0.527,1.143,0.943,1.848,1.246c0.705,0.304,1.458,0.455,2.261,0.455
		S541.258,555.083,541.963,554.779z"/>
	<path d="M548.073,563.396v-20.846l12.726,12.726l12.88-12.88v21h-1.204V545.28l-11.634,11.634l-11.536-11.535l-0.028,18.018
		H548.073z"/>
	<path d="M589.4,542.396v1.302h-6.258v18.396h6.258v1.302h-14.321v-1.302h6.775v-18.396h-6.775v-1.302H589.4z"/>
	<path d="M590.801,542.396l13.327,17.374v-17.374h1.303v20.916l-13.342-17.346v17.43h-1.288V542.396z"/>
	<path d="M606.83,542.187h14.476v1.302h-13.16v5.629h9.842v1.301h-9.842v11.677h13.16v1.302H606.83V542.187z M611.113,540.969
		l2.324-4.229h-1.414l-2.31,4.229H611.113z"/>
</g>
<g>
	<path d="M78.588,352.913c-0.14-0.378-0.348-0.724-0.623-1.036c-0.275-0.313-0.621-0.571-1.036-0.777
		c-0.416-0.205-0.898-0.308-1.449-0.308c-0.467,0-0.9,0.084-1.302,0.253c-0.401,0.168-0.751,0.4-1.05,0.699
		c-0.299,0.299-0.532,0.653-0.7,1.064c-0.168,0.41-0.252,0.854-0.252,1.33c0,0.457,0.084,0.891,0.252,1.302s0.399,0.771,0.693,1.077
		c0.294,0.309,0.644,0.554,1.05,0.736c0.406,0.182,0.847,0.272,1.323,0.272c0.774,0,1.542,0.153,2.303,0.462
		c0.76,0.309,1.444,0.746,2.051,1.316c0.606,0.568,1.097,1.255,1.47,2.058c0.373,0.803,0.56,1.698,0.56,2.688
		c0,0.438-0.059,0.904-0.175,1.399s-0.292,0.985-0.525,1.47c-0.233,0.486-0.527,0.947-0.882,1.387
		c-0.355,0.438-0.775,0.826-1.26,1.162s-1.036,0.604-1.652,0.805c-0.616,0.201-1.297,0.301-2.044,0.301
		c-0.98,0-1.869-0.184-2.667-0.553c-0.798-0.369-1.482-0.848-2.051-1.436s-1.01-1.253-1.323-1.994
		c-0.313-0.742-0.469-1.486-0.469-2.233h1.246c0,0.187,0.028,0.437,0.084,0.749s0.156,0.656,0.301,1.029
		c0.145,0.373,0.343,0.748,0.595,1.127c0.252,0.377,0.574,0.721,0.966,1.028c0.392,0.308,0.863,0.56,1.414,0.757
		c0.551,0.195,1.199,0.293,1.946,0.293c0.681,0,1.339-0.119,1.974-0.356c0.635-0.238,1.195-0.583,1.68-1.036
		s0.873-1.006,1.162-1.659c0.289-0.653,0.434-1.391,0.434-2.212c0-0.662-0.11-1.311-0.329-1.945s-0.548-1.202-0.987-1.701
		c-0.439-0.5-0.982-0.9-1.631-1.205c-0.649-0.303-1.407-0.454-2.275-0.454c-0.672,0-1.283-0.146-1.834-0.435
		s-1.022-0.658-1.414-1.105c-0.392-0.448-0.693-0.945-0.903-1.491s-0.315-1.075-0.315-1.589c0-0.438,0.084-0.924,0.252-1.456
		s0.436-1.029,0.805-1.491s0.842-0.85,1.421-1.162c0.579-0.313,1.274-0.469,2.086-0.469c0.625,0,1.171,0.091,1.638,0.273
		c0.467,0.182,0.868,0.415,1.204,0.699c0.336,0.285,0.614,0.6,0.833,0.945s0.392,0.682,0.518,1.008
		c0.126,0.327,0.214,0.625,0.266,0.896c0.051,0.271,0.077,0.467,0.077,0.588h-1.246C78.798,353.648,78.728,353.291,78.588,352.913z"
		/>
	<path d="M84.58,349.574v10.557c0,0.793,0.107,1.572,0.322,2.338c0.215,0.765,0.52,1.49,0.917,2.176
		c0.396,0.687,0.875,1.319,1.435,1.897c0.56,0.579,1.188,1.078,1.883,1.498c0.695,0.421,1.447,0.749,2.254,0.987
		c0.807,0.238,1.654,0.357,2.541,0.357c0.877,0,1.717-0.112,2.52-0.336c0.802-0.225,1.549-0.542,2.24-0.953
		c0.69-0.41,1.321-0.897,1.89-1.463c0.569-0.564,1.055-1.189,1.456-1.875c0.401-0.687,0.711-1.419,0.931-2.199
		c0.219-0.778,0.329-1.584,0.329-2.414v-10.57h1.288v21h-1.288v-5.559c-0.327,0.701-0.709,1.314-1.148,1.842
		c-0.439,0.527-0.908,0.984-1.407,1.371c-0.5,0.389-1.015,0.715-1.547,0.98c-0.532,0.266-1.05,0.488-1.554,0.665
		c-1.186,0.411-2.422,0.644-3.71,0.7c-0.999,0-1.953-0.131-2.863-0.393c-0.91-0.261-1.759-0.623-2.548-1.084
		c-0.789-0.463-1.505-1.018-2.149-1.666s-1.195-1.358-1.652-2.129c-0.457-0.77-0.812-1.594-1.064-2.471s-0.378-1.777-0.378-2.701
		v-10.557H84.58z"/>
	<path d="M120.308,349.574v1.302h-6.258v18.396h6.258v1.302h-14.322v-1.302h6.776v-18.396h-6.776v-1.302H120.308z"/>
	<path d="M123.023,349.574l9.59,18.41l9.59-18.41h1.33l-10.92,21l-10.906-21H123.023z"/>
	<path d="M159.269,350.876h-13.034v5.558h9.744v1.303h-9.744v11.536h13.034v1.302h-14.336v-21h14.336V350.876z"/>
	<path d="M161.971,349.574v10.557c0,0.793,0.107,1.572,0.322,2.338c0.215,0.765,0.52,1.49,0.917,2.176
		c0.396,0.687,0.875,1.319,1.435,1.897c0.56,0.579,1.188,1.078,1.883,1.498c0.695,0.421,1.447,0.749,2.254,0.987
		c0.807,0.238,1.654,0.357,2.541,0.357c0.877,0,1.717-0.112,2.52-0.336c0.802-0.225,1.549-0.542,2.24-0.953
		c0.69-0.41,1.321-0.897,1.89-1.463c0.569-0.564,1.055-1.189,1.456-1.875c0.401-0.687,0.711-1.419,0.931-2.199
		c0.219-0.778,0.329-1.584,0.329-2.414v-10.57h1.288v21h-1.288v-5.559c-0.327,0.701-0.709,1.314-1.148,1.842
		c-0.439,0.527-0.908,0.984-1.407,1.371c-0.5,0.389-1.015,0.715-1.547,0.98c-0.532,0.266-1.05,0.488-1.554,0.665
		c-1.186,0.411-2.422,0.644-3.71,0.7c-0.999,0-1.953-0.131-2.863-0.393c-0.91-0.261-1.759-0.623-2.548-1.084
		c-0.789-0.463-1.505-1.018-2.149-1.666s-1.195-1.358-1.652-2.129c-0.457-0.77-0.812-1.594-1.064-2.471s-0.378-1.777-0.378-2.701
		v-10.557H161.971z"/>
	<path d="M184.65,349.574v3.023c0.233-0.373,0.495-0.704,0.784-0.994c0.289-0.289,0.59-0.541,0.903-0.756
		c0.313-0.214,0.63-0.394,0.952-0.539c0.322-0.145,0.632-0.264,0.931-0.356c0.7-0.224,1.418-0.351,2.156-0.378
		c1.055,0,2.014,0.203,2.877,0.609s1.601,0.939,2.212,1.603s1.083,1.412,1.414,2.247c0.332,0.836,0.497,1.683,0.497,2.541
		c0,0.737-0.096,1.421-0.287,2.051c-0.191,0.631-0.455,1.204-0.791,1.723c-0.336,0.518-0.73,0.978-1.183,1.379
		c-0.453,0.4-0.938,0.739-1.456,1.015s-1.057,0.483-1.617,0.623s-1.111,0.21-1.652,0.21c-0.131,0-0.275-0.01-0.434-0.027
		c-0.131-0.02-0.28-0.04-0.448-0.063c-0.168-0.023-0.336-0.059-0.504-0.104l7.196,7.195h-1.736l-9.828-9.814v9.814h-1.26v-21H184.65
		z M192.666,361.957c0.705-0.303,1.321-0.719,1.848-1.246c0.527-0.527,0.942-1.143,1.246-1.848c0.303-0.705,0.455-1.458,0.455-2.262
		c0-0.802-0.151-1.556-0.455-2.26c-0.304-0.705-0.719-1.321-1.246-1.849c-0.527-0.527-1.144-0.942-1.848-1.246
		s-1.458-0.455-2.261-0.455c-0.803,0-1.557,0.151-2.261,0.455s-1.321,0.719-1.848,1.246s-0.943,1.144-1.246,1.849
		c-0.304,0.704-0.455,1.458-0.455,2.26c0,0.804,0.151,1.557,0.455,2.262c0.303,0.705,0.718,1.32,1.246,1.848
		s1.144,0.943,1.848,1.246c0.705,0.304,1.458,0.455,2.261,0.455C191.207,362.412,191.961,362.261,192.666,361.957z"/>
</g>
<g>
	<path d="M332.904,552.758c0.445-1.031,0.14-2.16-0.684-2.515c-0.187-0.079-0.383-0.114-0.582-0.103
		c-0.324,0.012-0.574,0.531-0.887,0.836c-0.312,0.305-0.746,0.328-0.781,0.383c-0.019,0.035-0.035,0.07-0.051,0.105
		c-0.449,1.031-0.14,2.156,0.684,2.516C331.427,554.336,332.458,553.789,332.904,552.758L332.904,552.758z M332.904,552.758"/>
	<g>
		<defs>
			<rect id="SVGID_1_" x="314.224" y="531" width="42.96" height="46"/>
		</defs>
		<clipPath id="SVGID_2_">
			<use xlink:href="#SVGID_1_"  overflow="visible"/>
		</clipPath>
		<path clip-path="url(#SVGID_2_)" d="M338.446,549.633c0.047,0.145,0.059,0.297,0.035,0.457c-0.094,0.566-0.629,0.949-1.191,0.855
			c-0.043-0.008-0.078-0.02-0.113-0.034c-0.059-0.024-0.117,0.12-0.098,0.323c0.012,0.121,0.031,0.242,0.059,0.363
			c0.273,1.09,1.203,1.797,2.074,1.582c0.875-0.219,1.359-1.281,1.086-2.371c-0.191-0.758-0.699-1.332-1.285-1.535
			C338.595,549.129,338.372,549.391,338.446,549.633L338.446,549.633z M338.446,549.633"/>
		<path clip-path="url(#SVGID_2_)" d="M333.384,575.398c0.512,0.59,1.223,0.957,2.016,0.957c0.797,0,1.512-0.375,2.027-0.969
			c0.289-0.336,0.797-0.703,1.234-0.773c10.086-1.594,17.797-10.32,17.797-20.852c0-11.664-9.457-21.117-21.117-21.117
			c-0.328,0-0.656,0.008-0.98,0.023c-0.442,0.023-1.059-0.191-1.407-0.464c-3.347-2.625-5.746-0.54-7.316,2.284
			c-0.215,0.387-0.687,0.88-1.066,1.105c-6.196,3.68-10.348,10.438-10.348,18.168c0,10.574,7.773,19.328,17.922,20.871
			C332.579,574.699,333.091,575.066,333.384,575.398L333.384,575.398z M341.481,557.445c-2.742,0.449-5.461-2.207-6.074-5.938
			c-0.614-3.73,1.113-7.117,3.855-7.57c2.742-0.449,5.465,2.211,6.074,5.941C345.95,553.605,344.224,556.996,341.481,557.445
			L341.481,557.445z M335.462,536.422c1.102,1.074,3.887,3.258,8.438,3.414c0.441,0.016,0.613,0.313,0.332,0.652
			c-0.914,1.102-3.141,3.086-6.484,1.591c-3.046-1.364-3.137-4.11-2.977-5.458C334.826,536.18,335.149,536.113,335.462,536.422
			L335.462,536.422z M335.341,571c1.051,0,1.902,0.953,1.902,2.133s-0.852,2.137-1.902,2.137c-1.051,0-1.902-0.957-1.902-2.137
			S334.29,571,335.341,571L335.341,571z M332.872,534.961c-1.496,0.789-5.043,2.852-7.785,6.035c-0.289,0.336-0.437,0.27-0.328-0.16
			c0.668-2.645,3.219-10.895,8.238-6.77C333.336,534.348,333.263,534.758,332.872,534.961L332.872,534.961z M328.779,544.82
			c2.777,0,5.031,3.066,5.031,6.844c0,3.781-2.254,6.848-5.031,6.848c-2.782,0-5.035-3.066-5.035-6.848
			C323.744,547.887,325.997,544.82,328.779,544.82L328.779,544.82z M328.779,544.82"/>
	</g>
</g>
<g>
	<path d="M736.303,223.763c-1.775,0-3.206,1.561-3.206,3.485c0,1.253,0.604,2.34,1.515,2.953c-1.933,2.891-4.646,6.252-7.441,7.219
		c-3.688,1.282-7.126-6.586-8.817-11.259c1.255-0.476,2.165-1.768,2.165-3.29c0-1.924-1.431-3.484-3.197-3.484
		c-1.764,0-3.193,1.56-3.193,3.484c0,1.522,0.908,2.814,2.163,3.29c-1.69,4.673-5.12,12.541-8.806,11.259
		c-2.798-0.966-5.52-4.328-7.441-7.219c0.9-0.613,1.512-1.7,1.512-2.953c0-1.924-1.439-3.485-3.205-3.485
		c-1.764,0-3.195,1.561-3.195,3.485c0,1.921,1.432,3.484,3.195,3.484c0.037,0,0.065-0.009,0.094-0.009l4.32,20.066h29.116
		l4.32-20.066c0.037,0,0.065,0.009,0.103,0.009c1.756,0,3.195-1.563,3.195-3.484C739.488,225.324,738.059,223.763,736.303,223.763
		L736.303,223.763z M736.303,223.763"/>
	<rect x="702.912" y="251.495" width="28.819" height="3.911"/>
</g>
<g>
	<g>
		<defs>
			<rect id="SVGID_3_" x="329.41" y="19.066" width="31.722" height="71.661"/>
		</defs>
		<clipPath id="SVGID_4_">
			<use xlink:href="#SVGID_3_"  overflow="visible"/>
		</clipPath>
		<path clip-path="url(#SVGID_4_)" fill="#0E0F0F" d="M348.053,46.262c0,2.52-2.041,4.559-4.553,4.559
			c-2.513,0-4.554-2.04-4.554-4.559c0-2.513,2.041-4.553,4.554-4.553C346.013,41.709,348.053,43.749,348.053,46.262L348.053,46.262z
			 M348.053,46.262"/>
		<path clip-path="url(#SVGID_4_)" fill="#0E0F0F" d="M344.85,71.781c-3.807-1.88-6.438-5.793-6.438-10.309
			c0-2.681,0.946-5.281,2.656-7.34c0.181-0.335,1.537-1.698,2.041-1.923c0.18-0.131,0.373-0.254,0.56-0.379
			c-0.958-0.784-2.202-1.218-3.534-1.113c-0.579,0.05-1.12,0.199-1.617,0.424c-1.997-3.615-3.31-7.472-4.087-11.571
			c-0.205-1.1-0.908-1.661-1.723-1.817v-2.543h1.02v-0.933h-1.02v-12.87l-0.97-2.34l-1.001,2.34v12.87h-1.014v0.933h1.014v2.93
			c-0.884,0.533-1.518,1.518-1.275,2.797c0.983,5.169,2.836,10.103,5.642,14.563c0.155,0.249,0.342,0.441,0.529,0.609
			c0.236,2.992-0.068,7.832-0.255,10.121c-0.087,0.137-0.168,0.286-0.236,0.448c-2.687,6.389-3.72,13.698-4.242,20.565
			c-0.249,3.322,4.908,3.291,5.157,0c0.386-5.051,1.12-10.326,2.638-15.253c0.33,0.105,0.678,0.188,1.039,0.218
			c0.423,5.175,0.778,10.351,1.512,15.483c0.473,3.285,5.443,1.885,4.97-1.369C345.528,81.502,345.242,76.626,344.85,71.781
			L344.85,71.781z M344.85,71.781"/>
	</g>
	<path fill="#0E0F0F" d="M350.106,51.282c-2.302,0-4.417,0.779-6.115,2.072c-0.112,0.062-0.945,0.603-1.567,1.474
		c-1.512,1.767-2.433,4.056-2.433,6.563c0,5.586,4.529,10.115,10.115,10.115s10.115-4.528,10.115-10.115
		C360.221,55.811,355.692,51.282,350.106,51.282L350.106,51.282z M350.106,51.282"/>
</g>
<g>
	<path d="M89.265,251.455c0.599,4.285,1.453,7.654,1.97,9.604c0.314,1.184,0.592,1.131,0.869,1.131h1.019
		c0.524,0,0.419-1.642,0.419-1.642s-0.644-5.819-0.457-10.335C92.186,251.006,90.284,251.455,89.265,251.455L89.265,251.455z
		 M89.265,251.455"/>
	<path d="M84.65,252.309c0.217,3.948,0.764,7.047,1.108,8.839c0.21,1.094,0.495,1.041,0.764,1.041h1.019
		c0.524,0,0.569-1.505,0.569-1.505s-0.12-5.356,0.472-9.514C87.609,251.897,85.669,252.309,84.65,252.309L84.65,252.309z
		 M84.65,252.309"/>
	<path d="M72.283,250.008c0.599,4.563,2.03,8.901,2.554,10.976c0.313,1.259,0.592,1.199,0.868,1.199h1.206
		c0.307,0,0.203-1.478,0.203-1.478s-1.064-4.118-0.876-8.927C74.995,251.678,73.197,250.991,72.283,250.008L72.283,250.008z
		 M72.283,250.008"/>
	<path d="M68.365,248.354c0.471,3.738,0.734,9.918,1.236,12.397c0.299,1.505,0.637,1.438,0.967,1.438h0.786
		c0.629,0,0.607-2.083,0.607-2.083s0.128-5.065,0.943-10.833C71.654,248.569,69.564,248.129,68.365,248.354L68.365,248.354z
		 M68.365,248.354"/>
	<g>
		<defs>
			<rect id="SVGID_5_" x="63.751" y="226.876" width="40.271" height="38.353"/>
		</defs>
		<clipPath id="SVGID_6_">
			<use xlink:href="#SVGID_5_"  overflow="visible"/>
		</clipPath>
		<path clip-path="url(#SVGID_6_)" d="M79.048,231.44c1.108,0,2.276,0.523,3.108,1.535c0.434-0.913,1.662-1.445,2.928-1.445
			c1.753,0,3.558,1.011,3.423,3.423c0.606-0.353,1.236-0.502,1.857-0.502c2.39,0,4.607,2.278,4.135,4.196
			c-2.225,1.534,0.412,4.838-0.832,6.92c0.742,2.748-1.304,4.322-3.326,4.322c-0.921,0-1.85-0.337-2.494-1.034
			c0.307,1.648-1.401,2.734-3.259,2.734c-1.557,0-3.214-0.764-3.88-2.624c-1.213,1.658-2.569,2.272-3.79,2.272
			c-2.06,0-3.723-1.768-3.648-3.274c-0.419,0.21-0.899,0.307-1.386,0.307c-2.331,0-4.885-2.225-2.501-4.959
			c-1.364-0.27-2.562-1.146-2.562-2.778c0-0.951,0.823-2.593,2.748-2.593c0.314,0,0.659,0.046,1.034,0.136
			c-1.101-2.278,0.892-4.255,3.116-4.255c0.711,0,1.446,0.201,2.112,0.652C76.126,232.428,77.535,231.44,79.048,231.44
			 M79.048,228.474c-2.016,0-3.753,0.891-4.876,2.389c-0.152-0.007-0.302-0.016-0.451-0.016c-2.269,0-4.39,1.14-5.542,2.967
			c-0.302,0.479-0.525,0.989-0.668,1.513c-2.307,0.853-3.663,3.1-3.663,5.206c0,1.61,0.607,3.018,1.678,4.052
			c-0.172,1.034-0.046,2.076,0.404,3.064c0.906,1.993,3.026,3.378,5.385,3.573c0.203,0.298,0.428,0.584,0.683,0.852
			c1.289,1.356,3.086,2.144,4.921,2.144c1.206,0,2.374-0.33,3.446-0.958c1.175,0.839,2.629,1.301,4.225,1.301
			c1.843,0,3.566-0.657,4.734-1.781c0.337,0.052,0.674,0.082,1.019,0.082c2.083,0,4.03-0.938,5.229-2.494
			c0.966-1.266,1.371-2.824,1.176-4.479c0.449-1.498,0.18-2.974-0.03-4.113c-0.053-0.292-0.127-0.696-0.158-0.98
			c0.405-0.391,0.697-0.884,0.832-1.438c0.412-1.664-0.037-3.484-1.221-4.997c-1.341-1.701-3.438-2.786-5.536-2.876
			c-0.24-0.389-0.495-0.711-0.742-0.974c-1.176-1.242-2.929-1.954-4.809-1.954c-1.079,0-2.098,0.232-2.982,0.645
			C81.152,228.728,80.119,228.474,79.048,228.474L79.048,228.474z M79.048,228.474"/>
		<path clip-path="url(#SVGID_6_)" d="M103.063,244.706c0.517-2.157-2.367-8.908-10.292-6.525c-4.038-1.85-5.896,1.425-5.918,2.247
			c-0.022,0.9,3.116,0.975,4.18,0.856c-0.277,0.381-0.022,0.081-0.188,1.25c-0.217,1.475,0.225,2.688,1.176,3.978
			C93.789,248.884,105.984,249.493,103.063,244.706L103.063,244.706z M98.523,243.597c-0.427-0.061-0.727-0.465-0.667-0.891
			c0.06-0.436,0.457-0.742,0.884-0.683c0.427,0.067,0.727,0.464,0.667,0.9C99.347,243.357,98.95,243.657,98.523,243.597
			L98.523,243.597z M98.523,243.597"/>
	</g>
</g>
</svg>
