<?xml version="1.0" encoding="utf-8"?>
<!-- Generator: Adobe Illustrator 16.0.0, SVG Export Plug-In . SVG Version: 6.00 Build 0)  -->
<!DOCTYPE svg PUBLIC "-//W3C//DTD SVG 1.1//EN" "http://www.w3.org/Graphics/SVG/1.1/DTD/svg11.dtd">
<svg version="1.1" xmlns="http://www.w3.org/2000/svg" xmlns:xlink="http://www.w3.org/1999/xlink" x="0px" y="0px" width="800px"
	 height="600px" viewBox="0 0 800 600" enable-background="new 0 0 800 600" xml:space="preserve"
	   onload="ajoutEvent(evt)"
   >
	<script type="text/ecmascript" xlink:href="js/Camail_Donato.js" />
	<script type="text/ecmascript" xlink:href="js/d3.js" />
<g id="Calque_1">
	<g id="Croix">
		<rect x="362" y="55" fill="#CCCCCC" width="1" height="480"/>
		<rect x="63" y="294" fill="#CCCCCC" width="601" height="1"/>
	</g>
	<polygon id="PolyNeutre" fill="#E1E0FF" points="379.613,303.833 362.663,313.628 345.706,303.846 345.698,284.269 
		362.647,274.476 379.606,284.257 	"/>
	<g id="Indetermine">
		<g>
			<polygon id="Poly1Indet" fill="#2C1317" points="379.613,544.497 362.663,554.293 345.706,544.511 345.698,524.934 
				362.647,515.14 379.606,524.921 			"/>
			<polygon id="Poly2Indet" fill="#85404C" points="379.613,463.96 362.663,473.755 345.706,463.974 345.698,444.396 
				362.647,434.603 379.606,444.384 			"/>
			<polygon id="Poly3Indet" fill="#C07784" points="379.613,384.37 362.663,394.166 345.706,384.384 345.698,364.806 
				362.647,355.013 379.606,364.794 			"/>
		</g>
		<g>
			<path d="M414.194,524.92v1.233h-5.93v17.431h5.93v1.233h-13.57v-1.233h6.421v-17.431h-6.421v-1.233H414.194z"/>
			<path d="M415.521,524.92l12.629,16.462V524.92h1.233v19.818l-12.642-16.436v16.515h-1.221V524.92z"/>
			<path d="M431.903,524.92c0.893,0,1.76,0.117,2.6,0.352s1.63,0.566,2.368,0.995s1.415,0.946,2.029,1.552s1.141,1.275,1.578,2.01
				c0.438,0.734,0.778,1.523,1.021,2.367c0.243,0.845,0.365,1.723,0.365,2.634s-0.115,1.791-0.345,2.64
				c-0.23,0.849-0.558,1.643-0.981,2.381c-0.425,0.738-0.938,1.413-1.539,2.023c-0.602,0.609-1.27,1.134-2.003,1.571
				c-0.734,0.438-1.525,0.776-2.375,1.015c-0.849,0.239-1.737,0.358-2.666,0.358h-1.247V524.92H431.903z M434.145,543.385
				c0.726-0.194,1.413-0.473,2.063-0.836c0.649-0.362,1.249-0.805,1.797-1.326c0.549-0.521,1.021-1.109,1.42-1.765
				c0.397-0.654,0.709-1.366,0.935-2.136c0.226-0.769,0.339-1.587,0.339-2.453c0-1.035-0.142-1.971-0.425-2.806
				c-0.283-0.836-0.659-1.581-1.128-2.235s-1.006-1.218-1.611-1.691c-0.605-0.473-1.233-0.864-1.884-1.174
				c-0.649-0.31-1.296-0.537-1.937-0.684c-0.642-0.146-1.231-0.219-1.771-0.219v17.616
				C432.686,543.677,433.42,543.579,434.145,543.385z"/>
			<path d="M443.191,524.721h13.716v1.234h-12.469v5.332h9.325v1.233h-9.325v11.063h12.469v1.233h-13.716V524.721z M447.251,523.567
				l2.202-4.007h-1.34l-2.189,4.007H447.251z"/>
			<path d="M471.817,524.92v1.233h-5.943v18.664h-1.22v-18.664h-6.421v-1.233H471.817z"/>
			<path d="M486.728,526.153h-12.35v5.267h9.232v1.233h-9.232v10.931h12.35v1.233h-13.584V524.92h13.584V526.153z"/>
			<path d="M489.261,524.92v2.865c0.222-0.354,0.469-0.668,0.743-0.941c0.274-0.274,0.56-0.513,0.855-0.717
				c0.296-0.203,0.597-0.373,0.902-0.511c0.305-0.137,0.599-0.25,0.882-0.338c0.663-0.213,1.345-0.332,2.043-0.358
				c0.999,0,1.908,0.192,2.726,0.577c0.818,0.385,1.517,0.891,2.097,1.519c0.579,0.628,1.025,1.338,1.339,2.129
				c0.314,0.792,0.472,1.595,0.472,2.408c0,0.698-0.091,1.346-0.272,1.943c-0.182,0.597-0.431,1.141-0.749,1.631
				c-0.318,0.491-0.692,0.927-1.121,1.307c-0.429,0.381-0.889,0.701-1.38,0.962c-0.49,0.261-1.001,0.458-1.532,0.591
				c-0.53,0.132-1.052,0.198-1.564,0.198c-0.124,0-0.262-0.009-0.412-0.026c-0.123-0.018-0.265-0.037-0.424-0.06
				c-0.159-0.021-0.318-0.055-0.478-0.1l6.818,6.818h-1.646l-9.312-9.299v9.299h-1.194V524.92H489.261z M496.855,536.652
				c0.667-0.287,1.251-0.681,1.751-1.18c0.499-0.5,0.893-1.084,1.181-1.751c0.287-0.668,0.431-1.382,0.431-2.143
				s-0.144-1.475-0.431-2.143c-0.288-0.667-0.682-1.251-1.181-1.751c-0.5-0.499-1.084-0.893-1.751-1.181
				c-0.668-0.287-1.382-0.431-2.143-0.431s-1.475,0.144-2.143,0.431c-0.667,0.288-1.251,0.682-1.751,1.181
				c-0.499,0.5-0.893,1.084-1.18,1.751c-0.288,0.668-0.432,1.382-0.432,2.143s0.144,1.475,0.432,2.143
				c0.287,0.667,0.681,1.251,1.18,1.751c0.5,0.499,1.084,0.893,1.751,1.18c0.668,0.288,1.382,0.432,2.143,0.432
				S496.188,536.94,496.855,536.652z"/>
			<path d="M502.645,544.817v-19.752l12.059,12.059l12.203-12.204v19.897h-1.141v-17.165l-11.023,11.023l-10.93-10.931
				l-0.027,17.072H502.645z"/>
			<path d="M541.803,524.92v1.233h-5.93v17.431h5.93v1.233h-13.57v-1.233h6.421v-17.431h-6.421v-1.233H541.803z"/>
			<path d="M543.129,524.92l12.629,16.462V524.92h1.233v19.818l-12.642-16.436v16.515h-1.221V524.92z"/>
			<path d="M558.317,524.721h13.716v1.234h-12.469v5.332h9.325v1.233h-9.325v11.063h12.469v1.233h-13.716V524.721z M562.377,523.567
				l2.202-4.007h-1.34l-2.189,4.007H562.377z"/>
		</g>
		<g id="Smiley">
			<path d="M298.772,534.737c0.421-0.977,0.132-2.047-0.648-2.383c-0.177-0.074-0.363-0.107-0.552-0.097
				c-0.307,0.011-0.544,0.503-0.84,0.792c-0.296,0.289-0.707,0.311-0.74,0.362c-0.018,0.034-0.034,0.067-0.049,0.101
				c-0.425,0.977-0.132,2.043,0.648,2.384C297.373,536.232,298.35,535.715,298.772,534.737L298.772,534.737z M298.772,534.737"/>
			<g>
				<defs>
					<rect id="SVGID_1_" x="281.073" y="514.122" width="40.704" height="43.585"/>
				</defs>
				<clipPath id="SVGID_2_">
					<use xlink:href="#SVGID_1_"  overflow="visible"/>
				</clipPath>
				<path clip-path="url(#SVGID_2_)" d="M304.024,531.776c0.044,0.138,0.056,0.281,0.033,0.434
					c-0.088,0.536-0.596,0.899-1.128,0.811c-0.041-0.008-0.074-0.019-0.107-0.032c-0.056-0.023-0.111,0.113-0.093,0.306
					c0.011,0.115,0.03,0.229,0.056,0.345c0.259,1.032,1.14,1.702,1.965,1.499c0.829-0.208,1.288-1.215,1.029-2.247
					c-0.181-0.718-0.663-1.262-1.218-1.454C304.165,531.299,303.954,531.547,304.024,531.776L304.024,531.776z M304.024,531.776"/>
				<path clip-path="url(#SVGID_2_)" d="M299.228,556.189c0.485,0.559,1.158,0.907,1.91,0.907c0.755,0,1.432-0.355,1.921-0.918
					c0.274-0.318,0.755-0.667,1.169-0.733c9.557-1.51,16.862-9.778,16.862-19.757c0-11.052-8.96-20.008-20.008-20.008
					c-0.311,0-0.622,0.007-0.929,0.021c-0.419,0.022-1.003-0.181-1.333-0.439c-3.171-2.487-5.444-0.512-6.932,2.164
					c-0.203,0.367-0.651,0.834-1.01,1.048c-5.871,3.486-9.805,9.89-9.805,17.214c0,10.02,7.365,18.313,16.981,19.775
					C298.464,555.527,298.95,555.875,299.228,556.189L299.228,556.189z M306.9,539.179c-2.598,0.426-5.174-2.091-5.755-5.626
					c-0.582-3.534,1.054-6.743,3.652-7.173c2.599-0.425,5.178,2.096,5.755,5.63C311.134,535.541,309.498,538.753,306.9,539.179
					L306.9,539.179z M301.196,519.259c1.044,1.019,3.683,3.087,7.995,3.235c0.418,0.015,0.581,0.296,0.314,0.618
					c-0.866,1.044-2.976,2.924-6.144,1.507c-2.886-1.292-2.972-3.895-2.82-5.171C300.594,519.029,300.9,518.967,301.196,519.259
					L301.196,519.259z M301.082,552.021c0.996,0,1.803,0.903,1.803,2.021c0,1.117-0.807,2.024-1.803,2.024
					c-0.996,0-1.802-0.907-1.802-2.024C299.279,552.925,300.085,552.021,301.082,552.021L301.082,552.021z M298.742,517.875
					c-1.418,0.748-4.778,2.702-7.376,5.719c-0.273,0.318-0.414,0.255-0.311-0.152c0.633-2.506,3.05-10.322,7.805-6.414
					C299.183,517.294,299.113,517.683,298.742,517.875L298.742,517.875z M294.864,527.217c2.631,0,4.767,2.905,4.767,6.484
					c0,3.583-2.136,6.488-4.767,6.488c-2.636,0-4.771-2.905-4.771-6.488C290.093,530.122,292.228,527.217,294.864,527.217
					L294.864,527.217z M294.864,527.217"/>
			</g>
		</g>
	</g>
	<g id="Determine">
		<g>
			<polygon id="Poly3Det" fill="#BBF07F" points="379.613,225.191 362.663,234.986 345.706,225.204 345.698,205.626 
				362.647,195.833 379.606,205.615 			"/>
			<polygon id="Poly2Det" fill="#80A457" points="379.613,144.654 362.663,154.449 345.706,144.667 345.698,125.089 
				362.647,115.296 379.606,125.077 			"/>
			<polygon id="Poly1Det" fill="#40522C" points="379.613,65.064 362.663,74.859 345.706,65.077 345.698,45.5 362.647,35.706 
				379.606,45.487 			"/>
		</g>
		<g>
			<path d="M401.818,45.487c0.893,0,1.76,0.117,2.6,0.352s1.63,0.566,2.368,0.995c0.738,0.429,1.415,0.947,2.029,1.552
				c0.614,0.606,1.141,1.276,1.578,2.01c0.438,0.734,0.778,1.523,1.021,2.368c0.243,0.845,0.365,1.722,0.365,2.633
				c0,0.911-0.115,1.791-0.345,2.64c-0.23,0.849-0.558,1.643-0.981,2.381c-0.425,0.739-0.938,1.413-1.539,2.023
				s-1.27,1.134-2.003,1.572c-0.734,0.438-1.525,0.776-2.375,1.015c-0.849,0.239-1.737,0.358-2.666,0.358h-1.247V45.487H401.818z
				 M404.06,63.952c0.726-0.194,1.413-0.473,2.063-0.835c0.649-0.363,1.249-0.805,1.797-1.327c0.549-0.522,1.021-1.11,1.42-1.764
				c0.397-0.654,0.709-1.366,0.935-2.136s0.339-1.587,0.339-2.454c0-1.035-0.142-1.97-0.425-2.806
				c-0.283-0.835-0.659-1.581-1.128-2.235s-1.006-1.218-1.611-1.691s-1.233-0.864-1.884-1.174c-0.649-0.31-1.296-0.538-1.937-0.683
				c-0.642-0.146-1.231-0.219-1.771-0.219v17.616C402.601,64.244,403.335,64.146,404.06,63.952z"/>
			<path d="M413.106,45.288h13.716v1.233h-12.469v5.333h9.325v1.234h-9.325v11.063h12.469v1.233h-13.716V45.288z M417.166,44.134
				l2.202-4.006h-1.34l-2.189,4.006H417.166z"/>
			<path d="M441.732,45.487v1.234h-5.943v18.664h-1.22V46.721h-6.421v-1.234H441.732z"/>
			<path d="M456.643,46.721h-12.35v5.266h9.232v1.233h-9.232v10.931h12.35v1.233h-13.584V45.487h13.584V46.721z"/>
			<path d="M459.176,45.487v2.865c0.222-0.354,0.469-0.667,0.743-0.942c0.274-0.274,0.56-0.513,0.855-0.716
				c0.296-0.203,0.597-0.374,0.902-0.511c0.305-0.137,0.599-0.25,0.882-0.338c0.663-0.212,1.345-0.332,2.043-0.358
				c0.999,0,1.908,0.192,2.726,0.577c0.818,0.385,1.517,0.891,2.097,1.519c0.579,0.628,1.025,1.338,1.339,2.129
				c0.314,0.792,0.472,1.594,0.472,2.407c0,0.699-0.091,1.347-0.272,1.943c-0.182,0.597-0.431,1.141-0.749,1.632
				s-0.692,0.926-1.121,1.307s-0.889,0.701-1.38,0.961c-0.49,0.261-1.001,0.458-1.532,0.59c-0.53,0.133-1.052,0.199-1.564,0.199
				c-0.124,0-0.262-0.009-0.412-0.027c-0.123-0.018-0.265-0.037-0.424-0.06c-0.159-0.022-0.318-0.055-0.478-0.1l6.818,6.818h-1.646
				l-9.312-9.299v9.299h-1.194V45.487H459.176z M466.771,57.22c0.667-0.287,1.251-0.681,1.751-1.181
				c0.499-0.5,0.893-1.083,1.181-1.751c0.287-0.667,0.431-1.381,0.431-2.142s-0.144-1.475-0.431-2.143
				c-0.288-0.667-0.682-1.251-1.181-1.751c-0.5-0.5-1.084-0.893-1.751-1.181c-0.668-0.287-1.382-0.431-2.143-0.431
				s-1.475,0.144-2.143,0.431c-0.667,0.288-1.251,0.681-1.751,1.181c-0.499,0.5-0.893,1.083-1.18,1.751
				c-0.288,0.668-0.432,1.382-0.432,2.143s0.144,1.475,0.432,2.142c0.287,0.668,0.681,1.251,1.18,1.751
				c0.5,0.5,1.084,0.894,1.751,1.181c0.668,0.288,1.382,0.431,2.143,0.431S466.103,57.507,466.771,57.22z"/>
			<path d="M472.56,65.384V45.633l12.059,12.058l12.203-12.204v19.897h-1.141V48.219l-11.023,11.023l-10.93-10.93L473.7,65.384
				H472.56z"/>
			<path d="M511.718,45.487v1.234h-5.93v17.43h5.93v1.233h-13.57v-1.233h6.421v-17.43h-6.421v-1.234H511.718z"/>
			<path d="M513.044,45.487l12.629,16.462V45.487h1.233v19.818L514.265,48.87v16.515h-1.221V45.487z"/>
			<path d="M528.232,45.288h13.716v1.233h-12.469v5.333h9.325v1.234h-9.325v11.063h12.469v1.233h-13.716V45.288z M532.292,44.134
				l2.202-4.006h-1.34l-2.189,4.006H532.292z"/>
		</g>
		<g id="Warrior">
			<g>
				<defs>
					<rect id="SVGID_3_" x="295.462" y="29.066" width="30.056" height="67.899"/>
				</defs>
				<clipPath id="SVGID_4_">
					<use xlink:href="#SVGID_3_"  overflow="visible"/>
				</clipPath>
				<path clip-path="url(#SVGID_4_)" fill="#0E0F0F" d="M313.126,54.834c0,2.387-1.933,4.319-4.314,4.319
					c-2.381,0-4.315-1.932-4.315-4.319c0-2.381,1.934-4.314,4.315-4.314C311.193,50.521,313.126,52.453,313.126,54.834
					L313.126,54.834z M313.126,54.834"/>
				<path clip-path="url(#SVGID_4_)" fill="#0E0F0F" d="M310.091,79.013c-3.607-1.782-6.101-5.489-6.101-9.768
					c0-2.54,0.896-5.004,2.517-6.955c0.171-0.317,1.456-1.609,1.934-1.822c0.171-0.124,0.354-0.241,0.531-0.359
					c-0.908-0.743-2.086-1.154-3.348-1.055c-0.548,0.047-1.061,0.188-1.532,0.401c-1.892-3.425-3.136-7.079-3.873-10.964
					c-0.194-1.042-0.86-1.573-1.633-1.721v-2.41h0.967v-0.884h-0.967V31.283l-0.919-2.217l-0.949,2.217v12.195h-0.961v0.884h0.961
					v2.776c-0.837,0.505-1.438,1.438-1.208,2.65c0.931,4.898,2.688,9.573,5.346,13.799c0.147,0.236,0.324,0.418,0.501,0.578
					c0.224,2.835-0.065,7.421-0.242,9.59c-0.082,0.129-0.159,0.271-0.224,0.424c-2.546,6.054-3.524,12.979-4.02,19.486
					c-0.236,3.147,4.65,3.118,4.886,0c0.366-4.786,1.061-9.784,2.5-14.452c0.312,0.1,0.642,0.178,0.984,0.207
					c0.401,4.903,0.737,9.808,1.433,14.67c0.448,3.112,5.157,1.786,4.709-1.297C310.734,88.224,310.463,83.604,310.091,79.013
					L310.091,79.013z M310.091,79.013"/>
			</g>
			<path fill="#0E0F0F" d="M315.071,59.59c-2.181,0-4.185,0.738-5.793,1.963c-0.106,0.059-0.896,0.571-1.485,1.397
				c-1.433,1.674-2.305,3.843-2.305,6.218c0,5.293,4.291,9.583,9.583,9.583c5.293,0,9.584-4.291,9.584-9.583
				C324.655,63.882,320.364,59.59,315.071,59.59L315.071,59.59z M315.071,59.59"/>
		</g>
	</g>
	<g id="Suiveur">
		<g>
			<polygon id="Poly3Suiveur" fill="#9459BB" points="279.178,304.676 262.228,314.471 245.271,304.688 245.264,285.111 
				262.213,275.318 279.172,285.099 			"/>
			<polygon id="Poly2Suiveur" fill="#441266" points="184.428,304.676 167.478,314.471 150.521,304.688 150.514,285.111 
				167.463,275.318 184.422,285.099 			"/>
			<polygon id="Poly1Suiveur" fill="#1C032D" points="81.151,303.729 64.201,313.523 47.244,303.741 47.236,284.164 
				64.186,274.371 81.145,284.152 			"/>
		</g>
		<g>
			<path d="M57.809,345.386c-0.133-0.358-0.33-0.686-0.59-0.982c-0.261-0.296-0.588-0.541-0.981-0.735
				c-0.394-0.194-0.852-0.292-1.373-0.292c-0.442,0-0.854,0.079-1.234,0.238s-0.712,0.381-0.995,0.663
				c-0.283,0.283-0.504,0.619-0.664,1.009c-0.159,0.389-0.239,0.809-0.239,1.26c0,0.434,0.08,0.845,0.239,1.233
				c0.159,0.39,0.378,0.73,0.657,1.021c0.279,0.292,0.61,0.524,0.995,0.696c0.385,0.173,0.802,0.259,1.253,0.259
				c0.734,0,1.461,0.146,2.182,0.438c0.721,0.291,1.368,0.707,1.943,1.246c0.575,0.54,1.039,1.189,1.393,1.95
				s0.531,1.609,0.531,2.547c0,0.416-0.055,0.858-0.166,1.327c-0.11,0.469-0.276,0.933-0.497,1.393
				c-0.221,0.46-0.5,0.897-0.836,1.313c-0.336,0.415-0.734,0.782-1.194,1.101s-0.981,0.572-1.565,0.763
				c-0.583,0.19-1.229,0.285-1.937,0.285c-0.929,0-1.771-0.175-2.527-0.524c-0.756-0.349-1.404-0.802-1.943-1.359
				c-0.54-0.557-0.958-1.188-1.253-1.89c-0.296-0.703-0.444-1.408-0.444-2.116h1.18c0,0.177,0.027,0.413,0.08,0.71
				c0.053,0.296,0.148,0.621,0.286,0.975c0.137,0.354,0.325,0.71,0.563,1.068c0.239,0.357,0.544,0.683,0.916,0.975
				c0.371,0.292,0.818,0.53,1.339,0.716c0.522,0.187,1.136,0.279,1.844,0.279c0.645,0,1.269-0.113,1.87-0.339
				s1.132-0.553,1.592-0.981s0.827-0.953,1.101-1.571c0.274-0.619,0.411-1.318,0.411-2.097c0-0.628-0.104-1.242-0.312-1.844
				c-0.208-0.601-0.52-1.139-0.936-1.611c-0.416-0.473-0.931-0.854-1.545-1.141c-0.615-0.287-1.333-0.432-2.156-0.432
				c-0.637,0-1.216-0.137-1.738-0.411c-0.522-0.273-0.968-0.623-1.34-1.048c-0.371-0.425-0.656-0.896-0.855-1.413
				c-0.199-0.517-0.298-1.019-0.298-1.505c0-0.416,0.08-0.876,0.239-1.38s0.413-0.975,0.763-1.413
				c0.349-0.438,0.798-0.804,1.346-1.101c0.548-0.296,1.207-0.444,1.977-0.444c0.592,0,1.11,0.086,1.552,0.259
				c0.442,0.172,0.822,0.394,1.141,0.663s0.582,0.568,0.789,0.896c0.208,0.327,0.372,0.646,0.491,0.955
				c0.119,0.31,0.203,0.593,0.252,0.849c0.048,0.257,0.073,0.442,0.073,0.558h-1.181C58.007,346.082,57.941,345.743,57.809,345.386z
				"/>
			<path d="M63.486,342.222v10.002c0,0.752,0.102,1.49,0.305,2.215c0.203,0.726,0.493,1.413,0.869,2.063
				c0.376,0.65,0.829,1.25,1.36,1.798c0.531,0.549,1.125,1.021,1.784,1.419c0.659,0.398,1.371,0.71,2.136,0.936
				c0.765,0.226,1.567,0.338,2.407,0.338c0.832,0,1.627-0.105,2.388-0.318c0.761-0.212,1.468-0.513,2.123-0.901
				c0.654-0.39,1.251-0.852,1.791-1.387c0.539-0.534,0.999-1.127,1.379-1.777c0.38-0.649,0.674-1.344,0.882-2.082
				c0.208-0.738,0.312-1.501,0.312-2.289v-10.015h1.22v19.897h-1.22v-5.267c-0.31,0.664-0.672,1.245-1.088,1.745
				c-0.416,0.499-0.86,0.933-1.333,1.3s-0.962,0.677-1.466,0.929s-0.995,0.462-1.472,0.63c-1.124,0.389-2.295,0.61-3.516,0.663
				c-0.946,0-1.85-0.124-2.712-0.371c-0.862-0.248-1.667-0.591-2.414-1.028c-0.748-0.438-1.426-0.964-2.037-1.578
				c-0.61-0.615-1.132-1.287-1.565-2.017c-0.434-0.729-0.77-1.51-1.008-2.342c-0.239-0.831-0.358-1.685-0.358-2.56v-10.002H63.486z"
				/>
			<path d="M97.338,342.222v1.233h-5.929v17.431h5.929v1.233h-13.57v-1.233h6.42v-17.431h-6.42v-1.233H97.338z"/>
			<path d="M99.911,342.222l9.086,17.443l9.087-17.443h1.26l-10.347,19.897l-10.333-19.897H99.911z"/>
			<path d="M134.254,343.455h-12.35v5.267h9.232v1.233h-9.232v10.931h12.35v1.233h-13.583v-19.897h13.583V343.455z"/>
			<path d="M136.814,342.222v10.002c0,0.752,0.102,1.49,0.305,2.215c0.203,0.726,0.493,1.413,0.869,2.063
				c0.376,0.65,0.829,1.25,1.36,1.798c0.531,0.549,1.125,1.021,1.784,1.419c0.659,0.398,1.371,0.71,2.136,0.936
				c0.765,0.226,1.567,0.338,2.407,0.338c0.832,0,1.627-0.105,2.388-0.318c0.761-0.212,1.468-0.513,2.123-0.901
				c0.654-0.39,1.251-0.852,1.791-1.387c0.539-0.534,0.999-1.127,1.379-1.777c0.38-0.649,0.674-1.344,0.882-2.082
				c0.208-0.738,0.312-1.501,0.312-2.289v-10.015h1.22v19.897h-1.22v-5.267c-0.31,0.664-0.672,1.245-1.088,1.745
				c-0.416,0.499-0.86,0.933-1.333,1.3s-0.962,0.677-1.466,0.929s-0.995,0.462-1.472,0.63c-1.124,0.389-2.295,0.61-3.516,0.663
				c-0.946,0-1.85-0.124-2.712-0.371c-0.862-0.248-1.667-0.591-2.414-1.028c-0.748-0.438-1.426-0.964-2.037-1.578
				c-0.61-0.615-1.132-1.287-1.565-2.017c-0.434-0.729-0.77-1.51-1.008-2.342c-0.239-0.831-0.358-1.685-0.358-2.56v-10.002H136.814z
				"/>
			<path d="M158.303,342.222v2.865c0.221-0.354,0.469-0.668,0.743-0.941c0.274-0.274,0.559-0.513,0.855-0.717
				c0.296-0.203,0.597-0.373,0.902-0.511c0.305-0.137,0.599-0.25,0.882-0.338c0.664-0.213,1.344-0.332,2.043-0.358
				c0.999,0,1.908,0.192,2.726,0.577c0.818,0.385,1.517,0.891,2.096,1.519s1.026,1.338,1.34,2.129
				c0.314,0.792,0.471,1.595,0.471,2.408c0,0.698-0.091,1.346-0.272,1.943c-0.181,0.597-0.431,1.141-0.75,1.631
				c-0.318,0.491-0.692,0.927-1.121,1.307c-0.429,0.381-0.889,0.701-1.379,0.962c-0.491,0.261-1.002,0.458-1.532,0.591
				c-0.531,0.132-1.053,0.198-1.565,0.198c-0.124,0-0.261-0.009-0.411-0.026c-0.124-0.018-0.265-0.037-0.424-0.06
				c-0.159-0.021-0.318-0.055-0.478-0.1l6.818,6.818h-1.645l-9.312-9.299v9.299h-1.194v-19.897H158.303z M165.897,353.954
				c0.667-0.287,1.251-0.681,1.751-1.18c0.5-0.5,0.893-1.084,1.181-1.751c0.287-0.668,0.431-1.382,0.431-2.143
				s-0.144-1.475-0.431-2.143c-0.288-0.667-0.681-1.251-1.181-1.751c-0.5-0.499-1.083-0.893-1.751-1.181
				c-0.668-0.287-1.382-0.431-2.143-0.431s-1.475,0.144-2.142,0.431c-0.668,0.288-1.251,0.682-1.751,1.181
				c-0.5,0.5-0.894,1.084-1.181,1.751c-0.288,0.668-0.431,1.382-0.431,2.143s0.144,1.475,0.431,2.143
				c0.287,0.667,0.681,1.251,1.181,1.751c0.5,0.499,1.083,0.893,1.751,1.18c0.667,0.288,1.381,0.432,2.142,0.432
				S165.229,354.242,165.897,353.954z"/>
		</g>
		<g id="Mouton">
			<path d="M67.925,249.254c0.567,4.06,1.376,7.252,1.867,9.1c0.298,1.121,0.561,1.071,0.823,1.071h0.966
				c0.497,0,0.397-1.556,0.397-1.556s-0.61-5.514-0.433-9.793C70.693,248.828,68.891,249.254,67.925,249.254L67.925,249.254z
				 M67.925,249.254"/>
			<path d="M63.553,250.063c0.206,3.741,0.724,6.678,1.05,8.375c0.199,1.036,0.468,0.986,0.724,0.986h0.966
				c0.497,0,0.54-1.426,0.54-1.426s-0.114-5.075,0.447-9.014C66.357,249.673,64.518,250.063,63.553,250.063L63.553,250.063z
				 M63.553,250.063"/>
			<path d="M51.835,247.883c0.567,4.324,1.923,8.434,2.42,10.399c0.297,1.192,0.561,1.136,0.823,1.136h1.143
				c0.291,0,0.192-1.4,0.192-1.4s-1.008-3.902-0.831-8.458C54.404,249.465,52.701,248.814,51.835,247.883L51.835,247.883z
				 M51.835,247.883"/>
			<path d="M48.123,246.316c0.446,3.542,0.696,9.397,1.171,11.747c0.284,1.426,0.603,1.362,0.916,1.362h0.744
				c0.597,0,0.575-1.973,0.575-1.973s0.122-4.799,0.894-10.265C51.239,246.52,49.259,246.103,48.123,246.316L48.123,246.316z
				 M48.123,246.316"/>
			<g>
				<defs>
					<rect id="SVGID_5_" x="43.751" y="225.965" width="38.156" height="36.339"/>
				</defs>
				<clipPath id="SVGID_6_">
					<use xlink:href="#SVGID_5_"  overflow="visible"/>
				</clipPath>
				<path clip-path="url(#SVGID_6_)" d="M58.245,230.29c1.05,0,2.156,0.496,2.945,1.454c0.411-0.865,1.575-1.369,2.774-1.369
					c1.661,0,3.371,0.958,3.244,3.244c0.575-0.334,1.171-0.476,1.76-0.476c2.264,0,4.365,2.158,3.918,3.975
					c-2.108,1.453,0.39,4.584-0.788,6.557c0.703,2.604-1.235,4.096-3.151,4.096c-0.873,0-1.753-0.319-2.363-0.979
					c0.291,1.561-1.328,2.59-3.088,2.59c-1.475,0-3.045-0.724-3.677-2.486c-1.149,1.571-2.434,2.153-3.591,2.153
					c-1.952,0-3.528-1.675-3.457-3.102c-0.397,0.199-0.852,0.291-1.313,0.291c-2.208,0-4.628-2.107-2.37-4.699
					c-1.292-0.256-2.427-1.086-2.427-2.632c0-0.901,0.779-2.457,2.604-2.457c0.298,0,0.625,0.043,0.979,0.129
					c-1.043-2.159,0.845-4.032,2.953-4.032c0.673,0,1.37,0.191,2.001,0.618C55.476,231.226,56.812,230.29,58.245,230.29
					 M58.245,227.479c-1.91,0-3.556,0.844-4.62,2.264c-0.144-0.007-0.286-0.015-0.427-0.015c-2.149,0-4.159,1.08-5.251,2.812
					c-0.286,0.454-0.498,0.937-0.633,1.434c-2.186,0.809-3.471,2.938-3.471,4.933c0,1.525,0.575,2.859,1.59,3.839
					c-0.163,0.979-0.043,1.967,0.383,2.903c0.858,1.888,2.867,3.201,5.103,3.386c0.192,0.282,0.405,0.553,0.646,0.808
					c1.222,1.285,2.924,2.031,4.663,2.031c1.143,0,2.249-0.313,3.265-0.908c1.113,0.795,2.492,1.233,4.003,1.233
					c1.746,0,3.379-0.623,4.486-1.687c0.319,0.049,0.639,0.078,0.965,0.078c1.973,0,3.818-0.889,4.954-2.363
					c0.916-1.2,1.299-2.676,1.115-4.244c0.426-1.419,0.17-2.818-0.028-3.897c-0.05-0.276-0.121-0.659-0.149-0.929
					c0.384-0.37,0.66-0.837,0.788-1.363c0.39-1.576-0.035-3.301-1.157-4.735c-1.271-1.611-3.258-2.639-5.245-2.725
					c-0.227-0.369-0.469-0.674-0.703-0.923c-1.115-1.177-2.775-1.852-4.557-1.852c-1.022,0-1.987,0.22-2.826,0.611
					C60.239,227.72,59.259,227.479,58.245,227.479L58.245,227.479z M58.245,227.479"/>
				<path clip-path="url(#SVGID_6_)" d="M80.999,242.859c0.489-2.044-2.243-8.44-9.752-6.183c-3.826-1.753-5.586,1.35-5.607,2.129
					c-0.021,0.853,2.953,0.923,3.961,0.811c-0.263,0.361-0.021,0.076-0.178,1.184c-0.206,1.397,0.213,2.547,1.114,3.769
					C72.212,246.818,83.767,247.395,80.999,242.859L80.999,242.859z M76.698,241.809c-0.405-0.057-0.688-0.441-0.631-0.844
					c0.056-0.413,0.433-0.703,0.837-0.647c0.404,0.064,0.688,0.44,0.631,0.853C77.479,241.582,77.102,241.866,76.698,241.809
					L76.698,241.809z M76.698,241.809"/>
			</g>
		</g>
	</g>
	<g id="Leader">
		<g>
			<polygon id="Poly1Leader" fill="#272C3E" points="679.97,305.729 663.02,315.523 646.063,305.741 646.055,286.164 
				663.004,276.371 679.963,286.152 			"/>
			<polygon id="Poly2Leader" fill="#1D2A57" points="585.22,305.729 568.27,315.523 551.313,305.741 551.305,286.164 
				568.255,276.371 585.213,286.152 			"/>
			<polygon id="Poly3Leader" fill="#2E428A" points="481.942,304.781 464.992,314.576 448.035,304.793 448.028,285.216 
				464.978,275.423 481.937,285.204 			"/>
		</g>
		<g>
			<path d="M601.24,339.783v18.664h12.336v1.233h-13.57v-19.897H601.24z"/>
			<path d="M628.486,341.017h-12.35v5.267h9.232v1.233h-9.232v10.931h12.35v1.233h-13.584v-19.897h13.584V341.017z"/>
			<path d="M629.813,359.681v-13.093c0-1.043,0.194-1.985,0.584-2.825c0.389-0.84,0.899-1.557,1.532-2.148
				c0.632-0.593,1.354-1.046,2.169-1.36c0.813-0.313,1.645-0.471,2.493-0.471c0.566,0,1.126,0.068,1.679,0.206
				c0.553,0.137,1.081,0.336,1.585,0.597s0.971,0.583,1.399,0.968s0.803,0.829,1.121,1.334c0.318,0.504,0.565,1.063,0.742,1.678
				s0.266,1.28,0.266,1.996v13.119h-1.233v-11.886h-11.116l0.014,11.886H629.813z M642.269,346.575c0-0.646-0.131-1.305-0.392-1.977
				s-0.635-1.282-1.12-1.831c-0.487-0.548-1.081-0.997-1.784-1.346c-0.703-0.35-1.493-0.524-2.368-0.524
				c-0.885,0-1.676,0.175-2.374,0.524c-0.699,0.349-1.294,0.798-1.784,1.346c-0.491,0.549-0.867,1.159-1.128,1.831
				s-0.392,1.331-0.392,1.977H642.269z"/>
			<path d="M645.903,339.783c0.893,0,1.76,0.117,2.6,0.352s1.63,0.566,2.368,0.995s1.415,0.946,2.029,1.552s1.141,1.275,1.578,2.01
				c0.438,0.734,0.778,1.523,1.021,2.367c0.243,0.845,0.365,1.723,0.365,2.634s-0.115,1.791-0.345,2.64
				c-0.23,0.849-0.558,1.643-0.981,2.381c-0.425,0.738-0.938,1.413-1.539,2.023c-0.602,0.609-1.27,1.134-2.003,1.571
				c-0.734,0.438-1.525,0.776-2.375,1.015c-0.849,0.239-1.737,0.358-2.666,0.358h-1.247v-19.897H645.903z M648.145,358.248
				c0.726-0.194,1.413-0.473,2.063-0.836c0.649-0.362,1.249-0.805,1.797-1.326c0.549-0.521,1.021-1.109,1.42-1.765
				c0.397-0.654,0.709-1.366,0.935-2.136c0.226-0.769,0.339-1.587,0.339-2.453c0-1.035-0.142-1.971-0.425-2.806
				c-0.283-0.836-0.659-1.581-1.128-2.235s-1.006-1.218-1.611-1.691c-0.605-0.473-1.233-0.864-1.884-1.174
				c-0.649-0.31-1.296-0.537-1.937-0.684c-0.642-0.146-1.231-0.219-1.771-0.219v17.616
				C646.686,358.54,647.42,358.442,648.145,358.248z"/>
			<path d="M670.775,341.017h-12.35v5.267h9.232v1.233h-9.232v10.931h12.35v1.233h-13.584v-19.897h13.584V341.017z"/>
			<path d="M673.309,339.783v2.865c0.222-0.354,0.469-0.668,0.743-0.941c0.274-0.274,0.56-0.513,0.855-0.717
				c0.296-0.203,0.597-0.373,0.902-0.511c0.305-0.137,0.599-0.25,0.882-0.338c0.663-0.213,1.345-0.332,2.043-0.358
				c0.999,0,1.908,0.192,2.726,0.577c0.818,0.385,1.517,0.891,2.097,1.519c0.579,0.628,1.025,1.338,1.339,2.129
				c0.314,0.792,0.472,1.595,0.472,2.408c0,0.698-0.091,1.346-0.272,1.943c-0.182,0.597-0.431,1.141-0.749,1.631
				c-0.318,0.491-0.692,0.927-1.121,1.307c-0.429,0.381-0.889,0.701-1.38,0.962c-0.49,0.261-1.001,0.458-1.532,0.591
				c-0.53,0.132-1.052,0.198-1.564,0.198c-0.124,0-0.262-0.009-0.412-0.026c-0.123-0.018-0.265-0.037-0.424-0.06
				c-0.159-0.021-0.318-0.055-0.478-0.1l6.818,6.818h-1.646l-9.312-9.299v9.299h-1.194v-19.897H673.309z M680.903,351.516
				c0.667-0.287,1.251-0.681,1.751-1.18c0.499-0.5,0.893-1.084,1.181-1.751c0.287-0.668,0.431-1.382,0.431-2.143
				s-0.144-1.475-0.431-2.143c-0.288-0.667-0.682-1.251-1.181-1.751c-0.5-0.499-1.084-0.893-1.751-1.181
				c-0.668-0.287-1.382-0.431-2.143-0.431s-1.475,0.144-2.143,0.431c-0.667,0.288-1.251,0.682-1.751,1.181
				c-0.499,0.5-0.893,1.084-1.18,1.751c-0.288,0.668-0.432,1.382-0.432,2.143s0.144,1.475,0.432,2.143
				c0.287,0.667,0.681,1.251,1.18,1.751c0.5,0.499,1.084,0.893,1.751,1.18c0.668,0.288,1.382,0.432,2.143,0.432
				S680.235,351.804,680.903,351.516z"/>
		</g>
		<g id="Couronne">
			<path d="M680.992,223.016c-1.683,0-3.038,1.479-3.038,3.302c0,1.187,0.573,2.217,1.436,2.798
				c-1.831,2.739-4.402,5.924-7.051,6.839c-3.495,1.215-6.752-6.24-8.354-10.667c1.188-0.451,2.051-1.675,2.051-3.117
				c0-1.823-1.355-3.301-3.029-3.301c-1.671,0-3.025,1.478-3.025,3.301c0,1.442,0.86,2.666,2.05,3.117
				c-1.602,4.428-4.852,11.882-8.344,10.667c-2.651-0.916-5.229-4.101-7.051-6.839c0.854-0.582,1.433-1.611,1.433-2.798
				c0-1.823-1.364-3.302-3.037-3.302c-1.671,0-3.027,1.479-3.027,3.302c0,1.82,1.356,3.301,3.027,3.301
				c0.035,0,0.063-0.009,0.089-0.009l4.094,19.013h27.587l4.094-19.013c0.035,0,0.063,0.009,0.098,0.009
				c1.663,0,3.027-1.48,3.027-3.301C684.01,224.495,682.655,223.016,680.992,223.016L680.992,223.016z M680.992,223.016"/>
			<rect x="649.354" y="249.292" width="27.306" height="3.706"/>
		</g>
	</g>
	<g id="Grad1">
		<g id="GradientHorizon">
			<rect id="R1_suiveur" x="659" y="492" fill="#1C032D" width="35" height="13"/>
			<rect id="R2_suiveur" x="659" y="479" fill="#441266" width="35" height="13"/>
			<rect id="R3_suiveur" x="659" y="467" fill="#9459BB" width="35" height="12"/>
			<rect id="R_neutre" x="659" y="455" fill="#E1E0FF" width="35" height="12"/>
			<rect id="R3_leader" x="659" y="443" fill="#2E428A" width="35" height="12"/>
			<rect id="R2_leader" x="659" y="431" fill="#1D2A57" width="35" height="12"/>
			<rect id="R1_leader" x="659" y="419" fill="#272C3E" width="35" height="12"/>
		</g>
		<path id="Cursor1" d="M697.943,459c-0.813,0-1.527,0.396-1.981,1h-40.036c-0.454-0.604-1.169-1-1.982-1
			c-1.372,0-2.485,1.113-2.485,2.486c0,1.372,1.113,2.485,2.485,2.485c0.8,0,1.504-0.385,1.959-0.972h40.083
			c0.454,0.587,1.158,0.972,1.958,0.972c1.373,0,2.486-1.113,2.486-2.485C700.43,460.113,699.316,459,697.943,459z"/>
	</g>
	<g id="Grad2">
		<g id="GradientVertical">
			<rect id="R1_indet" x="721" y="492" fill="#2C1317" width="35" height="13"/>
			<rect id="R2_indet" x="721" y="479" fill="#85404C" width="35" height="13"/>
			<rect id="R3_indet" x="721" y="467" fill="#C07784" width="35" height="12"/>
			<rect id="R_neutre_1_" x="721" y="455" fill="#E1E0FF" width="35" height="12"/>
			<rect id="R3_det" x="721" y="443" fill="#BBF07F" width="35" height="12"/>
			<rect id="R2_det" x="721" y="431" fill="#80A457" width="35" height="12"/>
			<rect id="R1_det" x="721" y="419" fill="#40522C" width="35" height="12"/>
		</g>
		<path id="Cursor2" d="M760.943,459c-0.813,0-1.527,0.396-1.981,1h-40.036c-0.454-0.604-1.169-1-1.982-1
			c-1.372,0-2.485,1.113-2.485,2.486c0,1.372,1.113,2.485,2.485,2.485c0.8,0,1.504-0.385,1.959-0.972h40.083
			c0.454,0.587,1.158,0.972,1.958,0.972c1.373,0,2.486-1.113,2.486-2.485C763.43,460.113,762.316,459,760.943,459z"/>
	</g>
</g>
</svg>
