<?xml version="1.0" encoding="utf-8"?>
<!-- Generator: Adobe Illustrator 16.0.0, SVG Export Plug-In . SVG Version: 6.00 Build 0)  -->
<!DOCTYPE svg PUBLIC "-//W3C//DTD SVG 1.1//EN" "http://www.w3.org/Graphics/SVG/1.1/DTD/svg11.dtd">
<svg version="1.1" id="Calque_1" onload="ajoutEvent(evt)"
	 xmlns="http://www.w3.org/2000/svg" xmlns:xlink="http://www.w3.org/1999/xlink" x="0px" y="0px" width="800px" height="600px"
	 viewBox="0 0 800 600" enable-background="new 0 0 800 600" xml:space="preserve">
<script  type="text/ecmascript" xlink:href="js/Camail_Donato.js"></script>
<script  type="text/ecmascript" xlink:href="js/d3.js"></script>
<g id="Calque_1_1_">
	<g id="Croix">
		<rect x="362" y="55" fill="#CCCCCC" width="1" height="480"/>
		<rect x="63" y="294" fill="#CCCCCC" width="601" height="1"/>
	</g>
	<polygon id="PolyNeutre" fill="#E1E0FF" points="379.613,303.832 362.663,313.628 345.706,303.846 345.698,284.269 
		362.647,274.476 379.606,284.257 	"/>
	<g id="Indetermine">
		<g>
			<polygon id="Poly1Indet" fill="#2C1317" points="379.613,544.496 362.663,554.293 345.706,544.511 345.698,524.934 
				362.647,515.14 379.606,524.921 			"/>
			<polygon id="Poly2Indet" fill="#85404C" points="379.613,463.96 362.663,473.755 345.706,463.974 345.698,444.396 
				362.647,434.603 379.606,444.384 			"/>
			<polygon id="Poly3Indet" fill="#C07784" points="379.613,384.369 362.663,394.165 345.706,384.384 345.698,364.806 
				362.647,355.013 379.606,364.794 			"/>
		</g>
		<g>
			<path d="M414.194,524.92v1.232h-5.93v17.432h5.93v1.232h-13.57v-1.232h6.421v-17.432h-6.421v-1.232H414.194z"/>
			<path d="M415.521,524.92l12.629,16.462V524.92h1.233v19.817l-12.643-16.436v16.515h-1.221L415.521,524.92L415.521,524.92z"/>
			<path d="M431.903,524.92c0.894,0,1.76,0.116,2.601,0.352c0.84,0.235,1.63,0.566,2.367,0.995c0.738,0.429,1.415,0.946,2.029,1.552
				c0.614,0.606,1.141,1.275,1.578,2.01s0.778,1.523,1.021,2.367c0.242,0.845,0.364,1.724,0.364,2.634
				c0,0.911-0.114,1.791-0.345,2.641c-0.23,0.849-0.558,1.643-0.981,2.381c-0.425,0.738-0.938,1.413-1.538,2.022
				c-0.603,0.609-1.271,1.135-2.004,1.571c-0.733,0.438-1.524,0.776-2.375,1.015c-0.849,0.239-1.736,0.358-2.666,0.358h-1.246
				V524.92H431.903z M434.145,543.385c0.726-0.194,1.413-0.474,2.063-0.836s1.249-0.806,1.798-1.326
				c0.549-0.521,1.021-1.109,1.42-1.766c0.396-0.653,0.709-1.365,0.935-2.136c0.227-0.769,0.339-1.587,0.339-2.453
				c0-1.034-0.142-1.971-0.425-2.806c-0.283-0.836-0.659-1.581-1.128-2.235c-0.469-0.653-1.006-1.218-1.611-1.69
				c-0.604-0.474-1.232-0.864-1.884-1.174c-0.648-0.311-1.296-0.537-1.937-0.685c-0.643-0.146-1.231-0.219-1.771-0.219v17.616
				C432.686,543.677,433.421,543.578,434.145,543.385z"/>
			<path d="M443.191,524.721h13.716v1.233h-12.469v5.332h9.325v1.233h-9.325v11.063h12.469v1.233h-13.716V524.721z M447.252,523.567
				l2.201-4.007h-1.34l-2.188,4.007H447.252z"/>
			<path d="M471.817,524.92v1.232h-5.943v18.664h-1.22v-18.664h-6.421v-1.232H471.817z"/>
			<path d="M486.728,526.153h-12.35v5.268h9.231v1.232h-9.231v10.932h12.35v1.232h-13.584V524.92h13.584V526.153L486.728,526.153z"
				/>
			<path d="M489.261,524.92v2.864c0.222-0.354,0.469-0.668,0.743-0.94c0.273-0.274,0.56-0.514,0.854-0.717
				c0.296-0.203,0.597-0.373,0.902-0.512c0.305-0.137,0.599-0.25,0.882-0.338c0.663-0.213,1.345-0.332,2.043-0.357
				c0.999,0,1.908,0.191,2.726,0.576c0.818,0.386,1.518,0.892,2.098,1.52c0.579,0.628,1.024,1.338,1.339,2.129
				c0.313,0.792,0.472,1.595,0.472,2.408c0,0.698-0.091,1.346-0.271,1.943c-0.183,0.597-0.432,1.141-0.749,1.631
				c-0.318,0.49-0.692,0.927-1.121,1.307c-0.43,0.381-0.89,0.701-1.38,0.962s-1.001,0.458-1.532,0.591
				c-0.53,0.132-1.052,0.198-1.564,0.198c-0.124,0-0.262-0.009-0.412-0.026c-0.122-0.018-0.265-0.037-0.424-0.06
				c-0.159-0.021-0.317-0.055-0.478-0.1l6.817,6.817h-1.646l-9.313-9.299v9.299h-1.193V524.92H489.261z M496.855,536.652
				c0.667-0.287,1.251-0.681,1.751-1.18c0.499-0.5,0.894-1.084,1.181-1.751c0.287-0.668,0.432-1.382,0.432-2.144
				c0-0.761-0.145-1.475-0.432-2.143c-0.287-0.667-0.682-1.251-1.181-1.751c-0.5-0.499-1.084-0.893-1.751-1.181
				c-0.668-0.287-1.382-0.432-2.143-0.432c-0.762,0-1.476,0.145-2.144,0.432c-0.667,0.288-1.251,0.682-1.751,1.181
				c-0.499,0.5-0.893,1.084-1.18,1.751c-0.288,0.668-0.433,1.382-0.433,2.143c0,0.762,0.145,1.476,0.433,2.144
				c0.287,0.667,0.681,1.251,1.18,1.751c0.5,0.499,1.084,0.893,1.751,1.18c0.668,0.288,1.382,0.433,2.144,0.433
				C495.473,537.084,496.188,536.94,496.855,536.652z"/>
			<path d="M502.645,544.817v-19.752l12.059,12.059l12.203-12.203v19.896h-1.141v-17.165l-11.023,11.023l-10.93-10.932
				l-0.027,17.072L502.645,544.817L502.645,544.817z"/>
			<path d="M541.803,524.92v1.232h-5.931v17.432h5.931v1.232h-13.57v-1.232h6.421v-17.432h-6.421v-1.232H541.803z"/>
			<path d="M543.13,524.92l12.629,16.462V524.92h1.232v19.817l-12.642-16.436v16.515h-1.221L543.13,524.92L543.13,524.92z"/>
			<path d="M558.317,524.721h13.716v1.233h-12.469v5.332h9.325v1.233h-9.325v11.063h12.469v1.233h-13.716V524.721z M562.378,523.567
				l2.201-4.007h-1.34l-2.188,4.007H562.378z"/>
		</g>
		<g id="Smiley">
			<path d="M298.772,534.737c0.421-0.977,0.132-2.047-0.648-2.383c-0.177-0.074-0.362-0.107-0.552-0.097
				c-0.307,0.011-0.544,0.503-0.84,0.792s-0.707,0.311-0.74,0.361c-0.018,0.034-0.034,0.067-0.049,0.102
				c-0.425,0.977-0.132,2.043,0.647,2.384C297.373,536.232,298.35,535.715,298.772,534.737L298.772,534.737z"/>
			<g>
				<g>
					<defs>
						<rect id="SVGID_1_" x="281.073" y="514.121" width="40.704" height="43.586"/>
					</defs>
					<clipPath id="SVGID_2_">
						<use xlink:href="#SVGID_1_"  overflow="visible"/>
					</clipPath>
					<path clip-path="url(#SVGID_2_)" d="M304.024,531.776c0.044,0.138,0.056,0.281,0.033,0.435
						c-0.089,0.535-0.597,0.898-1.128,0.811c-0.041-0.008-0.074-0.019-0.107-0.032c-0.056-0.022-0.111,0.113-0.093,0.307
						c0.011,0.114,0.029,0.229,0.056,0.345c0.259,1.032,1.14,1.702,1.965,1.499c0.829-0.208,1.288-1.215,1.029-2.247
						c-0.181-0.718-0.663-1.262-1.218-1.454C304.165,531.299,303.954,531.547,304.024,531.776L304.024,531.776z"/>
				</g>
				<g>
					<defs>
						<rect id="SVGID_3_" x="281.073" y="514.121" width="40.704" height="43.586"/>
					</defs>
					<clipPath id="SVGID_4_">
						<use xlink:href="#SVGID_3_"  overflow="visible"/>
					</clipPath>
					<path clip-path="url(#SVGID_4_)" d="M299.228,556.189c0.484,0.56,1.158,0.907,1.91,0.907c0.755,0,1.432-0.355,1.921-0.918
						c0.273-0.318,0.755-0.667,1.169-0.733c9.557-1.51,16.861-9.778,16.861-19.757c0-11.052-8.96-20.008-20.008-20.008
						c-0.311,0-0.622,0.007-0.929,0.021c-0.419,0.022-1.003-0.181-1.333-0.438c-3.171-2.487-5.444-0.513-6.932,2.164
						c-0.203,0.367-0.651,0.834-1.011,1.048c-5.871,3.485-9.805,9.89-9.805,17.214c0,10.02,7.365,18.313,16.981,19.775
						C298.464,555.527,298.95,555.875,299.228,556.189L299.228,556.189z M306.9,539.179c-2.598,0.426-5.174-2.091-5.755-5.626
						c-0.582-3.534,1.054-6.743,3.651-7.173c2.6-0.425,5.179,2.096,5.756,5.63C311.134,535.541,309.498,538.753,306.9,539.179
						L306.9,539.179z M301.196,519.259c1.044,1.019,3.683,3.087,7.995,3.234c0.418,0.016,0.581,0.296,0.313,0.618
						c-0.865,1.044-2.976,2.924-6.144,1.507c-2.886-1.292-2.972-3.895-2.82-5.171C300.594,519.029,300.9,518.967,301.196,519.259
						L301.196,519.259z M301.082,552.021c0.996,0,1.804,0.903,1.804,2.021s-0.808,2.024-1.804,2.024s-1.802-0.907-1.802-2.024
						C299.279,552.925,300.085,552.021,301.082,552.021L301.082,552.021z M298.742,517.875c-1.418,0.747-4.778,2.701-7.376,5.719
						c-0.273,0.317-0.414,0.255-0.311-0.152c0.633-2.506,3.05-10.322,7.805-6.414C299.183,517.294,299.113,517.683,298.742,517.875
						L298.742,517.875z M294.864,527.217c2.631,0,4.767,2.904,4.767,6.483c0,3.583-2.136,6.488-4.767,6.488
						c-2.636,0-4.771-2.905-4.771-6.488C290.093,530.121,292.228,527.217,294.864,527.217L294.864,527.217z"/>
				</g>
			</g>
		</g>
	</g>
	<g id="Determine">
		<g>
			<polygon id="Poly3Det" fill="#BBF07F" points="379.613,225.191 362.663,234.986 345.706,225.204 345.698,205.626 
				362.647,195.833 379.606,205.615 			"/>
			<polygon id="Poly2Det" fill="#80A457" points="379.613,144.654 362.663,154.449 345.706,144.667 345.698,125.089 
				362.647,115.296 379.606,125.077 			"/>
			<polygon id="Poly1Det" fill="#40522C" points="379.613,65.064 362.663,74.859 345.706,65.077 345.698,45.5 362.647,35.706 
				379.606,45.487 			"/>
		</g>
		<g>
			<path d="M401.818,45.487c0.893,0,1.76,0.117,2.6,0.353c0.84,0.234,1.63,0.565,2.368,0.995c0.738,0.429,1.415,0.946,2.029,1.552
				c0.614,0.606,1.141,1.276,1.578,2.01c0.438,0.734,0.777,1.523,1.021,2.368s0.365,1.722,0.365,2.633s-0.115,1.791-0.345,2.641
				c-0.23,0.849-0.559,1.643-0.981,2.381c-0.425,0.738-0.938,1.413-1.539,2.022c-0.601,0.61-1.27,1.135-2.003,1.572
				c-0.733,0.438-1.524,0.776-2.375,1.015c-0.849,0.239-1.737,0.358-2.666,0.358h-1.247V45.487H401.818z M404.06,63.952
				c0.726-0.194,1.413-0.474,2.063-0.835c0.649-0.363,1.249-0.806,1.797-1.327c0.55-0.522,1.021-1.11,1.42-1.765
				c0.397-0.653,0.709-1.365,0.936-2.136c0.226-0.77,0.339-1.587,0.339-2.454c0-1.035-0.142-1.97-0.425-2.806
				c-0.283-0.835-0.659-1.581-1.128-2.235c-0.47-0.653-1.006-1.218-1.611-1.69c-0.604-0.474-1.233-0.864-1.884-1.175
				c-0.649-0.31-1.296-0.537-1.938-0.683s-1.23-0.219-1.771-0.219v17.616C402.601,64.244,403.335,64.146,404.06,63.952z"/>
			<path d="M413.106,45.288h13.716v1.232h-12.469v5.333h9.325v1.234h-9.325v11.063h12.469v1.233h-13.716V45.288z M417.166,44.134
				l2.202-4.006h-1.34l-2.189,4.006H417.166z"/>
			<path d="M441.732,45.487v1.234h-5.943v18.664h-1.22V46.721h-6.421v-1.234H441.732z"/>
			<path d="M456.643,46.721h-12.35v5.266h9.231v1.233h-9.231v10.931h12.35v1.233h-13.584V45.487h13.584V46.721z"/>
			<path d="M459.177,45.487v2.865c0.222-0.354,0.469-0.667,0.743-0.941c0.273-0.274,0.56-0.514,0.854-0.717
				c0.296-0.202,0.597-0.374,0.902-0.511c0.305-0.137,0.599-0.25,0.882-0.338c0.663-0.212,1.345-0.332,2.043-0.358
				c0.999,0,1.908,0.192,2.726,0.577c0.818,0.385,1.518,0.892,2.098,1.52c0.579,0.628,1.024,1.338,1.339,2.129
				c0.313,0.792,0.472,1.594,0.472,2.407c0,0.698-0.091,1.347-0.271,1.942c-0.183,0.598-0.432,1.142-0.749,1.632
				c-0.318,0.491-0.692,0.927-1.121,1.308c-0.43,0.381-0.89,0.701-1.38,0.961c-0.49,0.261-1.001,0.458-1.532,0.59
				c-0.53,0.133-1.052,0.199-1.564,0.199c-0.124,0-0.262-0.009-0.412-0.027c-0.123-0.018-0.265-0.037-0.424-0.06
				s-0.317-0.056-0.478-0.101l6.817,6.818h-1.646l-9.313-9.299v9.299h-1.193V45.487H459.177z M466.771,57.22
				c0.667-0.287,1.251-0.681,1.751-1.181c0.499-0.5,0.893-1.083,1.181-1.751c0.287-0.667,0.432-1.382,0.432-2.143
				s-0.145-1.475-0.432-2.143c-0.288-0.667-0.682-1.251-1.181-1.751c-0.5-0.5-1.084-0.894-1.751-1.182
				c-0.668-0.286-1.382-0.431-2.143-0.431c-0.762,0-1.476,0.145-2.144,0.431c-0.667,0.288-1.251,0.682-1.751,1.182
				c-0.499,0.5-0.893,1.083-1.18,1.751c-0.288,0.668-0.433,1.382-0.433,2.143s0.145,1.476,0.433,2.143
				c0.287,0.668,0.681,1.251,1.18,1.751c0.5,0.5,1.084,0.894,1.751,1.181c0.668,0.288,1.382,0.431,2.144,0.431
				C465.389,57.651,466.103,57.507,466.771,57.22z"/>
			<path d="M472.56,65.384V45.633l12.059,12.058l12.203-12.204v19.897h-1.141V48.219l-11.023,11.023l-10.93-10.931L473.7,65.384
				H472.56z"/>
			<path d="M511.719,45.487v1.234h-5.931v17.43h5.931v1.233h-13.57v-1.233h6.421v-17.43h-6.421v-1.234H511.719z"/>
			<path d="M513.045,45.487l12.629,16.462V45.487h1.232v19.818L514.265,48.87v16.515h-1.221V45.487z"/>
			<path d="M528.232,45.288h13.716v1.232h-12.469v5.333h9.325v1.234h-9.325v11.063h12.469v1.233h-13.716V45.288z M532.293,44.134
				l2.201-4.006h-1.34l-2.188,4.006H532.293z"/>
		</g>
		<g id="Warrior">
			<g>
				<g>
					<defs>
						<rect id="SVGID_5_" x="295.462" y="29.066" width="30.057" height="67.899"/>
					</defs>
					<clipPath id="SVGID_6_">
						<use xlink:href="#SVGID_5_"  overflow="visible"/>
					</clipPath>
					<path clip-path="url(#SVGID_6_)" fill="#0E0F0F" d="M313.126,54.834c0,2.387-1.933,4.318-4.313,4.318s-4.315-1.932-4.315-4.318
						c0-2.381,1.935-4.314,4.315-4.314C311.193,50.521,313.126,52.453,313.126,54.834L313.126,54.834z"/>
				</g>
				<g>
					<defs>
						<rect id="SVGID_7_" x="295.462" y="29.066" width="30.057" height="67.899"/>
					</defs>
					<clipPath id="SVGID_8_">
						<use xlink:href="#SVGID_7_"  overflow="visible"/>
					</clipPath>
					<path clip-path="url(#SVGID_8_)" fill="#0E0F0F" d="M310.091,79.013c-3.606-1.782-6.101-5.489-6.101-9.768
						c0-2.54,0.896-5.004,2.517-6.955c0.172-0.317,1.456-1.609,1.935-1.822c0.171-0.124,0.354-0.241,0.531-0.359
						c-0.908-0.742-2.086-1.153-3.349-1.055c-0.548,0.047-1.061,0.188-1.532,0.401c-1.892-3.426-3.136-7.079-3.872-10.964
						c-0.194-1.043-0.86-1.573-1.634-1.722v-2.41h0.968v-0.884h-0.968V31.283l-0.919-2.218l-0.949,2.218v12.194h-0.961v0.884h0.961
						v2.776c-0.837,0.505-1.438,1.438-1.208,2.65c0.932,4.897,2.688,9.572,5.347,13.799c0.146,0.235,0.324,0.418,0.501,0.578
						c0.224,2.835-0.065,7.421-0.242,9.59c-0.082,0.129-0.159,0.271-0.224,0.424c-2.546,6.054-3.524,12.979-4.021,19.486
						c-0.235,3.146,4.65,3.118,4.886,0c0.366-4.786,1.062-9.784,2.5-14.452c0.313,0.1,0.643,0.178,0.984,0.207
						c0.401,4.902,0.737,9.808,1.433,14.67c0.448,3.112,5.157,1.786,4.709-1.297C310.734,88.224,310.463,83.604,310.091,79.013
						L310.091,79.013z"/>
				</g>
			</g>
			<path fill="#0E0F0F" d="M315.071,59.59c-2.181,0-4.185,0.738-5.793,1.963c-0.106,0.059-0.896,0.571-1.485,1.397
				c-1.433,1.674-2.305,3.843-2.305,6.218c0,5.293,4.291,9.583,9.583,9.583c5.293,0,9.584-4.291,9.584-9.583
				C324.655,63.882,320.364,59.59,315.071,59.59L315.071,59.59z"/>
		</g>
	</g>
	<g id="Suiveur">
		<g>
			<polygon id="Poly3Suiveur" fill="#9459BB" points="279.178,304.676 262.228,314.471 245.271,304.688 245.264,285.111 
				262.213,275.318 279.172,285.099 			"/>
			<polygon id="Poly2Suiveur" fill="#441266" points="184.428,304.676 167.478,314.471 150.521,304.688 150.514,285.111 
				167.463,275.318 184.422,285.099 			"/>
			<polygon id="Poly1Suiveur" fill="#1C032D" points="81.151,303.729 64.201,313.523 47.244,303.74 47.236,284.164 64.186,274.371 
				81.145,284.152 			"/>
		</g>
		<g>
			<path d="M57.809,345.386c-0.134-0.358-0.33-0.687-0.59-0.982c-0.262-0.296-0.589-0.541-0.981-0.734
				c-0.394-0.194-0.852-0.292-1.373-0.292c-0.442,0-0.854,0.078-1.234,0.237c-0.38,0.159-0.712,0.381-0.994,0.663
				c-0.283,0.283-0.505,0.619-0.664,1.009s-0.239,0.81-0.239,1.261c0,0.434,0.08,0.845,0.239,1.232
				c0.158,0.391,0.378,0.73,0.656,1.021c0.279,0.292,0.61,0.523,0.995,0.695c0.385,0.174,0.802,0.26,1.253,0.26
				c0.734,0,1.461,0.146,2.183,0.438c0.721,0.291,1.367,0.707,1.942,1.246c0.575,0.54,1.039,1.189,1.394,1.95
				c0.354,0.761,0.53,1.609,0.53,2.547c0,0.416-0.055,0.858-0.166,1.327c-0.109,0.469-0.275,0.933-0.496,1.393
				c-0.222,0.46-0.5,0.897-0.837,1.313c-0.336,0.415-0.733,0.782-1.193,1.101c-0.46,0.319-0.981,0.572-1.565,0.764
				c-0.583,0.189-1.229,0.284-1.937,0.284c-0.93,0-1.771-0.175-2.527-0.523c-0.756-0.35-1.404-0.802-1.942-1.359
				c-0.54-0.557-0.958-1.188-1.254-1.89c-0.296-0.703-0.443-1.408-0.443-2.116h1.18c0,0.177,0.027,0.413,0.08,0.71
				c0.053,0.296,0.148,0.621,0.286,0.975c0.137,0.354,0.325,0.711,0.563,1.068c0.239,0.357,0.544,0.684,0.916,0.976
				c0.371,0.292,0.818,0.529,1.34,0.716s1.136,0.278,1.844,0.278c0.645,0,1.269-0.112,1.87-0.339
				c0.601-0.226,1.132-0.553,1.592-0.98s0.827-0.953,1.101-1.571c0.274-0.619,0.411-1.318,0.411-2.097
				c0-0.628-0.104-1.242-0.312-1.845c-0.208-0.601-0.521-1.139-0.937-1.61c-0.416-0.474-0.931-0.854-1.545-1.142
				c-0.615-0.286-1.333-0.432-2.156-0.432c-0.637,0-1.216-0.137-1.737-0.411c-0.522-0.272-0.969-0.623-1.34-1.048
				s-0.656-0.896-0.855-1.413c-0.199-0.517-0.298-1.019-0.298-1.505c0-0.416,0.08-0.876,0.239-1.38
				c0.158-0.504,0.412-0.976,0.763-1.413c0.349-0.438,0.798-0.804,1.346-1.101s1.207-0.444,1.978-0.444
				c0.592,0,1.109,0.086,1.552,0.259c0.441,0.172,0.822,0.395,1.141,0.663c0.319,0.269,0.582,0.568,0.789,0.896
				c0.208,0.327,0.372,0.646,0.491,0.955c0.119,0.311,0.203,0.594,0.252,0.85c0.048,0.257,0.073,0.441,0.073,0.558h-1.182
				C58.007,346.081,57.941,345.742,57.809,345.386z"/>
			<path d="M63.486,342.222v10.002c0,0.752,0.102,1.49,0.305,2.215c0.203,0.726,0.493,1.413,0.869,2.063
				c0.376,0.649,0.829,1.25,1.36,1.798c0.53,0.549,1.125,1.021,1.784,1.419c0.658,0.397,1.37,0.71,2.136,0.936
				c0.765,0.227,1.566,0.338,2.407,0.338c0.832,0,1.627-0.104,2.388-0.317c0.761-0.212,1.468-0.514,2.123-0.901
				c0.654-0.39,1.251-0.852,1.791-1.387c0.539-0.534,0.999-1.127,1.379-1.777c0.38-0.648,0.674-1.344,0.882-2.082
				s0.313-1.501,0.313-2.289v-10.015h1.22v19.896h-1.22v-5.267c-0.311,0.664-0.673,1.245-1.089,1.745
				c-0.416,0.499-0.859,0.933-1.333,1.3c-0.473,0.367-0.962,0.677-1.466,0.929s-0.995,0.462-1.472,0.63
				c-1.124,0.39-2.295,0.61-3.516,0.663c-0.946,0-1.851-0.124-2.713-0.371c-0.861-0.247-1.667-0.591-2.413-1.027
				c-0.748-0.438-1.427-0.964-2.037-1.578c-0.61-0.615-1.132-1.287-1.565-2.017s-0.77-1.511-1.008-2.343
				c-0.239-0.831-0.358-1.685-0.358-2.56v-10.002L63.486,342.222L63.486,342.222z"/>
			<path d="M97.338,342.222v1.232h-5.929v17.432h5.929v1.232H83.768v-1.232h6.42v-17.432h-6.42v-1.232H97.338z"/>
			<path d="M99.911,342.222l9.086,17.442l9.087-17.442h1.261l-10.348,19.896l-10.333-19.896H99.911z"/>
			<path d="M134.254,343.454h-12.35v5.268h9.232v1.232h-9.232v10.932h12.35v1.232h-13.583v-19.896h13.583V343.454z"/>
			<path d="M136.814,342.222v10.002c0,0.752,0.102,1.49,0.305,2.215c0.203,0.726,0.493,1.413,0.869,2.063
				c0.376,0.649,0.829,1.25,1.36,1.798c0.53,0.549,1.125,1.021,1.783,1.419c0.659,0.397,1.371,0.71,2.137,0.936
				c0.765,0.227,1.566,0.338,2.406,0.338c0.832,0,1.627-0.104,2.389-0.317c0.761-0.212,1.468-0.514,2.123-0.901
				c0.653-0.39,1.251-0.852,1.791-1.387c0.539-0.534,0.999-1.127,1.379-1.777c0.38-0.648,0.674-1.344,0.882-2.082
				s0.312-1.501,0.312-2.289v-10.015h1.221v19.896h-1.221v-5.267c-0.31,0.664-0.672,1.245-1.088,1.745
				c-0.416,0.499-0.859,0.933-1.333,1.3c-0.473,0.367-0.962,0.677-1.466,0.929s-0.995,0.462-1.472,0.63
				c-1.124,0.39-2.295,0.61-3.517,0.663c-0.945,0-1.85-0.124-2.712-0.371c-0.861-0.247-1.667-0.591-2.414-1.027
				c-0.748-0.438-1.426-0.964-2.036-1.578c-0.61-0.615-1.133-1.287-1.565-2.017c-0.434-0.729-0.771-1.511-1.008-2.343
				c-0.239-0.831-0.358-1.685-0.358-2.56v-10.002L136.814,342.222L136.814,342.222z"/>
			<path d="M158.303,342.222v2.865c0.221-0.354,0.469-0.668,0.742-0.941c0.274-0.274,0.56-0.513,0.855-0.717
				c0.296-0.203,0.597-0.373,0.902-0.511c0.305-0.138,0.599-0.25,0.882-0.339c0.664-0.213,1.344-0.332,2.043-0.357
				c0.999,0,1.908,0.191,2.726,0.577c0.818,0.385,1.518,0.891,2.096,1.519c0.579,0.628,1.026,1.338,1.341,2.129
				c0.313,0.792,0.471,1.595,0.471,2.408c0,0.698-0.091,1.346-0.272,1.943c-0.181,0.597-0.431,1.141-0.75,1.631
				c-0.317,0.491-0.691,0.927-1.121,1.307c-0.429,0.381-0.889,0.701-1.379,0.962s-1.002,0.458-1.531,0.591
				c-0.531,0.133-1.054,0.198-1.565,0.198c-0.124,0-0.261-0.009-0.411-0.025c-0.124-0.019-0.265-0.037-0.424-0.061
				c-0.159-0.021-0.318-0.055-0.478-0.1l6.817,6.817h-1.645l-9.313-9.299v9.299h-1.193v-19.896H158.303L158.303,342.222z
				 M165.897,353.953c0.667-0.286,1.251-0.681,1.751-1.18c0.5-0.5,0.893-1.084,1.181-1.751c0.287-0.668,0.432-1.382,0.432-2.143
				c0-0.762-0.145-1.476-0.432-2.144c-0.288-0.667-0.681-1.251-1.181-1.751c-0.5-0.499-1.083-0.893-1.751-1.181
				c-0.668-0.287-1.382-0.432-2.144-0.432c-0.761,0-1.475,0.145-2.142,0.432c-0.668,0.288-1.251,0.682-1.751,1.181
				c-0.5,0.5-0.895,1.084-1.181,1.751c-0.288,0.668-0.432,1.382-0.432,2.144c0,0.761,0.145,1.475,0.432,2.143
				c0.286,0.667,0.681,1.251,1.181,1.751c0.5,0.499,1.083,0.894,1.751,1.18c0.667,0.288,1.381,0.433,2.142,0.433
				C164.515,354.386,165.229,354.241,165.897,353.953z"/>
		</g>
		<g id="Mouton">
			<path d="M67.925,249.254c0.567,4.06,1.376,7.252,1.867,9.1c0.298,1.121,0.562,1.071,0.823,1.071h0.966
				c0.497,0,0.397-1.556,0.397-1.556s-0.61-5.515-0.434-9.793C70.693,248.828,68.891,249.254,67.925,249.254L67.925,249.254z"/>
			<path d="M63.553,250.063c0.205,3.741,0.724,6.679,1.05,8.375c0.199,1.036,0.468,0.986,0.724,0.986h0.966
				c0.497,0,0.54-1.426,0.54-1.426s-0.113-5.075,0.447-9.015C66.357,249.673,64.518,250.063,63.553,250.063L63.553,250.063z"/>
			<path d="M51.835,247.883c0.567,4.324,1.923,8.434,2.42,10.398c0.297,1.192,0.562,1.137,0.823,1.137h1.144
				c0.291,0,0.191-1.4,0.191-1.4s-1.008-3.902-0.831-8.458C54.404,249.465,52.701,248.814,51.835,247.883L51.835,247.883z"/>
			<path d="M48.123,246.316c0.446,3.542,0.696,9.397,1.171,11.747c0.284,1.426,0.604,1.362,0.916,1.362h0.744
				c0.597,0,0.575-1.973,0.575-1.973s0.122-4.8,0.894-10.266C51.239,246.52,49.259,246.103,48.123,246.316L48.123,246.316z"/>
			<g>
				<g>
					<defs>
						<rect id="SVGID_9_" x="43.751" y="225.965" width="38.156" height="36.339"/>
					</defs>
					<clipPath id="SVGID_10_">
						<use xlink:href="#SVGID_9_"  overflow="visible"/>
					</clipPath>
					<path clip-path="url(#SVGID_10_)" d="M58.245,230.29c1.05,0,2.156,0.496,2.945,1.454c0.411-0.865,1.575-1.369,2.773-1.369
						c1.661,0,3.371,0.958,3.244,3.244c0.575-0.334,1.171-0.477,1.76-0.477c2.265,0,4.365,2.158,3.919,3.976
						c-2.108,1.452,0.39,4.584-0.788,6.557c0.702,2.604-1.235,4.096-3.151,4.096c-0.873,0-1.753-0.318-2.363-0.979
						c0.291,1.561-1.328,2.59-3.088,2.59c-1.475,0-3.045-0.724-3.677-2.486c-1.149,1.571-2.435,2.153-3.591,2.153
						c-1.952,0-3.528-1.675-3.457-3.103c-0.397,0.199-0.853,0.291-1.313,0.291c-2.208,0-4.628-2.106-2.37-4.698
						c-1.292-0.256-2.427-1.086-2.427-2.633c0-0.9,0.779-2.456,2.604-2.456c0.298,0,0.625,0.043,0.979,0.129
						c-1.043-2.159,0.845-4.032,2.953-4.032c0.673,0,1.37,0.19,2.001,0.618C55.476,231.226,56.812,230.29,58.245,230.29
						 M58.245,227.479c-1.91,0-3.556,0.844-4.62,2.265c-0.144-0.008-0.286-0.016-0.427-0.016c-2.149,0-4.159,1.08-5.251,2.813
						c-0.286,0.454-0.498,0.937-0.633,1.434c-2.187,0.81-3.472,2.938-3.472,4.934c0,1.524,0.575,2.858,1.591,3.839
						c-0.163,0.979-0.043,1.967,0.383,2.902c0.857,1.889,2.867,3.201,5.103,3.387c0.192,0.281,0.405,0.553,0.646,0.808
						c1.222,1.285,2.924,2.031,4.663,2.031c1.143,0,2.249-0.313,3.265-0.908c1.113,0.795,2.492,1.233,4.003,1.233
						c1.746,0,3.379-0.623,4.486-1.688c0.318,0.049,0.639,0.078,0.965,0.078c1.973,0,3.818-0.889,4.954-2.363
						c0.916-1.2,1.299-2.676,1.115-4.244c0.426-1.419,0.17-2.817-0.028-3.896c-0.05-0.276-0.121-0.659-0.149-0.929
						c0.385-0.37,0.66-0.838,0.788-1.363c0.391-1.576-0.035-3.301-1.156-4.735c-1.271-1.611-3.259-2.639-5.245-2.725
						c-0.228-0.369-0.47-0.674-0.703-0.923c-1.115-1.178-2.775-1.853-4.558-1.853c-1.021,0-1.986,0.22-2.825,0.611
						C60.239,227.72,59.259,227.479,58.245,227.479L58.245,227.479z"/>
				</g>
				<g>
					<defs>
						<rect id="SVGID_11_" x="43.751" y="225.965" width="38.156" height="36.339"/>
					</defs>
					<clipPath id="SVGID_12_">
						<use xlink:href="#SVGID_11_"  overflow="visible"/>
					</clipPath>
					<path clip-path="url(#SVGID_12_)" d="M80.999,242.859c0.489-2.044-2.243-8.439-9.752-6.183
						c-3.826-1.753-5.586,1.35-5.606,2.129c-0.021,0.854,2.952,0.923,3.961,0.812c-0.264,0.36-0.021,0.075-0.179,1.184
						c-0.206,1.396,0.214,2.547,1.114,3.769C72.212,246.818,83.767,247.395,80.999,242.859L80.999,242.859z M76.698,241.809
						c-0.405-0.057-0.688-0.44-0.631-0.844c0.056-0.413,0.433-0.703,0.837-0.647c0.404,0.064,0.688,0.44,0.631,0.854
						C77.479,241.582,77.102,241.866,76.698,241.809L76.698,241.809z"/>
				</g>
			</g>
		</g>
	</g>
	<g id="Leader">
		<g>
			<polygon id="Poly1Leader" fill="#272C3E" points="679.97,305.729 663.02,315.523 646.063,305.74 646.055,286.164 
				663.005,276.371 679.964,286.152 			"/>
			<polygon id="Poly2Leader" fill="#1D2A57" points="585.22,305.729 568.27,315.523 551.313,305.74 551.305,286.164 
				568.256,276.371 585.214,286.152 			"/>
			<polygon id="Poly3Leader" fill="#2E428A" points="481.942,304.781 464.992,314.575 448.035,304.793 448.028,285.216 
				464.978,275.423 481.937,285.204 			"/>
		</g>
		<g>
			<path d="M601.24,339.782v18.664h12.336v1.233h-13.569v-19.897H601.24z"/>
			<path d="M628.486,341.017h-12.35v5.267h9.231v1.233h-9.231v10.931h12.35v1.233h-13.584v-19.897h13.584V341.017z"/>
			<path d="M629.813,359.681v-13.093c0-1.043,0.194-1.985,0.584-2.825c0.389-0.84,0.899-1.558,1.532-2.148
				c0.632-0.593,1.354-1.046,2.169-1.359c0.813-0.313,1.645-0.472,2.493-0.472c0.565,0,1.126,0.068,1.679,0.206
				s1.081,0.336,1.585,0.598c0.504,0.261,0.971,0.583,1.399,0.968c0.428,0.385,0.803,0.829,1.12,1.334
				c0.318,0.504,0.565,1.063,0.742,1.678c0.178,0.615,0.267,1.28,0.267,1.996v13.119h-1.233v-11.886h-11.116l0.015,11.886
				L629.813,359.681L629.813,359.681z M642.269,346.574c0-0.646-0.131-1.305-0.393-1.977c-0.261-0.672-0.635-1.282-1.119-1.831
				c-0.487-0.548-1.081-0.997-1.784-1.346c-0.703-0.351-1.493-0.524-2.368-0.524c-0.885,0-1.676,0.175-2.374,0.524
				c-0.699,0.349-1.294,0.798-1.784,1.346c-0.491,0.549-0.867,1.159-1.128,1.831s-0.392,1.331-0.392,1.977H642.269z"/>
			<path d="M645.903,339.782c0.894,0,1.76,0.117,2.601,0.353c0.84,0.234,1.63,0.565,2.367,0.995
				c0.738,0.429,1.415,0.945,2.029,1.552c0.614,0.605,1.141,1.274,1.578,2.01c0.438,0.734,0.778,1.523,1.021,2.367
				c0.243,0.845,0.365,1.723,0.365,2.634s-0.115,1.791-0.345,2.64c-0.23,0.85-0.558,1.644-0.981,2.382
				c-0.425,0.737-0.938,1.413-1.539,2.022s-1.27,1.134-2.003,1.571s-1.524,0.776-2.375,1.015c-0.849,0.239-1.736,0.358-2.666,0.358
				h-1.247v-19.897L645.903,339.782L645.903,339.782z M648.145,358.247c0.726-0.193,1.413-0.473,2.063-0.836
				c0.648-0.361,1.248-0.805,1.797-1.325c0.549-0.521,1.021-1.109,1.42-1.766c0.396-0.654,0.709-1.366,0.935-2.136
				c0.227-0.77,0.339-1.587,0.339-2.453c0-1.035-0.142-1.971-0.425-2.806c-0.283-0.836-0.659-1.581-1.128-2.235
				s-1.006-1.218-1.611-1.69c-0.604-0.474-1.232-0.864-1.884-1.175c-0.648-0.31-1.296-0.537-1.937-0.684
				c-0.643-0.146-1.231-0.219-1.771-0.219v17.615C646.686,358.539,647.421,358.442,648.145,358.247z"/>
			<path d="M670.775,341.017h-12.35v5.267h9.231v1.233h-9.231v10.931h12.35v1.233h-13.584v-19.897h13.584V341.017z"/>
			<path d="M673.309,339.782v2.865c0.222-0.354,0.469-0.668,0.743-0.941c0.273-0.273,0.56-0.513,0.854-0.717
				c0.296-0.203,0.598-0.373,0.902-0.511c0.305-0.137,0.599-0.25,0.882-0.338c0.663-0.213,1.345-0.332,2.043-0.358
				c0.999,0,1.908,0.192,2.727,0.577c0.817,0.385,1.517,0.891,2.097,1.52c0.579,0.628,1.024,1.338,1.339,2.129
				c0.314,0.792,0.472,1.595,0.472,2.407c0,0.698-0.091,1.347-0.271,1.943c-0.183,0.597-0.432,1.141-0.749,1.631
				c-0.318,0.491-0.692,0.927-1.121,1.308s-0.889,0.7-1.38,0.962c-0.49,0.261-1.001,0.458-1.532,0.591
				c-0.53,0.132-1.052,0.198-1.564,0.198c-0.123,0-0.262-0.01-0.411-0.026c-0.123-0.018-0.266-0.037-0.425-0.06
				c-0.158-0.021-0.317-0.056-0.478-0.101l6.818,6.818h-1.646l-9.312-9.299v9.299h-1.194v-19.897H673.309L673.309,339.782z
				 M680.903,351.516c0.667-0.287,1.251-0.681,1.751-1.18c0.499-0.5,0.894-1.084,1.182-1.751c0.286-0.669,0.431-1.383,0.431-2.144
				s-0.144-1.475-0.431-2.143c-0.288-0.667-0.683-1.251-1.182-1.751c-0.5-0.499-1.084-0.894-1.751-1.182
				c-0.668-0.287-1.382-0.431-2.143-0.431s-1.476,0.144-2.144,0.431c-0.667,0.288-1.251,0.683-1.751,1.182
				c-0.499,0.5-0.893,1.084-1.18,1.751c-0.288,0.668-0.432,1.382-0.432,2.143s0.144,1.475,0.432,2.144
				c0.287,0.667,0.681,1.251,1.18,1.751c0.5,0.499,1.084,0.893,1.751,1.18c0.668,0.288,1.383,0.432,2.144,0.432
				S680.235,351.804,680.903,351.516z"/>
		</g>
		<g id="Couronne">
			<path d="M680.992,223.016c-1.683,0-3.038,1.479-3.038,3.302c0,1.188,0.573,2.218,1.437,2.799
				c-1.831,2.738-4.402,5.924-7.051,6.839c-3.495,1.215-6.752-6.24-8.354-10.667c1.188-0.451,2.051-1.676,2.051-3.117
				c0-1.823-1.354-3.301-3.028-3.301c-1.672,0-3.025,1.478-3.025,3.301c0,1.441,0.86,2.666,2.05,3.117
				c-1.602,4.428-4.852,11.882-8.344,10.667c-2.651-0.916-5.229-4.102-7.051-6.839c0.854-0.582,1.433-1.611,1.433-2.799
				c0-1.822-1.364-3.302-3.037-3.302c-1.671,0-3.026,1.479-3.026,3.302c0,1.82,1.355,3.302,3.026,3.302
				c0.035,0,0.063-0.01,0.089-0.01l4.095,19.014h27.587l4.094-19.014c0.035,0,0.063,0.01,0.098,0.01c1.663,0,3.027-1.48,3.027-3.302
				C684.01,224.495,682.655,223.016,680.992,223.016L680.992,223.016z"/>
			<rect x="649.354" y="249.292" width="27.306" height="3.706"/>
		</g>
	</g>
	<g id="Grad1">
		<g id="GradientHorizon">
			<rect id="R1_suiveur" x="659" y="492" fill="#1C032D" width="35" height="13"/>
			<rect id="R2_suiveur" x="659" y="479" fill="#441266" width="35" height="13"/>
			<rect id="R3_suiveur" x="659" y="467" fill="#9459BB" width="35" height="12"/>
			<rect id="R_neutre" x="659" y="455" fill="#E1E0FF" width="35" height="12"/>
			<rect id="R3_leader" x="659" y="443" fill="#2E428A" width="35" height="12"/>
			<rect id="R2_leader" x="659" y="431" fill="#1D2A57" width="35" height="12"/>
			<rect id="R1_leader" x="659" y="419" fill="#272C3E" width="35" height="12"/>
		</g>
		<path id="cursor1" dragglable="true" ondragenter="event.preventDefault();" ondragover="event.preventDefault();" ondrop="cursorMoove(event);" contenteditable="true" d="M697.943,459c-0.813,0-1.527,0.396-1.98,1h-40.036c-0.454-0.604-1.169-1-1.982-1
			c-1.372,0-2.485,1.112-2.485,2.485c0,1.372,1.113,2.485,2.485,2.485c0.8,0,1.504-0.385,1.959-0.973h40.083
			c0.454,0.588,1.158,0.973,1.958,0.973c1.373,0,2.486-1.113,2.486-2.485C700.43,460.113,699.316,459,697.943,459z"/>
	</g>
	<g id="Grad2">
		<g id="GradientVertical">
			<rect id="R1_indet" x="721" y="492" fill="#2C1317" width="35" height="13"/>
			<rect id="R2_indet" x="721" y="479" fill="#85404C" width="35" height="13"/>
			<rect id="R3_indet" x="721" y="467" fill="#C07784" width="35" height="12"/>
			<rect id="R_neutre_1_" x="721" y="455" fill="#E1E0FF" width="35" height="12"/>
			<rect id="R3_det" x="721" y="443" fill="#BBF07F" width="35" height="12"/>
			<rect id="R2_det" x="721" y="431" fill="#80A457" width="35" height="12"/>
			<rect id="R1_det" x="721" y="419" fill="#40522C" width="35" height="12"/>
		</g>
		<path id="cursor2" dragglable="true" d="M760.943,459c-0.813,0-1.527,0.396-1.98,1h-40.036c-0.454-0.604-1.169-1-1.982-1
			c-1.372,0-2.485,1.112-2.485,2.485c0,1.372,1.113,2.485,2.485,2.485c0.8,0,1.504-0.385,1.959-0.973h40.083
			c0.454,0.588,1.158,0.973,1.958,0.973c1.373,0,2.486-1.113,2.486-2.485C763.43,460.113,762.316,459,760.943,459z"/>
	</g>
</g>
</svg>
