<?xml version="1.0" encoding="utf-8"?>
<!-- Generator: Adobe Illustrator 16.0.0, SVG Export Plug-In . SVG Version: 6.00 Build 0)  -->
<!DOCTYPE svg PUBLIC "-//W3C//DTD SVG 1.1//EN" "http://www.w3.org/Graphics/SVG/1.1/DTD/svg11.dtd">
<svg version="1.1" id="SVG" xmlns="http://www.w3.org/2000/svg" xmlns:xlink="http://www.w3.org/1999/xlink" x="0px" y="0px"
	 width="800px" height="600px" viewBox="0 0 800 600" enable-background="new 0 0 800 600" xml:space="preserve">
<pattern  x="0.5" y="600.5" width="176.991" height="176.991" patternUnits="userSpaceOnUse" id="SVGID_1_" viewBox="0 -176.991 176.991 176.991" overflow="visible">
	<g>
		<polygon fill="none" points="0,0 176.991,0 176.991,-176.99 0,-176.99 		"/>
		<g>
			<polygon fill="none" points="0,-176.99 176.991,-176.99 176.991,-0.001 0,-0.001 			"/>
			<g>
				<polygon fill="none" points="0,-0.001 176.991,-0.001 176.991,-176.99 0,-176.99 				"/>
				<polygon fill="#FDFFC7" points="176.991,-0.001 0,-0.001 0,-176.99 176.991,-176.99 				"/>
				<polygon fill="#E1E4BC" points="2.991,-0.001 0,-0.001 0,-176.99 2.991,-176.99 				"/>
				<polygon fill="#EBF1C0" points="24.43,-0.001 22.561,-0.001 22.561,-176.99 24.43,-176.99 				"/>
				<polygon fill="#EBF1C0" points="69.097,-0.001 67.228,-0.001 67.228,-176.99 69.097,-176.99 				"/>
				<polygon fill="#EBF1C0" points="113.764,-0.001 111.895,-0.001 111.895,-176.99 113.764,-176.99 				"/>
				<polygon fill="#EBF1C0" points="158.431,-0.001 156.562,-0.001 156.562,-176.99 158.431,-176.99 				"/>
				<polygon fill="#EBF1C0" points="176.991,-21.431 176.991,-19.561 0,-19.561 0,-21.431 				"/>
				<polygon fill="#EBF1C0" points="176.991,-66.098 176.991,-64.228 0,-64.228 0,-66.098 				"/>
				<polygon fill="#EBF1C0" points="176.991,-110.765 176.991,-108.895 0,-108.895 0,-110.765 				"/>
				<polygon fill="#EBF1C0" points="176.991,-155.432 176.991,-153.562 0,-153.562 0,-155.432 				"/>
				<polygon fill="#E1E4BC" points="47.657,-0.001 44.667,-0.001 44.667,-176.99 47.657,-176.99 				"/>
				<polygon fill="#E1E4BC" points="92.324,-0.001 89.333,-0.001 89.333,-176.99 92.324,-176.99 				"/>
				<polygon fill="#E1E4BC" points="136.99,-0.001 134,-0.001 134,-176.99 136.99,-176.99 				"/>
				<polygon fill="#E1E4BC" points="0,-174.001 0,-176.99 176.991,-176.99 176.991,-174.001 				"/>
				<polygon fill="#E1E4BC" points="0,-129.335 0,-132.324 176.991,-132.324 176.991,-129.335 				"/>
				<polygon fill="#E1E4BC" points="0,-84.667 0,-87.658 176.991,-87.658 176.991,-84.667 				"/>
				<polygon fill="#E1E4BC" points="0,-40.001 0,-42.99 176.991,-42.99 176.991,-40.001 				"/>
			</g>
		</g>
	</g>
</pattern>
<g id="Background_1_">
	<pattern  id="SVGID_2_" xlink:href="#SVGID_1_" patternTransform="matrix(1 0 0 1 0 17338.9805)">
	</pattern>
	<rect y="0" opacity="0.5" fill="url(#SVGID_2_)" enable-background="new    " width="802.919" height="598.5"/>
	<polygon fill="#111111" points="453.244,566.075 6.11,600 730.38,600 	"/>
	
		<linearGradient id="SVGID_3_" gradientUnits="userSpaceOnUse" x1="798.9648" y1="533.304" x2="568.9932" y2="590.7961" gradientTransform="matrix(1 0 0 1 -41.9805 5.8008)">
		<stop  offset="0" style="stop-color:#4E4E4E"/>
		<stop  offset="0.0547" style="stop-color:#474747"/>
		<stop  offset="0.2045" style="stop-color:#3C3C3C"/>
		<stop  offset="0.4149" style="stop-color:#353535"/>
		<stop  offset="1" style="stop-color:#333333"/>
	</linearGradient>
	<polygon fill="url(#SVGID_3_)" points="772.523,504.578 453.244,566.075 705.258,601 	"/>
	<polygon fill="#111111" points="349.865,33.925 797,0 72.729,0 	"/>
	
		<linearGradient id="SVGID_4_" gradientUnits="userSpaceOnUse" x1="819.5117" y1="43.9407" x2="589.54" y2="101.4329" gradientTransform="matrix(-1 0 0 -1 865.6367 104.8374)">
		<stop  offset="0" style="stop-color:#4E4E4E"/>
		<stop  offset="0.0547" style="stop-color:#474747"/>
		<stop  offset="0.2045" style="stop-color:#3C3C3C"/>
		<stop  offset="0.4149" style="stop-color:#353535"/>
		<stop  offset="1" style="stop-color:#333333"/>
	</linearGradient>
	<polygon fill="url(#SVGID_4_)" points="30.586,95.422 349.865,33.925 97.852,-1 	"/>
	<polygon fill="#262626" points="0,152.525 104.517,0 98.187,3.839 0,76.931 	"/>
	<polygon fill="#141414" points="98.187,3.839 103.565,-0.166 0,-0.166 0,63.373 	"/>
	<polygon fill="#141414" points="0,76.931 98.187,3.839 0,63.373 	"/>
	<polygon fill="#262626" points="802.57,448.262 698.593,600 704.923,596.162 802.57,523.471 	"/>
	<polygon fill="#141414" points="704.923,596.162 699.544,600.166 802.57,600.166 802.57,536.954 	"/>
	<polygon fill="#141414" points="802.57,523.471 704.923,596.162 802.57,536.954 	"/>
</g>
<g id="Calque_6">
	<g>
		<path fill="#A3192D" d="M239.864,383.704c0,1.657-1.343,3-3,3h-22.499c-1.657,0-3-1.343-3-3V242.711c0-1.657,1.343-3,3-3h22.499
			c1.657,0,3,1.343,3,3V383.704z"/>
		<path fill="#A51717" d="M284.861,383.704c0,1.657-1.343,3-3,3h-22.499c-1.657,0-3-1.343-3-3V242.711c0-1.657,1.343-3,3-3h22.499
			c1.657,0,3,1.343,3,3V383.704z"/>
		<path fill="#FC2C0B" d="M329.859,383.704c0,1.657-1.343,3-3,3H304.36c-1.657,0-3-1.343-3-3V242.711c0-1.657,1.343-3,3-3h22.499
			c1.657,0,3,1.343,3,3V383.704z"/>
		<path fill="#F9D10D" d="M374.856,383.704c0,1.657-1.343,3-3,3h-22.499c-1.657,0-3-1.343-3-3V242.711c0-1.657,1.343-3,3-3h22.499
			c1.657,0,3,1.343,3,3V383.704z"/>
		<path fill="#F7F70F" d="M419.854,383.704c0,1.657-1.344,3-3.001,3h-22.498c-1.657,0-3-1.343-3-3V242.711c0-1.657,1.343-3,3-3
			h22.498c1.657,0,3.001,1.343,3.001,3V383.704z"/>
		<path fill="#96F411" d="M464.852,383.704c0,1.657-1.343,3-3,3h-22.499c-1.656,0-3-1.343-3-3V242.711c0-1.657,1.344-3,3-3h22.499
			c1.657,0,3,1.343,3,3V383.704z"/>
		<path fill="#50F214" d="M509.85,383.704c0,1.657-1.344,3-3,3h-22.499c-1.657,0-3-1.343-3-3V242.711c0-1.657,1.343-3,3-3h22.499
			c1.656,0,3,1.343,3,3V383.704z"/>
		<path fill="#05D605" d="M554.848,383.704c0,1.657-1.344,3-3,3h-22.5c-1.656,0-3-1.343-3-3V242.711c0-1.657,1.344-3,3-3h22.5
			c1.656,0,3,1.343,3,3V383.704z"/>
		<path fill="#089E00" d="M599.846,383.704c0,1.657-1.344,3-3,3h-22.5c-1.656,0-3-1.343-3-3V242.711c0-1.657,1.344-3,3-3h22.5
			c1.656,0,3,1.343,3,3V383.704z"/>
		<text transform="matrix(1 0 0 1 151.9189 256.1956)"><tspan x="0" y="0" font-family="'MyriadPro-Regular'" font-size="18.3345">M </tspan><tspan x="1.76" y="22.001" font-family="'MyriadPro-Regular'" font-size="18.3345">A </tspan><tspan x="1.439" y="44.003" font-family="'MyriadPro-Regular'" font-size="18.3345">U </tspan><tspan x="2.255" y="66.004" font-family="'MyriadPro-Regular'" font-size="18.3345">V </tspan><tspan x="1.76" y="88.006" font-family="'MyriadPro-Regular'" font-size="18.3345">A </tspan><tspan x="5.179" y="110.007" font-family="'MyriadPro-Regular'" font-size="18.3345">I </tspan><tspan x="2.851" y="132.009" font-family="'MyriadPro-Regular'" font-size="18.3345">S</tspan></text>
		<text transform="matrix(1 0 0 1 636.7969 256.1956)"><tspan x="0" y="0" font-family="'MyriadPro-Regular'" font-size="18.3345">B </tspan><tspan x="-1.348" y="22.001" font-family="'MyriadPro-Regular'" font-size="18.3345">O </tspan><tspan x="-1.063" y="44.003" font-family="'MyriadPro-Regular'" font-size="18.3345">N</tspan></text>
		<polygon points="224.864,213.98 220.024,205.596 215.184,197.212 224.864,197.212 234.545,197.212 229.705,205.596 		"/>
	</g>
</g>
<g id="Graphique" display="none">
	<rect x="601.354" y="38.599" display="inline" fill="#1D2121" width="161.521" height="11.576"/>
	<rect x="601.354" y="74.368" display="inline" fill="#1D2121" width="161.521" height="11.573"/>
	<rect x="601.354" y="111.238" display="inline" fill="#1D2121" width="161.521" height="9.925"/>
	<rect x="601.354" y="147.006" display="inline" fill="#1D2121" width="161.521" height="10.475"/>
	<rect x="601.354" y="182.773" display="inline" fill="#1D2121" width="161.521" height="11.027"/>
	<rect x="601.354" y="219.094" display="inline" fill="#1D2121" width="161.521" height="11.024"/>
	<rect x="601.354" y="254.861" display="inline" fill="#1D2121" width="161.521" height="11.025"/>
	<rect x="601.293" y="291.599" display="inline" fill="#1D2121" width="161.521" height="11.576"/>
	<rect x="601.293" y="327.366" display="inline" fill="#1D2121" width="161.521" height="11.575"/>
	<rect x="601.293" y="364.238" display="inline" fill="#1D2121" width="161.521" height="9.923"/>
	<rect x="601.293" y="400.006" display="inline" fill="#1D2121" width="161.521" height="10.475"/>
	<rect x="601.293" y="435.773" display="inline" fill="#1D2121" width="161.521" height="11.027"/>
	<rect x="601.293" y="472.094" display="inline" fill="#1D2121" width="161.521" height="11.022"/>
	<rect x="601.293" y="507.861" display="inline" fill="#1D2121" width="161.521" height="11.025"/>
</g>
<g id="Textes" display="none">
	<g display="inline">
		<path fill="#333333" d="M631.872,543.257h24.806v1.161h-11.475c0.156,0.093,0.233,0.216,0.233,0.371
			c0,0.277-0.14,0.417-0.418,0.417s-0.418-0.14-0.418-0.417c0-0.155,0.077-0.278,0.233-0.371h-12.961L631.872,543.257
			L631.872,543.257z M643.531,571.546c0.279,0,0.418,0.125,0.418,0.372c0,0.31-0.108,0.464-0.325,0.464h0.976
			c-0.03-0.03-0.046-0.123-0.046-0.276c0.03-0.217,0.186-0.357,0.464-0.419c0.309,0.063,0.434,0.218,0.371,0.465
			c-0.03,0.063-0.046,0.109-0.046,0.14s-0.015,0.063-0.046,0.092h0.837c-0.063-0.062-0.093-0.168-0.093-0.324
			c0-0.248,0.139-0.372,0.418-0.372c0.246,0,0.371,0.157,0.371,0.465c0,0.095-0.031,0.17-0.094,0.232h9.941v1.161h-24.806v-1.161
			h11.612c-0.093,0-0.178-0.03-0.255-0.093c-0.078-0.062-0.101-0.154-0.071-0.277C643.16,571.702,643.283,571.546,643.531,571.546z
			 M631.918,556.078h3.576v0.557h-3.576V556.078z M636.099,558.539c0,0.279-0.155,0.419-0.464,0.419
			c-0.248,0-0.372-0.14-0.372-0.419c0-0.278,0.14-0.418,0.417-0.418C635.96,558.12,636.099,558.261,636.099,558.539z
			 M635.309,560.21c0-0.277,0.141-0.416,0.418-0.416c0.279,0,0.418,0.139,0.418,0.416c0,0.279-0.139,0.419-0.418,0.419
			C635.449,560.631,635.309,560.49,635.309,560.21z M635.402,557.005c0-0.277,0.14-0.417,0.418-0.417s0.418,0.14,0.418,0.417
			c0,0.278-0.14,0.418-0.418,0.418C635.542,557.424,635.402,557.285,635.402,557.005z M635.913,561.325
			c0.31,0.063,0.434,0.217,0.372,0.465c-0.063,0.311-0.217,0.437-0.465,0.372c-0.248,0-0.371-0.154-0.371-0.464
			C635.51,561.45,635.665,561.325,635.913,561.325z M635.588,555.38c0-0.277,0.139-0.417,0.418-0.417
			c0.278,0,0.418,0.14,0.418,0.417c0,0.278-0.14,0.417-0.418,0.417C635.727,555.799,635.588,555.658,635.588,555.38z
			 M635.913,563.415c0-0.276,0.14-0.416,0.418-0.416s0.418,0.14,0.418,0.416c0,0.279-0.14,0.419-0.418,0.419
			C636.053,563.835,635.913,563.696,635.913,563.415z M636.007,553.895c0-0.278,0.138-0.418,0.418-0.418
			c0.278,0,0.417,0.14,0.417,0.418c0,0.277-0.139,0.417-0.417,0.417C636.145,554.312,636.007,554.172,636.007,553.895z
			 M637.121,564.949c0,0.247-0.139,0.372-0.418,0.372c-0.278,0-0.418-0.139-0.418-0.418c0-0.278,0.14-0.417,0.418-0.417
			C636.982,564.486,637.121,564.641,637.121,564.949z M636.379,552.453c0-0.278,0.139-0.417,0.417-0.417s0.418,0.139,0.418,0.417
			c0,0.277-0.14,0.417-0.418,0.417C636.518,552.872,636.379,552.733,636.379,552.453z M636.611,556.078h3.576v0.557h-3.576V556.078z
			 M637.121,565.878c0.31,0,0.465,0.157,0.465,0.465c0,0.248-0.125,0.372-0.371,0.372c-0.311,0.063-0.465-0.062-0.465-0.372
			C636.75,566.096,636.873,565.94,637.121,565.878z M637.771,551.246c0,0.249-0.156,0.372-0.465,0.372
			c-0.248,0-0.371-0.14-0.371-0.417c0-0.278,0.139-0.418,0.417-0.418C637.633,550.781,637.771,550.936,637.771,551.246z
			 M637.865,567.224c0.277,0.064,0.434,0.203,0.464,0.42c0,0.123-0.039,0.231-0.116,0.324c-0.078,0.095-0.179,0.126-0.301,0.095
			c-0.279,0.063-0.418-0.063-0.418-0.372C637.431,567.444,637.555,567.287,637.865,567.224z M638.422,549.713
			c0,0.277-0.139,0.417-0.418,0.417c-0.278-0.062-0.418-0.215-0.418-0.464c0.062-0.31,0.216-0.434,0.465-0.372
			C638.358,549.296,638.482,549.435,638.422,549.713z M638.793,568.527c0.279-0.062,0.449,0.046,0.512,0.325
			c0,0.279-0.125,0.45-0.372,0.512c-0.31,0-0.465-0.156-0.465-0.465C638.406,568.652,638.515,568.527,638.793,568.527z
			 M639.397,548.32c0,0.279-0.14,0.419-0.419,0.419c-0.277,0-0.417-0.14-0.417-0.419c0-0.278,0.14-0.418,0.417-0.418
			C639.258,547.901,639.397,548.04,639.397,548.32z M639.676,569.595c0.309-0.062,0.434,0.063,0.371,0.372
			c0.063,0.248-0.046,0.403-0.325,0.465c-0.278,0-0.448-0.14-0.511-0.417C639.242,569.797,639.397,569.657,639.676,569.595z
			 M640.327,547.066c0,0.279-0.156,0.419-0.466,0.419c-0.247,0-0.371-0.14-0.371-0.419c0-0.278,0.139-0.416,0.418-0.416
			C640.188,546.648,640.327,546.785,640.327,547.066z M640.65,570.525c0.279-0.063,0.418,0.045,0.418,0.325
			c0.063,0.278-0.046,0.449-0.324,0.511c-0.311-0.062-0.48-0.201-0.512-0.419c0-0.122,0.039-0.231,0.116-0.324
			C640.427,570.525,640.527,570.492,640.65,570.525z M641.302,546.182c0,0.278-0.139,0.418-0.417,0.418
			c-0.279,0-0.419-0.155-0.419-0.465c0-0.247,0.14-0.371,0.419-0.371C641.163,545.765,641.302,545.904,641.302,546.182z
			 M641.163,556.078h3.576v0.557h-3.576V556.078z M642.092,571.175c0.278-0.062,0.447,0.063,0.511,0.371
			c0,0.248-0.155,0.403-0.466,0.465c-0.309,0-0.434-0.123-0.37-0.371C641.705,571.329,641.813,571.175,642.092,571.175z
			 M642.65,545.348c-0.064,0.278-0.218,0.417-0.466,0.417c-0.31,0-0.435-0.139-0.372-0.417c0-0.279,0.141-0.417,0.418-0.417
			C642.509,544.93,642.65,545.067,642.65,545.348z M644.043,544.975c0,0.279-0.156,0.419-0.465,0.419
			c-0.248,0-0.371-0.14-0.371-0.419c0-0.278,0.139-0.416,0.417-0.416C643.903,544.558,644.043,544.697,644.043,544.975z
			 M645.855,556.078h3.576v0.557h-3.576V556.078z M645.994,544.883c0-0.279,0.139-0.419,0.417-0.419s0.418,0.14,0.418,0.419
			c0,0.278-0.124,0.416-0.372,0.416C646.146,545.299,645.994,545.161,645.994,544.883z M647.342,545.394
			c0-0.278,0.138-0.419,0.417-0.419c0.278,0,0.418,0.141,0.418,0.419c0.062,0.276-0.062,0.417-0.372,0.417
			C647.557,545.811,647.403,545.67,647.342,545.394z M647.897,571.221c0.279,0,0.388,0.155,0.326,0.465
			c0.062,0.248-0.063,0.372-0.372,0.372c-0.311-0.063-0.465-0.216-0.465-0.465C647.449,571.283,647.619,571.159,647.897,571.221z
			 M648.688,546.23c0-0.278,0.14-0.418,0.418-0.418c0.279,0,0.418,0.126,0.418,0.371c0,0.311-0.139,0.467-0.418,0.467
			C648.827,546.649,648.688,546.508,648.688,546.23z M649.338,570.572c0.125-0.031,0.225,0,0.301,0.092
			c0.078,0.096,0.117,0.202,0.117,0.327c-0.031,0.215-0.201,0.356-0.51,0.416c-0.28-0.062-0.389-0.231-0.326-0.509
			C648.92,570.617,649.059,570.51,649.338,570.572z M649.664,547.112c0-0.278,0.139-0.417,0.417-0.417
			c0.279,0,0.419,0.139,0.419,0.417c0,0.279-0.125,0.417-0.373,0.417C649.817,547.529,649.664,547.391,649.664,547.112z
			 M650.313,569.642c0.278,0.063,0.435,0.202,0.466,0.417c-0.063,0.278-0.233,0.418-0.512,0.418
			c-0.279-0.063-0.388-0.216-0.326-0.465C649.879,569.704,650.004,569.58,650.313,569.642z M650.36,556.078h3.576v0.557h-3.576
			V556.078z M650.592,548.366c0-0.278,0.141-0.418,0.418-0.418c0.279,0,0.418,0.14,0.418,0.418s-0.139,0.417-0.418,0.417
			C650.732,548.784,650.592,548.645,650.592,548.366z M651.195,568.573c0.279,0,0.388,0.125,0.326,0.371
			c0,0.311-0.156,0.466-0.465,0.466c-0.247-0.063-0.371-0.233-0.371-0.511C650.747,568.619,650.918,568.512,651.195,568.573z
			 M651.567,549.759c-0.063-0.277,0.063-0.417,0.372-0.417c0.247-0.062,0.402,0.063,0.464,0.371c0,0.248-0.14,0.403-0.417,0.465
			C651.707,550.178,651.567,550.038,651.567,549.759z M652.127,567.273c0.307,0.063,0.431,0.217,0.371,0.464
			c0,0.312-0.14,0.436-0.419,0.373c-0.123,0.03-0.225,0-0.302-0.094c-0.077-0.093-0.115-0.201-0.115-0.325
			C651.691,567.474,651.846,567.335,652.127,567.273z M652.217,551.293c0-0.31,0.141-0.465,0.419-0.465s0.418,0.139,0.418,0.417
			s-0.125,0.417-0.372,0.417C652.372,551.664,652.217,551.539,652.217,551.293z M652.868,565.925
			c0.248,0.063,0.372,0.216,0.372,0.465c0,0.311-0.156,0.435-0.465,0.372c-0.248,0-0.372-0.123-0.372-0.372
			C652.403,566.079,652.558,565.925,652.868,565.925z M652.868,564.995c0-0.308,0.14-0.465,0.418-0.465s0.418,0.14,0.418,0.418
			s-0.14,0.417-0.418,0.417C653.008,565.366,652.868,565.245,652.868,564.995z M655.052,556.078h1.626v0.557h-1.626V556.078z"/>
		<path fill="#333333" d="M662.483,544.743c0,0.279-0.139,0.418-0.417,0.418c-0.277,0-0.417-0.156-0.417-0.465
			c0-0.094,0.045-0.187,0.14-0.278h-0.79c0.156,0.093,0.232,0.216,0.232,0.371c0,0.277-0.138,0.417-0.417,0.417
			s-0.418-0.14-0.418-0.417c0-0.155,0.076-0.278,0.232-0.371h-4.32v-1.161h24.666v1.161h-13.75c0.155,0.093,0.232,0.216,0.232,0.371
			c0,0.277-0.14,0.417-0.418,0.417s-0.417-0.14-0.417-0.417c0-0.155,0.076-0.278,0.232-0.371h-1.161
			c0.063,0.124,0.093,0.216,0.093,0.278c0,0.278-0.155,0.417-0.464,0.417c-0.248,0-0.371-0.139-0.371-0.417
			c0-0.124,0.03-0.216,0.093-0.278h-1.021c0.062,0.124,0.093,0.216,0.093,0.278c-0.063,0.278-0.218,0.417-0.465,0.417
			c-0.31,0-0.434-0.139-0.371-0.417c0-0.124,0.03-0.216,0.093-0.278h-1.068C662.422,544.542,662.483,544.65,662.483,544.743z
			 M656.306,572.381h4.041v-0.138c0-0.279,0.14-0.418,0.418-0.418c0.279,0,0.419,0.139,0.419,0.418c0,0.063-0.017,0.107-0.047,0.138
			h0.326c-0.031-0.03-0.047-0.075-0.047-0.138c0.032-0.217,0.187-0.357,0.466-0.418c0.309-0.062,0.435,0.063,0.371,0.371v0.186
			h0.466v-0.045c0-0.125,0.038-0.231,0.116-0.326c0.075-0.093,0.178-0.123,0.301-0.093c0.277-0.062,0.417,0.046,0.417,0.326v0.138
			h0.65v-0.045c-0.063-0.309,0.046-0.464,0.324-0.464c0.279-0.063,0.45,0.063,0.512,0.371c0,0.063-0.015,0.107-0.045,0.138h0.604
			v-0.093c0-0.309,0.123-0.464,0.371-0.464c0.278,0,0.418,0.124,0.418,0.371c0,0.093-0.015,0.155-0.046,0.186h0.743
			c-0.031-0.03-0.047-0.075-0.047-0.138c-0.063-0.247,0.063-0.402,0.371-0.465c0.28,0.063,0.436,0.201,0.467,0.417
			c0,0.093-0.016,0.155-0.047,0.186h13.146v1.161h-24.666v-1.161L656.306,572.381L656.306,572.381z M656.352,556.078h3.578v0.557
			h-3.578V556.078z M660.394,546.277c0-0.279,0.14-0.419,0.418-0.419s0.417,0.14,0.417,0.419c0,0.277-0.139,0.416-0.417,0.416
			C660.533,546.695,660.394,546.554,660.394,546.277z M660.394,547.669c0-0.277,0.14-0.417,0.418-0.417s0.417,0.14,0.417,0.417
			c0,0.278-0.139,0.418-0.417,0.418C660.533,548.088,660.394,547.948,660.394,547.669z M660.394,549.11
			c0-0.278,0.14-0.417,0.418-0.417s0.417,0.139,0.417,0.417c0,0.277-0.139,0.417-0.417,0.417
			C660.533,549.528,660.394,549.387,660.394,549.11z M660.394,550.735c0-0.278,0.14-0.417,0.418-0.417s0.417,0.139,0.417,0.417
			s-0.139,0.418-0.417,0.418C660.533,551.155,660.394,551.015,660.394,550.735z M660.394,552.453c0-0.278,0.14-0.417,0.418-0.417
			s0.417,0.139,0.417,0.417c0,0.277-0.139,0.417-0.417,0.417C660.533,552.872,660.394,552.733,660.394,552.453z M660.394,554.08
			c0-0.278,0.14-0.417,0.418-0.417s0.417,0.139,0.417,0.417s-0.139,0.418-0.417,0.418S660.394,554.359,660.394,554.08z
			 M660.394,555.567c0-0.278,0.14-0.416,0.418-0.416s0.417,0.138,0.417,0.416s-0.139,0.418-0.417,0.418
			S660.394,555.845,660.394,555.567z M660.394,557.053c0-0.278,0.14-0.418,0.418-0.418s0.417,0.14,0.417,0.418
			c0,0.279-0.139,0.418-0.417,0.418S660.394,557.332,660.394,557.053z M660.394,558.447c0-0.278,0.14-0.418,0.418-0.418
			s0.417,0.14,0.417,0.418c0,0.277-0.139,0.417-0.417,0.417S660.394,558.724,660.394,558.447z M660.394,559.887
			c0-0.278,0.14-0.418,0.418-0.418s0.417,0.14,0.417,0.418s-0.139,0.418-0.417,0.418S660.394,560.165,660.394,559.887z
			 M660.394,561.513c0-0.278,0.14-0.418,0.418-0.418s0.417,0.14,0.417,0.418c0,0.277-0.139,0.417-0.417,0.417
			S660.394,561.79,660.394,561.513z M660.394,563.139c0-0.279,0.14-0.419,0.418-0.419s0.417,0.14,0.417,0.419
			c0,0.276-0.139,0.416-0.417,0.416C660.533,563.557,660.394,563.415,660.394,563.139z M660.394,564.763
			c0-0.277,0.14-0.416,0.418-0.416s0.417,0.139,0.417,0.416c0,0.279-0.139,0.419-0.417,0.419
			C660.533,565.183,660.394,565.043,660.394,564.763z M660.394,566.576c0-0.279,0.14-0.419,0.418-0.419s0.417,0.14,0.417,0.419
			c0,0.277-0.139,0.416-0.417,0.416C660.533,566.993,660.394,566.854,660.394,566.576z M660.394,568.063
			c0-0.278,0.14-0.418,0.418-0.418s0.417,0.14,0.417,0.418c0,0.277-0.139,0.416-0.417,0.416
			C660.533,568.481,660.394,568.34,660.394,568.063z M660.394,569.456c0-0.278,0.14-0.417,0.418-0.417s0.417,0.139,0.417,0.417
			s-0.139,0.417-0.417,0.417S660.394,569.735,660.394,569.456z M660.394,570.895c0-0.277,0.14-0.417,0.418-0.417
			s0.417,0.14,0.417,0.417c0,0.279-0.139,0.418-0.417,0.418C660.533,571.315,660.394,571.175,660.394,570.895z M661.044,556.078
			h3.576v0.557h-3.576V556.078z M665.596,556.078h3.577v0.557h-3.577V556.078z M668.384,545.023c0-0.279,0.14-0.419,0.418-0.419
			s0.418,0.14,0.418,0.419c0,0.276-0.125,0.416-0.372,0.416C668.538,545.439,668.384,545.299,668.384,545.023z M668.894,571.5
			c0.248,0,0.372,0.155,0.372,0.464c0.03,0.124,0,0.216-0.093,0.279c-0.093,0.063-0.202,0.092-0.325,0.092
			c-0.248,0-0.371-0.155-0.371-0.464C668.477,571.624,668.616,571.5,668.894,571.5z M669.777,545.394
			c0-0.278,0.139-0.419,0.418-0.419c0.277,0,0.417,0.141,0.417,0.419c0.062,0.276-0.063,0.417-0.372,0.417
			C669.993,545.811,669.839,545.67,669.777,545.394z M670.334,571.128c0.279,0,0.388,0.155,0.327,0.465
			c0.062,0.247-0.063,0.371-0.372,0.371c-0.31-0.062-0.465-0.216-0.465-0.464C669.886,571.191,670.056,571.066,670.334,571.128z
			 M670.288,556.078h3.576v0.557h-3.576V556.078z M671.124,546.137c0-0.279,0.14-0.419,0.418-0.419s0.417,0.124,0.417,0.372
			c0,0.311-0.139,0.466-0.417,0.466C671.264,546.554,671.124,546.414,671.124,546.137z M671.773,570.478
			c0.124-0.03,0.226,0,0.302,0.094c0.076,0.092,0.115,0.201,0.115,0.324c-0.03,0.218-0.201,0.357-0.51,0.419
			c-0.277-0.063-0.387-0.233-0.326-0.512C671.356,570.525,671.495,570.416,671.773,570.478z M672.1,547.02
			c0-0.279,0.14-0.418,0.418-0.418c0.277,0,0.417,0.139,0.417,0.418c0,0.277-0.124,0.417-0.372,0.417
			C672.254,547.438,672.1,547.297,672.1,547.02z M672.75,569.547c0.277,0.064,0.434,0.201,0.465,0.419
			c-0.063,0.278-0.233,0.418-0.512,0.418c-0.278-0.063-0.386-0.217-0.325-0.466C672.315,569.612,672.439,569.486,672.75,569.547z
			 M673.028,548.273c0-0.278,0.14-0.417,0.418-0.417c0.279,0,0.418,0.139,0.418,0.417s-0.139,0.418-0.418,0.418
			C673.168,548.693,673.028,548.553,673.028,548.273z M673.632,568.481c0.278,0,0.387,0.124,0.326,0.371
			c0,0.311-0.157,0.466-0.465,0.466c-0.248-0.063-0.372-0.233-0.372-0.511C673.184,568.527,673.354,568.419,673.632,568.481z
			 M674.004,549.667c-0.063-0.279,0.062-0.418,0.372-0.418c0.246-0.062,0.401,0.064,0.464,0.371c0,0.249-0.139,0.404-0.417,0.466
			C674.144,550.086,674.004,549.947,674.004,549.667z M674.562,567.18c0.31,0.063,0.434,0.216,0.372,0.465
			c0,0.31-0.14,0.434-0.418,0.371c-0.124,0.032-0.225,0-0.301-0.093c-0.078-0.095-0.116-0.201-0.116-0.326
			C674.127,567.382,674.283,567.242,674.562,567.18z M674.654,551.2c0-0.31,0.14-0.466,0.418-0.466c0.279,0,0.417,0.139,0.417,0.418
			c0,0.278-0.124,0.417-0.372,0.417C674.81,551.572,674.654,551.448,674.654,551.2z M674.794,556.078h3.576v0.557h-1.531
			c0.123,0.125,0.186,0.233,0.186,0.326c0,0.278-0.14,0.417-0.417,0.417c-0.278,0-0.417-0.139-0.417-0.417
			c0-0.124,0.045-0.231,0.139-0.326h-1.533v-0.557H674.794z M675.304,565.833c0.249,0.063,0.373,0.215,0.373,0.464
			c0,0.31-0.156,0.434-0.465,0.372c-0.248,0-0.372-0.124-0.372-0.372C674.84,565.988,674.995,565.833,675.304,565.833z
			 M676.048,552.408c0,0.276-0.14,0.416-0.418,0.416c-0.277,0-0.417-0.14-0.417-0.416c0-0.279,0.14-0.419,0.417-0.419
			C675.908,551.99,676.048,552.129,676.048,552.408z M675.304,564.904c0-0.31,0.14-0.464,0.419-0.464
			c0.277,0,0.416,0.14,0.416,0.417c0,0.278-0.139,0.417-0.416,0.417C675.443,565.275,675.304,565.152,675.304,564.904z
			 M676.42,553.848c0,0.278-0.14,0.418-0.418,0.418s-0.417-0.14-0.417-0.418s0.139-0.417,0.417-0.417
			C676.28,553.429,676.42,553.568,676.42,553.848z M676.512,563.371c0,0.276-0.139,0.417-0.416,0.417
			c-0.279,0-0.418-0.141-0.418-0.417c0-0.279,0.139-0.419,0.418-0.419C676.373,562.952,676.512,563.092,676.512,563.371z
			 M676.837,555.334c0,0.278-0.139,0.418-0.417,0.418s-0.417-0.14-0.417-0.418s0.139-0.418,0.417-0.418
			C676.698,554.915,676.837,555.056,676.837,555.334z M676.512,561.281c0.249,0,0.403,0.124,0.466,0.371
			c0,0.309-0.124,0.465-0.372,0.465c-0.247,0.063-0.403-0.062-0.465-0.371C676.078,561.497,676.202,561.343,676.512,561.281z
			 M677.116,560.165c0,0.278-0.139,0.417-0.417,0.417s-0.418-0.139-0.418-0.417s0.14-0.418,0.418-0.418
			S677.116,559.887,677.116,560.165z M676.326,558.491c0-0.276,0.14-0.417,0.417-0.417c0.279,0,0.418,0.141,0.418,0.417
			c0,0.279-0.125,0.419-0.371,0.419C676.481,558.911,676.326,558.773,676.326,558.491z M679.486,556.078h1.485v0.557h-1.485V556.078
			z"/>
		<path fill="#333333" d="M700.481,544.789c0-0.155,0.078-0.278,0.233-0.371h-16.352c0.156,0.093,0.232,0.216,0.232,0.371
			c0,0.277-0.138,0.417-0.417,0.417s-0.418-0.14-0.418-0.417c0-0.155,0.076-0.278,0.232-0.371h-3.53v-1.161h24.573v1.161h-3.948
			c0.155,0.093,0.232,0.216,0.232,0.371c0,0.277-0.139,0.417-0.418,0.417C700.621,545.206,700.481,545.067,700.481,544.789z
			 M680.462,572.381h3.25v-0.138c0-0.279,0.14-0.418,0.417-0.418c0.279,0,0.418,0.139,0.418,0.418c0,0.063-0.016,0.107-0.046,0.138
			h15.934v-0.138c0-0.279,0.141-0.418,0.417-0.418c0.279,0,0.419,0.139,0.419,0.418c0,0.063-0.017,0.107-0.048,0.138h3.81v1.161
			h-24.573L680.462,572.381L680.462,572.381z M680.508,556.078h3.577v0.557h0.093c0.278,0,0.416,0.14,0.416,0.418
			c0,0.279-0.138,0.418-0.416,0.418c-0.279,0-0.418-0.139-0.418-0.418c0-0.216,0.107-0.355,0.326-0.418h-3.577L680.508,556.078
			L680.508,556.078z M683.76,546.277c0-0.279,0.139-0.419,0.418-0.419c0.278,0,0.416,0.14,0.416,0.419
			c0,0.277-0.138,0.416-0.416,0.416C683.898,546.695,683.76,546.554,683.76,546.277z M683.76,547.669
			c0-0.277,0.139-0.417,0.418-0.417c0.278,0,0.416,0.14,0.416,0.417c0,0.278-0.138,0.418-0.416,0.418
			C683.898,548.088,683.76,547.948,683.76,547.669z M683.76,549.11c0-0.278,0.139-0.417,0.418-0.417
			c0.278,0,0.416,0.139,0.416,0.417c0,0.277-0.138,0.417-0.416,0.417C683.898,549.528,683.76,549.387,683.76,549.11z
			 M683.76,550.735c0-0.278,0.139-0.417,0.418-0.417c0.278,0,0.416,0.139,0.416,0.417s-0.138,0.418-0.416,0.418
			C683.898,551.155,683.76,551.015,683.76,550.735z M683.76,552.453c0-0.278,0.139-0.417,0.418-0.417
			c0.278,0,0.416,0.139,0.416,0.417c0,0.277-0.138,0.417-0.416,0.417C683.898,552.872,683.76,552.733,683.76,552.453z
			 M683.76,554.08c0-0.278,0.139-0.417,0.418-0.417c0.278,0,0.416,0.139,0.416,0.417s-0.138,0.418-0.416,0.418
			C683.898,554.498,683.76,554.359,683.76,554.08z M683.76,555.567c0-0.278,0.139-0.416,0.418-0.416
			c0.278,0,0.416,0.138,0.416,0.416s-0.138,0.418-0.416,0.418C683.898,555.985,683.76,555.845,683.76,555.567z M683.76,558.447
			c0-0.278,0.139-0.418,0.418-0.418c0.278,0,0.416,0.14,0.416,0.418c0,0.277-0.138,0.417-0.416,0.417
			C683.898,558.864,683.76,558.724,683.76,558.447z M683.76,559.887c0-0.278,0.139-0.418,0.418-0.418
			c0.278,0,0.416,0.14,0.416,0.418s-0.138,0.418-0.416,0.418C683.898,560.305,683.76,560.165,683.76,559.887z M683.76,561.513
			c0-0.278,0.139-0.418,0.418-0.418c0.278,0,0.416,0.14,0.416,0.418c0,0.277-0.138,0.417-0.416,0.417
			C683.898,561.93,683.76,561.79,683.76,561.513z M683.76,563.139c0-0.279,0.139-0.419,0.418-0.419c0.278,0,0.416,0.14,0.416,0.419
			c0,0.276-0.138,0.416-0.416,0.416C683.898,563.557,683.76,563.415,683.76,563.139z M683.76,564.763
			c0-0.277,0.139-0.416,0.418-0.416c0.278,0,0.416,0.139,0.416,0.416c0,0.279-0.138,0.419-0.416,0.419
			C683.898,565.183,683.76,565.043,683.76,564.763z M683.76,566.576c0-0.279,0.139-0.419,0.418-0.419
			c0.278,0,0.416,0.14,0.416,0.419c0,0.277-0.138,0.416-0.416,0.416C683.898,566.993,683.76,566.854,683.76,566.576z
			 M683.76,568.063c0-0.278,0.139-0.418,0.418-0.418c0.278,0,0.416,0.14,0.416,0.418c0,0.277-0.138,0.416-0.416,0.416
			C683.898,568.481,683.76,568.34,683.76,568.063z M683.76,569.456c0-0.278,0.139-0.417,0.418-0.417
			c0.278,0,0.416,0.139,0.416,0.417s-0.138,0.417-0.416,0.417C683.898,569.873,683.76,569.735,683.76,569.456z M683.76,570.895
			c0-0.277,0.139-0.417,0.418-0.417c0.278,0,0.416,0.14,0.416,0.417c0,0.279-0.138,0.418-0.416,0.418
			C683.898,571.315,683.76,571.175,683.76,570.895z M684.874,545.997c-0.124-0.247-0.063-0.448,0.187-0.604
			c0.062-0.062,0.154-0.077,0.277-0.046c0.125,0.03,0.216,0.108,0.278,0.231c0.062,0.095,0.077,0.194,0.047,0.302
			c-0.031,0.109-0.093,0.194-0.187,0.256c-0.124,0.063-0.24,0.085-0.348,0.069C685.021,546.192,684.936,546.121,684.874,545.997z
			 M685.199,556.078h3.576v0.557h-3.576V556.078z M685.617,547.251c-0.186-0.247-0.139-0.434,0.14-0.559
			c0.247-0.123,0.448-0.062,0.604,0.187c0.123,0.247,0.062,0.448-0.187,0.604C685.926,547.609,685.74,547.529,685.617,547.251z
			 M686.268,548.505c-0.063-0.093-0.063-0.192,0-0.302c0.062-0.107,0.124-0.192,0.187-0.255c0.216-0.093,0.418-0.047,0.603,0.14
			c0.063,0.248-0.014,0.449-0.231,0.604C686.577,548.815,686.392,548.755,686.268,548.505z M686.965,549.807
			c-0.093-0.279-0.032-0.48,0.187-0.604c0.092-0.062,0.192-0.076,0.301-0.046c0.107,0.031,0.193,0.108,0.256,0.231
			c0.187,0.187,0.139,0.358-0.14,0.512c-0.094,0.063-0.202,0.077-0.325,0.047C687.118,549.915,687.026,549.869,686.965,549.807z
			 M687.801,551.155c-0.124-0.218-0.063-0.402,0.187-0.56c0.093-0.063,0.193-0.069,0.3-0.022c0.108,0.046,0.18,0.117,0.211,0.209
			c0.123,0.187,0.093,0.373-0.094,0.56C688.188,551.464,687.986,551.403,687.801,551.155z M688.684,552.685
			c-0.125-0.246-0.076-0.433,0.14-0.558c0.247-0.153,0.433-0.122,0.559,0.094c0.123,0.217,0.093,0.418-0.095,0.604
			C689.009,552.918,688.807,552.872,688.684,552.685z M689.427,554.034c-0.063-0.063-0.076-0.148-0.045-0.256
			c0.03-0.108,0.106-0.193,0.232-0.256c0.062-0.062,0.153-0.077,0.276-0.046c0.125,0.03,0.217,0.078,0.279,0.14
			c0.123,0.248,0.077,0.448-0.139,0.604C689.782,554.343,689.581,554.282,689.427,554.034z M689.751,556.078h3.576v0.557h-1.672
			c-0.032,0.063-0.078,0.125-0.14,0.187c-0.186,0.124-0.372,0.093-0.558-0.093c-0.03,0-0.046-0.031-0.046-0.095h-1.161V556.078z
			 M690.17,555.38c-0.155-0.247-0.093-0.435,0.188-0.558c0.245-0.123,0.446-0.077,0.604,0.139c0.062,0.279-0.016,0.465-0.232,0.559
			C690.479,555.644,690.293,555.598,690.17,555.38z M691.563,557.889c-0.124-0.246-0.047-0.447,0.231-0.604
			c0.279-0.123,0.449-0.062,0.512,0.187c0.093,0.277,0.045,0.465-0.14,0.558C691.919,558.183,691.718,558.137,691.563,557.889z
			 M692.354,559.096c-0.094-0.093-0.125-0.186-0.094-0.277c0.031-0.095,0.094-0.156,0.187-0.187
			c0.246-0.154,0.447-0.123,0.604,0.093c0.094,0.278,0.031,0.479-0.187,0.604c-0.063,0.063-0.147,0.078-0.255,0.048
			C692.5,559.345,692.415,559.252,692.354,559.096z M693.143,560.537c-0.124-0.187-0.093-0.372,0.093-0.56
			c0.248-0.154,0.449-0.108,0.604,0.141c0.094,0.248,0.046,0.449-0.139,0.604C693.421,560.846,693.235,560.784,693.143,560.537z
			 M693.933,561.93c-0.063-0.094-0.078-0.192-0.047-0.302c0.031-0.107,0.108-0.192,0.232-0.255c0.247-0.187,0.448-0.124,0.604,0.186
			c0.063,0.095,0.071,0.193,0.024,0.303c-0.048,0.108-0.148,0.193-0.303,0.255c-0.093,0.063-0.192,0.078-0.301,0.045
			C694.032,562.131,693.963,562.055,693.933,561.93z M694.443,556.078h3.576v0.557h-3.576V556.078z M694.722,563.371
			c-0.124-0.248-0.077-0.435,0.14-0.56c0.248-0.154,0.434-0.092,0.56,0.187c0.186,0.247,0.153,0.435-0.096,0.558
			C695.047,563.648,694.846,563.587,694.722,563.371z M695.651,564.995c-0.156-0.246-0.125-0.447,0.092-0.604
			c0.247-0.094,0.449-0.045,0.604,0.139c0.123,0.248,0.077,0.434-0.139,0.559C695.961,565.245,695.774,565.213,695.651,564.995z
			 M696.395,566.25c-0.095-0.246-0.047-0.447,0.138-0.604c0.248-0.124,0.435-0.046,0.559,0.231c0.155,0.217,0.108,0.388-0.14,0.512
			C696.673,566.545,696.487,566.499,696.395,566.25z M696.998,567.458c-0.063-0.094-0.077-0.192-0.047-0.302
			c0.031-0.108,0.108-0.192,0.232-0.255c0.217-0.124,0.388-0.077,0.512,0.14c0.216,0.215,0.187,0.417-0.094,0.604
			C697.323,567.737,697.122,567.675,696.998,567.458z M697.741,568.713c-0.063-0.094-0.071-0.191-0.022-0.301
			c0.045-0.108,0.1-0.193,0.162-0.255c0.215-0.125,0.417-0.094,0.604,0.092c0.093,0.249,0.03,0.45-0.187,0.604
			C698.051,568.975,697.864,568.929,697.741,568.713z M698.671,570.107c-0.124-0.217-0.078-0.402,0.139-0.56
			c0.094-0.062,0.193-0.069,0.301-0.021c0.108,0.045,0.193,0.116,0.256,0.209c0.155,0.248,0.125,0.434-0.093,0.558
			C699.025,570.386,698.826,570.323,698.671,570.107z M698.949,556.078h3.576v0.557h-1.532c0.216,0.063,0.326,0.202,0.326,0.418
			c0,0.279-0.139,0.418-0.418,0.418c-0.278,0-0.418-0.139-0.418-0.418c0-0.216,0.108-0.355,0.327-0.418h-1.858v-0.557H698.949z
			 M699.46,571.081c0-0.278,0.139-0.418,0.417-0.418s0.418,0.14,0.418,0.418c0,0.279-0.14,0.419-0.418,0.419
			S699.46,571.361,699.46,571.081z M700.481,546.277c0-0.279,0.14-0.419,0.419-0.419s0.418,0.14,0.418,0.419
			c0,0.277-0.139,0.416-0.418,0.416C700.621,546.695,700.481,546.554,700.481,546.277z M700.481,547.669
			c0-0.277,0.14-0.417,0.419-0.417s0.418,0.14,0.418,0.417c0,0.278-0.139,0.418-0.418,0.418
			C700.621,548.088,700.481,547.948,700.481,547.669z M700.481,549.11c0-0.278,0.14-0.417,0.419-0.417s0.418,0.139,0.418,0.417
			c0,0.277-0.139,0.417-0.418,0.417C700.621,549.528,700.481,549.387,700.481,549.11z M700.481,550.735
			c0-0.278,0.14-0.417,0.419-0.417s0.418,0.139,0.418,0.417s-0.139,0.418-0.418,0.418
			C700.621,551.155,700.481,551.015,700.481,550.735z M700.481,552.453c0-0.278,0.14-0.417,0.419-0.417s0.418,0.139,0.418,0.417
			c0,0.277-0.139,0.417-0.418,0.417C700.621,552.872,700.481,552.733,700.481,552.453z M700.481,554.08
			c0-0.278,0.14-0.417,0.419-0.417s0.418,0.139,0.418,0.417s-0.139,0.418-0.418,0.418S700.481,554.359,700.481,554.08z
			 M700.481,555.567c0-0.278,0.14-0.416,0.419-0.416s0.418,0.138,0.418,0.416s-0.139,0.418-0.418,0.418
			S700.481,555.845,700.481,555.567z M700.481,558.447c0-0.278,0.14-0.418,0.419-0.418s0.418,0.14,0.418,0.418
			c0,0.277-0.139,0.417-0.418,0.417S700.481,558.724,700.481,558.447z M700.481,559.887c0-0.278,0.14-0.418,0.419-0.418
			s0.418,0.14,0.418,0.418s-0.139,0.418-0.418,0.418S700.481,560.165,700.481,559.887z M700.481,561.513
			c0-0.278,0.14-0.418,0.419-0.418s0.418,0.14,0.418,0.418c0,0.277-0.139,0.417-0.418,0.417S700.481,561.79,700.481,561.513z
			 M700.481,563.139c0-0.279,0.14-0.419,0.419-0.419s0.418,0.14,0.418,0.419c0,0.276-0.139,0.416-0.418,0.416
			C700.621,563.557,700.481,563.415,700.481,563.139z M700.481,564.763c0-0.277,0.14-0.416,0.419-0.416s0.418,0.139,0.418,0.416
			c0,0.279-0.139,0.419-0.418,0.419C700.621,565.183,700.481,565.043,700.481,564.763z M700.481,566.576
			c0-0.279,0.14-0.419,0.419-0.419s0.418,0.14,0.418,0.419c0,0.277-0.139,0.416-0.418,0.416
			C700.621,566.993,700.481,566.854,700.481,566.576z M700.481,568.063c0-0.278,0.14-0.418,0.419-0.418s0.418,0.14,0.418,0.418
			c0,0.277-0.139,0.416-0.418,0.416C700.621,568.481,700.481,568.34,700.481,568.063z M700.481,569.456
			c0-0.278,0.14-0.417,0.419-0.417s0.418,0.139,0.418,0.417s-0.139,0.417-0.418,0.417S700.481,569.735,700.481,569.456z
			 M700.481,570.895c0-0.277,0.14-0.417,0.419-0.417s0.418,0.14,0.418,0.417c0,0.279-0.139,0.418-0.418,0.418
			C700.621,571.315,700.481,571.175,700.481,570.895z M703.642,556.078h1.391v0.557h-1.391V556.078z"/>
		<path fill="#333333" d="M704.338,543.257h22.669v1.161H708.61c0.156,0.093,0.232,0.216,0.232,0.371
			c0,0.277-0.138,0.417-0.417,0.417c-0.278,0-0.418-0.14-0.418-0.417c0-0.155,0.077-0.278,0.232-0.371h-3.902V543.257
			L704.338,543.257z M704.338,572.381h3.623v-0.138c0-0.279,0.138-0.418,0.416-0.418c0.279,0,0.419,0.139,0.419,0.418
			c0,0.063-0.017,0.107-0.047,0.138h0.604c-0.032-0.03-0.045-0.107-0.045-0.232c0-0.277,0.138-0.417,0.416-0.417
			c0.279,0,0.419,0.14,0.419,0.417c0,0.095-0.032,0.171-0.094,0.232h0.788c-0.031-0.03-0.045-0.107-0.045-0.232
			c0-0.277,0.138-0.417,0.417-0.417c0.278,0,0.418,0.14,0.418,0.417c0,0.095-0.032,0.171-0.095,0.232h0.699
			c-0.032-0.03-0.047-0.107-0.047-0.232c0-0.277,0.139-0.417,0.418-0.417c0.278,0,0.417,0.14,0.417,0.417
			c0,0.095-0.031,0.171-0.094,0.232h0.743c-0.03-0.03-0.046-0.107-0.046-0.232c0-0.277,0.14-0.417,0.419-0.417
			c0.278,0,0.417,0.14,0.417,0.417c0,0.095-0.031,0.171-0.094,0.232h0.931c-0.032-0.03-0.047-0.107-0.047-0.232
			c0-0.277,0.14-0.417,0.418-0.417s0.417,0.14,0.417,0.417c0,0.095-0.031,0.171-0.093,0.232h1.021
			c-0.031-0.03-0.047-0.107-0.047-0.232c0-0.277,0.14-0.417,0.419-0.417c0.278,0,0.417,0.14,0.417,0.417
			c0,0.095-0.032,0.171-0.094,0.232h0.931c-0.031-0.03-0.046-0.107-0.046-0.232c0-0.277,0.139-0.417,0.418-0.417
			c0.277,0,0.416,0.14,0.416,0.417c0,0.095-0.031,0.171-0.093,0.232h0.789c-0.031-0.03-0.046-0.107-0.046-0.232
			c0-0.277,0.14-0.417,0.418-0.417c0.277,0,0.417,0.14,0.417,0.417c0,0.095-0.031,0.171-0.094,0.232h0.789
			c-0.03-0.03-0.045-0.107-0.045-0.232c0-0.277,0.14-0.417,0.418-0.417c0.277,0,0.417,0.14,0.417,0.417
			c0,0.095-0.032,0.171-0.094,0.232h0.697c-0.031-0.03-0.046-0.107-0.046-0.232c0-0.277,0.14-0.417,0.418-0.417
			s0.418,0.14,0.418,0.417c0,0.095-0.032,0.171-0.095,0.232h3.3v1.161h-22.669v-1.161H704.338z M704.385,556.078h3.576v0.557h-3.576
			V556.078z M708.007,546.277c0-0.279,0.14-0.419,0.418-0.419c0.279,0,0.417,0.14,0.417,0.419c0,0.277-0.138,0.416-0.417,0.416
			C708.146,546.695,708.007,546.554,708.007,546.277z M708.007,547.669c0-0.277,0.14-0.417,0.418-0.417
			c0.279,0,0.417,0.14,0.417,0.417c0,0.278-0.138,0.418-0.417,0.418C708.146,548.088,708.007,547.948,708.007,547.669z
			 M708.007,549.11c0-0.278,0.14-0.417,0.418-0.417c0.279,0,0.417,0.139,0.417,0.417c0,0.277-0.138,0.417-0.417,0.417
			C708.146,549.528,708.007,549.387,708.007,549.11z M708.007,550.735c0-0.278,0.14-0.417,0.418-0.417
			c0.279,0,0.417,0.139,0.417,0.417s-0.138,0.418-0.417,0.418C708.146,551.155,708.007,551.015,708.007,550.735z M708.007,552.453
			c0-0.278,0.14-0.417,0.418-0.417c0.279,0,0.417,0.139,0.417,0.417c0,0.277-0.138,0.417-0.417,0.417
			C708.146,552.872,708.007,552.733,708.007,552.453z M708.007,554.08c0-0.278,0.14-0.417,0.418-0.417
			c0.279,0,0.417,0.139,0.417,0.417s-0.138,0.418-0.417,0.418C708.146,554.498,708.007,554.359,708.007,554.08z M708.007,555.567
			c0-0.278,0.14-0.416,0.418-0.416c0.279,0,0.417,0.138,0.417,0.416s-0.138,0.418-0.417,0.418
			C708.146,555.985,708.007,555.845,708.007,555.567z M708.007,557.053c0-0.278,0.14-0.418,0.418-0.418
			c0.279,0,0.417,0.14,0.417,0.418c0,0.279-0.138,0.418-0.417,0.418C708.146,557.471,708.007,557.332,708.007,557.053z
			 M708.007,558.447c0-0.278,0.14-0.418,0.418-0.418c0.279,0,0.417,0.14,0.417,0.418c0,0.277-0.138,0.417-0.417,0.417
			C708.146,558.864,708.007,558.724,708.007,558.447z M708.007,559.887c0-0.278,0.14-0.418,0.418-0.418
			c0.279,0,0.417,0.14,0.417,0.418s-0.138,0.418-0.417,0.418C708.146,560.305,708.007,560.165,708.007,559.887z M708.007,561.513
			c0-0.278,0.14-0.418,0.418-0.418c0.279,0,0.417,0.14,0.417,0.418c0,0.277-0.138,0.417-0.417,0.417
			C708.146,561.93,708.007,561.79,708.007,561.513z M708.007,563.139c0-0.279,0.14-0.419,0.418-0.419
			c0.279,0,0.417,0.14,0.417,0.419c0,0.276-0.138,0.416-0.417,0.416C708.146,563.557,708.007,563.415,708.007,563.139z
			 M708.007,564.763c0-0.277,0.14-0.416,0.418-0.416c0.279,0,0.417,0.139,0.417,0.416c0,0.279-0.138,0.419-0.417,0.419
			C708.146,565.183,708.007,565.043,708.007,564.763z M708.007,566.576c0-0.279,0.14-0.419,0.418-0.419
			c0.279,0,0.417,0.14,0.417,0.419c0,0.277-0.138,0.416-0.417,0.416C708.146,566.993,708.007,566.854,708.007,566.576z
			 M708.007,568.063c0-0.278,0.14-0.418,0.418-0.418c0.279,0,0.417,0.14,0.417,0.418c0,0.277-0.138,0.416-0.417,0.416
			C708.146,568.481,708.007,568.34,708.007,568.063z M708.007,569.456c0-0.278,0.14-0.417,0.418-0.417
			c0.279,0,0.417,0.139,0.417,0.417s-0.138,0.417-0.417,0.417C708.146,569.873,708.007,569.735,708.007,569.456z M708.007,570.895
			c0-0.277,0.14-0.417,0.418-0.417c0.279,0,0.417,0.14,0.417,0.417c0,0.279-0.138,0.418-0.417,0.418
			C708.146,571.315,708.007,571.175,708.007,570.895z M709.075,556.078h3.578v0.557h-3.578V556.078z M713.627,556.078h3.578v0.557
			h-3.578V556.078z M718.319,556.078h3.576v0.557h-3.576V556.078z M722.825,556.078h3.577v0.557h-3.577V556.078z"/>
	</g>
	<g display="inline">
		<g enable-background="new    ">
			<path fill="#475656" d="M606.47,33.65c-0.314,0.148-0.945,0.296-1.754,0.296c-1.873,0-3.283-1.111-3.283-3.158
				c0-1.954,1.41-3.279,3.471-3.279c0.827,0,1.351,0.167,1.576,0.278l-0.206,0.657c-0.325-0.147-0.788-0.259-1.341-0.259
				c-1.558,0-2.593,0.937-2.593,2.575c0,1.528,0.938,2.51,2.553,2.51c0.522,0,1.056-0.102,1.4-0.259L606.47,33.65z"/>
			<path fill="#475656" d="M613.013,30.668c0,2.148-1.39,3.288-3.085,3.288c-1.755,0-2.986-1.278-2.986-3.168
				c0-1.982,1.312-3.279,3.086-3.279C611.84,27.509,613.013,28.815,613.013,30.668z M607.857,30.769
				c0,1.334,0.769,2.529,2.118,2.529c1.36,0,2.13-1.176,2.13-2.593c0-1.241-0.689-2.538-2.119-2.538
				C608.567,28.167,607.857,29.399,607.857,30.769z"/>
			<path fill="#475656" d="M614.123,27.695c0.521-0.073,1.144-0.13,1.823-0.13c1.231,0,2.109,0.27,2.69,0.778
				c0.592,0.509,0.938,1.23,0.938,2.241c0,1.019-0.335,1.853-0.956,2.427c-0.621,0.583-1.646,0.898-2.938,0.898
				c-0.61,0-1.124-0.028-1.558-0.074L614.123,27.695L614.123,27.695z M614.98,33.215c0.217,0.037,0.531,0.046,0.867,0.046
				c1.833,0,2.828-0.963,2.828-2.649c0.011-1.473-0.877-2.407-2.689-2.407c-0.443,0-0.779,0.037-1.006,0.083V33.215z"/>
			<path fill="#475656" d="M624.125,30.927h-2.583v2.25h2.879v0.676h-3.736V27.61h3.589v0.677h-2.73v1.973h2.583L624.125,30.927
				L624.125,30.927z"/>
		</g>
	</g>
	<g display="inline">
		<g enable-background="new    ">
			<path fill="#475656" d="M602.685,63.674v2.612h3.215v-2.612h0.866v6.243h-0.866V66.99h-3.215v2.928h-0.856v-6.243H602.685z"/>
			<path fill="#475656" d="M609.513,64.359h-2.021v-0.686h4.919v0.686h-2.031v5.558h-0.867V64.359z"/>
			<path fill="#475656" d="M618.746,67.175c-0.049-0.871-0.108-1.917-0.1-2.695h-0.028c-0.228,0.732-0.503,1.51-0.838,2.371
				l-1.173,3.029h-0.65l-1.074-2.974c-0.314-0.88-0.582-1.686-0.77-2.427h-0.021c-0.02,0.778-0.068,1.825-0.128,2.76l-0.178,2.678
				h-0.818l0.464-6.243h1.095l1.134,3.02c0.275,0.77,0.503,1.454,0.67,2.104h0.03c0.167-0.63,0.403-1.315,0.698-2.104l1.185-3.02
				h1.094l0.414,6.243h-0.838L618.746,67.175z"/>
			<path fill="#475656" d="M621.069,63.674h0.856v5.565h2.839v0.677h-3.695V63.674z"/>
		</g>
	</g>
	<g display="inline">
		<g enable-background="new    ">
			<path fill="#475656" d="M606.47,105.775c-0.314,0.148-0.945,0.296-1.754,0.296c-1.873,0-3.283-1.111-3.283-3.158
				c0-1.954,1.41-3.279,3.471-3.279c0.827,0,1.351,0.167,1.576,0.278l-0.206,0.657c-0.325-0.147-0.788-0.259-1.341-0.259
				c-1.558,0-2.593,0.937-2.593,2.575c0,1.528,0.938,2.51,2.553,2.51c0.522,0,1.056-0.102,1.4-0.259L606.47,105.775z"/>
			<path fill="#475656" d="M607.424,104.997c0.385,0.223,0.946,0.407,1.538,0.407c0.877,0,1.39-0.436,1.39-1.064
				c0-0.583-0.354-0.917-1.252-1.241c-1.084-0.361-1.755-0.889-1.755-1.769c0-0.974,0.857-1.695,2.149-1.695
				c0.68,0,1.173,0.148,1.469,0.306l-0.237,0.658c-0.217-0.111-0.659-0.296-1.262-0.296c-0.906,0-1.251,0.509-1.251,0.936
				c0,0.583,0.403,0.871,1.32,1.204c1.124,0.408,1.695,0.917,1.695,1.834c0,0.963-0.76,1.798-2.326,1.798
				c-0.642,0-1.342-0.177-1.695-0.398L607.424,104.997z"/>
			<path fill="#475656" d="M612.28,104.997c0.385,0.223,0.945,0.407,1.538,0.407c0.877,0,1.39-0.436,1.39-1.064
				c0-0.583-0.354-0.917-1.252-1.241c-1.084-0.361-1.755-0.889-1.755-1.769c0-0.974,0.856-1.695,2.148-1.695
				c0.681,0,1.174,0.148,1.47,0.306l-0.237,0.658c-0.217-0.111-0.66-0.296-1.262-0.296c-0.906,0-1.252,0.509-1.252,0.936
				c0,0.583,0.403,0.871,1.32,1.204c1.124,0.408,1.695,0.917,1.695,1.834c0,0.963-0.759,1.798-2.326,1.798
				c-0.641,0-1.341-0.177-1.695-0.398L612.28,104.997z"/>
		</g>
	</g>
	<g display="inline">
		<g enable-background="new    ">
			<path fill="#475656" d="M601.827,135.875c0.414-0.065,0.956-0.121,1.646-0.121c0.849,0,1.47,0.186,1.862,0.519
				c0.365,0.296,0.582,0.75,0.582,1.307c0,0.564-0.178,1.01-0.513,1.334c-0.453,0.454-1.192,0.685-2.03,0.685
				c-0.257,0-0.493-0.009-0.69-0.056v2.501h-0.856V135.875L601.827,135.875z M602.685,138.885c0.188,0.046,0.425,0.063,0.71,0.063
				c1.035,0,1.666-0.472,1.666-1.332c0-0.824-0.62-1.224-1.566-1.224c-0.375,0-0.66,0.028-0.81,0.065V138.885z"/>
			<path fill="#475656" d="M607.926,135.801v2.612h3.214v-2.612h0.867v6.243h-0.867v-2.927h-3.214v2.927h-0.856v-6.243H607.926z"/>
			<path fill="#475656" d="M613.492,135.875c0.414-0.065,0.956-0.121,1.646-0.121c0.849,0,1.47,0.186,1.863,0.519
				c0.364,0.296,0.581,0.75,0.581,1.307c0,0.564-0.178,1.01-0.513,1.334c-0.453,0.454-1.192,0.685-2.03,0.685
				c-0.257,0-0.493-0.009-0.69-0.056v2.501h-0.856V135.875L613.492,135.875z M614.35,138.885c0.188,0.046,0.425,0.063,0.71,0.063
				c1.035,0,1.666-0.472,1.666-1.332c0-0.824-0.62-1.224-1.566-1.224c-0.375,0-0.66,0.028-0.81,0.065V138.885z"/>
		</g>
	</g>
	<g display="inline">
		<g enable-background="new    ">
			<path fill="#475656" d="M603.188,171.86h0.857v4.178c0,1.657-0.867,2.167-2.011,2.167c-0.315,0-0.7-0.065-0.917-0.148
				l0.129-0.658c0.177,0.065,0.434,0.121,0.719,0.121c0.771,0,1.224-0.324,1.224-1.547L603.188,171.86L603.188,171.86z"/>
			<path fill="#475656" d="M606.547,176.139l-0.688,1.963h-0.889l2.258-6.243h1.035l2.268,6.243h-0.916l-0.71-1.963H606.547z
				 M608.726,175.51l-0.649-1.797c-0.148-0.408-0.246-0.778-0.345-1.14h-0.021c-0.099,0.37-0.207,0.75-0.335,1.131l-0.65,1.806
				H608.726z"/>
			<path fill="#475656" d="M612.439,178.103l-2.17-6.243h0.928l1.035,3.075c0.285,0.843,0.531,1.603,0.71,2.334h0.02
				c0.188-0.723,0.463-1.51,0.759-2.325l1.124-3.084h0.917l-2.376,6.243H612.439z"/>
			<path fill="#475656" d="M616.991,176.139l-0.689,1.963h-0.888l2.258-6.243h1.035l2.267,6.243h-0.917l-0.709-1.963H616.991z
				 M619.17,175.51l-0.65-1.797c-0.147-0.408-0.245-0.778-0.345-1.14h-0.021c-0.1,0.37-0.207,0.75-0.335,1.131l-0.65,1.806H619.17z"
				/>
		</g>
	</g>
	<g display="inline">
		<g enable-background="new    ">
			<path fill="#475656" d="M603.188,207.926h0.857v4.177c0,1.658-0.867,2.167-2.011,2.167c-0.315,0-0.7-0.064-0.917-0.147
				l0.129-0.658c0.177,0.064,0.434,0.121,0.719,0.121c0.771,0,1.224-0.324,1.224-1.547L603.188,207.926L603.188,207.926z"/>
			<path fill="#475656" d="M606.547,212.205l-0.688,1.963h-0.889l2.258-6.243h1.035l2.268,6.243h-0.916l-0.71-1.963H606.547z
				 M608.726,211.575l-0.649-1.798c-0.148-0.407-0.246-0.777-0.345-1.139h-0.021c-0.099,0.37-0.207,0.75-0.335,1.13l-0.65,1.807
				H608.726z"/>
			<path fill="#475656" d="M612.439,214.168l-2.17-6.243h0.928l1.035,3.075c0.285,0.843,0.531,1.602,0.71,2.334h0.02
				c0.188-0.724,0.463-1.51,0.759-2.325l1.124-3.084h0.917l-2.376,6.243H612.439z"/>
			<path fill="#475656" d="M616.991,212.205l-0.689,1.963h-0.888l2.258-6.243h1.035l2.267,6.243h-0.917l-0.709-1.963H616.991z
				 M619.17,211.575l-0.65-1.798c-0.147-0.407-0.245-0.777-0.345-1.139h-0.021c-0.1,0.37-0.207,0.75-0.335,1.13l-0.65,1.807H619.17z
				"/>
			<path fill="#475656" d="M621.828,213.186c0.385,0.224,0.946,0.408,1.538,0.408c0.877,0,1.39-0.436,1.39-1.065
				c0-0.583-0.354-0.917-1.252-1.24c-1.084-0.361-1.755-0.89-1.755-1.77c0-0.973,0.857-1.694,2.149-1.694
				c0.68,0,1.173,0.147,1.469,0.306l-0.237,0.658c-0.217-0.111-0.66-0.296-1.262-0.296c-0.906,0-1.251,0.509-1.251,0.936
				c0,0.583,0.402,0.871,1.32,1.204c1.123,0.408,1.694,0.917,1.694,1.834c0,0.963-0.759,1.797-2.326,1.797
				c-0.641,0-1.341-0.176-1.694-0.398L621.828,213.186z"/>
			<path fill="#475656" d="M631.446,213.965c-0.315,0.147-0.946,0.296-1.754,0.296c-1.873,0-3.283-1.112-3.283-3.159
				c0-1.954,1.41-3.279,3.47-3.279c0.828,0,1.351,0.167,1.577,0.278l-0.207,0.658c-0.325-0.148-0.788-0.259-1.34-0.259
				c-1.559,0-2.593,0.936-2.593,2.575c0,1.527,0.937,2.51,2.553,2.51c0.521,0,1.055-0.103,1.399-0.259L631.446,213.965z"/>
			<path fill="#475656" d="M632.519,208.009c0.435-0.083,1.056-0.13,1.646-0.13c0.917,0,1.508,0.158,1.922,0.51
				c0.335,0.278,0.522,0.704,0.522,1.187c0,0.823-0.553,1.37-1.252,1.593v0.027c0.513,0.167,0.817,0.611,0.976,1.261
				c0.217,0.871,0.375,1.473,0.513,1.713h-0.887c-0.108-0.176-0.257-0.713-0.443-1.491c-0.196-0.861-0.553-1.186-1.331-1.213h-0.809
				v2.705h-0.857V208.009L632.519,208.009z M633.376,210.852h0.878c0.916,0,1.498-0.472,1.498-1.186
				c0-0.807-0.621-1.158-1.528-1.167c-0.414,0-0.709,0.037-0.848,0.073V210.852L633.376,210.852z"/>
			<path fill="#475656" d="M638.677,207.926v6.243h-0.856v-6.243H638.677z"/>
			<path fill="#475656" d="M640.174,208c0.414-0.065,0.956-0.121,1.646-0.121c0.848,0,1.469,0.186,1.862,0.519
				c0.364,0.296,0.581,0.75,0.581,1.307c0,0.564-0.178,1.01-0.513,1.334c-0.453,0.454-1.192,0.685-2.03,0.685
				c-0.257,0-0.493-0.009-0.689-0.056v2.501h-0.857V208L640.174,208z M641.031,211.01c0.188,0.046,0.424,0.063,0.71,0.063
				c1.035,0,1.666-0.472,1.666-1.332c0-0.824-0.621-1.224-1.567-1.224c-0.375,0-0.66,0.028-0.809,0.065V211.01z"/>
			<path fill="#475656" d="M646.677,208.611h-2.021v-0.686h4.919v0.686h-2.031v5.558h-0.867V208.611z"/>
		</g>
	</g>
	<g display="inline">
		<g enable-background="new    ">
			<path fill="#475656" d="M607.426,244.489c-0.049-0.87-0.107-1.917-0.099-2.694h-0.029c-0.227,0.731-0.503,1.51-0.838,2.371
				l-1.173,3.028h-0.65l-1.073-2.973c-0.315-0.88-0.582-1.686-0.771-2.427h-0.02c-0.021,0.777-0.069,1.825-0.129,2.76l-0.178,2.677
				h-0.817l0.464-6.243h1.094l1.134,3.021c0.276,0.769,0.503,1.454,0.67,2.103h0.03c0.167-0.63,0.404-1.314,0.699-2.103l1.184-3.021
				h1.094l0.414,6.243h-0.838L607.426,244.489z"/>
			<path fill="#475656" d="M611.229,247.231v-2.648l-2.101-3.595h0.977l0.937,1.724c0.257,0.473,0.454,0.852,0.661,1.288h0.02
				c0.188-0.408,0.414-0.815,0.671-1.288l0.955-1.724h0.978l-2.229,3.584v2.658L611.229,247.231L611.229,247.231z"/>
			<path fill="#475656" d="M614.833,246.249c0.385,0.223,0.946,0.407,1.538,0.407c0.877,0,1.39-0.436,1.39-1.064
				c0-0.583-0.354-0.917-1.252-1.241c-1.084-0.361-1.755-0.889-1.755-1.769c0-0.974,0.857-1.695,2.149-1.695
				c0.68,0,1.173,0.148,1.469,0.306l-0.237,0.658c-0.217-0.111-0.66-0.296-1.262-0.296c-0.906,0-1.252,0.509-1.252,0.937
				c0,0.582,0.404,0.87,1.321,1.203c1.124,0.408,1.694,0.917,1.694,1.834c0,0.964-0.759,1.798-2.326,1.798
				c-0.641,0-1.341-0.177-1.694-0.398L614.833,246.249z"/>
			<path fill="#475656" d="M625.289,248.148c-0.896-0.222-1.774-0.473-2.543-0.723c-0.138-0.046-0.276-0.092-0.404-0.092
				c-1.577-0.057-2.928-1.148-2.928-3.159c0-2,1.302-3.288,3.096-3.288c1.805,0,2.978,1.315,2.978,3.159
				c0,1.602-0.788,2.63-1.894,2.992v0.037c0.66,0.156,1.38,0.306,1.942,0.397L625.289,248.148z M624.58,244.082
				c0-1.25-0.69-2.538-2.1-2.538c-1.449,0-2.159,1.26-2.149,2.611c-0.01,1.325,0.769,2.521,2.109,2.521
				C623.811,246.675,624.58,245.508,624.58,244.082z"/>
			<path fill="#475656" d="M626.597,240.988h0.857v5.566h2.839v0.676h-3.696V240.988z"/>
		</g>
	</g>
	<g display="inline">
		<g enable-background="new    ">
			<path fill="#475656" d="M606.822,286.576c-0.384,0.129-1.145,0.343-2.04,0.343c-1.006,0-1.834-0.241-2.484-0.824
				c-0.571-0.519-0.927-1.353-0.927-2.325c0.01-1.86,1.37-3.223,3.599-3.223c0.77,0,1.37,0.158,1.655,0.287l-0.207,0.657
				c-0.354-0.147-0.798-0.269-1.469-0.269c-1.616,0-2.671,0.945-2.671,2.51c0,1.583,1.016,2.52,2.563,2.52
				c0.563,0,0.946-0.074,1.145-0.167v-1.862h-1.352v-0.648h2.188V286.576z"/>
			<path fill="#475656" d="M608.131,280.695c0.435-0.083,1.055-0.13,1.646-0.13c0.916,0,1.508,0.158,1.922,0.511
				c0.335,0.277,0.521,0.703,0.521,1.186c0,0.824-0.552,1.371-1.252,1.593v0.028c0.514,0.167,0.818,0.611,0.977,1.26
				c0.217,0.871,0.375,1.474,0.513,1.713h-0.887c-0.108-0.176-0.258-0.713-0.443-1.49c-0.197-0.861-0.553-1.187-1.331-1.214h-0.809
				v2.705h-0.857V280.695L608.131,280.695z M608.988,283.538h0.878c0.916,0,1.498-0.473,1.498-1.187
				c0-0.806-0.621-1.158-1.528-1.167c-0.414,0-0.709,0.037-0.848,0.074V283.538L608.988,283.538z"/>
			<path fill="#475656" d="M614.555,284.89l-0.688,1.963h-0.889l2.259-6.243h1.034l2.268,6.243h-0.916l-0.71-1.963H614.555z
				 M616.733,284.26l-0.65-1.797c-0.148-0.408-0.246-0.778-0.345-1.139h-0.021c-0.099,0.369-0.207,0.75-0.335,1.13l-0.649,1.806
				H616.733z"/>
			<path fill="#475656" d="M619.51,280.685c0.414-0.064,0.956-0.121,1.646-0.121c0.848,0,1.469,0.187,1.862,0.52
				c0.364,0.296,0.581,0.75,0.581,1.306c0,0.565-0.178,1.01-0.513,1.334c-0.453,0.454-1.192,0.686-2.03,0.686
				c-0.257,0-0.492-0.01-0.689-0.057v2.501h-0.857V280.685L619.51,280.685z M620.367,283.696c0.188,0.047,0.424,0.064,0.71,0.064
				c1.035,0,1.666-0.472,1.666-1.333c0-0.824-0.621-1.223-1.567-1.223c-0.375,0-0.66,0.027-0.809,0.064V283.696z"/>
			<path fill="#475656" d="M625.609,280.611v2.612h3.214v-2.612h0.867v6.243h-0.867v-2.927h-3.214v2.927h-0.857v-6.243H625.609z"/>
			<path fill="#475656" d="M632.033,280.611v6.243h-0.857v-6.243H632.033z"/>
			<path fill="#475656" d="M633.412,285.872c0.385,0.223,0.946,0.407,1.538,0.407c0.877,0,1.39-0.436,1.39-1.064
				c0-0.583-0.354-0.917-1.252-1.241c-1.084-0.361-1.755-0.889-1.755-1.769c0-0.974,0.857-1.695,2.149-1.695
				c0.68,0,1.173,0.148,1.469,0.306l-0.237,0.658c-0.217-0.111-0.66-0.296-1.262-0.296c-0.906,0-1.251,0.509-1.251,0.936
				c0,0.583,0.402,0.871,1.32,1.204c1.123,0.408,1.694,0.917,1.694,1.834c0,0.964-0.759,1.798-2.326,1.798
				c-0.641,0-1.341-0.177-1.694-0.398L633.412,285.872z"/>
			<path fill="#475656" d="M643.986,284.112c-0.049-0.87-0.108-1.917-0.1-2.694h-0.028c-0.228,0.731-0.503,1.51-0.839,2.371
				l-1.173,3.028h-0.649l-1.074-2.973c-0.315-0.88-0.582-1.686-0.77-2.427h-0.021c-0.021,0.777-0.069,1.825-0.128,2.76l-0.178,2.677
				h-0.818l0.464-6.243h1.094l1.135,3.021c0.275,0.769,0.503,1.454,0.67,2.103h0.029c0.167-0.63,0.404-1.314,0.699-2.103
				l1.185-3.021h1.094l0.414,6.243h-0.838L643.986,284.112z"/>
			<path fill="#475656" d="M649.75,283.927h-2.583v2.25h2.879v0.676h-3.736v-6.243h3.589v0.677h-2.73v1.973h2.583L649.75,283.927
				L649.75,283.927z"/>
		</g>
	</g>
	<g display="inline">
		<g enable-background="new    ">
			<path fill="#475656" d="M601.766,316.746c0.414-0.063,0.956-0.119,1.646-0.119c0.848,0,1.469,0.186,1.863,0.519
				c0.363,0.297,0.58,0.75,0.58,1.307c0,0.564-0.178,1.01-0.513,1.333c-0.453,0.454-1.191,0.687-2.03,0.687
				c-0.257,0-0.492-0.009-0.689-0.056v2.501h-0.857V316.746L601.766,316.746z M602.623,319.758c0.188,0.046,0.424,0.063,0.71,0.063
				c1.035,0,1.666-0.472,1.666-1.334c0-0.824-0.621-1.222-1.567-1.222c-0.375,0-0.659,0.027-0.809,0.063V319.758z"/>
			<path fill="#475656" d="M607.864,316.674v2.61h3.214v-2.61h0.867v6.242h-0.867v-2.928h-3.214v2.928h-0.857v-6.242H607.864z"/>
			<path fill="#475656" d="M619.108,319.73c0,2.149-1.391,3.288-3.085,3.288c-1.756,0-2.987-1.278-2.987-3.167
				c0-1.982,1.312-3.279,3.086-3.279C617.936,316.572,619.108,317.877,619.108,319.73z M613.953,319.831
				c0,1.333,0.769,2.528,2.119,2.528c1.359,0,2.129-1.177,2.129-2.594c0-1.241-0.689-2.537-2.119-2.537
				C614.663,317.23,613.953,318.461,613.953,319.831z"/>
			<path fill="#475656" d="M621.235,317.359h-2.021v-0.685h4.919v0.685h-2.031v5.559h-0.866V317.359z"/>
			<path fill="#475656" d="M630.282,319.73c0,2.149-1.391,3.288-3.085,3.288c-1.755,0-2.987-1.278-2.987-3.167
				c0-1.982,1.312-3.279,3.086-3.279C629.109,316.572,630.282,317.877,630.282,319.73z M625.127,319.831
				c0,1.333,0.77,2.528,2.119,2.528c1.36,0,2.129-1.177,2.129-2.594c0-1.241-0.689-2.537-2.119-2.537
				C625.837,317.23,625.127,318.461,625.127,319.831z"/>
			<path fill="#475656" d="M631.274,321.935c0.385,0.222,0.945,0.407,1.538,0.407c0.877,0,1.39-0.437,1.39-1.065
				c0-0.583-0.355-0.917-1.252-1.241c-1.084-0.36-1.755-0.889-1.755-1.769c0-0.973,0.856-1.695,2.148-1.695
				c0.681,0,1.173,0.148,1.469,0.307l-0.236,0.657c-0.217-0.11-0.66-0.297-1.262-0.297c-0.906,0-1.253,0.51-1.253,0.937
				c0,0.584,0.404,0.871,1.321,1.204c1.124,0.406,1.695,0.917,1.695,1.834c0,0.963-0.759,1.797-2.326,1.797
				c-0.641,0-1.341-0.176-1.695-0.398L631.274,321.935z"/>
			<path fill="#475656" d="M637.107,316.674v2.61h3.214v-2.61h0.866v6.242h-0.866v-2.928h-3.214v2.928h-0.857v-6.242H637.107z"/>
			<path fill="#475656" d="M648.352,319.73c0,2.149-1.39,3.288-3.085,3.288c-1.755,0-2.986-1.278-2.986-3.167
				c0-1.982,1.312-3.279,3.086-3.279C647.179,316.572,648.352,317.877,648.352,319.73z M643.196,319.831
				c0,1.333,0.769,2.528,2.119,2.528c1.359,0,2.13-1.177,2.13-2.594c0-1.241-0.69-2.537-2.12-2.537
				C643.906,317.23,643.196,318.461,643.196,319.831z"/>
			<path fill="#475656" d="M649.462,316.746c0.414-0.063,0.956-0.119,1.646-0.119c0.848,0,1.469,0.186,1.861,0.519
				c0.365,0.297,0.582,0.75,0.582,1.307c0,0.564-0.178,1.01-0.513,1.333c-0.453,0.454-1.192,0.687-2.03,0.687
				c-0.257,0-0.493-0.009-0.689-0.056v2.501h-0.857V316.746L649.462,316.746z M650.319,319.758c0.188,0.046,0.424,0.063,0.71,0.063
				c1.035,0,1.666-0.472,1.666-1.334c0-0.824-0.621-1.222-1.567-1.222c-0.375,0-0.66,0.027-0.809,0.063V319.758z"/>
		</g>
	</g>
	<g display="inline">
		<g enable-background="new    ">
			<path fill="#475656" d="M602.623,352.737v6.242h-0.857v-6.242H602.623z"/>
			<path fill="#475656" d="M604.12,352.737h0.856v5.566h2.84v0.676h-3.696V352.737z"/>
			<path fill="#475656" d="M608.771,352.737h0.856v5.566h2.839v0.676h-3.695V352.737z"/>
			<path fill="#475656" d="M613.924,352.737v3.695c0,1.397,0.661,1.991,1.548,1.991c0.985,0,1.616-0.611,1.616-1.991v-3.695h0.868
				v3.641c0,1.917-1.075,2.703-2.514,2.703c-1.36,0-2.387-0.73-2.387-2.667v-3.677H613.924L613.924,352.737z"/>
			<path fill="#475656" d="M619.323,357.996c0.385,0.223,0.945,0.407,1.538,0.407c0.877,0,1.39-0.436,1.39-1.064
				c0-0.583-0.354-0.917-1.252-1.241c-1.084-0.361-1.755-0.889-1.755-1.77c0-0.973,0.856-1.694,2.148-1.694
				c0.681,0,1.174,0.147,1.47,0.306l-0.237,0.658c-0.217-0.111-0.66-0.297-1.262-0.297c-0.906,0-1.252,0.51-1.252,0.936
				c0,0.584,0.403,0.871,1.32,1.204c1.124,0.407,1.695,0.917,1.695,1.834c0,0.963-0.759,1.797-2.326,1.797
				c-0.641,0-1.341-0.176-1.695-0.397L619.323,357.996z"/>
			<path fill="#475656" d="M625.56,353.421h-2.021v-0.686h4.919v0.686h-2.031v5.558h-0.867V353.421z"/>
			<path fill="#475656" d="M629.195,352.82c0.434-0.083,1.055-0.13,1.646-0.13c0.916,0,1.508,0.157,1.922,0.51
				c0.335,0.277,0.522,0.704,0.522,1.187c0,0.824-0.552,1.37-1.252,1.593v0.028c0.513,0.166,0.817,0.609,0.976,1.259
				c0.217,0.871,0.375,1.473,0.513,1.714h-0.887c-0.107-0.176-0.257-0.713-0.442-1.491c-0.197-0.86-0.554-1.186-1.331-1.213h-0.81
				v2.704h-0.856V352.82L629.195,352.82z M630.053,355.662h0.878c0.916,0,1.498-0.473,1.498-1.186c0-0.807-0.621-1.158-1.527-1.167
				c-0.414,0-0.709,0.037-0.849,0.073V355.662L630.053,355.662z"/>
			<path fill="#475656" d="M635.619,357.015l-0.689,1.964h-0.888l2.258-6.242h1.035l2.267,6.242h-0.916l-0.71-1.964H635.619z
				 M637.798,356.385l-0.649-1.797c-0.148-0.407-0.246-0.777-0.346-1.14h-0.021c-0.1,0.37-0.207,0.75-0.335,1.13l-0.65,1.807
				H637.798z"/>
			<path fill="#475656" d="M641.078,353.421h-2.021v-0.686h4.919v0.686h-2.03v5.558h-0.867V353.421z"/>
			<path fill="#475656" d="M650.125,355.791c0,2.149-1.39,3.288-3.085,3.288c-1.755,0-2.987-1.277-2.987-3.167
				c0-1.981,1.313-3.278,3.086-3.278C648.952,352.634,650.125,353.94,650.125,355.791z M644.97,355.895
				c0,1.333,0.77,2.528,2.119,2.528c1.36,0,2.13-1.178,2.13-2.595c0-1.24-0.689-2.536-2.12-2.536
				C645.68,353.291,644.97,354.524,644.97,355.895z"/>
			<path fill="#475656" d="M651.235,352.82c0.434-0.083,1.055-0.13,1.646-0.13c0.917,0,1.508,0.157,1.922,0.51
				c0.335,0.277,0.522,0.704,0.522,1.187c0,0.824-0.552,1.37-1.252,1.593v0.028c0.513,0.166,0.817,0.609,0.976,1.259
				c0.217,0.871,0.375,1.473,0.513,1.714h-0.887c-0.107-0.176-0.257-0.713-0.442-1.491c-0.197-0.86-0.554-1.186-1.331-1.213h-0.81
				v2.704h-0.856V352.82L651.235,352.82z M652.093,355.662h0.878c0.916,0,1.498-0.473,1.498-1.186c0-0.807-0.621-1.158-1.527-1.167
				c-0.414,0-0.709,0.037-0.849,0.073V355.662L652.093,355.662z"/>
		</g>
	</g>
	<g display="inline">
		<g enable-background="new    ">
			<path fill="#475656" d="M602.623,388.801v6.242h-0.857v-6.242H602.623z"/>
			<path fill="#475656" d="M604.12,395.043v-6.242h0.937l2.129,3.158c0.493,0.73,0.879,1.389,1.193,2.027l0.021-0.01
				c-0.079-0.833-0.1-1.593-0.1-2.565v-2.61h0.81v6.242h-0.868l-2.109-3.168c-0.463-0.694-0.905-1.407-1.242-2.085l-0.028,0.011
				c0.05,0.787,0.068,1.537,0.068,2.574v2.668H604.12z"/>
			<path fill="#475656" d="M610.604,388.884c0.522-0.074,1.145-0.13,1.823-0.13c1.232,0,2.11,0.269,2.691,0.777
				c0.592,0.51,0.937,1.231,0.937,2.241c0,1.02-0.335,1.854-0.956,2.427c-0.62,0.583-1.646,0.898-2.938,0.898
				c-0.611,0-1.124-0.028-1.558-0.074V388.884L610.604,388.884z M611.461,394.405c0.217,0.037,0.532,0.046,0.868,0.046
				c1.833,0,2.828-0.963,2.828-2.648c0.011-1.474-0.877-2.407-2.69-2.407c-0.442,0-0.779,0.036-1.006,0.083V394.405z"/>
			<path fill="#475656" d="M620.605,392.115h-2.584v2.251h2.88v0.677h-3.736v-6.242h3.588v0.676h-2.729v1.973h2.583L620.605,392.115
				L620.605,392.115z"/>
			<path fill="#475656" d="M621.895,394.062c0.386,0.222,0.946,0.407,1.538,0.407c0.878,0,1.391-0.437,1.391-1.065
				c0-0.583-0.355-0.917-1.252-1.241c-1.084-0.36-1.755-0.889-1.755-1.769c0-0.973,0.856-1.695,2.148-1.695
				c0.68,0,1.173,0.148,1.469,0.307l-0.236,0.657c-0.217-0.11-0.66-0.297-1.263-0.297c-0.905,0-1.251,0.511-1.251,0.937
				c0,0.584,0.403,0.871,1.32,1.204c1.124,0.406,1.695,0.917,1.695,1.834c0,0.963-0.759,1.797-2.326,1.797
				c-0.641,0-1.341-0.176-1.695-0.398L621.895,394.062z"/>
			<path fill="#475656" d="M627.729,388.801v6.242h-0.857v-6.242H627.729z"/>
			<path fill="#475656" d="M634.281,394.765c-0.384,0.13-1.145,0.343-2.04,0.343c-1.006,0-1.834-0.24-2.484-0.824
				c-0.571-0.519-0.927-1.352-0.927-2.323c0.01-1.862,1.37-3.225,3.599-3.225c0.77,0,1.37,0.157,1.655,0.287l-0.207,0.658
				c-0.354-0.148-0.798-0.27-1.469-0.27c-1.616,0-2.671,0.944-2.671,2.511c0,1.584,1.016,2.52,2.563,2.52
				c0.563,0,0.946-0.074,1.145-0.167v-1.862h-1.352v-0.646h2.188V394.765z"/>
			<path fill="#475656" d="M635.59,395.043v-6.242h0.938l2.129,3.158c0.493,0.73,0.878,1.389,1.192,2.027l0.021-0.01
				c-0.079-0.833-0.099-1.593-0.099-2.565v-2.61h0.809v6.242h-0.868l-2.108-3.168c-0.464-0.694-0.906-1.407-1.242-2.085
				l-0.029,0.011c0.05,0.787,0.069,1.537,0.069,2.574v2.668H635.59z"/>
			<path fill="#475656" d="M645.513,392.115h-2.583v2.251h2.879v0.677h-3.735v-6.242h3.588v0.676h-2.73v1.973h2.583L645.513,392.115
				L645.513,392.115z"/>
		</g>
	</g>
	<g display="inline">
		<g enable-background="new    ">
			<path fill="#475656" d="M601.766,424.934c0.414-0.064,0.956-0.12,1.646-0.12c0.848,0,1.469,0.187,1.863,0.519
				c0.363,0.298,0.58,0.75,0.58,1.308c0,0.563-0.178,1.009-0.513,1.333c-0.453,0.454-1.191,0.686-2.03,0.686
				c-0.257,0-0.492-0.009-0.689-0.056v2.501h-0.857V424.934L601.766,424.934z M602.623,427.945c0.188,0.046,0.424,0.064,0.71,0.064
				c1.035,0,1.666-0.473,1.666-1.334c0-0.824-0.621-1.223-1.567-1.223c-0.375,0-0.659,0.027-0.809,0.064V427.945z"/>
			<path fill="#475656" d="M607.007,424.944c0.435-0.083,1.056-0.13,1.646-0.13c0.917,0,1.508,0.157,1.922,0.51
				c0.335,0.277,0.521,0.704,0.521,1.187c0,0.824-0.552,1.37-1.252,1.593v0.028c0.514,0.166,0.818,0.609,0.977,1.259
				c0.217,0.871,0.375,1.473,0.513,1.714h-0.887c-0.108-0.176-0.258-0.713-0.443-1.491c-0.197-0.86-0.553-1.186-1.331-1.213h-0.809
				v2.704h-0.857V424.944L607.007,424.944z M607.864,427.786h0.878c0.916,0,1.498-0.473,1.498-1.186
				c0-0.807-0.621-1.158-1.528-1.167c-0.414,0-0.709,0.036-0.848,0.073V427.786L607.864,427.786z"/>
			<path fill="#475656" d="M615.748,428.176h-2.583v2.251h2.879v0.676h-3.736v-6.242h3.589v0.676h-2.73v1.974h2.583L615.748,428.176
				L615.748,428.176z"/>
			<path fill="#475656" d="M622.754,428.362c-0.049-0.871-0.107-1.918-0.099-2.695h-0.029c-0.227,0.731-0.503,1.511-0.838,2.371
				l-1.173,3.028h-0.65l-1.074-2.973c-0.314-0.88-0.582-1.688-0.77-2.427h-0.021c-0.02,0.776-0.068,1.823-0.128,2.76l-0.178,2.677
				h-0.818l0.465-6.242h1.094l1.134,3.02c0.276,0.77,0.503,1.454,0.67,2.103h0.03c0.167-0.63,0.404-1.313,0.699-2.103l1.184-3.02
				h1.094l0.414,6.242h-0.838L622.754,428.362z"/>
			<path fill="#475656" d="M625.935,424.861v6.242h-0.856v-6.242H625.935z"/>
			<path fill="#475656" d="M630.872,428.176h-2.583v2.251h2.879v0.676h-3.736v-6.242h3.588v0.676h-2.729v1.974h2.583
				L630.872,428.176L630.872,428.176z"/>
			<path fill="#475656" d="M632.279,424.944c0.434-0.083,1.055-0.13,1.646-0.13c0.916,0,1.508,0.157,1.922,0.51
				c0.335,0.277,0.522,0.704,0.522,1.187c0,0.824-0.552,1.37-1.252,1.593v0.028c0.513,0.166,0.817,0.609,0.976,1.259
				c0.217,0.871,0.375,1.473,0.513,1.714h-0.887c-0.107-0.176-0.257-0.713-0.442-1.491c-0.197-0.86-0.554-1.186-1.331-1.213h-0.81
				v2.704h-0.856V424.944L632.279,424.944z M633.137,427.786h0.878c0.916,0,1.498-0.473,1.498-1.186
				c0-0.807-0.621-1.158-1.527-1.167c-0.414,0-0.709,0.036-0.849,0.073V427.786L633.137,427.786z"/>
			<path fill="#475656" d="M639.668,424.934c0.414-0.064,0.956-0.12,1.646-0.12c0.848,0,1.469,0.187,1.862,0.519
				c0.364,0.298,0.581,0.75,0.581,1.308c0,0.563-0.178,1.009-0.513,1.333c-0.453,0.454-1.192,0.686-2.03,0.686
				c-0.257,0-0.493-0.009-0.689-0.056v2.501h-0.857V424.934L639.668,424.934z M640.525,427.945c0.188,0.046,0.424,0.064,0.71,0.064
				c1.034,0,1.666-0.473,1.666-1.334c0-0.824-0.621-1.223-1.567-1.223c-0.375,0-0.66,0.027-0.809,0.064V427.945z"/>
			<path fill="#475656" d="M644.91,424.944c0.434-0.083,1.055-0.13,1.646-0.13c0.916,0,1.509,0.157,1.922,0.51
				c0.335,0.277,0.522,0.704,0.522,1.187c0,0.824-0.552,1.37-1.252,1.593v0.028c0.513,0.166,0.818,0.609,0.976,1.259
				c0.218,0.871,0.375,1.473,0.514,1.714h-0.888c-0.107-0.176-0.257-0.713-0.442-1.491c-0.197-0.86-0.554-1.186-1.331-1.213h-0.81
				v2.704h-0.856V424.944L644.91,424.944z M645.768,427.786h0.879c0.916,0,1.497-0.473,1.497-1.186c0-0.807-0.62-1.158-1.527-1.167
				c-0.414,0-0.709,0.036-0.849,0.073V427.786L645.768,427.786z"/>
			<path fill="#475656" d="M655.918,427.915c0,2.149-1.39,3.288-3.085,3.288c-1.755,0-2.987-1.277-2.987-3.167
				c0-1.981,1.313-3.278,3.086-3.278C654.745,424.758,655.918,426.065,655.918,427.915z M650.763,428.019
				c0,1.333,0.77,2.528,2.119,2.528c1.36,0,2.13-1.178,2.13-2.595c0-1.24-0.689-2.536-2.12-2.536
				C651.473,425.415,650.763,426.648,650.763,428.019z"/>
		</g>
	</g>
	<g display="inline">
		<g enable-background="new    ">
			<path fill="#475656" d="M602.84,465.203l-0.688,1.965h-0.889l2.259-6.242h1.034l2.268,6.242h-0.916l-0.71-1.965H602.84z
				 M605.019,464.573l-0.649-1.797c-0.148-0.407-0.246-0.776-0.345-1.139h-0.021c-0.099,0.37-0.207,0.75-0.335,1.13l-0.65,1.806
				H605.019z"/>
			<path fill="#475656" d="M607.796,460.926h3.578v0.676h-2.721v2.074h2.514v0.667h-2.514v2.825h-0.857V460.926z"/>
			<path fill="#475656" d="M613.855,461.611h-2.021v-0.685h4.919v0.685h-2.031v5.559h-0.866V461.611z"/>
			<path fill="#475656" d="M620.931,464.24h-2.583v2.251h2.879v0.677h-3.735v-6.242h3.588v0.676h-2.73v1.973h2.583L620.931,464.24
				L620.931,464.24z"/>
			<path fill="#475656" d="M622.338,461.009c0.435-0.083,1.055-0.13,1.646-0.13c0.916,0,1.508,0.156,1.922,0.51
				c0.335,0.277,0.521,0.704,0.521,1.186c0,0.824-0.552,1.37-1.252,1.594v0.027c0.514,0.166,0.818,0.61,0.977,1.259
				c0.217,0.871,0.375,1.474,0.513,1.715h-0.887c-0.108-0.177-0.258-0.714-0.443-1.491c-0.197-0.861-0.553-1.187-1.331-1.213h-0.809
				v2.704h-0.857V461.009L622.338,461.009z M623.195,463.853h0.878c0.916,0,1.498-0.473,1.498-1.187
				c0-0.807-0.621-1.157-1.528-1.166c-0.414,0-0.709,0.036-0.848,0.072V463.853L623.195,463.853z"/>
			<path fill="#475656" d="M633.168,464.24h-2.583v2.251h2.879v0.677h-3.735v-6.242h3.588v0.676h-2.73v1.973h2.583L633.168,464.24
				L633.168,464.24z"/>
			<path fill="#475656" d="M634.574,460.926h3.578v0.676h-2.722v2.074h2.515v0.667h-2.515v2.825h-0.856V460.926z"/>
			<path fill="#475656" d="M639.373,460.926h3.578v0.676h-2.721v2.074h2.514v0.667h-2.514v2.825h-0.857V460.926z"/>
			<path fill="#475656" d="M647.611,464.24h-2.583v2.251h2.879v0.677h-3.736v-6.242h3.588v0.676h-2.729v1.973h2.583L647.611,464.24
				L647.611,464.24z"/>
			<path fill="#475656" d="M653.661,466.964c-0.315,0.147-0.946,0.297-1.754,0.297c-1.873,0-3.283-1.111-3.283-3.158
				c0-1.955,1.41-3.279,3.47-3.279c0.828,0,1.352,0.167,1.577,0.278l-0.207,0.657c-0.325-0.148-0.788-0.259-1.34-0.259
				c-1.558,0-2.593,0.935-2.593,2.573c0,1.528,0.937,2.511,2.553,2.511c0.521,0,1.055-0.103,1.4-0.26L653.661,466.964z"/>
			<path fill="#475656" d="M656.271,461.611h-2.021v-0.685h4.919v0.685h-2.031v5.559h-0.866V461.611z"/>
		</g>
	</g>
	<g display="inline">
		<g enable-background="new    ">
			<path fill="#475656" d="M601.766,496.989h3.578v0.676h-2.721v2.074h2.514v0.667h-2.514v2.825h-0.857V496.989z"/>
			<path fill="#475656" d="M606.563,496.989h0.857v5.566h2.839v0.676h-3.696V496.989z"/>
			<path fill="#475656" d="M612.288,501.267l-0.689,1.964h-0.888l2.258-6.242h1.035l2.268,6.242h-0.918l-0.709-1.964H612.288z
				 M614.467,500.637l-0.649-1.797c-0.148-0.407-0.246-0.777-0.346-1.14h-0.021c-0.1,0.37-0.207,0.75-0.335,1.13l-0.65,1.807
				H614.467z"/>
			<path fill="#475656" d="M617.126,502.248c0.385,0.223,0.946,0.407,1.538,0.407c0.877,0,1.39-0.436,1.39-1.064
				c0-0.583-0.354-0.917-1.252-1.241c-1.084-0.361-1.755-0.889-1.755-1.77c0-0.973,0.857-1.694,2.149-1.694
				c0.68,0,1.173,0.147,1.469,0.306l-0.237,0.658c-0.217-0.111-0.66-0.297-1.262-0.297c-0.906,0-1.252,0.51-1.252,0.936
				c0,0.584,0.404,0.871,1.321,1.204c1.124,0.407,1.694,0.917,1.694,1.834c0,0.963-0.759,1.797-2.326,1.797
				c-0.641,0-1.341-0.176-1.694-0.397L617.126,502.248z"/>
			<path fill="#475656" d="M622.959,496.989v2.611h3.214v-2.611h0.867v6.242h-0.867v-2.927h-3.214v2.927h-0.857v-6.242H622.959z"/>
			<path fill="#475656" d="M630.614,497.072c0.375-0.074,0.966-0.13,1.566-0.13c0.857,0,1.409,0.139,1.823,0.454
				c0.346,0.24,0.553,0.611,0.553,1.102c0,0.604-0.424,1.132-1.124,1.371v0.02c0.632,0.147,1.37,0.64,1.37,1.564
				c0,0.537-0.227,0.944-0.562,1.25c-0.464,0.398-1.213,0.584-2.297,0.584c-0.593,0-1.045-0.036-1.331-0.073L630.614,497.072
				L630.614,497.072z M631.472,499.628h0.779c0.906,0,1.438-0.445,1.438-1.048c0-0.73-0.592-1.019-1.459-1.019
				c-0.395,0-0.62,0.027-0.76,0.055L631.472,499.628L631.472,499.628z M631.472,502.618c0.168,0.027,0.414,0.037,0.721,0.037
				c0.888,0,1.704-0.306,1.704-1.213c0-0.853-0.777-1.204-1.715-1.204h-0.71V502.618L631.472,502.618z"/>
			<path fill="#475656" d="M636.813,496.989v3.695c0,1.398,0.66,1.991,1.548,1.991c0.984,0,1.615-0.611,1.615-1.991v-3.695h0.868
				v3.641c0,1.917-1.075,2.704-2.514,2.704c-1.36,0-2.386-0.731-2.386-2.667v-3.678H636.813L636.813,496.989z"/>
			<path fill="#475656" d="M643.186,496.989v6.242h-0.856v-6.242H643.186z"/>
			<path fill="#475656" d="M644.684,496.989h0.857v5.566h2.839v0.676h-3.696V496.989z"/>
			<path fill="#475656" d="M649.334,497.072c0.521-0.074,1.144-0.13,1.823-0.13c1.231,0,2.109,0.27,2.69,0.778
				c0.592,0.509,0.938,1.23,0.938,2.241c0,1.019-0.335,1.853-0.956,2.427c-0.621,0.583-1.646,0.897-2.938,0.897
				c-0.61,0-1.124-0.027-1.558-0.073L649.334,497.072L649.334,497.072z M650.191,502.592c0.217,0.037,0.531,0.046,0.867,0.046
				c1.833,0,2.828-0.963,2.828-2.649c0.012-1.473-0.877-2.407-2.689-2.407c-0.443,0-0.779,0.036-1.006,0.083V502.592z"/>
			<path fill="#475656" d="M659.336,500.304h-2.583v2.251h2.879v0.676h-3.735v-6.242h3.588v0.676h-2.73v1.974h2.583L659.336,500.304
				L659.336,500.304z"/>
			<path fill="#475656" d="M660.743,497.072c0.434-0.083,1.055-0.13,1.646-0.13c0.917,0,1.508,0.157,1.922,0.51
				c0.336,0.277,0.522,0.704,0.522,1.187c0,0.824-0.552,1.37-1.252,1.593v0.028c0.513,0.166,0.817,0.609,0.976,1.259
				c0.217,0.871,0.375,1.473,0.514,1.714h-0.888c-0.107-0.176-0.257-0.713-0.442-1.491c-0.197-0.86-0.554-1.186-1.331-1.213h-0.81
				v2.704h-0.856V497.072L660.743,497.072z M661.601,499.914h0.878c0.916,0,1.498-0.473,1.498-1.186c0-0.807-0.62-1.158-1.527-1.167
				c-0.414,0-0.709,0.037-0.849,0.073V499.914L661.601,499.914z"/>
		</g>
	</g>
	
		<text transform="matrix(1 0 0 1 400.5898 425.3284)" display="inline" fill="#3A3A3A" font-family="'MyriadPro-Regular'" font-size="20.1444">Nom</text>
	<g display="inline">
		<text transform="matrix(1 0 0 1 400.5898 469.8274)" fill="#3A3A3A" font-family="'MyriadPro-Regular'" font-size="20.1444">Prenom</text>
	</g>
</g>
<g id="Photos" display="none">
	<g id="Marc" display="inline">
		<defs>
			<rect id="SVGID_5_" x="277.28" y="371.809" width="99.024" height="99.78"/>
		</defs>
		<clipPath id="SVGID_6_">
			<use xlink:href="#SVGID_5_"  overflow="visible"/>
		</clipPath>
		<g transform="matrix(1 0 0 1 0 3.051758e-005)" clip-path="url(#SVGID_6_)">
			
				<image overflow="visible" width="2048" height="1536" xlink:href="../../../wamp/www/GitHub/livre-postnum/trombinoscope/GuillaumeBriand/img/CAM00042.jpg"  transform="matrix(0.1203 0 0 0.1203 206.9551 341.9377)">
			</image>
		</g>
	</g>
	<g id="Louis" display="inline">
		<defs>
			<rect id="SVGID_7_" x="389.034" y="257.545" width="99.777" height="99.779"/>
		</defs>
		<clipPath id="SVGID_8_">
			<use xlink:href="#SVGID_7_"  overflow="visible"/>
		</clipPath>
		<g transform="matrix(1 0 0 1 0 -1.525879e-005)" clip-path="url(#SVGID_8_)">
			
				<image overflow="visible" width="2048" height="1536" xlink:href="../../../wamp/www/GitHub/livre-postnum/trombinoscope/GuillaumeBriand/img/CAM00040.jpg"  transform="matrix(0.1311 0 0 0.1311 314.2627 217.5647)">
			</image>
		</g>
	</g>
	<g id="Guillaume" display="inline">
		<defs>
			<rect id="SVGID_9_" x="276.933" y="257.708" width="99.025" height="99.778"/>
		</defs>
		<clipPath id="SVGID_10_">
			<use xlink:href="#SVGID_9_"  overflow="visible"/>
		</clipPath>
		<g clip-path="url(#SVGID_10_)">
			
				<image overflow="visible" width="2048" height="1536" xlink:href="../../../wamp/www/GitHub/livre-postnum/trombinoscope/GuillaumeBriand/img/CAM00039.jpg"  transform="matrix(0.1463 0 0 0.1463 184.417 197.6995)">
			</image>
		</g>
	</g>
	<g id="Helene" display="inline">
		<defs>
			<rect id="SVGID_11_" x="164.304" y="257.708" width="99.777" height="99.778"/>
		</defs>
		<clipPath id="SVGID_12_">
			<use xlink:href="#SVGID_11_"  overflow="visible"/>
		</clipPath>
		<g clip-path="url(#SVGID_12_)">
			
				<image overflow="visible" width="2048" height="1536" xlink:href="../../../wamp/www/GitHub/livre-postnum/trombinoscope/GuillaumeBriand/img/CAM00038.jpg"  transform="matrix(0.1502 0 0 0.1502 40.4185 192.5081)">
			</image>
		</g>
	</g>
	<g id="Alexia" display="inline">
		<defs>
			<rect id="SVGID_13_" x="51.675" y="257.708" width="99.778" height="99.778"/>
		</defs>
		<clipPath id="SVGID_14_">
			<use xlink:href="#SVGID_13_"  overflow="visible"/>
		</clipPath>
		<g clip-path="url(#SVGID_14_)">
			
				<image overflow="visible" width="2048" height="1536" xlink:href="../../../wamp/www/GitHub/livre-postnum/trombinoscope/GuillaumeBriand/img/CAM00037.jpg"  transform="matrix(0.1591 0 0 0.1591 -82.3799 193.9011)">
			</image>
		</g>
	</g>
	<g id="Hugo" display="inline">
		<defs>
			<rect id="SVGID_15_" x="51.109" y="31.457" width="99.779" height="99.778"/>
		</defs>
		<clipPath id="SVGID_16_">
			<use xlink:href="#SVGID_15_"  overflow="visible"/>
		</clipPath>
		<g clip-path="url(#SVGID_16_)">
			
				<image overflow="visible" width="2048" height="1536" xlink:href="../../../wamp/www/GitHub/livre-postnum/trombinoscope/GuillaumeBriand/img/CAM00027.jpg"  transform="matrix(0.1098 0 0 0.1098 2.0093 13.5793)">
			</image>
		</g>
	</g>
	<g id="Antoine" display="inline">
		<defs>
			<rect id="SVGID_17_" x="163.738" y="31.457" width="99.78" height="99.778"/>
		</defs>
		<clipPath id="SVGID_18_">
			<use xlink:href="#SVGID_17_"  overflow="visible"/>
		</clipPath>
		<g transform="matrix(1 0 0 1 -7.629395e-006 -5.960464e-008)" clip-path="url(#SVGID_18_)">
			
				<image overflow="visible" width="2048" height="1536" xlink:href="../../../wamp/www/GitHub/livre-postnum/trombinoscope/GuillaumeBriand/img/CAM00028.jpg"  transform="matrix(0.1246 0 0 0.1246 94.0088 0.5618)">
			</image>
		</g>
	</g>
	<g id="Gabi" display="inline">
		<defs>
			<rect id="SVGID_19_" x="277.121" y="31.457" width="99.023" height="99.778"/>
		</defs>
		<clipPath id="SVGID_20_">
			<use xlink:href="#SVGID_19_"  overflow="visible"/>
		</clipPath>
		<g transform="matrix(1 0 0 1 0 -2.384186e-007)" clip-path="url(#SVGID_20_)">
			
				<image overflow="visible" width="2048" height="1536" xlink:href="../../../wamp/www/GitHub/livre-postnum/trombinoscope/GuillaumeBriand/img/CAM00029.jpg"  transform="matrix(0.1026 0 0 0.1026 224.2427 3.9797)">
			</image>
		</g>
	</g>
	<g id="Macaire" display="inline">
		<defs>
			<rect id="SVGID_21_" x="388.997" y="32.401" width="99.778" height="99.778"/>
		</defs>
		<clipPath id="SVGID_22_">
			<use xlink:href="#SVGID_21_"  overflow="visible"/>
		</clipPath>
		<g clip-path="url(#SVGID_22_)">
			
				<image overflow="visible" width="2048" height="1536" xlink:href="../../../wamp/www/GitHub/livre-postnum/trombinoscope/GuillaumeBriand/img/CAM00030.jpg"  transform="matrix(0.118 0 0 0.118 320.5859 -5.9998)">
			</image>
		</g>
	</g>
	<g id="Alex" display="inline">
		<defs>
			<rect id="SVGID_23_" x="51.513" y="371.388" width="99.775" height="99.78"/>
		</defs>
		<clipPath id="SVGID_24_">
			<use xlink:href="#SVGID_23_"  overflow="visible"/>
		</clipPath>
		<g clip-path="url(#SVGID_24_)">
			
				<image overflow="visible" width="2048" height="1536" xlink:href="../../../wamp/www/GitHub/livre-postnum/trombinoscope/GuillaumeBriand/img/CAM00031.jpg"  transform="matrix(0.1228 0 0 0.1228 -26.0938 333.0295)">
			</image>
		</g>
	</g>
	<g id="Clem" display="inline">
		<defs>
			<rect id="SVGID_25_" x="51.109" y="144.842" width="99.779" height="99.777"/>
		</defs>
		<clipPath id="SVGID_26_">
			<use xlink:href="#SVGID_25_"  overflow="visible"/>
		</clipPath>
		<g transform="matrix(1 0 0 1 -3.814697e-006 7.629395e-006)" clip-path="url(#SVGID_26_)">
			
				<image overflow="visible" width="2048" height="1536" xlink:href="../../../wamp/www/GitHub/livre-postnum/trombinoscope/GuillaumeBriand/img/CAM00032.jpg"  transform="matrix(0.1463 0 0 0.1463 -51.2705 86.0071)">
			</image>
		</g>
	</g>
	<g id="Yo" display="inline">
		<defs>
			<rect id="SVGID_27_" x="163.738" y="144.842" width="99.78" height="99.777"/>
		</defs>
		<clipPath id="SVGID_28_">
			<use xlink:href="#SVGID_27_"  overflow="visible"/>
		</clipPath>
		<g clip-path="url(#SVGID_28_)">
			
				<image overflow="visible" width="2048" height="1536" xlink:href="../../../wamp/www/GitHub/livre-postnum/trombinoscope/GuillaumeBriand/img/CAM00033.jpg"  transform="matrix(0.1445 0 0 0.1445 67.0313 79.8547)">
			</image>
		</g>
	</g>
	<g id="Amin" display="inline">
		<defs>
			<rect id="SVGID_29_" x="277.121" y="144.842" width="99.023" height="99.777"/>
		</defs>
		<clipPath id="SVGID_30_">
			<use xlink:href="#SVGID_29_"  overflow="visible"/>
		</clipPath>
		<g transform="matrix(1 0 0 1 -1.525879e-005 0)" clip-path="url(#SVGID_30_)">
			
				<image overflow="visible" width="2048" height="1536" xlink:href="../../../wamp/www/GitHub/livre-postnum/trombinoscope/GuillaumeBriand/img/CAM00034.jpg"  transform="matrix(0.1218 0 0 0.1218 196.4521 111.573)">
			</image>
		</g>
	</g>
	<g id="Quentin" display="inline">
		<defs>
			<rect id="SVGID_31_" x="388.997" y="143.897" width="99.778" height="99.781"/>
		</defs>
		<clipPath id="SVGID_32_">
			<use xlink:href="#SVGID_31_"  overflow="visible"/>
		</clipPath>
		<g transform="matrix(1 0 0 1 3.051758e-005 0)" clip-path="url(#SVGID_32_)">
			
				<image overflow="visible" width="2048" height="1536" xlink:href="../../../wamp/www/GitHub/livre-postnum/trombinoscope/GuillaumeBriand/img/CAM00035.jpg"  transform="matrix(0.1326 0 0 0.1326 292.5635 110.925)">
			</image>
		</g>
	</g>
	<g display="inline">
		<defs>
			<rect id="SVGID_33_" x="165.072" y="371.899" width="99.777" height="99.779"/>
		</defs>
		<clipPath id="SVGID_34_">
			<use xlink:href="#SVGID_33_"  overflow="visible"/>
		</clipPath>
		<g transform="matrix(1 0 0 1 7.629395e-006 0)" clip-path="url(#SVGID_34_)">
			
				<image overflow="visible" width="2048" height="1536" xlink:href="../../../wamp/www/GitHub/livre-postnum/trombinoscope/GuillaumeBriand/img/CAM00036.jpg"  transform="matrix(0.117 0 0 0.117 88.1924 342.1946)">
			</image>
		</g>
	</g>
</g>
</svg>
