<?xml version="1.0" encoding="utf-8"?>
<!-- Generator: Adobe Illustrator 15.0.2, SVG Export Plug-In . SVG Version: 6.00 Build 0)  -->
<!DOCTYPE svg PUBLIC "-//W3C//DTD SVG 1.1//EN" "http://www.w3.org/Graphics/SVG/1.1/DTD/svg11.dtd">
<svg version="1.1" xmlns="http://www.w3.org/2000/svg" xmlns:xlink="http://www.w3.org/1999/xlink" x="0px" y="0px" width="800px"
	 height="600px" viewBox="0 0 800 600" enable-background="new 0 0 800 600" xml:space="preserve"

	 onload="PageChargee()"

	 >

	<script type="text/ecmascript" xlink:href="js/Amin_Louis.js" />
	<script type="text/ecmascript" xlink:href="js/d3.js" />


<g id="Calque_1">
	<line  fill="none" stroke="#808080" stroke-width="11" stroke-miterlimit="10" x1="161" y1="303.5" x2="633" y2="303.5"/>
</g>
<g id="Calque_10">
	<line id="barre" fill="#39B54A" stroke="#39B54A" stroke-width="11" stroke-miterlimit="10" x1="161" y1="303.5" x2="476" y2="303.5"/>
</g>
<g id="Calque_9">
	<text transform="matrix(1 0 0 1 659.3223 309.8193)" fill="#006837" font-family="'MyriadPro-Regular'" font-size="25.9085">20/20</text>
</g>
<g id="Calque_11">
	<text transform="matrix(1 0 0 1 455.7109 295)" fill="#006837" font-family="'MyriadPro-Regular'" font-size="16.1972">13/20</text>
</g>
<g id="Calque_8">
	<text transform="matrix(1 0 0 1 91.3047 309.8193)" fill="#FF0000" font-family="'MyriadPro-Regular'" font-size="25.9085">0/20</text>
</g>
<g id="Calque_2">
	<circle fill="#29ABE2" cx="214.188" cy="227.497" r="51.902"/>
	<text transform="matrix(1 0 0 1 177.5474 222.7109)"><tspan x="0" y="0" fill="#FFFFFF" font-family="'MyriadPro-Regular'" font-size="16.9436">Consignes</tspan><tspan x="-1.237" y="20.333" fill="#FFFFFF" font-family="'MyriadPro-Regular'" font-size="16.9436">respectées</tspan></text>
</g>
<g id="Calque_4">
	<circle fill="#0071BC" cx="335.33" cy="227.497" r="51.902"/>
	<text transform="matrix(1 0 0 1 302.5708 230.7461)" fill="#FFFFFF" font-family="'MyriadPro-Regular'" font-size="16.9436">Pertinent</text>
</g>
<g id="Calque_5">
	<circle fill="#2E3192" cx="576.301" cy="227.497" r="51.902"/>
	<text transform="matrix(1 0 0 1 549.8623 231.7461)" fill="#FFFFFF" font-family="'MyriadPro-Regular'" font-size="16.9436">Original</text>
</g>
<g id="Calque_12">
	<circle fill="#2E3192" cx="455.301" cy="227.496" r="51.902"/>
	<text transform="matrix(1 0 0 1 432.5068 222.7109)"><tspan x="0" y="0" fill="#FFFFFF" font-family="'MyriadPro-Regular'" font-size="16.9436">Travail</tspan><tspan x="-0.466" y="20.333" fill="#FFFFFF" font-family="'MyriadPro-Regular'" font-size="16.9436">soigné</tspan></text>
</g>
<g id="Calque_13">
	<circle fill="#FF0000" cx="455.301" cy="380.108" r="51.902"/>
	<text transform="matrix(1 0 0 1 431.708 376.1074)"><tspan x="0" y="0" fill="#FFFFFF" font-family="'MyriadPro-Regular'" font-size="16.9436">Travail</tspan><tspan x="4.262" y="20.332" fill="#FFFFFF" font-family="'MyriadPro-Regular'" font-size="16.9436">baclé</tspan></text>
</g>
<g id="Calque_3">
	<circle fill="#C1272D" cx="211.188" cy="380.108" r="51.902"/>
	<text transform="matrix(1 0 0 1 174.5474 365.7607)"><tspan x="0" y="0" fill="#FFFFFF" font-family="'MyriadPro-Regular'" font-size="16.9436">Consignes</tspan><tspan x="22.585" y="20.332" fill="#FFFFFF" font-family="'MyriadPro-Regular'" font-size="16.9436">non</tspan><tspan x="-1.237" y="40.665" fill="#FFFFFF" font-family="'MyriadPro-Regular'" font-size="16.9436">respectées</tspan></text>
</g>
<g id="Calque_6">
	<circle fill="#ED1C24" cx="332.76" cy="380.108" r="51.902"/>
	<text transform="matrix(1 0 0 1 292.6646 376.251)"><tspan x="0" y="0" fill="#FFFFFF" font-family="'MyriadPro-Regular'" font-size="16.9436">Manque de</tspan><tspan x="1.787" y="20.332" fill="#FFFFFF" font-family="'MyriadPro-Regular'" font-size="16.9436">pertinence</tspan></text>
</g>
<g id="Calque_7">
	<circle fill="#FF0000" cx="580.301" cy="380.108" r="51.902"/>
	<text transform="matrix(1 0 0 1 551.0234 374.5273)"><tspan x="0" y="0" fill="#FFFFFF" font-family="'MyriadPro-Regular'" font-size="16.9436">Manque</tspan><tspan x="-13.19" y="20.332" fill="#FFFFFF" font-family="'MyriadPro-Regular'" font-size="16.9436">d’originalité</tspan></text>
</g>




</svg>
