<?xml version="1.0" encoding="utf-8"?>
<!-- Generator: Adobe Illustrator 12.0.0, SVG Export Plug-In . SVG Version: 6.00 Build 51448)  -->
<!DOCTYPE svg PUBLIC "-//W3C//DTD SVG 1.1//EN" "http://www.w3.org/Graphics/SVG/1.1/DTD/svg11.dtd" [
	<!ENTITY ns_svg "http://www.w3.org/2000/svg">
	<!ENTITY ns_xlink "http://www.w3.org/1999/xlink">
]>
<svg  version="1.1" xmlns="&ns_svg;" xmlns:xlink="&ns_xlink;" width="800" height="600" viewBox="0 0 800 600"
	 overflow="visible" enable-background="new 0 0 800 600" xml:space="preserve">
<g id="Layer_2_1_">
	<rect x="-15.006" y="-31.906" fill="#FFFFFF" stroke="#000000" width="800" height="600"/>
</g>
<g id="Layer_1">
	<g id="Layer_1_1_" display="none">
		<g display="inline">
			<g>
				<g>
					<g>
						<path fill="#CADB2A" stroke="#000000" stroke-width="0.5" d="M238.1,259.85l-7.061,67.18
							c-37.103-3.899-64.019-37.138-60.119-74.24c3.631-34.543,32.448-60.489,67.18-60.489V259.85z"/>
					</g>
				</g>
				<g>
					<g>
						<path fill="#EC008C" stroke="#000000" stroke-width="0.5" d="M83.7,259.85l-35.272-37.825
							c9.818-9.156,21.848-13.895,35.272-13.895V259.85z"/>
						<path fill="#FFF200" stroke="#000000" stroke-width="0.5" d="M238.1,259.85l66.718,10.567
							c-5.632,35.558-37.975,60.376-73.779,56.612L238.1,259.85z"/>
						<path fill="#F7931D" stroke="#000000" stroke-width="0.5" d="M546.9,259.85l-53.22,30.726
							c-16.969-29.392-6.897-66.975,22.493-83.944c9.787-5.651,19.424-8.233,30.727-8.233V259.85z"/>
						<path fill="#F7931D" stroke="#000000" stroke-width="0.5" d="M701.3,259.85l-24.188-28.827
							c7.067-5.932,14.961-8.804,24.188-8.804V259.85z"/>
					</g>
				</g>
				<g>
					<g>
						<path fill="#5B57A6" stroke="#000000" stroke-width="0.5" d="M83.7,259.85l-49.715,14.255
							c-5.551-19.356-0.285-38.347,14.443-52.081L83.7,259.85z"/>
						<path fill="#F7931D" stroke="#000000" stroke-width="0.5" d="M238.1,259.85l27.475-61.71
							c28.186,12.549,44.07,41.804,39.243,72.277L238.1,259.85z"/>
						<path fill="#ED1C24" stroke="#000000" stroke-width="0.5" d="M392.5,259.85l-26.609-15.363
							c5.651-9.788,15.308-15.363,26.609-15.363V259.85z"/>
						<path fill="#ED1C24" stroke="#000000" stroke-width="0.5" d="M546.9,259.85l15.904,59.357
							c-27.308,7.317-54.987-4.148-69.124-28.632L546.9,259.85z"/>
						<path fill="#ED1C24" stroke="#000000" stroke-width="0.5" d="M701.3,259.85l-32.59,18.815
							c-9.229-15.982-5.736-35.78,8.401-47.643L701.3,259.85z"/>
					</g>
				</g>
				<g>
					<g>
						<path fill="#008FD4" stroke="#000000" stroke-width="0.5" d="M83.7,259.85v-51.72c28.563,0,51.719,23.156,51.719,51.719
							s-23.156,51.719-51.719,51.719c-23.508,0-43.236-14.866-49.715-37.463L83.7,259.85z"/>
						<path fill="#0DB14B" stroke="#000000" stroke-width="0.5" d="M238.1,259.85V192.3c10.259,0,18.103,1.667,27.475,5.84
							L238.1,259.85z"/>
						<path fill="#0DB14B" stroke="#000000" stroke-width="0.5" d="M392.5,259.85v-30.726c16.971,0,30.726,13.756,30.726,30.726
							s-13.755,30.726-30.726,30.726c-16.969,0-30.726-13.756-30.726-30.726c0-5.65,1.291-10.469,4.116-15.363L392.5,259.85z"/>
						<path fill="#0DB14B" stroke="#000000" stroke-width="0.5" d="M546.9,259.85v-61.452c33.938,0,61.45,27.513,61.45,61.452
							c0,28.271-18.237,52.04-45.546,59.357L546.9,259.85z"/>
						<path fill="#0DB14B" stroke="#000000" stroke-width="0.5" d="M701.3,259.85v-37.631c20.783,0,37.631,16.848,37.631,37.631
							c0,20.783-16.848,37.63-37.631,37.63c-13.842,0-25.669-6.828-32.59-18.815L701.3,259.85z"/>
					</g>
				</g>
			</g>
			<g>
				<text transform="matrix(1 0 0 1 631.6113 396.7559)" font-family="'Myriad-Roman'" font-size="20">C</text>
				<text transform="matrix(1 0 0 1 643.1514 396.7559)" font-family="'Myriad-Roman'" font-size="20">la</text>
				<text transform="matrix(1 0 0 1 657.4707 396.7559)" font-family="'Myriad-Roman'" font-size="20">r</text>
				<text transform="matrix(1 0 0 1 664.4902 396.7559)" font-family="'Myriad-Roman'" font-size="20">té du p</text>
				<text transform="matrix(1 0 0 1 723.291 396.7559)" font-family="'Myriad-Roman'" font-size="20">r</text>
				<text transform="matrix(1 0 0 1 729.7109 396.7559)" font-family="'Myriad-Roman'" font-size="20">o</text>
				<text transform="matrix(1 0 0 1 740.6895 396.7559)" font-family="'Myriad-Roman'" font-size="20">p</text>
				<text transform="matrix(1 0 0 1 752.0898 396.7559)" font-family="'Myriad-Roman'" font-size="20">os</text>
				<text transform="matrix(1 0 0 1 493.5713 396.7559)" font-family="'Myriad-Roman'" font-size="20">A</text>
				<text transform="matrix(1 0 0 1 505.752 396.7559)" font-family="'Myriad-Roman'" font-size="20">pp</text>
				<text transform="matrix(1 0 0 1 528.5117 396.7559)" font-family="'Myriad-Roman'" font-size="20">r</text>
				<text transform="matrix(1 0 0 1 534.9316 396.7559)" font-family="'Myriad-Roman'" font-size="20">ob</text>
				<text transform="matrix(1 0 0 1 557.291 396.7559)" font-family="'Myriad-Roman'" font-size="20">a</text>
				<text transform="matrix(1 0 0 1 566.8496 396.7559)" font-family="'Myriad-Roman'" font-size="20">tion</text>
				<text transform="matrix(1 0 0 1 356.0508 396.7559)" font-family="'Myriad-Roman'" font-size="20">M</text>
				<text transform="matrix(1 0 0 1 372.251 396.7559)" font-family="'Myriad-Roman'" font-size="20">essage</text>
				<text transform="matrix(1 0 0 1 188.1206 396.7559)" font-family="'Myriad-Roman'" font-size="20">D</text>
				<text transform="matrix(1 0 0 1 201.9404 396.7559)" font-family="'Myriad-Roman'" font-size="20">ynamisme</text>
				<text transform="matrix(1 0 0 1 14.981 396.7559)" font-family="'Myriad-Roman'" font-size="20">T</text>
				<text transform="matrix(1 0 0 1 24.7808 396.7559)" font-family="'Myriad-Roman'" font-size="20">hèmes a</text>
				<text transform="matrix(1 0 0 1 94.3999 396.7559)" font-family="'Myriad-Roman'" font-size="20">b</text>
				<text transform="matrix(1 0 0 1 105.7998 396.7559)" font-family="'Myriad-Roman'" font-size="20">o</text>
				<text transform="matrix(1 0 0 1 116.7798 396.7559)" font-family="'Myriad-Roman'" font-size="20">r</text>
				<text transform="matrix(1 0 0 1 123.2002 396.7559)" font-family="'Myriad-Roman'" font-size="20">dés</text>
			</g>
		</g>
		<text transform="matrix(1 0 0 1 73 83.8496)" display="inline" font-family="'Myriad-Roman'" font-size="50">Evaluer une présentation orale</text>
		<text transform="matrix(1 0 0 1 44 202.8496)" display="inline" font-family="'Myriad-Roman'" font-size="15">Politique</text>
		<text transform="matrix(1 0 0 1 68.5 326.3496)" display="inline" font-family="'Myriad-Roman'" font-size="15">Faits-divers</text>
		<text transform="matrix(1 0 0 1 0 230.8496)" display="inline" font-family="'Myriad-Roman'" font-size="15">Sport</text>
		<text transform="matrix(1 0 0 1 397 307.8496)" display="inline" font-family="'Myriad-Roman'" font-size="15">Positif</text>
		<text transform="matrix(1 0 0 1 328 225.8496)" display="inline" font-family="'Myriad-Roman'" font-size="15">Négatif</text>
	</g>
	<g id="Layer_4">
		<circle fill="none" cx="408.801" cy="311.349" r="224.5"/>
		
			<text transform="matrix(0.8678 0.4968 -0.4968 0.8678 514.8096 113.2822)" fill="#006E3A" font-family="'Myriad-Roman'" font-size="23.9986">P</text>
		
			<text transform="matrix(0.8678 0.4968 -0.4968 0.8678 525.8809 119.6318)" fill="#006E3A" font-family="'Myriad-Roman'" font-size="23.9986">e</text>
		
			<text transform="matrix(0.8678 0.4968 -0.4968 0.8678 535.9561 126.2236)" fill="#006E3A" font-family="'Myriad-Roman'" font-size="23.9986">r</text>
		
			<text transform="matrix(0.8678 0.4968 -0.4968 0.8678 542.333 130.7764)" fill="#006E3A" font-family="'Myriad-Roman'" font-size="23.9986">t</text>
		
			<text transform="matrix(0.8678 0.4968 -0.4968 0.8678 548.626 135.6353)" fill="#006E3A" font-family="'Myriad-Roman'" font-size="23.9986">i</text>
		
			<text transform="matrix(0.8678 0.4968 -0.4968 0.8678 553.0371 139.1396)" fill="#006E3A" font-family="'Myriad-Roman'" font-size="23.9986">n</text>
		
			<text transform="matrix(0.8678 0.4968 -0.4968 0.8678 562.9707 148.0146)" fill="#006E3A" font-family="'Myriad-Roman'" font-size="23.9986">e</text>
		
			<text transform="matrix(0.8678 0.4968 -0.4968 0.8678 571.4824 156.4785)" fill="#006E3A" font-family="'Myriad-Roman'" font-size="23.9986">n</text>
		
			<text transform="matrix(0.8678 0.4968 -0.4968 0.8678 580.3496 166.4297)" fill="#006E3A" font-family="'Myriad-Roman'" font-size="23.9986">c</text>
		
			<text transform="matrix(0.8678 0.4968 -0.4968 0.8678 587.1123 174.8159)" fill="#006E3A" font-family="'Myriad-Roman'" font-size="23.9986">e</text>
	</g>
	<g id="Layer_4_copy">
		<circle fill="none" cx="408.8" cy="311.351" r="224.5"/>
		
			<text transform="matrix(0.6214 -0.7835 0.7835 0.6214 229.1704 176.457)" fill="#662D91" font-family="'Myriad-Roman'" font-size="24">S</text>
		
			<text transform="matrix(0.6214 -0.7835 0.7835 0.6214 236.5239 167.1973)" fill="#662D91" font-family="'Myriad-Roman'" font-size="24">y</text>
		
			<text transform="matrix(0.6214 -0.7835 0.7835 0.6214 243.9829 158.6904)" fill="#662D91" font-family="'Myriad-Roman'" font-size="24">n</text>
		
			<text transform="matrix(0.6214 -0.7835 0.7835 0.6214 253.3628 149.2529)" fill="#662D91" font-family="'Myriad-Roman'" font-size="24">t</text>
		
			<text transform="matrix(0.6214 -0.7835 0.7835 0.6214 259.1558 143.8145)" fill="#662D91" font-family="'Myriad-Roman'" font-size="24">h</text>
		
			<text transform="matrix(0.6214 -0.7835 0.7835 0.6214 269.3726 135.2588)" fill="#662D91" font-family="'Myriad-Roman'" font-size="24">è</text>
		
			<text transform="matrix(0.6214 -0.7835 0.7835 0.6214 279.0142 128.0879)" fill="#662D91" font-family="'Myriad-Roman'" font-size="24">s</text>
		
			<text transform="matrix(0.6214 -0.7835 0.7835 0.6214 286.8911 122.7285)" fill="#662D91" font-family="'Myriad-Roman'" font-size="24">e</text>
	</g>
	<g id="Layer_4_copy_2">
		<circle fill="none" cx="408.799" cy="311.351" r="224.5"/>
		
			<text transform="matrix(-0.9054 -0.4246 0.4246 -0.9054 320.9619 518.1885)" fill="#ED1C24" font-family="'Myriad-Roman'" font-size="24">Q</text>
		
			<text transform="matrix(-0.9054 -0.4246 0.4246 -0.9054 306.0283 511.0986)" fill="#ED1C24" font-family="'Myriad-Roman'" font-size="24">a</text>
		
			<text transform="matrix(-0.9054 -0.4246 0.4246 -0.9054 295.8643 505.5498)" fill="#ED1C24" font-family="'Myriad-Roman'" font-size="24">u</text>
		
			<text transform="matrix(-0.9054 -0.4246 0.4246 -0.9054 284.6836 498.4951)" fill="#ED1C24" font-family="'Myriad-Roman'" font-size="24">l</text>
		
			<text transform="matrix(-0.9054 -0.4246 0.4246 -0.9054 280.0518 495.3311)" fill="#ED1C24" font-family="'Myriad-Roman'" font-size="24">i</text>
		
			<text transform="matrix(-0.9054 -0.4246 0.4246 -0.9054 275.4766 492.0615)" fill="#ED1C24" font-family="'Myriad-Roman'" font-size="24">t</text>
		
			<text transform="matrix(-0.9054 -0.4246 0.4246 -0.9054 269.1416 487.2588)" fill="#ED1C24" font-family="'Myriad-Roman'" font-size="24">é</text>
		
			<text transform="matrix(-0.9054 -0.4246 0.4246 -0.9054 259.9727 479.4717)" fill="#ED1C24" font-family="'Myriad-Roman'" font-size="24"> </text>
		
			<text transform="matrix(-0.9054 -0.4246 0.4246 -0.9054 256.1406 476.1084)" fill="#ED1C24" font-family="'Myriad-Roman'" font-size="24">o</text>
		
			<text transform="matrix(-0.9054 -0.4246 0.4246 -0.9054 246.7959 466.8311)" fill="#ED1C24" font-family="'Myriad-Roman'" font-size="24">r</text>
		
			<text transform="matrix(-0.9054 -0.4246 0.4246 -0.9054 241.4365 461.1045)" fill="#ED1C24" font-family="'Myriad-Roman'" font-size="24">a</text>
		
			<text transform="matrix(-0.9054 -0.4246 0.4246 -0.9054 233.9717 452.2568)" fill="#ED1C24" font-family="'Myriad-Roman'" font-size="24">t</text>
		
			<text transform="matrix(-0.9054 -0.4246 0.4246 -0.9054 229.04 446.0146)" fill="#ED1C24" font-family="'Myriad-Roman'" font-size="24">o</text>
		
			<text transform="matrix(-0.9054 -0.4246 0.4246 -0.9054 221.5117 435.2021)" fill="#ED1C24" font-family="'Myriad-Roman'" font-size="24">i</text>
		
			<text transform="matrix(-0.9054 -0.4246 0.4246 -0.9054 218.4551 430.4951)" fill="#ED1C24" font-family="'Myriad-Roman'" font-size="24">r</text>
		
			<text transform="matrix(-0.9054 -0.4246 0.4246 -0.9054 214.3604 423.7881)" fill="#ED1C24" font-family="'Myriad-Roman'" font-size="24">e</text>
	</g>
	<g id="Layer_4_copy_3">
		<circle fill="none" cx="408.798" cy="311.35" r="224.5"/>
		
			<text transform="matrix(-0.5038 0.8638 -0.8638 -0.5038 606.6992 417.7598)" fill="#0054A6" font-family="'Myriad-Roman'" font-size="24">G</text>
		
			<text transform="matrix(-0.5038 0.8638 -0.8638 -0.5038 598.8398 431.1309)" fill="#0054A6" font-family="'Myriad-Roman'" font-size="24">e</text>
		
			<text transform="matrix(-0.5038 0.8638 -0.8638 -0.5038 592.1328 441.0957)" fill="#0054A6" font-family="'Myriad-Roman'" font-size="24">s</text>
		
			<text transform="matrix(-0.5038 0.8638 -0.8638 -0.5038 586.4492 448.7402)" fill="#0054A6" font-family="'Myriad-Roman'" font-size="24">t</text>
		
			<text transform="matrix(-0.5038 0.8638 -0.8638 -0.5038 581.5156 454.9756)" fill="#0054A6" font-family="'Myriad-Roman'" font-size="24">u</text>
		
			<text transform="matrix(-0.5038 0.8638 -0.8638 -0.5038 572.7539 464.8633)" fill="#0054A6" font-family="'Myriad-Roman'" font-size="24">e</text>
		
			<text transform="matrix(-0.5038 0.8638 -0.8638 -0.5038 564.2539 473.3623)" fill="#0054A6" font-family="'Myriad-Roman'" font-size="24">l</text>
		
			<text transform="matrix(-0.5038 0.8638 -0.8638 -0.5038 560.1406 477.2031)" fill="#0054A6" font-family="'Myriad-Roman'" font-size="24">l</text>
		
			<text transform="matrix(-0.5038 0.8638 -0.8638 -0.5038 555.9961 480.9697)" fill="#0054A6" font-family="'Myriad-Roman'" font-size="24">e</text>
	</g>
	<g id="Layer_3">
		<g>
			<g>
				<g>
					<g>
						<path fill="#662D91" stroke="#000000" stroke-width="0.5" d="M409,310.85H190.906C190.906,190.4,288.55,92.756,409,92.756l0,0
							V310.85z"/>
					</g>
				</g>
				<g>
					<g>
						<path fill="#ED1C24" stroke="#000000" stroke-width="0.5" d="M409,310.85v218.095c-120.45,0-218.094-97.645-218.094-218.095
							l0,0H409L409,310.85z"/>
					</g>
				</g>
				<g>
					<g>
						<path fill="#0054A6" stroke="#000000" stroke-width="0.5" d="M409,310.85h218.094c0,120.45-97.644,218.095-218.094,218.095
							l0,0V310.85z"/>
					</g>
				</g>
				<g>
					<g>
						<path fill="#006E3A" stroke="#000000" stroke-width="0.5" d="M409,310.85V92.756c120.45,0,218.094,97.644,218.094,218.094l0,0
							H409L409,310.85z"/>
					</g>
				</g>
			</g>
		</g>
		<g>
			<g>
				<g>
					<g>
						<path fill="#91278F" stroke="#000000" stroke-width="0.5" d="M409,310.85H234.525c0-96.359,78.115-174.475,174.475-174.475
							l0,0V310.85z"/>
					</g>
				</g>
				<g>
					<g>
						<path fill="#F26522" stroke="#000000" stroke-width="0.5" d="M409,310.85v174.476c-96.36,0-174.475-78.114-174.475-174.476
							l0,0H409z"/>
					</g>
				</g>
				<g>
					<g>
						<path fill="#0071BC" stroke="#000000" stroke-width="0.5" d="M409,310.85h174.475c0,96.36-78.113,174.476-174.475,174.476l0,0
							V310.85L409,310.85z"/>
					</g>
				</g>
				<g>
					<g>
						<path fill="#28903A" stroke="#000000" stroke-width="0.5" d="M409,310.85V136.375c96.36,0,174.475,78.115,174.475,174.475l0,0
							H409z"/>
					</g>
				</g>
			</g>
		</g>
		<g>
			<g>
				<g>
					<g>
						<path fill="#BD1A8D" stroke="#000000" stroke-width="0.5" d="M409,310.85H278.144c0-72.27,58.586-130.855,130.856-130.855l0,0
							V310.85z"/>
					</g>
				</g>
				<g>
					<g>
						<path fill="#F7931D" stroke="#000000" stroke-width="0.5" d="M409,310.85v130.856c-72.27,0-130.856-58.586-130.856-130.856
							l0,0H409L409,310.85z"/>
					</g>
				</g>
				<g>
					<g>
						<path fill="#008FD4" stroke="#000000" stroke-width="0.5" d="M409,310.85h130.856c0,72.271-58.586,130.856-130.856,130.856
							l0,0V310.85z"/>
					</g>
				</g>
				<g>
					<g>
						<path fill="#6C9D31" stroke="#000000" stroke-width="0.5" d="M409,310.85V179.993c72.271,0,130.856,58.586,130.856,130.855
							l0,0L409,310.85L409,310.85z"/>
					</g>
				</g>
			</g>
		</g>
		<g>
			<g>
				<g>
					<g>
						<path fill="#EC008C" stroke="#000000" stroke-width="0.5" d="M409,310.85h-87.238c0-48.18,39.058-87.237,87.238-87.237l0,0
							V310.85z"/>
					</g>
				</g>
				<g>
					<g>
						<path fill="#FFC20E" stroke="#000000" stroke-width="0.5" d="M409,310.85v87.237c-48.18,0-87.238-39.058-87.238-87.237l0,0
							H409z"/>
					</g>
				</g>
				<g>
					<g>
						<path fill="#00ADEF" stroke="#000000" stroke-width="0.5" d="M409,310.85h87.237c0,48.181-39.059,87.237-87.237,87.237l0,0
							V310.85z"/>
					</g>
				</g>
				<g>
					<g>
						<path fill="#8CC63F" stroke="#000000" stroke-width="0.5" d="M409,310.85v-87.237c48.18,0,87.237,39.058,87.237,87.237l0,0
							H409z"/>
					</g>
				</g>
			</g>
		</g>
		<g>
			<g>
				<g>
					<g>
						<path fill="#FFFFFF" d="M409,310.85h-43.619c0-24.09,19.529-43.619,43.619-43.619l0,0V310.85z"/>
					</g>
				</g>
				<g>
					<g>
						<path fill="#FFFFFF" d="M409,310.85v43.619c-24.09,0-43.619-19.528-43.619-43.619l0,0H409z"/>
					</g>
				</g>
				<g>
					<g>
						<path fill="#FFFFFF" d="M409,310.85h43.619c0,24.091-19.529,43.619-43.619,43.619l0,0V310.85z"/>
					</g>
				</g>
				<g>
					<g>
						<path fill="#FFFFFF" d="M409,310.85v-43.62c24.09,0,43.619,19.529,43.619,43.619l0,0L409,310.85L409,310.85z"/>
					</g>
				</g>
			</g>
		</g>
	</g>
	<g id="Layer_2">
		<text transform="matrix(1 0 0 1 98 41.8496)" fill="#636466" font-family="'Myriad-Italic'" font-size="50">Evaluation d'une présentation</text>
	</g>
</g>
</svg>
