<?xml version="1.0" encoding="utf-8"?>
<!-- Generator: Adobe Illustrator 12.0.0, SVG Export Plug-In . SVG Version: 6.00 Build 51448)  -->
<!DOCTYPE svg PUBLIC "-//W3C//DTD SVG 1.1//EN" "http://www.w3.org/Graphics/SVG/1.1/DTD/svg11.dtd" [
	<!ENTITY ns_svg "http://www.w3.org/2000/svg">
	<!ENTITY ns_xlink "http://www.w3.org/1999/xlink">
]>
<svg  version="1.1" xmlns="&ns_svg;" xmlns:xlink="&ns_xlink;" width="770.988" height="537.187" viewBox="0 0 770.988 537.187"
	 overflow="visible" enable-background="new 0 0 770.988 537.187" xml:space="preserve">
<g id="Layer_1" display="none">
	<g display="inline">
		<g>
			<g>
				<g>
					<path fill="#CADB2A" stroke="#000000" stroke-width="0.5" d="M238.1,259.85l-7.061,67.18
						c-37.103-3.899-64.019-37.138-60.119-74.24c3.631-34.543,32.448-60.489,67.18-60.489V259.85z"/>
				</g>
			</g>
			<g>
				<g>
					<path fill="#EC008C" stroke="#000000" stroke-width="0.5" d="M83.7,259.85l-35.272-37.825
						c9.818-9.156,21.848-13.895,35.272-13.895V259.85z"/>
					<path fill="#FFF200" stroke="#000000" stroke-width="0.5" d="M238.1,259.85l66.718,10.567
						c-5.632,35.558-37.975,60.376-73.779,56.612L238.1,259.85z"/>
					<path fill="#F7931D" stroke="#000000" stroke-width="0.5" d="M546.9,259.85l-53.219,30.726
						c-16.969-29.392-6.898-66.975,22.493-83.944c9.787-5.651,19.424-8.233,30.726-8.233V259.85z"/>
					<path fill="#F7931D" stroke="#000000" stroke-width="0.5" d="M701.3,259.85l-24.188-28.827
						c7.068-5.932,14.961-8.804,24.188-8.804V259.85z"/>
				</g>
			</g>
			<g>
				<g>
					<path fill="#5B57A6" stroke="#000000" stroke-width="0.5" d="M83.7,259.85l-49.715,14.256
						c-5.551-19.357-0.285-38.347,14.443-52.081L83.7,259.85z"/>
					<path fill="#F7931D" stroke="#000000" stroke-width="0.5" d="M238.1,259.85l27.475-61.71
						c28.186,12.549,44.07,41.804,39.243,72.277L238.1,259.85z"/>
					<path fill="#ED1C24" stroke="#000000" stroke-width="0.5" d="M392.5,259.85l-26.609-15.363
						c5.651-9.788,15.308-15.363,26.609-15.363V259.85z"/>
					<path fill="#ED1C24" stroke="#000000" stroke-width="0.5" d="M546.9,259.85l15.905,59.357
						c-27.308,7.317-54.988-4.148-69.124-28.632L546.9,259.85z"/>
					<path fill="#ED1C24" stroke="#000000" stroke-width="0.5" d="M701.3,259.85l-32.59,18.815
						c-9.228-15.982-5.736-35.78,8.401-47.643L701.3,259.85z"/>
				</g>
			</g>
			<g>
				<g>
					<path fill="#008FD4" stroke="#000000" stroke-width="0.5" d="M83.7,259.85V208.13c28.563,0,51.719,23.156,51.719,51.719
						s-23.156,51.719-51.719,51.719c-23.508,0-43.236-14.866-49.715-37.463L83.7,259.85z"/>
					<path fill="#0DB14B" stroke="#000000" stroke-width="0.5" d="M238.1,259.85V192.3c10.259,0,18.103,1.667,27.475,5.84
						L238.1,259.85z"/>
					<path fill="#0DB14B" stroke="#000000" stroke-width="0.5" d="M392.5,259.85v-30.726c16.97,0,30.726,13.756,30.726,30.726
						c0,16.97-13.756,30.726-30.726,30.726c-16.969,0-30.726-13.756-30.726-30.726c0-5.65,1.291-10.469,4.116-15.363L392.5,259.85z"
						/>
					<path fill="#0DB14B" stroke="#000000" stroke-width="0.5" d="M546.9,259.85v-61.452c33.938,0,61.451,27.513,61.451,61.452
						c0,28.271-18.238,52.04-45.546,59.357L546.9,259.85z"/>
					<path fill="#0DB14B" stroke="#000000" stroke-width="0.5" d="M701.3,259.85v-37.631c20.783,0,37.631,16.848,37.631,37.631
						S722.083,297.48,701.3,297.48c-13.842,0-25.669-6.828-32.59-18.815L701.3,259.85z"/>
				</g>
			</g>
		</g>
		<g>
			<g>
			</g>
			<g>
			</g>
			<g>
			</g>
			<g>
			</g>
		</g>
		<g>
			<text transform="matrix(1 0 0 1 631.6113 396.7559)"><tspan x="0" y="0" font-family="'Myriad-Roman'" font-size="20">C</tspan><tspan x="11.54" y="0" font-family="'Myriad-Roman'" font-size="20">la</tspan><tspan x="25.859" y="0" font-family="'Myriad-Roman'" font-size="20">r</tspan><tspan x="32.879" y="0" font-family="'Myriad-Roman'" font-size="20">té du p</tspan><tspan x="91.679" y="0" font-family="'Myriad-Roman'" font-size="20">r</tspan><tspan x="98.099" y="0" font-family="'Myriad-Roman'" font-size="20">o</tspan><tspan x="109.078" y="0" font-family="'Myriad-Roman'" font-size="20">p</tspan><tspan x="120.479" y="0" font-family="'Myriad-Roman'" font-size="20">os</tspan></text>
			<text transform="matrix(1 0 0 1 493.5713 396.7559)"><tspan x="0" y="0" font-family="'Myriad-Roman'" font-size="20">A</tspan><tspan x="12.181" y="0" font-family="'Myriad-Roman'" font-size="20">pp</tspan><tspan x="34.94" y="0" font-family="'Myriad-Roman'" font-size="20">r</tspan><tspan x="41.36" y="0" font-family="'Myriad-Roman'" font-size="20">ob</tspan><tspan x="63.72" y="0" font-family="'Myriad-Roman'" font-size="20">a</tspan><tspan x="73.279" y="0" font-family="'Myriad-Roman'" font-size="20">tion</tspan></text>
			<text transform="matrix(1 0 0 1 356.0508 396.7559)"><tspan x="0" y="0" font-family="'Myriad-Roman'" font-size="20">M</tspan><tspan x="16.2" y="0" font-family="'Myriad-Roman'" font-size="20">essage</tspan></text>
			<text transform="matrix(1 0 0 1 188.1206 396.7559)"><tspan x="0" y="0" font-family="'Myriad-Roman'" font-size="20">D</tspan><tspan x="13.82" y="0" font-family="'Myriad-Roman'" font-size="20">ynamisme</tspan></text>
			<text transform="matrix(1 0 0 1 14.981 396.7559)"><tspan x="0" y="0" font-family="'Myriad-Roman'" font-size="20">T</tspan><tspan x="9.8" y="0" font-family="'Myriad-Roman'" font-size="20">hèmes a</tspan><tspan x="79.419" y="0" font-family="'Myriad-Roman'" font-size="20">b</tspan><tspan x="90.819" y="0" font-family="'Myriad-Roman'" font-size="20">o</tspan><tspan x="101.799" y="0" font-family="'Myriad-Roman'" font-size="20">r</tspan><tspan x="108.219" y="0" font-family="'Myriad-Roman'" font-size="20">dés</tspan></text>
		</g>
	</g>
	<text transform="matrix(1 0 0 1 73 83.8496)" display="inline" font-family="'Myriad-Roman'" font-size="50">Catégorisation d’un évènement</text>
	<text transform="matrix(1 0 0 1 44 202.8496)" display="inline" font-family="'Myriad-Roman'" font-size="15">Politique</text>
	<text transform="matrix(1 0 0 1 68.5 326.3496)" display="inline" font-family="'Myriad-Roman'" font-size="15">Faits-divers</text>
	<text transform="matrix(1 0 0 1 0 230.8496)" display="inline" font-family="'Myriad-Roman'" font-size="15">Sport</text>
	<text transform="matrix(1 0 0 1 397 307.8496)" display="inline" font-family="'Myriad-Roman'" font-size="15">Positif</text>
	<text transform="matrix(1 0 0 1 328 225.8496)" display="inline" font-family="'Myriad-Roman'" font-size="15">Négatif</text>
</g>
<g id="Layer_4">
	<circle fill="none" cx="408.801" cy="311.349" r="224.5"/>
	<text transform="matrix(0.8678 0.4968 -0.4968 0.8678 514.8096 113.2822)"><tspan x="0" y="0" fill="#006E3A" font-family="'Myriad-Roman'" font-size="24">P</tspan><tspan x="12.764" y="0.01" fill="#006E3A" font-family="'Myriad-Roman'" font-size="24" rotate="3.184">e</tspan><tspan x="24.783" y="0.725" fill="#006E3A" font-family="'Myriad-Roman'" font-size="24" rotate="5.736">r</tspan><tspan x="32.58" y="1.508" fill="#006E3A" font-family="'Myriad-Roman'" font-size="24" rotate="7.755">t</tspan><tspan x="40.455" y="2.598" fill="#006E3A" font-family="'Myriad-Roman'" font-size="24" rotate="9.491">i</tspan><tspan x="46.025" y="3.448" fill="#006E3A" font-family="'Myriad-Roman'" font-size="24" rotate="11.911">n</tspan><tspan x="59.056" y="6.215" fill="#006E3A" font-family="'Myriad-Roman'" font-size="24" rotate="15.14">e</tspan><tspan x="70.649" y="9.332" fill="#006E3A" font-family="'Myriad-Roman'" font-size="24" rotate="18.356">n</tspan><tspan x="83.289" y="13.563" fill="#006E3A" font-family="'Myriad-Roman'" font-size="24" rotate="21.414">c</tspan><tspan x="93.324" y="17.481" fill="#006E3A" font-family="'Myriad-Roman'" font-size="24" rotate="24.306">e</tspan></text>
</g>
<g id="Layer_4_copy">
	<circle fill="none" cx="408.8" cy="311.351" r="224.5"/>
	<text transform="matrix(0.6214 -0.7835 0.7835 0.6214 229.1704 176.4575)"><tspan x="0" y="0" fill="#662D91" font-family="'Myriad-Roman'" font-size="24">S</tspan><tspan x="11.825" y="0.007" fill="#662D91" font-family="'Myriad-Roman'" font-size="24" rotate="2.97">y</tspan><tspan x="23.125" y="0.565" fill="#662D91" font-family="'Myriad-Roman'" font-size="24" rotate="6.13">n</tspan><tspan x="36.347" y="2.05" fill="#662D91" font-family="'Myriad-Roman'" font-size="24" rotate="8.848">t</tspan><tspan x="44.208" y="3.209" fill="#662D91" font-family="'Myriad-Roman'" font-size="24" rotate="11.563">h</tspan><tspan x="57.26" y="5.898" fill="#662D91" font-family="'Myriad-Roman'" font-size="24" rotate="14.794">è</tspan><tspan x="68.87" y="8.996" fill="#662D91" font-family="'Myriad-Roman'" font-size="24" rotate="17.529">s</tspan><tspan x="77.964" y="11.837" fill="#662D91" font-family="'Myriad-Roman'" font-size="24" rotate="20.268">e</tspan></text>
</g>
<g id="Layer_4_copy_2">
	<circle fill="none" cx="408.799" cy="311.351" r="224.5"/>
	<text transform="matrix(-0.9054 -0.4246 0.4246 -0.9054 320.9619 518.1885)"><tspan x="0" y="0" fill="#ED1C24" font-family="'Myriad-Roman'" font-size="24">Q</tspan><tspan x="16.531" y="0.079" fill="#ED1C24" font-family="'Myriad-Roman'" font-size="24" rotate="3.607">a</tspan><tspan x="28.089" y="0.786" fill="#ED1C24" font-family="'Myriad-Roman'" font-size="24" rotate="6.786">u</tspan><tspan x="41.207" y="2.426" fill="#ED1C24" font-family="'Myriad-Roman'" font-size="24" rotate="9.195">l</tspan><tspan x="46.744" y="3.324" fill="#ED1C24" font-family="'Myriad-Roman'" font-size="24" rotate="10.627">i</tspan><tspan x="52.275" y="4.343" fill="#ED1C24" font-family="'Myriad-Roman'" font-size="24" rotate="12.358">t</tspan><tspan x="60.049" y="6.001" fill="#ED1C24" font-family="'Myriad-Roman'" font-size="24" rotate="14.901">é</tspan><tspan x="71.656" y="9.157" fill="#ED1C24" font-family="'Myriad-Roman'" font-size="24" rotate="17.078"> </tspan><tspan x="76.554" y="10.577" fill="#ED1C24" font-family="'Myriad-Roman'" font-size="24" rotate="19.4">o</tspan><tspan x="88.954" y="15.009" fill="#ED1C24" font-family="'Myriad-Roman'" font-size="24" rotate="22.065">r</tspan><tspan x="96.238" y="17.918" fill="#ED1C24" font-family="'Myriad-Roman'" font-size="24" rotate="24.525">a</tspan><tspan x="106.753" y="22.759" fill="#ED1C24" font-family="'Myriad-Roman'" font-size="24" rotate="27.002">t</tspan><tspan x="113.868" y="26.316" fill="#ED1C24" font-family="'Myriad-Roman'" font-size="24" rotate="29.684">o</tspan><tspan x="125.275" y="32.909" fill="#ED1C24" font-family="'Myriad-Roman'" font-size="24" rotate="32.071">i</tspan><tspan x="130.04" y="35.873" fill="#ED1C24" font-family="'Myriad-Roman'" font-size="24" rotate="33.781">r</tspan><tspan x="136.595" y="40.205" fill="#ED1C24" font-family="'Myriad-Roman'" font-size="24" rotate="36.314">e</tspan></text>
</g>
<g id="Layer_4_copy_3">
	<circle fill="none" cx="408.798" cy="311.35" r="224.5"/>
	<text transform="matrix(-0.5038 0.8638 -0.8638 -0.5038 606.7002 417.7598)"><tspan x="0" y="0" fill="#0054A6" font-family="'Myriad-Roman'" font-size="24">G</tspan><tspan x="15.511" y="0.054" fill="#0054A6" font-family="'Myriad-Roman'" font-size="24" rotate="3.537">e</tspan><tspan x="27.497" y="0.826" fill="#0054A6" font-family="'Myriad-Roman'" font-size="24" rotate="6.293">s</tspan><tspan x="36.964" y="1.885" fill="#0054A6" font-family="'Myriad-Roman'" font-size="24" rotate="8.531">t</tspan><tspan x="44.836" y="3.004" fill="#0054A6" font-family="'Myriad-Roman'" font-size="24" rotate="11.235">u</tspan><tspan x="57.793" y="5.594" fill="#0054A6" font-family="'Myriad-Roman'" font-size="24" rotate="14.449">e</tspan><tspan x="69.417" y="8.654" fill="#0054A6" font-family="'Myriad-Roman'" font-size="24" rotate="16.691">l</tspan><tspan x="74.805" y="10.27" fill="#0054A6" font-family="'Myriad-Roman'" font-size="24" rotate="18.121">l</tspan><tspan x="80.147" y="11.952" fill="#0054A6" font-family="'Myriad-Roman'" font-size="24" rotate="20.355">e</tspan></text>
</g>
<g id="Layer_3">
	<g>
		<g>
			<g>
				<g>
					<path fill="#662D91" stroke="#000000" stroke-width="0.5" d="M409,310.85H190.906c0-120.45,97.644-218.094,218.094-218.094l0,0
						V310.85z"/>
				</g>
			</g>
			<g>
				<g>
					<path fill="#ED1C24" stroke="#000000" stroke-width="0.5" d="M409,310.85v218.094c-120.45,0-218.094-97.644-218.094-218.094
						l0,0H409z"/>
				</g>
			</g>
			<g>
				<g>
					<path fill="#0054A6" stroke="#000000" stroke-width="0.5" d="M409,310.85h218.094c0,120.45-97.644,218.094-218.094,218.094l0,0
						V310.85z"/>
				</g>
			</g>
			<g>
				<g>
					<path fill="#006E3A" stroke="#000000" stroke-width="0.5" d="M409,310.85V92.756c120.45,0,218.094,97.644,218.094,218.094l0,0
						H409z"/>
				</g>
			</g>
		</g>
		<g>
			<g>
			</g>
			<g>
			</g>
			<g>
			</g>
			<g>
			</g>
		</g>
	</g>
	<g>
		<g>
			<g>
				<g>
					<path fill="#91278F" stroke="#000000" stroke-width="0.5" d="M409,310.85H234.525c0-96.36,78.115-174.475,174.475-174.475l0,0
						V310.85z"/>
				</g>
			</g>
			<g>
				<g>
					<path fill="#F26522" stroke="#000000" stroke-width="0.5" d="M409,310.85v174.475c-96.36,0-174.475-78.114-174.475-174.475l0,0
						H409z"/>
				</g>
			</g>
			<g>
				<g>
					<path fill="#0071BC" stroke="#000000" stroke-width="0.5" d="M409,310.85h174.475c0,96.36-78.114,174.475-174.475,174.475l0,0
						V310.85z"/>
				</g>
			</g>
			<g>
				<g>
					<path fill="#28903A" stroke="#000000" stroke-width="0.5" d="M409,310.85V136.375c96.36,0,174.475,78.115,174.475,174.475l0,0
						H409z"/>
				</g>
			</g>
		</g>
		<g>
			<g>
			</g>
			<g>
			</g>
			<g>
			</g>
			<g>
			</g>
		</g>
	</g>
	<g>
		<g>
			<g>
				<g>
					<path fill="#BD1A8D" stroke="#000000" stroke-width="0.5" d="M409,310.85H278.144c0-72.27,58.586-130.856,130.856-130.856l0,0
						V310.85z"/>
				</g>
			</g>
			<g>
				<g>
					<path fill="#F7931D" stroke="#000000" stroke-width="0.5" d="M409,310.85v130.856c-72.27,0-130.856-58.586-130.856-130.856l0,0
						H409z"/>
				</g>
			</g>
			<g>
				<g>
					<path fill="#008FD4" stroke="#000000" stroke-width="0.5" d="M409,310.85h130.856c0,72.271-58.586,130.856-130.856,130.856l0,0
						V310.85z"/>
				</g>
			</g>
			<g>
				<g>
					<path fill="#6C9D31" stroke="#000000" stroke-width="0.5" d="M409,310.85V179.993c72.271,0,130.856,58.586,130.856,130.856l0,0
						H409z"/>
				</g>
			</g>
		</g>
		<g>
			<g>
			</g>
			<g>
			</g>
			<g>
			</g>
			<g>
			</g>
		</g>
	</g>
	<g>
		<g>
			<g>
				<g>
					<path fill="#EC008C" stroke="#000000" stroke-width="0.5" d="M409,310.85h-87.238c0-48.18,39.058-87.237,87.238-87.237l0,0
						V310.85z"/>
				</g>
			</g>
			<g>
				<g>
					<path fill="#FFC20E" stroke="#000000" stroke-width="0.5" d="M409,310.85v87.237c-48.18,0-87.238-39.058-87.238-87.237l0,0H409
						z"/>
				</g>
			</g>
			<g>
				<g>
					<path fill="#00ADEF" stroke="#000000" stroke-width="0.5" d="M409,310.85h87.237c0,48.18-39.058,87.237-87.237,87.237l0,0
						V310.85z"/>
				</g>
			</g>
			<g>
				<g>
					<path fill="#8CC63F" stroke="#000000" stroke-width="0.5" d="M409,310.85v-87.237c48.18,0,87.237,39.058,87.237,87.237l0,0H409
						z"/>
				</g>
			</g>
		</g>
		<g>
			<g>
			</g>
			<g>
			</g>
			<g>
			</g>
			<g>
			</g>
		</g>
	</g>
	<g>
		<g>
			<g>
				<g>
					<path fill="#FFFFFF" d="M409,310.85h-43.619c0-24.09,19.529-43.619,43.619-43.619l0,0V310.85z"/>
				</g>
			</g>
			<g>
				<g>
					<path fill="#FFFFFF" d="M409,310.85v43.619c-24.09,0-43.619-19.529-43.619-43.619l0,0H409z"/>
				</g>
			</g>
			<g>
				<g>
					<path fill="#FFFFFF" d="M409,310.85h43.619c0,24.09-19.529,43.619-43.619,43.619l0,0V310.85z"/>
				</g>
			</g>
			<g>
				<g>
					<path fill="#FFFFFF" d="M409,310.85V267.23c24.09,0,43.619,19.529,43.619,43.619l0,0H409z"/>
				</g>
			</g>
		</g>
		<g>
			<g>
			</g>
			<g>
			</g>
			<g>
			</g>
			<g>
			</g>
		</g>
	</g>
</g>
<g id="Layer_2">
	<text transform="matrix(1 0 0 1 98 41.8496)" fill="#636466" font-family="'Myriad-Italic'" font-size="50">Catégorisation d’un évènement</text>
</g>
</svg>
