<?xml version="1.0" encoding="utf-8"?>
<!-- Generator: Adobe Illustrator 16.0.0, SVG Export Plug-In . SVG Version: 6.00 Build 0)  -->
<!DOCTYPE svg PUBLIC "-//W3C//DTD SVG 1.1//EN" "http://www.w3.org/Graphics/SVG/1.1/DTD/svg11.dtd">
<svg version="1.1" id="Layer_1" xmlns="http://www.w3.org/2000/svg" xmlns:xlink="http://www.w3.org/1999/xlink" x="0px" y="0px"
	 width="800px" height="600px" viewBox="0 0 800 600" enable-background="new 0 0 800 600" xml:space="preserve"
	 
	 
	 onload="PageChargee()"

	 >

	<script type="text/ecmascript" xlink:href="js/Quentin.js" />
	<script type="text/ecmascript" xlink:href="js/d3.js" />

	 
<g id="Layer_2">
	<path fill="#07D85B" d="M400,300V10.113C383.857,6.766,367.135,5,350,5C214.688,5,105,114.688,105,250
		c0,17.135,1.766,33.856,5.113,50H400z"/>
	<path fill="#41AF51" d="M400,300V82.26C384.156,77.545,367.376,75,350,75c-96.648,0-175,78.352-175,175
		c0,17.376,2.545,34.155,7.26,50H400z"/>
	<path fill="#82E882" d="M400,157.646C385.134,149.581,368.103,145,350,145c-57.99,0-105,47.01-105,105
		c0,16.896,3.997,32.858,11.088,47H400V157.646z"/>
	<path fill="#2559A5" d="M691.479,297c2.956-15.213,4.521-30.922,4.521-47C696,114.688,586.316,5,451,5
		c-17.49,0-34.548,1.847-51,5.331V297H691.479z"/>
	<path fill="#2D899E" d="M619.608,297c4.158-14.957,6.392-30.717,6.392-47c0-96.648-78.344-175-175-175
		c-17.742,0-34.863,2.648-51,7.559V297H619.608z"/>
	<path fill="#2DC7D3" d="M544.912,297C552.003,282.859,556,266.897,556,250c0-57.99-47.008-105-105-105
		c-18.511,0-35.898,4.796-51,13.204V297H544.912z"/>
	<path fill="#F43D53" d="M111.681,293c-4.358,18.291-6.681,37.372-6.681,57c0,135.315,109.688,245,245,245
		c17.135,0,33.857-1.767,50-5.112V293H111.681z"/>
	<path fill="#C12323" d="M183.18,297c-5.308,16.72-8.18,34.522-8.18,53c0,96.655,78.352,175,175,175c17.011,0,33.451-2.438,49-6.963
		V297H183.18z"/>
	<path fill="#E2607C" d="M400,297H259.346C250.231,312.558,245,330.666,245,350c0,57.991,47.01,105,105,105
		c18.103,0,35.134-4.581,50-12.646V297z"/>
	<path fill="#E2762D" d="M400,293v297h-2.481c15.981,3.276,32.53,5,49.481,5c135.316,0,245-109.685,245-245
		c0-19.628-2.322-38.709-6.681-57H400z"/>
	<path fill="#BA6519" d="M400,293v225.606c14.957,4.16,30.717,6.394,47,6.394c96.656,0,175-78.345,175-175
		c0-19.959-3.349-39.133-9.502-57H400z"/>
	<path fill="#D89545" d="M400,297v146.911C414.143,451.003,430.104,455,447,455c57.992,0,105-47.009,105-105
		c0-19.334-5.23-37.442-14.346-53H400z"/>
	<rect x="385" y="0" fill="#FFFFFF" width="30" height="633"/>
	<rect y="285" fill="#FFFFFF" width="901" height="30"/>
	<rect x="350" y="250" fill="#FFFFFF" width="97" height="98"/>
</g>
<g id="Layer_1_1_">
	<circle fill="#883F99" cx="400" cy="300" r="30"/>
	<circle fill="#EF2039" stroke="#FFFFFF" stroke-width="10" stroke-miterlimit="10" cx="350" cy="350" r="35"/>
	<circle fill="#2BD664" stroke="#FFFFFF" stroke-width="10" stroke-miterlimit="10" cx="350" cy="250" r="35"/>
	<circle fill="#F96A2B" stroke="#FFFFFF" stroke-width="10" stroke-miterlimit="10" cx="450" cy="350" r="35"/>
	<circle fill="#2F76F4" stroke="#FFFFFF" stroke-width="10" stroke-miterlimit="10" cx="450" cy="250" r="35"/>
	<g>
		<path fill="#4C4C4C" d="M455.05,300.331h4.027v0.511h-4.027v3.168h-0.54v-7.006h4.707v0.54h-4.167V300.331z"/>
		<path fill="#4C4C4C" d="M470.376,300.511c-0.01,1.839-1.179,3.607-3.527,3.607c-2.348,0-3.527-1.778-3.527-3.628
			c0-1.879,1.169-3.598,3.527-3.598C469.207,296.894,470.387,298.622,470.376,300.511z M463.85,300.501
			c0.012,1.578,1.011,3.117,2.999,3.117c1.999,0,3.009-1.539,3.009-3.117c0-1.619-0.999-3.108-3.009-3.108
			C464.84,297.393,463.84,298.853,463.85,300.501z"/>
		<path fill="#4C4C4C" d="M474.9,297.003l4.707,5.786v-5.786h0.528V304h-0.209l-4.718-5.777V304h-0.54v-6.997H474.9z"/>
		<path fill="#4C4C4C" d="M490.477,303.03c-0.698,0.699-1.629,1.05-2.548,1.05c-2.358,0-3.588-1.649-3.599-3.539
			c-0.021-1.868,1.199-3.617,3.599-3.617c0.919,0,1.85,0.35,2.548,1.049l-0.368,0.319c-0.601-0.6-1.391-0.889-2.18-0.889
			c-2.039,0-3.089,1.439-3.078,3.118c0.021,1.639,1.06,3.059,3.078,3.059c0.789,0,1.589-0.301,2.188-0.89L490.477,303.03z"/>
		<path fill="#4C4C4C" d="M496.629,297.493H494.1v-0.48h5.599v0.48h-2.529V304h-0.539L496.629,297.493L496.629,297.493z"/>
		<path fill="#4C4C4C" d="M503.729,304v-6.997h0.53V304H503.729z"/>
		<path fill="#4C4C4C" d="M515.766,300.511c-0.01,1.839-1.179,3.607-3.526,3.607c-2.349,0-3.528-1.778-3.528-3.628
			c0-1.879,1.169-3.598,3.528-3.598C514.597,296.894,515.776,298.622,515.766,300.511z M509.239,300.501
			c0.011,1.578,1.01,3.117,2.999,3.117c1.999,0,3.008-1.539,3.008-3.117c0-1.619-0.999-3.108-3.008-3.108
			S509.229,298.853,509.239,300.501z"/>
		<path fill="#4C4C4C" d="M520.29,297.003l4.707,5.786v-5.786h0.529V304h-0.209l-4.719-5.777V304h-0.54v-6.997H520.29z"/>
		<path fill="#4C4C4C" d="M530.33,297.003l4.707,5.786v-5.786h0.529V304h-0.209l-4.719-5.777V304h-0.54v-6.997H530.33z"/>
		<path fill="#4C4C4C" d="M540.659,300.231h4.099v0.49h-4.099v2.759h4.418V304h-4.947v-6.997h4.827v0.51h-4.298V300.231
			L540.659,300.231z"/>
		<path fill="#4C4C4C" d="M549.81,297.003v6.486h3.938V304h-4.479v-6.997H549.81z"/>
	</g>
	<g>
		<path fill="#4C4C4C" d="M402.014,148.687c-0.511-0.818-1.33-0.938-2.12-0.949c-0.819,0-2.119,0.301-2.119,1.419
			c0,0.891,0.959,1.101,2.139,1.319c1.35,0.26,2.749,0.5,2.749,2.009c-0.011,1.579-1.601,1.959-2.769,1.959
			c-1.089,0-2.329-0.449-2.868-1.519l0.479-0.24c0.43,0.85,1.529,1.27,2.389,1.27s2.229-0.24,2.229-1.479
			c0.01-1.049-1.15-1.279-2.299-1.5c-1.279-0.25-2.588-0.509-2.588-1.799c-0.03-1.479,1.509-1.939,2.658-1.939
			c1,0,1.869,0.16,2.559,1.189L402.014,148.687z"/>
		<path fill="#4C4C4C" d="M399.589,159.827h-2.528v-0.48h5.597v0.48h-2.528v6.506h-0.54L399.589,159.827L399.589,159.827z"/>
		<path fill="#4C4C4C" d="M402.982,178.333h-0.711l-2.418-2.648h-1.909v2.648h-0.54v-6.996c1.03,0,2.049,0,3.079,0
			c1.519,0,2.289,1.089,2.299,2.179c0.01,1.14-0.739,2.139-2.269,2.139L402.982,178.333z M397.945,175.175h2.479
			c1.219,0,1.76-0.689,1.77-1.669c0.01-0.82-0.551-1.669-1.709-1.669h-2.539V175.175z"/>
		<path fill="#4C4C4C" d="M402.582,183.337v4.348c0,3.658-5.357,3.668-5.357,0v-4.348h0.53v4.348c0,3.008,4.298,2.998,4.298,0
			v-4.348H402.582z"/>
		<path fill="#4C4C4C" d="M403.053,201.364c-0.699,0.699-1.629,1.05-2.549,1.05c-2.358,0-3.588-1.649-3.598-3.538
			c-0.021-1.869,1.199-3.618,3.598-3.618c0.92,0,1.85,0.35,2.549,1.049l-0.369,0.32c-0.602-0.601-1.391-0.89-2.18-0.89
			c-2.039,0-3.088,1.439-3.078,3.118c0.021,1.64,1.06,3.059,3.078,3.059c0.79,0,1.589-0.301,2.189-0.89L403.053,201.364z"/>
		<path fill="#4C4C4C" d="M399.589,207.827h-2.528v-0.48h5.597v0.48h-2.528v6.506h-0.54L399.589,207.827L399.589,207.827z"/>
		<path fill="#4C4C4C" d="M402.582,219.337v4.348c0,3.658-5.357,3.668-5.357,0v-4.348h0.53v4.348c0,3.008,4.298,2.998,4.298,0
			v-4.348H402.582z"/>
		<path fill="#4C4C4C" d="M402.982,238.333h-0.711l-2.418-2.648h-1.909v2.648h-0.54v-6.996c1.03,0,2.049,0,3.079,0
			c1.519,0,2.289,1.089,2.299,2.179c0.01,1.14-0.739,2.139-2.269,2.139L402.982,238.333z M397.945,235.175h2.479
			c1.219,0,1.76-0.689,1.77-1.669c0.01-0.82-0.551-1.669-1.709-1.669h-2.539V235.175z"/>
		<path fill="#4C4C4C" d="M398.1,246.565h4.097v0.49H398.1v2.759h4.417v0.521h-4.948v-6.996h4.827v0.51H398.1V246.565z
			 M400.139,242.558l0.919-1.229v-0.011h-0.649l-0.75,1.199v0.04H400.139z"/>
	</g>
	<g>
		<path fill="#4C4C4C" d="M229.139,300.422c0.04,1.778-1.099,3.578-3.548,3.578c-0.79,0-1.579,0-2.369,0v-6.996
			c0.79,0,1.579,0,2.369,0C227.96,297.004,229.099,298.702,229.139,300.422z M223.762,297.514v5.967h1.829
			c2.079,0,3.038-1.56,3.008-3.059c-0.03-1.459-0.99-2.908-3.008-2.908H223.762L223.762,297.514z"/>
		<path fill="#4C4C4C" d="M233.482,304v-6.996h0.53V304H233.482z"/>
		<path fill="#4C4C4C" d="M243.29,298.353c-0.51-0.818-1.33-0.938-2.119-0.949c-0.819,0-2.119,0.3-2.119,1.419
			c0,0.891,0.959,1.101,2.139,1.319c1.35,0.26,2.749,0.5,2.749,2.008c-0.01,1.58-1.599,1.96-2.769,1.96
			c-1.089,0-2.329-0.45-2.868-1.52l0.479-0.239c0.43,0.849,1.529,1.269,2.389,1.269c0.86,0,2.229-0.238,2.229-1.479
			c0.01-1.049-1.149-1.279-2.299-1.499c-1.279-0.25-2.588-0.509-2.588-1.799c-0.03-1.479,1.509-1.939,2.658-1.939
			c1,0,1.869,0.16,2.559,1.189L243.29,298.353z"/>
		<path fill="#4C4C4C" d="M248.622,300.331h4.028v0.511h-4.028v3.168h-0.54v-7.006h4.708v0.54h-4.168V300.331z"/>
		<path fill="#4C4C4C" d="M263.948,300.512c-0.01,1.84-1.179,3.607-3.528,3.607s-3.528-1.778-3.528-3.628
			c0-1.879,1.169-3.598,3.528-3.598S263.958,298.622,263.948,300.512z M257.422,300.502c0.01,1.578,1.009,3.117,2.998,3.117
			c1.999,0,3.008-1.539,3.008-3.117c0-1.619-0.999-3.108-3.008-3.108S257.412,298.853,257.422,300.502z"/>
		<path fill="#4C4C4C" d="M268.472,297.004l4.708,5.786v-5.786h0.53V304h-0.21l-4.717-5.777V304h-0.54v-6.996H268.472z"/>
		<path fill="#4C4C4C" d="M284.049,303.031c-0.7,0.699-1.629,1.049-2.549,1.049c-2.358,0-3.588-1.648-3.598-3.537
			c-0.02-1.869,1.199-3.618,3.598-3.618c0.92,0,1.849,0.35,2.549,1.049l-0.37,0.32c-0.6-0.601-1.39-0.89-2.179-0.89
			c-2.039,0-3.088,1.439-3.078,3.118c0.02,1.639,1.06,3.058,3.078,3.058c0.79,0,1.589-0.3,2.189-0.889L284.049,303.031z"/>
		<path fill="#4C4C4C" d="M290.201,297.494h-2.528v-0.48h5.597v0.48h-2.528V304h-0.54L290.201,297.494L290.201,297.494z"/>
		<path fill="#4C4C4C" d="M297.302,304v-6.996h0.53V304H297.302z"/>
		<path fill="#4C4C4C" d="M309.338,300.512c-0.01,1.84-1.179,3.607-3.528,3.607s-3.528-1.778-3.528-3.628
			c0-1.879,1.169-3.598,3.528-3.598S309.348,298.622,309.338,300.512z M302.812,300.502c0.01,1.578,1.009,3.117,2.998,3.117
			c1.999,0,3.009-1.539,3.009-3.117c0-1.619-1-3.108-3.009-3.108C303.801,297.394,302.802,298.853,302.812,300.502z"/>
		<path fill="#4C4C4C" d="M313.862,297.004l4.708,5.786v-5.786h0.53V304h-0.21l-4.717-5.777V304h-0.54v-6.996H313.862z"/>
		<path fill="#4C4C4C" d="M323.902,297.004l4.708,5.786v-5.786h0.53V304h-0.21l-4.717-5.777V304h-0.54v-6.996H323.902z"/>
		<path fill="#4C4C4C" d="M334.232,300.232h4.098v0.49h-4.098v2.759h4.417V304h-4.947v-6.996h4.827v0.51h-4.297V300.232z"/>
		<path fill="#4C4C4C" d="M343.382,297.004v6.485h3.938V304h-4.478v-6.996H343.382z"/>
	</g>
	<g>
		<path fill="#4C4C4C" d="M402.961,354.756c0.041,1.778-1.1,3.578-3.547,3.578c-0.79,0-1.579,0-2.369,0v-6.996
			c0.79,0,1.579,0,2.369,0C401.782,351.338,402.922,353.036,402.961,354.756z M397.584,351.848v5.967h1.829
			c2.079,0,3.038-1.56,3.008-3.059c-0.03-1.459-0.989-2.908-3.008-2.908H397.584L397.584,351.848z"/>
		<path fill="#4C4C4C" d="M398.1,366.565h4.098v0.489H398.1v2.76h4.417v0.521h-4.948v-6.996h4.827v0.51H398.1V366.565z"/>
		<path fill="#4C4C4C" d="M402.012,376.687c-0.51-0.819-1.328-0.939-2.119-0.949c-0.819,0-2.119,0.3-2.119,1.419
			c0,0.891,0.959,1.101,2.139,1.319c1.351,0.26,2.749,0.5,2.749,2.009c-0.01,1.579-1.6,1.959-2.769,1.959
			c-1.089,0-2.329-0.449-2.868-1.52l0.479-0.239c0.43,0.85,1.529,1.269,2.389,1.269s2.229-0.238,2.229-1.479
			c0.01-1.049-1.149-1.279-2.299-1.499c-1.279-0.25-2.588-0.51-2.588-1.8c-0.03-1.479,1.509-1.938,2.658-1.938
			c1,0,1.869,0.16,2.558,1.189L402.012,376.687z"/>
		<path fill="#4C4C4C" d="M399.588,387.826h-2.528v-0.479h5.596v0.479h-2.528v6.508h-0.54V387.826z"/>
		<path fill="#4C4C4C" d="M402.98,406.334h-0.709l-2.418-2.648h-1.909v2.648h-0.54v-6.996c1.03,0,2.049,0,3.079,0
			c1.519,0,2.289,1.089,2.298,2.178c0.01,1.14-0.739,2.139-2.27,2.139L402.98,406.334z M397.944,403.176h2.479
			c1.22,0,1.759-0.689,1.769-1.67c0.011-0.819-0.549-1.669-1.708-1.669h-2.539L397.944,403.176L397.944,403.176z"/>
		<path fill="#4C4C4C" d="M402.582,411.338v4.348c0,3.657-5.357,3.668-5.357,0v-4.348h0.53v4.348c0,3.008,4.297,2.998,4.297,0
			v-4.348H402.582z"/>
		<path fill="#4C4C4C" d="M403.052,429.364c-0.7,0.699-1.629,1.05-2.549,1.05c-2.358,0-3.588-1.649-3.598-3.538
			c-0.021-1.869,1.199-3.617,3.598-3.617c0.92,0,1.849,0.35,2.549,1.049l-0.37,0.32c-0.6-0.601-1.389-0.891-2.179-0.891
			c-2.039,0-3.088,1.438-3.078,3.118c0.02,1.639,1.06,3.059,3.078,3.059c0.79,0,1.589-0.301,2.188-0.89L403.052,429.364z"/>
		<path fill="#4C4C4C" d="M399.588,435.827h-2.528v-0.479h5.596v0.479h-2.528v6.507h-0.54V435.827z"/>
		<path fill="#4C4C4C" d="M402.582,447.338v4.348c0,3.658-5.357,3.668-5.357,0v-4.348h0.53v4.348c0,3.008,4.297,2.998,4.297,0
			v-4.348H402.582z"/>
		<path fill="#4C4C4C" d="M402.98,466.334h-0.709l-2.418-2.648h-1.909v2.648h-0.54v-6.996c1.03,0,2.049,0,3.079,0
			c1.519,0,2.289,1.089,2.298,2.179c0.01,1.14-0.739,2.139-2.27,2.139L402.98,466.334z M397.944,463.176h2.479
			c1.22,0,1.759-0.689,1.769-1.669c0.011-0.819-0.549-1.669-1.708-1.669h-2.539L397.944,463.176L397.944,463.176z"/>
		<path fill="#4C4C4C" d="M398.1,474.566h4.098v0.489H398.1v2.759h4.417v0.521h-4.948v-6.996h4.827v0.51H398.1V474.566z
			 M400.138,470.559l0.92-1.229v-0.01h-0.65l-0.75,1.199v0.04H400.138z"/>
	</g>
	<g>
		<path fill="#FFFFFF" d="M436.521,237.663l1.597-1.245c1.338,1.787,2.388,2.681,3.148,2.681c0.293,0,0.581-0.103,0.864-0.308
			c0.449-0.929,1.079-1.393,1.891-1.393c0.586,0,1.071,0.244,1.457,0.732c0.387,0.488,0.578,1.094,0.578,1.815
			c0,0.675-0.257,1.263-0.769,1.766c-0.514,0.503-1.106,0.755-1.78,0.755c-1.24,0-2.37-0.291-3.392-0.872
			C439.098,241.015,437.898,239.704,436.521,237.663z M455.784,237.033c0.731,0,1.354,0.256,1.868,0.77
			c0.512,0.512,0.769,1.135,0.769,1.867c0,0.731-0.257,1.354-0.769,1.867c-0.515,0.514-1.137,0.77-1.868,0.77
			c-0.732,0-1.357-0.256-1.875-0.77c-0.519-0.513-0.776-1.136-0.776-1.867c0-0.732,0.259-1.355,0.776-1.867
			C454.427,237.289,455.052,237.033,455.784,237.033z"/>
		<path fill="#FFFFFF" d="M435.335,256.888h2.476c2.148,1.934,6.261,2.9,12.334,2.9c5.107,0,9.015-0.968,11.72-2.9h2.021
			c-1.006,2.002-2.863,3.688-5.574,5.054c-2.709,1.367-5.422,2.052-8.137,2.052c-3.174,0-6.05-0.607-8.628-1.824
			C438.968,260.953,436.896,259.192,435.335,256.888z"/>
	</g>
	<g>
		<path fill="#FFFFFF" d="M343.919,237.008c0.732,0,1.355,0.256,1.868,0.769c0.513,0.514,0.769,1.136,0.769,1.868
			c0,0.733-0.256,1.355-0.769,1.868c-0.513,0.513-1.135,0.769-1.868,0.769s-1.357-0.256-1.875-0.769s-0.776-1.135-0.776-1.868
			c0-0.732,0.259-1.354,0.776-1.868C342.561,237.264,343.187,237.008,343.919,237.008z M355.784,237.008
			c0.732,0,1.355,0.256,1.868,0.769c0.513,0.514,0.769,1.136,0.769,1.868c0,0.733-0.256,1.355-0.769,1.868
			c-0.513,0.513-1.135,0.769-1.868,0.769c-0.733,0-1.357-0.256-1.875-0.769c-0.518-0.513-0.776-1.135-0.776-1.868
			c0-0.732,0.259-1.354,0.776-1.868C354.426,237.264,355.052,237.008,355.784,237.008z"/>
		<path fill="#FFFFFF" d="M347.896,260.481H340v-3.809h21.445c0.107,2.539,0.161,4.022,0.161,4.453c0,3.389-0.52,5.867-1.56,7.434
			c-1.04,1.567-2.664,2.352-4.871,2.352c-4.922,0-7.383-2.9-7.383-8.701C347.793,261.78,347.827,261.204,347.896,260.481z
			 M358.149,260.481h-6.87c-0.068,0.646-0.103,1.152-0.103,1.523c0,1.738,0.291,3.008,0.872,3.809s1.526,1.201,2.834,1.201
			c2.227,0,3.34-1.792,3.34-5.376C358.223,261.238,358.198,260.852,358.149,260.481z"/>
	</g>
	<g>
		<path fill="#FFFFFF" d="M343.919,337.366c0.732,0,1.355,0.256,1.868,0.771c0.513,0.512,0.769,1.135,0.769,1.867
			c0,0.731-0.256,1.354-0.769,1.866c-0.513,0.515-1.135,0.771-1.868,0.771s-1.357-0.256-1.875-0.771
			c-0.518-0.512-0.776-1.135-0.776-1.866c0-0.732,0.259-1.355,0.776-1.867C342.562,337.622,343.187,337.366,343.919,337.366z
			 M355.784,337.366c0.732,0,1.355,0.256,1.868,0.771c0.513,0.512,0.769,1.135,0.769,1.867c0,0.731-0.256,1.354-0.769,1.866
			c-0.513,0.515-1.135,0.771-1.868,0.771c-0.733,0-1.357-0.256-1.875-0.771c-0.518-0.512-0.776-1.135-0.776-1.866
			c0-0.732,0.259-1.355,0.776-1.867C354.427,337.622,355.052,337.366,355.784,337.366z"/>
		<path fill="#FFFFFF" d="M363.885,364.325h-2.021c-2.705-1.934-6.611-2.899-11.719-2.899c-6.074,0-10.186,0.967-12.334,2.899
			h-2.476c1.563-2.305,3.633-4.063,6.211-5.28c2.578-1.216,5.454-1.823,8.628-1.823c2.715,0,5.427,0.684,8.137,2.051
			S362.879,362.323,363.885,364.325z"/>
	</g>
	<g>
		<path fill="#FFFFFF" d="M443.919,337.023c0.732,0,1.354,0.256,1.868,0.771c0.512,0.512,0.769,1.135,0.769,1.866
			c0,0.732-0.257,1.355-0.769,1.867c-0.514,0.515-1.136,0.771-1.868,0.771c-0.731,0-1.356-0.257-1.875-0.771
			c-0.518-0.512-0.776-1.135-0.776-1.867c0-0.731,0.26-1.354,0.776-1.866C442.563,337.279,443.188,337.023,443.919,337.023z
			 M455.784,337.023c0.731,0,1.354,0.256,1.868,0.771c0.512,0.512,0.769,1.135,0.769,1.866c0,0.732-0.257,1.355-0.769,1.867
			c-0.515,0.515-1.137,0.771-1.868,0.771c-0.732,0-1.357-0.257-1.875-0.771c-0.519-0.512-0.776-1.135-0.776-1.867
			c0-0.731,0.259-1.354,0.776-1.866C454.427,337.279,455.052,337.023,455.784,337.023z"/>
		<path fill="#FFFFFF" d="M440,358.021v-3.296l21.548,8.101v3.268L440,358.021z"/>
	</g>
	<path id="curseur"
	
				fill="#262626" d="M425.526,298.029h-4.353c-1.271-9.56-8.899-17.1-18.507-18.219v-4.642h-4.948v4.642
		c-9.607,1.119-17.234,8.659-18.506,18.219h-4.354v4.947h4.253c0.989,9.883,8.771,17.752,18.606,18.898v3.961h4.948v-3.961
		c9.836-1.146,17.618-9.016,18.607-18.898h4.252V298.029z M416.464,298.029h-9.896c-0.693-1.787-2.114-3.208-3.901-3.901v-9.607
		C409.696,285.577,415.265,291.047,416.464,298.029z M397.719,284.52v9.607c-1.787,0.694-3.207,2.114-3.9,3.901h-9.896
		C385.122,291.048,390.69,285.578,397.719,284.52z M383.819,302.976h9.999c0.693,1.787,2.113,3.207,3.9,3.901v10.286
		C390.465,316.071,384.764,310.278,383.819,302.976z M402.667,317.163v-10.286c1.787-0.693,3.208-2.114,3.901-3.901h9.999
		C415.623,310.279,409.922,316.072,402.667,317.163z" 
		
		transform="matrix(1 0 0 1 0 0)"
		
      onmousedown="selectElement(evt)"/>
	<g>
		<path fill="#FFFFFF" d="M391.514,291.189c-0.524-0.843-1.368-0.967-2.18-0.977c-0.843,0-2.18,0.309-2.18,1.46
			c0,0.915,0.987,1.131,2.201,1.356c1.389,0.268,2.828,0.515,2.828,2.067c-0.01,1.625-1.646,2.016-2.849,2.016
			c-1.121,0-2.396-0.463-2.952-1.563l0.494-0.247c0.442,0.874,1.574,1.306,2.458,1.306s2.293-0.247,2.293-1.521
			c0.01-1.08-1.183-1.316-2.365-1.542c-1.316-0.257-2.664-0.524-2.664-1.852c-0.031-1.521,1.553-1.995,2.736-1.995
			c1.028,0,1.923,0.165,2.633,1.225L391.514,291.189z"/>
		<path fill="#FFFFFF" d="M399.084,297l-0.792-1.77h-4.299l-0.782,1.77h-0.596l3.229-7.199h0.607L399.68,297H399.084z
			 M398.076,294.716l-1.934-4.381l-1.934,4.381H398.076z"/>
		<path fill="#FFFFFF" d="M400.854,289.8l4.845,5.955V289.8h0.545v7.2h-0.216l-4.854-5.944V297h-0.555v-7.2H400.854z"/>
		<path fill="#FFFFFF" d="M412.629,291.189c-0.523-0.843-1.367-0.967-2.18-0.977c-0.844,0-2.182,0.309-2.182,1.46
			c0,0.915,0.987,1.131,2.201,1.356c1.389,0.268,2.828,0.515,2.828,2.067c-0.011,1.625-1.646,2.016-2.849,2.016
			c-1.121,0-2.396-0.463-2.952-1.563l0.494-0.247c0.441,0.874,1.572,1.306,2.458,1.306c0.884,0,2.293-0.247,2.293-1.521
			c0.011-1.08-1.183-1.316-2.365-1.542c-1.315-0.257-2.664-0.524-2.664-1.852c-0.03-1.521,1.554-1.995,2.736-1.995
			c1.028,0,1.923,0.165,2.633,1.225L412.629,291.189z"/>
		<path fill="#FFFFFF" d="M395.458,314l-0.792-1.77h-4.299l-0.781,1.77h-0.597l3.229-7.199h0.607l3.229,7.199H395.458z
			 M394.451,311.717l-1.934-4.381l-1.934,4.381H394.451z"/>
		<path fill="#FFFFFF" d="M401.773,306.801l-2.962,7.22h-0.596l-2.962-7.22h0.596l2.664,6.582l2.663-6.582H401.773z"/>
		<path fill="#FFFFFF" d="M402.742,314v-7.199h0.545V314H402.742z"/>
		<path fill="#FFFFFF" d="M409.745,308.189c-0.524-0.844-1.367-0.967-2.181-0.978c-0.844,0-2.181,0.309-2.181,1.461
			c0,0.915,0.987,1.131,2.201,1.356c1.388,0.269,2.828,0.516,2.828,2.067c-0.011,1.625-1.646,2.016-2.849,2.016
			c-1.121,0-2.396-0.463-2.953-1.563l0.494-0.247c0.441,0.875,1.573,1.307,2.459,1.307c0.884,0,2.293-0.247,2.293-1.521
			c0.011-1.08-1.184-1.316-2.365-1.542c-1.316-0.259-2.664-0.525-2.664-1.853c-0.03-1.521,1.553-1.995,2.736-1.995
			c1.027,0,1.922,0.164,2.633,1.225L409.745,308.189z"/>
	</g>
	<g>
		<path fill="#FFFFFF" d="M621.709,152.987c0,0.557-0.268,1.091-0.936,1.39c0.844,0.257,1.151,1.15,1.151,1.604
			c0,1.604-1.203,2.118-2.694,2.118c-1.142,0-2.272,0-3.414,0v-7.199c1.131,0,2.272,0,3.414,0
			C620.65,150.899,621.709,151.537,621.709,152.987z M617.153,153.789h2.077c0.854,0,1.131-0.359,1.131-0.771
			c0-0.329-0.268-0.885-1.131-0.885h-2.077V153.789z M617.153,156.834h2.077c0.556,0,1.348-0.187,1.348-0.864
			c0-0.647-0.792-0.987-1.348-0.987h-2.077V156.834z"/>
		<path fill="#FFFFFF" d="M629.27,158.099h-1.614l-2.099-2.406h-1.307v2.406h-1.357v-7.209c1.143,0,2.283,0.01,3.426,0.01
			c1.695,0.012,2.592,1.143,2.592,2.387c0,0.986-0.452,1.984-1.82,2.263l2.182,2.458v0.092H629.27z M624.25,152.164v2.304h2.067
			c0.863,0,1.232-0.575,1.232-1.151s-0.38-1.151-1.232-1.151L624.25,152.164L624.25,152.164z"/>
		<path fill="#FFFFFF" d="M629.836,158.099V150.9h1.347v7.199H629.836z"/>
		<path fill="#FFFFFF" d="M633.816,150.899v5.944h3.701v1.255h-5.06v-7.199H633.816z"/>
		<path fill="#FFFFFF" d="M639.833,150.899v5.944h3.702v1.255h-5.061v-7.199H639.833z"/>
		<path fill="#FFFFFF" d="M649.604,156.74h-3.764l-0.617,1.357h-1.471l3.229-7.199h1.48l3.229,7.199h-1.48L649.604,156.74z
			 M647.723,152.411l-1.338,3.064h2.674L647.723,152.411z"/>
		<path fill="#FFFFFF" d="M657.041,150.89h1.357v7.209h-0.845v0.011l-3.784-4.864v4.854h-1.357V150.9h1.101l3.528,4.464V150.89
			L657.041,150.89z"/>
		<path fill="#FFFFFF" d="M661.504,152.134h-2.282V150.9c2.077,0,3.836,0,5.925,0v1.234h-2.283v5.965h-1.358L661.504,152.134
			L661.504,152.134z"/>
	</g>
	<g>
		<path fill="#FFFFFF" d="M626.629,233.418v-7.188h5.173v1.307h-3.814v1.965h3.608v1.254h-3.608v2.664L626.629,233.418
			L626.629,233.418z"/>
		<path fill="#FFFFFF" d="M637.305,232.061h-3.764l-0.617,1.357h-1.471l3.229-7.199h1.481l3.229,7.199h-1.479L637.305,232.061z
			 M635.424,227.73l-1.338,3.065h2.674L635.424,227.73z"/>
		<path fill="#FFFFFF" d="M644.196,226.209h1.356v7.209h-0.843v0.011l-3.785-4.865v4.854h-1.356v-7.199h1.1l3.528,4.464V226.209z"/>
		<path fill="#FFFFFF" d="M648.115,227.453h-2.283v-1.234c2.078,0,3.836,0,5.924,0v1.234h-2.283v5.965h-1.356L648.115,227.453
			L648.115,227.453z"/>
		<path fill="#FFFFFF" d="M657.146,232.061h-3.766l-0.616,1.357h-1.471l3.229-7.199h1.479l3.229,7.199h-1.481L657.146,232.061z
			 M655.264,227.73l-1.337,3.065h2.674L655.264,227.73z"/>
		<path fill="#FFFFFF" d="M663.637,227.957c-0.247-0.411-0.926-0.804-1.707-0.804c-1.008,0-1.491,0.423-1.491,0.957
			c0,0.627,0.739,0.803,1.604,0.905c1.502,0.186,2.9,0.575,2.9,2.293c0,1.604-1.419,2.294-3.023,2.294
			c-1.471,0-2.603-0.453-3.137-1.77l1.131-0.586c0.319,0.792,1.151,1.142,2.026,1.142c0.854,0,1.655-0.299,1.655-1.08
			c0-0.679-0.71-0.956-1.666-1.06c-1.471-0.175-2.829-0.565-2.829-2.181c0-1.48,1.461-2.088,2.787-2.099
			c1.121,0,2.283,0.319,2.829,1.43L663.637,227.957z"/>
		<path fill="#FFFFFF" d="M667.309,227.453h-2.282v-1.234c2.077,0,3.836,0,5.924,0v1.234h-2.283v5.965h-1.357L667.309,227.453
			L667.309,227.453z"/>
		<path fill="#FFFFFF" d="M671.238,233.418v-7.199h1.347v7.199H671.238z"/>
		<path fill="#FFFFFF" d="M680.371,229.726c0.01,0.823-0.206,1.677-0.669,2.345l0.854,0.845l-0.956,0.956l-0.875-0.863
			c-0.545,0.35-1.233,0.534-2.046,0.534c-2.562,0-3.691-1.861-3.702-3.732c-0.011-1.883,1.172-3.765,3.702-3.765
			S680.34,227.875,680.371,229.726z M674.313,229.839c0.021,1.183,0.804,2.448,2.366,2.448c1.624,0,2.406-1.368,2.354-2.604
			c-0.051-1.162-0.658-2.417-2.354-2.417C674.981,227.268,674.293,228.625,674.313,229.839z"/>
		<path fill="#FFFFFF" d="M687.129,226.229v4.124c0,2.129-1.307,3.219-3.116,3.219c-1.728,0-3.197-1.049-3.197-3.219v-4.124h1.347
			v4.124c0,1.296,0.741,1.984,1.862,1.984c1.119,0,1.758-0.751,1.758-1.984v-4.124H687.129z"/>
		<path fill="#FFFFFF" d="M693.279,233.418h-5.39c0-2.396,0-4.804,0-7.199h5.39v1.316h-4.041v1.655h3.896v1.266h-3.896v1.625h4.041
			V233.418z"/>
	</g>
	<g>
		<path fill="#FFFFFF" d="M559.514,250v-7.199h1.348V250H559.514z"/>
		<path fill="#FFFFFF" d="M566.354,242.791h1.357V250h-0.844v0.011l-3.785-4.865V250h-1.357v-7.199h1.102l3.528,4.464
			L566.354,242.791L566.354,242.791z"/>
		<path fill="#FFFFFF" d="M570.303,244.035h-2.283v-1.234c2.077,0,3.836,0,5.925,0v1.234h-2.283V250h-1.357L570.303,244.035
			L570.303,244.035z"/>
		<path fill="#FFFFFF" d="M579.621,250h-5.389c0-2.396,0-4.804,0-7.199h5.389v1.316h-4.042v1.655h3.896v1.266h-3.896v1.625h4.042
			V250z M578.623,240.61h-1.48l-0.762,1.398v0.062h1.111l1.131-1.407V240.61z"/>
		<path fill="#FFFFFF" d="M586.492,250h-1.615l-2.098-2.406h-1.308V250h-1.356v-7.209c1.142,0,2.283,0.01,3.425,0.01
			c1.696,0.011,2.592,1.142,2.592,2.386c0,0.987-0.452,1.985-1.82,2.264l2.182,2.458L586.492,250L586.492,250z M581.473,244.065
			v2.305h2.067c0.864,0,1.233-0.575,1.233-1.151s-0.381-1.152-1.233-1.152L581.473,244.065L581.473,244.065z"/>
		<path fill="#FFFFFF" d="M591.902,250h-5.39c0-2.396,0-4.804,0-7.199h5.39v1.316h-4.042v1.655h3.896v1.266h-3.896v1.625h4.042V250z
			"/>
		<path fill="#FFFFFF" d="M597.096,244.539c-0.246-0.411-0.926-0.804-1.707-0.804c-1.008,0-1.49,0.423-1.49,0.957
			c0,0.627,0.739,0.803,1.604,0.905c1.502,0.186,2.9,0.575,2.9,2.293c0,1.604-1.42,2.294-3.023,2.294
			c-1.471,0-2.603-0.453-3.137-1.77l1.131-0.586c0.318,0.792,1.151,1.142,2.025,1.142c0.854,0,1.655-0.299,1.655-1.08
			c0-0.679-0.709-0.956-1.666-1.06c-1.471-0.176-2.828-0.565-2.828-2.181c0-1.48,1.46-2.088,2.787-2.099
			c1.121,0,2.283,0.319,2.828,1.43L597.096,244.539z"/>
		<path fill="#FFFFFF" d="M603.381,244.539c-0.247-0.411-0.926-0.804-1.707-0.804c-1.008,0-1.492,0.423-1.492,0.957
			c0,0.627,0.74,0.803,1.604,0.905c1.501,0.186,2.899,0.575,2.899,2.293c0,1.604-1.419,2.294-3.022,2.294
			c-1.471,0-2.604-0.453-3.137-1.77l1.131-0.586c0.318,0.792,1.15,1.142,2.025,1.142c0.854,0,1.656-0.299,1.656-1.08
			c0-0.679-0.711-0.956-1.666-1.06c-1.471-0.176-2.828-0.565-2.828-2.181c0-1.48,1.459-2.088,2.786-2.099
			c1.121,0,2.283,0.319,2.829,1.43L603.381,244.539z"/>
		<path fill="#FFFFFF" d="M610.334,248.643h-3.765L605.953,250h-1.471l3.229-7.199h1.48l3.229,7.199h-1.481L610.334,248.643z
			 M608.451,244.313l-1.336,3.065h2.674L608.451,244.313z"/>
		<path fill="#FFFFFF" d="M617.256,242.791h1.357V250h-0.844v0.011l-3.783-4.865V250h-1.357v-7.199h1.1l3.527,4.464V242.791
			L617.256,242.791z"/>
		<path fill="#FFFFFF" d="M621.205,244.035h-2.283v-1.234c2.078,0,3.837,0,5.924,0v1.234h-2.281V250h-1.358L621.205,244.035
			L621.205,244.035z"/>
	</g>
	<g>
		<path fill="#FFFFFF" d="M529.953,149.222c0,0.556-0.269,1.09-0.937,1.389c0.844,0.258,1.151,1.151,1.151,1.604
			c0,1.604-1.203,2.118-2.694,2.118c-1.142,0-2.272,0-3.413,0v-7.199c1.131,0,2.271,0,3.413,0
			C528.894,147.134,529.953,147.772,529.953,149.222z M525.396,150.024h2.077c0.854,0,1.132-0.358,1.132-0.771
			c0-0.329-0.269-0.885-1.132-0.885h-2.077V150.024z M525.396,153.069h2.077c0.556,0,1.349-0.186,1.349-0.863
			c0-0.647-0.793-0.987-1.349-0.987h-2.077V153.069z"/>
		<path fill="#FFFFFF" d="M531.137,154.333v-7.199h1.348v7.199H531.137z"/>
		<path fill="#FFFFFF" d="M539.128,154.333h-5.39c0-2.396,0-4.804,0-7.199h5.39v1.315h-4.042v1.656h3.898v1.266h-3.898v1.625h4.042
			V154.333z"/>
		<path fill="#FFFFFF" d="M545.124,147.125h1.357v7.209h-0.844v0.011l-3.784-4.865v4.854h-1.357v-7.199h1.1l3.528,4.464V147.125z"/>
		<path fill="#FFFFFF" d="M549.805,154.333v-7.188h5.172v1.307h-3.813v1.965h3.608v1.254h-3.608v2.664L549.805,154.333
			L549.805,154.333z"/>
		<path fill="#FFFFFF" d="M561.025,152.976h-3.765l-0.616,1.357h-1.472l3.229-7.199h1.48l3.229,7.199h-1.48L561.025,152.976z
			 M559.144,148.646l-1.337,3.065h2.675L559.144,148.646z"/>
		<path fill="#FFFFFF" d="M563.629,154.333v-7.199h1.347v7.199H563.629z"/>
		<path fill="#FFFFFF" d="M568.441,148.369h-2.283v-1.234c2.078,0,3.837,0,5.924,0v1.234H569.8v5.965h-1.357L568.441,148.369
			L568.441,148.369z"/>
	</g>
	<g>
		<path fill="#FFFFFF" d="M448.678,186h-5.39c0-2.396,0-4.804,0-7.199h5.39v1.316h-4.043v1.655h3.898v1.266h-3.898v1.625h4.043V186z
			 M447.68,176.61H446.2l-0.763,1.398v0.062h1.111l1.131-1.407V176.61z"/>
		<path fill="#FFFFFF" d="M451.033,178.801v5.944h3.702V186h-5.061v-7.199H451.033z"/>
		<path fill="#FFFFFF" d="M461.061,186h-5.389c0-2.396,0-4.804,0-7.199h5.389v1.316h-4.041v1.655h3.897v1.266h-3.897v1.625h4.041
			V186z M460.063,176.61h-1.48l-0.761,1.398v0.062h1.109l1.132-1.407V176.61z"/>
		<path fill="#FFFFFF" d="M467.407,180.56c-0.483-0.463-1.204-0.72-1.831-0.72c-1.543,0-2.479,1.172-2.479,2.653
			c0,1.183,0.689,2.405,2.479,2.405c0.565,0,1.06-0.123,1.625-0.576v-1.273h-1.841v-1.214h3.085v3.034
			c-0.709,0.813-1.604,1.295-2.869,1.295c-2.705,0-3.805-1.778-3.805-3.671c0-2.026,1.265-3.897,3.805-3.897
			c0.967,0,1.934,0.37,2.674,1.1L467.407,180.56z"/>
		<path fill="#FFFFFF" d="M474.668,184.643h-3.764L470.287,186h-1.471l3.229-7.199h1.481l3.229,7.199h-1.479L474.668,184.643z
			 M472.787,180.313l-1.338,3.065h2.674L472.787,180.313z"/>
		<path fill="#FFFFFF" d="M482.105,178.791h1.356V186h-0.844v0.011l-3.785-4.865V186h-1.357v-7.199h1.102l3.528,4.464V178.791
			L482.105,178.791z"/>
		<path fill="#FFFFFF" d="M486.568,180.035h-2.282v-1.234c2.077,0,3.836,0,5.924,0v1.234h-2.283V186h-1.357L486.568,180.035
			L486.568,180.035z"/>
	</g>
	<g>
		<path fill="#FFFFFF" d="M498.627,242.281v-7.198h1.347v7.198H498.627z"/>
		<path fill="#FFFFFF" d="M505.98,235.073h1.356v7.209h-0.844v0.012l-3.784-4.865v4.854h-1.357v-7.198h1.102l3.527,4.464V235.073
			L505.98,235.073z"/>
		<path fill="#FFFFFF" d="M513.139,236.821c-0.246-0.41-0.926-0.803-1.707-0.803c-1.008,0-1.49,0.422-1.49,0.957
			c0,0.627,0.739,0.802,1.604,0.905c1.502,0.185,2.9,0.575,2.9,2.293c0,1.604-1.42,2.294-3.023,2.294
			c-1.471,0-2.603-0.453-3.137-1.771l1.131-0.586c0.318,0.792,1.151,1.143,2.025,1.143c0.854,0,1.655-0.299,1.655-1.08
			c0-0.679-0.709-0.956-1.666-1.061c-1.471-0.175-2.827-0.564-2.827-2.18c0-1.48,1.459-2.088,2.786-2.099
			c1.121,0,2.283,0.318,2.828,1.43L513.139,236.821z"/>
		<path fill="#FFFFFF" d="M518.889,240.164h-2.037v2.117h-1.356v-7.198c1.132,0,2.264-0.011,3.395-0.011
			C522.406,235.073,522.416,240.164,518.889,240.164z M516.852,238.918h2.037c1.738,0,1.729-2.55,0-2.55h-2.037V238.918z"/>
		<path fill="#FFFFFF" d="M522.458,242.281v-7.198h1.347v7.198H522.458z"/>
		<path fill="#FFFFFF" d="M531.468,242.281h-1.614l-2.099-2.405h-1.306v2.405h-1.357v-7.209c1.142,0,2.283,0.011,3.424,0.011
			c1.697,0.011,2.593,1.142,2.593,2.386c0,0.987-0.452,1.985-1.82,2.263l2.181,2.458L531.468,242.281L531.468,242.281z
			 M526.449,236.347v2.304h2.065c0.864,0,1.234-0.574,1.234-1.15s-0.381-1.152-1.234-1.152L526.449,236.347L526.449,236.347z"/>
		<path fill="#FFFFFF" d="M537.393,242.281h-5.389c0-2.396,0-4.803,0-7.198h5.389v1.315h-4.042v1.656h3.897v1.265h-3.897v1.625
			h4.042V242.281z M536.395,232.892h-1.479l-0.762,1.398v0.062h1.11l1.131-1.408V232.892z"/>
	</g>
	<g>
		<path fill="#FFFFFF" d="M443.564,45.854v-7.199h1.348v7.199H443.564z"/>
		<path fill="#FFFFFF" d="M450.918,38.644h1.357v7.209h-0.844v0.01l-3.783-4.864v4.854h-1.357v-7.199h1.1l3.527,4.464V38.644
			L450.918,38.644z"/>
		<path fill="#FFFFFF" d="M459.867,44.948c-0.741,0.73-1.697,1.07-2.736,1.07c-2.674,0-3.805-1.841-3.814-3.713
			c-0.012-1.882,1.214-3.795,3.814-3.795c0.978,0,1.902,0.371,2.644,1.101l-0.904,0.874c-0.473-0.462-1.111-0.679-1.738-0.679
			c-1.737,0-2.487,1.296-2.479,2.499c0.01,1.193,0.698,2.438,2.479,2.438c0.627,0,1.337-0.258,1.812-0.73L459.867,44.948z"/>
		<path fill="#FFFFFF" d="M467.016,45.854H465.4l-2.099-2.407h-1.307v2.407h-1.357v-7.209c1.143,0,2.283,0.01,3.425,0.01
			c1.696,0.011,2.593,1.143,2.593,2.387c0,0.986-0.452,1.984-1.82,2.262l2.181,2.458V45.854z M461.996,39.919v2.304h2.066
			c0.864,0,1.233-0.576,1.233-1.152c0-0.575-0.38-1.151-1.233-1.151H461.996z"/>
		<path fill="#FFFFFF" d="M474.646,42.295c-0.021,1.861-1.162,3.723-3.691,3.723c-2.53,0-3.703-1.82-3.703-3.713
			c0-1.892,1.214-3.795,3.703-3.795C473.434,38.51,474.668,40.413,474.646,42.295z M468.59,42.326
			c0.03,1.183,0.668,2.446,2.365,2.446s2.334-1.274,2.354-2.458c0.021-1.213-0.657-2.57-2.354-2.57S468.559,41.112,468.59,42.326z"
			/>
		<path fill="#FFFFFF" d="M478.145,41.626l1.913-2.973h1.637v0.063l-2.869,4.165v2.972h-1.358v-2.972l-2.767-4.165v-0.063h1.614
			L478.145,41.626z"/>
		<path fill="#FFFFFF" d="M487.401,44.496h-3.766l-0.616,1.356h-1.471l3.229-7.199h1.479l3.229,7.199h-1.481L487.401,44.496z
			 M485.52,40.166l-1.337,3.064h2.675L485.52,40.166z"/>
		<path fill="#FFFFFF" d="M495.846,40.742c0,0.555-0.268,1.09-0.936,1.388c0.844,0.257,1.152,1.151,1.152,1.604
			c0,1.604-1.203,2.119-2.695,2.119c-1.142,0-2.272,0-3.414,0v-7.199c1.131,0,2.272,0,3.414,0
			C494.787,38.654,495.846,39.292,495.846,40.742z M491.29,41.544h2.077c0.854,0,1.131-0.36,1.131-0.771
			c0-0.329-0.267-0.884-1.131-0.884h-2.077V41.544z M491.29,44.588h2.077c0.556,0,1.348-0.186,1.348-0.864
			c0-0.647-0.792-0.987-1.348-0.987h-2.077V44.588z"/>
		<path fill="#FFFFFF" d="M498.377,38.654v5.944h3.702v1.255h-5.06v-7.199H498.377z"/>
		<path fill="#FFFFFF" d="M508.404,45.854h-5.39c0-2.396,0-4.803,0-7.199h5.39v1.316h-4.041v1.656h3.896v1.265h-3.896v1.625h4.041
			V45.854z"/>
	</g>
	<g>
		<path fill="#FFFFFF" d="M560.607,77.078c-0.482-0.464-1.203-0.721-1.83-0.721c-1.543,0-2.479,1.172-2.479,2.653
			c0,1.183,0.689,2.406,2.479,2.406c0.564,0,1.059-0.123,1.625-0.576v-1.275h-1.843v-1.213h3.087v3.034
			c-0.709,0.813-1.604,1.296-2.869,1.296c-2.705,0-3.807-1.779-3.807-3.671c0-2.026,1.266-3.898,3.807-3.898
			c0.967,0,1.934,0.37,2.674,1.102L560.607,77.078z"/>
		<path fill="#FFFFFF" d="M568.127,82.518h-5.39c0-2.396,0-4.803,0-7.199h5.39v1.316h-4.043v1.656h3.898v1.265h-3.898v1.625h4.043
			V82.518z M567.129,73.128h-1.479l-0.763,1.397v0.063h1.111l1.131-1.409V73.128z"/>
		<path fill="#FFFFFF" d="M574.071,75.309h1.356v7.209h-0.843v0.01l-3.785-4.864v4.854h-1.356v-7.199h1.1l3.528,4.463V75.309z"/>
		<path fill="#FFFFFF" d="M576.684,82.518v-7.199h1.349v7.199H576.684z"/>
		<path fill="#FFFFFF" d="M584.418,81.161h-3.764l-0.617,1.356h-1.471l3.229-7.199h1.481l3.229,7.199h-1.479L584.418,81.161z
			 M582.537,76.831l-1.338,3.064h2.674L582.537,76.831z"/>
		<path fill="#FFFFFF" d="M588.585,75.319v5.944h3.702v1.255h-5.061v-7.199H588.585z"/>
	</g>
	<g>
		<path fill="#FFFFFF" d="M449.479,111.539c-0.245-0.411-0.926-0.804-1.707-0.804c-1.008,0-1.489,0.423-1.489,0.957
			c0,0.627,0.739,0.803,1.604,0.905c1.502,0.186,2.9,0.575,2.9,2.293c0,1.604-1.42,2.294-3.023,2.294
			c-1.471,0-2.602-0.453-3.137-1.77l1.131-0.586c0.318,0.792,1.152,1.142,2.026,1.142c0.854,0,1.654-0.299,1.654-1.08
			c0-0.679-0.709-0.956-1.665-1.06c-1.472-0.176-2.828-0.565-2.828-2.181c0-1.48,1.461-2.088,2.787-2.099
			c1.12,0,2.282,0.319,2.827,1.43L449.479,111.539z"/>
		<path fill="#FFFFFF" d="M458.91,113.441c-0.021,1.861-1.162,3.724-3.691,3.724s-3.703-1.82-3.703-3.712
			c0-1.894,1.215-3.796,3.703-3.796C457.697,109.656,458.932,111.56,458.91,113.441z M452.854,113.473
			c0.03,1.183,0.668,2.447,2.365,2.447s2.334-1.275,2.355-2.458c0.02-1.213-0.658-2.571-2.355-2.571
			S452.822,112.259,452.854,113.473z"/>
		<path fill="#FFFFFF" d="M459.92,117v-7.199h1.347V117H459.92z"/>
		<path fill="#FFFFFF" d="M467.891,111.56c-0.482-0.463-1.203-0.72-1.831-0.72c-1.542,0-2.479,1.172-2.479,2.653
			c0,1.183,0.688,2.405,2.479,2.405c0.565,0,1.061-0.123,1.625-0.576v-1.273h-1.841v-1.214h3.086v3.034
			c-0.71,0.813-1.604,1.295-2.87,1.295c-2.704,0-3.806-1.778-3.806-3.671c0-2.026,1.266-3.897,3.806-3.897
			c0.968,0,1.935,0.37,2.676,1.1L467.891,111.56z"/>
		<path fill="#FFFFFF" d="M474.771,109.791h1.356V117h-0.844v0.011l-3.784-4.865V117h-1.357v-7.199h1.102l3.527,4.464V109.791z"/>
		<path fill="#FFFFFF" d="M482.742,117h-5.389c0-2.396,0-4.804,0-7.199h5.389v1.316h-4.041v1.655h3.896v1.266h-3.896v1.625h4.041
			V117z M481.745,107.61h-1.481l-0.761,1.398v0.062h1.11l1.132-1.407V107.61z"/>
	</g>
	<g>
		<path fill="#FFFFFF" d="M482.436,393.141c0,0.556-0.268,1.09-0.936,1.389c0.844,0.257,1.151,1.151,1.151,1.604
			c0,1.604-1.203,2.118-2.694,2.118c-1.142,0-2.272,0-3.414,0v-7.199c1.131,0,2.272,0,3.414,0
			C481.377,391.053,482.436,391.69,482.436,393.141z M477.88,393.942h2.077c0.854,0,1.132-0.359,1.132-0.771
			c0-0.329-0.268-0.886-1.132-0.886h-2.077V393.942z M477.88,396.987h2.077c0.556,0,1.348-0.186,1.348-0.864
			c0-0.646-0.792-0.986-1.348-0.986h-2.077V396.987z"/>
		<path fill="#FFFFFF" d="M483.62,398.252v-7.199h1.347v7.199H483.62z"/>
		<path fill="#FFFFFF" d="M486.129,391.053h5.533v0.638l-3.733,5.276h3.733v1.285h-5.626v-0.781l3.651-5.144h-3.56L486.129,391.053
			L486.129,391.053z"/>
		<path fill="#FFFFFF" d="M497.597,396.895h-3.764l-0.617,1.357h-1.471l3.229-7.199h1.48l3.229,7.199h-1.48L497.597,396.895z
			 M495.715,392.564l-1.337,3.065h2.674L495.715,392.564z"/>
		<path fill="#FFFFFF" d="M506.679,398.252h-1.614l-2.099-2.406h-1.306v2.406h-1.357v-7.209c1.143,0,2.283,0.01,3.424,0.01
			c1.697,0.011,2.593,1.142,2.593,2.386c0,0.987-0.452,1.985-1.82,2.263l2.181,2.458L506.679,398.252L506.679,398.252z
			 M501.66,392.317v2.304h2.065c0.864,0,1.234-0.574,1.234-1.15s-0.38-1.152-1.234-1.152L501.66,392.317L501.66,392.317z"/>
		<path fill="#FFFFFF" d="M513.621,398.252h-1.614l-2.099-2.406h-1.307v2.406h-1.356v-7.209c1.142,0,2.282,0.01,3.424,0.01
			c1.697,0.011,2.592,1.142,2.592,2.386c0,0.987-0.452,1.985-1.819,2.263l2.181,2.458L513.621,398.252L513.621,398.252z
			 M508.604,392.317v2.304h2.065c0.864,0,1.234-0.574,1.234-1.15s-0.38-1.152-1.234-1.152L508.604,392.317L508.604,392.317z"/>
		<path fill="#FFFFFF" d="M519.545,398.252h-5.389c0-2.396,0-4.804,0-7.199h5.389v1.315h-4.041v1.656h3.897v1.265h-3.897v1.625
			h4.041V398.252z"/>
	</g>
	<g>
		<path fill="#FFFFFF" d="M457.311,489.248h-5.389c0-2.396,0-4.803,0-7.198h5.389v1.315h-4.041v1.656h3.897v1.265h-3.897v1.625
			h4.041V489.248z M456.313,479.859h-1.48l-0.761,1.398v0.062h1.109l1.132-1.408V479.859z"/>
		<path fill="#FFFFFF" d="M460.593,483.283h-2.283v-1.233c2.078,0,3.837,0,5.925,0v1.233h-2.283v5.965h-1.357L460.593,483.283
			L460.593,483.283z"/>
		<path fill="#FFFFFF" d="M471.443,489.248h-1.614l-2.099-2.405h-1.307v2.405h-1.356v-7.209c1.142,0,2.281,0.011,3.424,0.011
			c1.696,0.011,2.592,1.142,2.592,2.386c0,0.987-0.452,1.985-1.82,2.263l2.182,2.458L471.443,489.248L471.443,489.248z
			 M466.425,483.314v2.304h2.066c0.864,0,1.233-0.574,1.233-1.15s-0.38-1.152-1.233-1.152L466.425,483.314L466.425,483.314z"/>
		<path fill="#FFFFFF" d="M477.11,487.892h-3.765l-0.617,1.356h-1.471l3.229-7.198h1.479l3.229,7.198h-1.481L477.11,487.892z
			 M475.229,483.562l-1.337,3.065h2.675L475.229,483.562z"/>
		<path fill="#FFFFFF" d="M484.546,482.039h1.358v7.209h-0.845v0.012l-3.784-4.865v4.854h-1.357v-7.198h1.102l3.526,4.464V482.039z"
			/>
		<path fill="#FFFFFF" d="M492.497,483.809c-0.483-0.463-1.203-0.72-1.83-0.72c-1.543,0-2.479,1.172-2.479,2.652
			c0,1.184,0.688,2.406,2.479,2.406c0.565,0,1.059-0.123,1.625-0.576v-1.273h-1.841v-1.214h3.085v3.033
			c-0.71,0.813-1.604,1.295-2.869,1.295c-2.705,0-3.806-1.777-3.806-3.671c0-2.025,1.266-3.896,3.806-3.896
			c0.967,0,1.934,0.37,2.674,1.1L492.497,483.809z"/>
		<path fill="#FFFFFF" d="M500.016,489.248h-5.389c0-2.396,0-4.803,0-7.198h5.389v1.315h-4.041v1.656h3.897v1.265h-3.897v1.625
			h4.041V489.248z"/>
	</g>
	<g>
		<path fill="#FFFFFF" d="M121.383,186v-7.199h1.347V186H121.383z"/>
		<path fill="#FFFFFF" d="M130.279,180.786l-2.345,3.126h-0.268l-2.293-3.138v5.235h-1.357v-7.199h1.563l2.252,3.096l2.252-3.096
			h1.553v7.199h-1.357V180.786z"/>
		<path fill="#FFFFFF" d="M136.307,183.881h-2.037V186h-1.357v-7.199c1.131,0,2.263-0.01,3.394-0.01
			C139.824,178.791,139.834,183.881,136.307,183.881z M134.271,182.637h2.037c1.738,0,1.728-2.551,0-2.551h-2.037V182.637z"/>
		<path fill="#FFFFFF" d="M146.942,182.441c-0.021,1.862-1.162,3.724-3.692,3.724s-3.703-1.82-3.703-3.713s1.213-3.796,3.703-3.796
			C145.729,178.656,146.962,180.56,146.942,182.441z M140.884,182.473c0.031,1.183,0.668,2.447,2.366,2.447
			c1.697,0,2.334-1.275,2.355-2.458c0.021-1.214-0.658-2.571-2.355-2.571C141.553,179.891,140.854,181.259,140.884,182.473z"/>
		<path fill="#FFFFFF" d="M152.589,180.539c-0.247-0.412-0.926-0.803-1.707-0.803c-1.008,0-1.491,0.423-1.491,0.957
			c0,0.627,0.74,0.803,1.604,0.905c1.501,0.186,2.9,0.576,2.9,2.293c0,1.604-1.419,2.293-3.023,2.293
			c-1.471,0-2.602-0.453-3.137-1.769l1.131-0.586c0.319,0.792,1.152,1.142,2.026,1.142c0.854,0,1.656-0.298,1.656-1.08
			c0-0.679-0.71-0.957-1.666-1.059c-1.471-0.175-2.828-0.566-2.828-2.182c0-1.479,1.46-2.087,2.787-2.098
			c1.121,0,2.283,0.319,2.829,1.429L152.589,180.539z"/>
		<path fill="#FFFFFF" d="M159.388,180.539c-0.247-0.412-0.926-0.803-1.707-0.803c-1.008,0-1.491,0.423-1.491,0.957
			c0,0.627,0.74,0.803,1.604,0.905c1.501,0.186,2.9,0.576,2.9,2.293c0,1.604-1.419,2.293-3.023,2.293
			c-1.471,0-2.602-0.453-3.137-1.769l1.131-0.586c0.319,0.792,1.152,1.142,2.026,1.142c0.854,0,1.656-0.298,1.656-1.08
			c0-0.679-0.71-0.957-1.666-1.059c-1.471-0.175-2.828-0.566-2.828-2.182c0-1.479,1.46-2.087,2.787-2.098
			c1.121,0,2.283,0.319,2.829,1.429L159.388,180.539z"/>
		<path fill="#FFFFFF" d="M161.754,186v-7.199h1.347V186H161.754z"/>
		<path fill="#FFFFFF" d="M170.229,180.889c0,0.555-0.268,1.09-0.936,1.388c0.843,0.258,1.152,1.152,1.152,1.604
			c0,1.604-1.203,2.119-2.694,2.119c-1.142,0-2.273,0-3.415,0v-7.199c1.131,0,2.273,0,3.415,0
			C169.169,178.801,170.229,179.438,170.229,180.889z M165.673,181.691h2.078c0.854,0,1.131-0.359,1.131-0.771
			c0-0.329-0.267-0.884-1.131-0.884h-2.078V181.691z M165.673,184.735h2.078c0.555,0,1.347-0.185,1.347-0.863
			c0-0.648-0.792-0.987-1.347-0.987h-2.078V184.735z"/>
		<path fill="#FFFFFF" d="M172.759,178.801v5.944h3.703V186h-5.06v-7.199H172.759z"/>
		<path fill="#FFFFFF" d="M182.788,186h-5.389c0-2.396,0-4.804,0-7.199h5.389v1.316h-4.042v1.655h3.898v1.266h-3.898v1.625h4.042
			V186z"/>
	</g>
	<g>
		<path fill="#FFFFFF" d="M228.881,149.643h-3.764L224.5,151h-1.471l3.229-7.199h1.481l3.229,7.199h-1.481L228.881,149.643z
			 M226.999,145.313l-1.337,3.065h2.674L226.999,145.313z"/>
		<path fill="#FFFFFF" d="M237.326,145.889c0,0.555-0.268,1.09-0.936,1.388c0.843,0.258,1.152,1.152,1.152,1.604
			c0,1.604-1.203,2.119-2.694,2.119c-1.142,0-2.273,0-3.415,0v-7.199c1.131,0,2.273,0,3.415,0
			C236.266,143.801,237.326,144.438,237.326,145.889z M232.77,146.691h2.078c0.854,0,1.131-0.359,1.131-0.771
			c0-0.329-0.267-0.884-1.131-0.884h-2.078V146.691z M232.77,149.735h2.078c0.555,0,1.347-0.185,1.347-0.863
			c0-0.648-0.792-0.987-1.347-0.987h-2.078V149.735z"/>
		<path fill="#FFFFFF" d="M243.157,145.539c-0.247-0.412-0.926-0.803-1.707-0.803c-1.008,0-1.491,0.423-1.491,0.957
			c0,0.627,0.74,0.803,1.604,0.905c1.501,0.186,2.9,0.576,2.9,2.293c0,1.604-1.419,2.293-3.023,2.293
			c-1.471,0-2.602-0.453-3.137-1.769l1.131-0.586c0.319,0.792,1.152,1.142,2.026,1.142c0.854,0,1.656-0.298,1.656-1.08
			c0-0.679-0.71-0.957-1.666-1.059c-1.471-0.176-2.828-0.566-2.828-2.182c0-1.479,1.46-2.087,2.787-2.098
			c1.121,0,2.283,0.319,2.829,1.429L243.157,145.539z"/>
		<path fill="#FFFFFF" d="M247.375,145.035h-2.283v-1.234c2.077,0,3.836,0,5.924,0v1.234h-2.283V151h-1.358V145.035z"/>
		<path fill="#FFFFFF" d="M258.226,151h-1.615l-2.098-2.407h-1.306V151h-1.357v-7.209c1.142,0,2.283,0.01,3.425,0.01
			c1.697,0.01,2.592,1.142,2.592,2.386c0,0.987-0.453,1.985-1.82,2.264l2.18,2.457L258.226,151L258.226,151z M253.207,145.066v2.305
			h2.067c0.864,0,1.234-0.576,1.234-1.152s-0.38-1.152-1.234-1.152H253.207L253.207,145.066z"/>
		<path fill="#FFFFFF" d="M263.893,149.643h-3.764L259.512,151h-1.47l3.229-7.199h1.481l3.229,7.199H264.5L263.893,149.643z
			 M262.011,145.313l-1.337,3.065h2.674L262.011,145.313z"/>
		<path fill="#FFFFFF" d="M266.496,151v-7.199h1.347V151H266.496z"/>
		<path fill="#FFFFFF" d="M271.31,145.035h-2.283v-1.234c2.078,0,3.836,0,5.924,0v1.234h-2.283V151h-1.358V145.035L271.31,145.035z"
			/>
	</g>
	<g>
		<path fill="#FFFFFF" d="M247.235,59.667h-5.389c0-2.396,0-4.804,0-7.199h5.389v1.316h-4.042v1.655h3.898v1.266h-3.898v1.625h4.042
			V59.667z M246.237,50.277h-1.481l-0.761,1.398v0.062h1.111l1.131-1.408V50.277z"/>
		<path fill="#FFFFFF" d="M249.59,52.468v5.944h3.703v1.255h-5.06v-7.199H249.59z"/>
		<path fill="#FFFFFF" d="M259.361,58.31h-3.764l-0.617,1.357h-1.471l3.229-7.199h1.481l3.229,7.199h-1.481L259.361,58.31z
			 M257.479,53.979l-1.337,3.065h2.674L257.479,53.979z"/>
		<path fill="#FFFFFF" d="M267.806,54.556c0,0.555-0.268,1.09-0.936,1.388c0.843,0.258,1.152,1.152,1.152,1.604
			c0,1.604-1.203,2.119-2.694,2.119c-1.142,0-2.273,0-3.415,0v-7.199c1.131,0,2.273,0,3.415,0
			C266.747,52.468,267.806,53.105,267.806,54.556z M263.25,55.358h2.078c0.854,0,1.131-0.359,1.131-0.771
			c0-0.329-0.267-0.884-1.131-0.884h-2.078V55.358z M263.25,58.402h2.078c0.555,0,1.347-0.185,1.347-0.863
			c0-0.648-0.792-0.987-1.347-0.987h-2.078V58.402z"/>
		<path fill="#FFFFFF" d="M276.167,56.108c-0.021,1.862-1.162,3.724-3.692,3.724c-2.53,0-3.703-1.82-3.703-3.713
			s1.213-3.796,3.703-3.796C274.954,52.323,276.188,54.227,276.167,56.108z M270.11,56.14c0.031,1.183,0.668,2.447,2.366,2.447
			c1.697,0,2.334-1.275,2.355-2.458c0.021-1.213-0.658-2.571-2.355-2.571C270.778,53.558,270.079,54.926,270.11,56.14z"/>
		<path fill="#FFFFFF" d="M283.553,59.667h-1.615l-2.098-2.407h-1.306v2.407h-1.357v-7.209c1.142,0,2.283,0.01,3.425,0.01
			c1.697,0.01,2.592,1.142,2.592,2.386c0,0.987-0.453,1.985-1.82,2.263l2.18,2.457v0.094H283.553z M278.534,53.733v2.305h2.067
			c0.864,0,1.234-0.576,1.234-1.152s-0.38-1.152-1.234-1.152H278.534z"/>
		<path fill="#FFFFFF" d="M289.478,59.667h-5.389c0-2.396,0-4.804,0-7.199h5.389v1.316h-4.042v1.655h3.898v1.266h-3.898v1.625h4.042
			V59.667z M288.48,50.277h-1.481l-0.761,1.398v0.062h1.111l1.131-1.408V50.277L288.48,50.277z"/>
	</g>
	<g>
		<path fill="#FFFFFF" d="M310.978,193.333h-5.389c0-2.396,0-4.804,0-7.199h5.389v1.316h-4.042v1.655h3.898v1.266h-3.898v1.625
			h4.042V193.333z M309.98,183.944h-1.481l-0.761,1.398v0.062h1.111l1.131-1.408V183.944L309.98,183.944z"/>
		<path fill="#FFFFFF" d="M314.258,187.369h-2.283v-1.234c2.078,0,3.836,0,5.924,0v1.234h-2.283v5.965h-1.358V187.369
			L314.258,187.369z"/>
		<path fill="#FFFFFF" d="M325.109,193.333h-1.615l-2.098-2.407h-1.306v2.407h-1.357v-7.209c1.142,0,2.283,0.01,3.425,0.01
			c1.697,0.01,2.592,1.142,2.592,2.386c0,0.987-0.453,1.985-1.82,2.264l2.18,2.457L325.109,193.333L325.109,193.333z
			 M320.09,187.399v2.305h2.067c0.864,0,1.234-0.576,1.234-1.152s-0.38-1.152-1.234-1.152H320.09L320.09,187.399z"/>
		<path fill="#FFFFFF" d="M330.777,191.976h-3.764l-0.617,1.357h-1.471l3.229-7.199h1.481l3.229,7.199h-1.481L330.777,191.976z
			 M328.895,187.646l-1.337,3.065h2.674L328.895,187.646z"/>
		<path fill="#FFFFFF" d="M338.214,186.124h1.357v7.209h-0.843v0.01l-3.785-4.864v4.854h-1.357v-7.199h1.1l3.528,4.463V186.124z"/>
		<path fill="#FFFFFF" d="M346.165,187.893c-0.483-0.463-1.204-0.72-1.831-0.72c-1.542,0-2.479,1.172-2.479,2.653
			c0,1.183,0.689,2.405,2.479,2.405c0.566,0,1.06-0.123,1.625-0.576v-1.274h-1.841v-1.213h3.085v3.034
			c-0.709,0.813-1.604,1.296-2.87,1.296c-2.705,0-3.805-1.779-3.805-3.671c0-2.026,1.265-3.898,3.805-3.898
			c0.967,0,1.934,0.37,2.674,1.101L346.165,187.893z"/>
		<path fill="#FFFFFF" d="M353.683,193.333h-5.389c0-2.396,0-4.804,0-7.199h5.389v1.316h-4.042v1.655h3.898v1.266h-3.898v1.625
			h4.042V193.333z"/>
	</g>
	<g>
		<path fill="#FFFFFF" d="M311.739,111.889c0,0.555-0.268,1.09-0.937,1.388c0.843,0.258,1.152,1.152,1.152,1.604
			c0,1.604-1.203,2.119-2.694,2.119c-1.142,0-2.272,0-3.415,0v-7.199c1.131,0,2.273,0,3.415,0
			C310.68,109.801,311.739,110.438,311.739,111.889z M307.183,112.691h2.078c0.854,0,1.131-0.359,1.131-0.771
			c0-0.329-0.267-0.884-1.131-0.884h-2.078V112.691z M307.183,115.735h2.078c0.555,0,1.347-0.185,1.347-0.863
			c0-0.648-0.792-0.987-1.347-0.987h-2.078V115.735z"/>
		<path fill="#FFFFFF" d="M312.922,117v-7.199h1.347V117H312.922z"/>
		<path fill="#FFFFFF" d="M320.914,117h-5.389c0-2.396,0-4.804,0-7.199h5.389v1.316h-4.042v1.655h3.898v1.266h-3.898v1.625h4.042
			V117z"/>
		<path fill="#FFFFFF" d="M326.91,109.791h1.357V117h-0.843v0.01l-3.785-4.864V117h-1.357v-7.199h1.1l3.528,4.463V109.791z"/>
		<path fill="#FFFFFF" d="M334.984,114.881h-2.037V117h-1.357v-7.199c1.131,0,2.263-0.01,3.394-0.01
			C338.501,109.791,338.512,114.881,334.984,114.881z M332.948,113.637h2.037c1.738,0,1.728-2.551,0-2.551h-2.037V113.637z"/>
		<path fill="#FFFFFF" d="M343.912,117h-5.389c0-2.396,0-4.804,0-7.199h5.389v1.316h-4.042v1.655h3.898v1.266h-3.898v1.625h4.042
			V117z"/>
		<path fill="#FFFFFF" d="M349.909,109.791h1.357V117h-0.843v0.01l-3.785-4.864V117h-1.357v-7.199h1.1l3.528,4.463V109.791
			L349.909,109.791z"/>
		<path fill="#FFFFFF" d="M357.067,111.539c-0.247-0.412-0.926-0.803-1.707-0.803c-1.008,0-1.491,0.423-1.491,0.957
			c0,0.627,0.74,0.803,1.604,0.905c1.501,0.186,2.9,0.576,2.9,2.293c0,1.604-1.419,2.293-3.023,2.293
			c-1.471,0-2.602-0.453-3.137-1.769l1.131-0.586c0.319,0.792,1.152,1.142,2.026,1.142c0.854,0,1.656-0.298,1.656-1.08
			c0-0.679-0.71-0.957-1.666-1.059c-1.471-0.175-2.828-0.566-2.828-2.182c0-1.479,1.46-2.087,2.787-2.098
			c1.121,0,2.283,0.319,2.829,1.429L357.067,111.539z"/>
		<path fill="#FFFFFF" d="M364.792,117h-5.389c0-2.396,0-4.804,0-7.199h5.389v1.316h-4.042v1.655h3.898v1.266h-3.898v1.625h4.042
			V117z M363.794,107.61h-1.481l-0.761,1.398v0.062h1.111l1.131-1.408V107.61L363.794,107.61z"/>
	</g>
	<g>
		<path fill="#FFFFFF" d="M199.445,230.453h-2.283v-1.234c2.078,0,3.836,0,5.924,0v1.234h-2.283v5.965h-1.358V230.453z"/>
		<path fill="#FFFFFF" d="M210.296,236.418h-1.615l-2.098-2.407h-1.306v2.407h-1.357v-7.209c1.142,0,2.283,0.01,3.425,0.01
			c1.697,0.01,2.592,1.142,2.592,2.386c0,0.987-0.453,1.985-1.82,2.264l2.18,2.458L210.296,236.418L210.296,236.418z
			 M205.277,230.484v2.305h2.067c0.864,0,1.234-0.576,1.234-1.152s-0.38-1.152-1.234-1.152H205.277z"/>
		<path fill="#FFFFFF" d="M217.928,232.859c-0.021,1.862-1.162,3.724-3.692,3.724c-2.53,0-3.703-1.82-3.703-3.713
			s1.213-3.795,3.703-3.795C216.715,229.075,217.949,230.978,217.928,232.859z M211.871,232.891
			c0.031,1.184,0.668,2.447,2.366,2.447c1.697,0,2.334-1.275,2.355-2.458c0.021-1.214-0.658-2.571-2.355-2.571
			C212.539,230.309,211.84,231.677,211.871,232.891z"/>
		<path fill="#FFFFFF" d="M222.321,234.299h-2.037v2.119h-1.357v-7.199c1.131,0,2.263-0.01,3.394-0.01
			C225.838,229.208,225.848,234.299,222.321,234.299z M220.284,233.055h2.037c1.738,0,1.728-2.551,0-2.551h-2.037V233.055z"/>
		<path fill="#FFFFFF" d="M186.444,247.453h-2.283v-1.234c2.078,0,3.836,0,5.924,0v1.234h-2.283v5.965h-1.358V247.453
			L186.444,247.453z"/>
		<path fill="#FFFFFF" d="M197.295,253.418h-1.615l-2.098-2.407h-1.306v2.407h-1.357v-7.209c1.142,0,2.283,0.01,3.425,0.01
			c1.697,0.01,2.592,1.142,2.592,2.386c0,0.987-0.453,1.985-1.82,2.264l2.18,2.458L197.295,253.418L197.295,253.418z
			 M192.276,247.484v2.305h2.067c0.864,0,1.234-0.576,1.234-1.152s-0.38-1.152-1.234-1.152H192.276z"/>
		<path fill="#FFFFFF" d="M202.963,252.061h-3.764l-0.617,1.357h-1.471l3.229-7.199h1.481l3.229,7.199h-1.481L202.963,252.061z
			 M201.081,247.73l-1.337,3.065h2.674L201.081,247.73z"/>
		<path fill="#FFFFFF" d="M208.394,253.449h-1.409l-2.993-7.23h1.522l2.17,5.605l2.18-5.605h1.521L208.394,253.449z"/>
		<path fill="#FFFFFF" d="M217.332,252.061h-3.764l-0.617,1.357h-1.471l3.229-7.199h1.481l3.229,7.199h-1.481L217.332,252.061z
			 M215.45,247.73l-1.337,3.065h2.674L215.45,247.73z"/>
		<path fill="#FFFFFF" d="M219.935,253.418v-7.199h1.347v7.199H219.935z"/>
		<path fill="#FFFFFF" d="M223.916,246.219v5.944h3.703v1.255h-5.06v-7.199H223.916z"/>
		<path fill="#FFFFFF" d="M229.933,246.219v5.944h3.703v1.255h-5.06v-7.199H229.933z"/>
		<path fill="#FFFFFF" d="M239.961,253.418h-5.389c0-2.396,0-4.804,0-7.199h5.389v1.316h-4.042v1.655h3.898v1.266h-3.898v1.625
			h4.042V253.418z M238.963,244.028h-1.481l-0.761,1.398v0.062h1.111l1.131-1.408V244.028z"/>
	</g>
	<g>
		<path fill="#FFFFFF" d="M276.082,234.431l-2.345,3.126h-0.268l-2.293-3.137v5.234h-1.357v-7.198h1.563l2.252,3.096l2.252-3.096
			h1.553v7.198h-1.357V234.431z"/>
		<path fill="#FFFFFF" d="M283.827,238.288h-3.764l-0.617,1.356h-1.47l3.229-7.199h1.481l3.229,7.199h-1.481L283.827,238.288z
			 M281.945,233.958l-1.337,3.064h2.674L281.945,233.958z"/>
		<path fill="#FFFFFF" d="M287.993,232.446v5.944h3.703v1.255h-5.061v-7.199H287.993z"/>
		<path fill="#FFFFFF" d="M268.563,254.527h-2.037v2.118h-1.357v-7.199c1.131,0,2.263-0.01,3.394-0.01
			C272.081,249.436,272.091,254.527,268.563,254.527z M266.527,253.281h2.037c1.738,0,1.728-2.55,0-2.55h-2.037V253.281z"/>
		<path fill="#FFFFFF" d="M277.491,256.645h-5.389c0-2.396,0-4.803,0-7.199h5.389v1.316h-4.042v1.656h3.898v1.265h-3.898v1.625
			h4.042V256.645z"/>
		<path fill="#FFFFFF" d="M283.487,249.436h1.357v7.209h-0.843v0.011l-3.785-4.864v4.854h-1.357v-7.199h1.1l3.528,4.465
			L283.487,249.436L283.487,249.436z"/>
		<path fill="#FFFFFF" d="M290.646,251.184c-0.247-0.411-0.926-0.803-1.707-0.803c-1.008,0-1.491,0.422-1.491,0.957
			c0,0.627,0.74,0.802,1.604,0.905c1.502,0.185,2.9,0.574,2.9,2.293c0,1.604-1.419,2.294-3.023,2.294
			c-1.471,0-2.602-0.453-3.137-1.771l1.131-0.586c0.319,0.792,1.152,1.143,2.026,1.143c0.854,0,1.656-0.3,1.656-1.08
			c0-0.68-0.709-0.956-1.666-1.061c-1.471-0.175-2.829-0.564-2.829-2.18c0-1.481,1.46-2.088,2.787-2.1
			c1.121,0,2.283,0.319,2.829,1.431L290.646,251.184z"/>
		<path fill="#FFFFFF" d="M298.371,256.645h-5.389c0-2.396,0-4.803,0-7.199h5.389v1.316h-4.042v1.656h3.898v1.265h-3.898v1.625
			h4.042V256.645z M297.373,247.255h-1.481l-0.761,1.397v0.063h1.111l1.131-1.408V247.255L297.373,247.255z"/>
	</g>
	<g>
		<path fill="#FFFFFF" d="M559.675,371.006c0.031,1.819-1.08,3.661-3.6,3.661c-0.884,0-1.943,0-2.828,0v-7.199
			c0.885,0,1.944,0,2.828,0C558.544,367.468,559.645,369.227,559.675,371.006z M554.595,373.361h1.48
			c1.636,0,2.283-1.192,2.253-2.366c-0.031-1.121-0.689-2.24-2.253-2.24h-1.48V373.361z"/>
		<path fill="#FFFFFF" d="M565.28,374.666h-5.39c0-2.396,0-4.803,0-7.198h5.39v1.315h-4.041v1.656h3.896v1.265h-3.896v1.625h4.041
			V374.666z M564.283,365.277h-1.481l-0.761,1.398v0.062h1.11l1.132-1.408V365.277z"/>
		<path fill="#FFFFFF" d="M572.008,374.666h-1.614l-2.099-2.405h-1.306v2.405h-1.357v-7.209c1.143,0,2.283,0.011,3.424,0.011
			c1.697,0.011,2.593,1.142,2.593,2.386c0,0.987-0.452,1.985-1.82,2.263l2.181,2.458L572.008,374.666L572.008,374.666z
			 M566.989,368.732v2.304h2.065c0.864,0,1.234-0.574,1.234-1.15s-0.38-1.152-1.234-1.152L566.989,368.732L566.989,368.732z"/>
		<path fill="#FFFFFF" d="M577.017,373.31h-3.764l-0.617,1.356h-1.471l3.229-7.198h1.479l3.229,7.198h-1.481L577.017,373.31z
			 M575.135,368.979l-1.337,3.065h2.674L575.135,368.979z"/>
		<path fill="#FFFFFF" d="M583.795,367.457h1.358v7.21h-0.845v0.011l-3.784-4.865v4.854h-1.357v-7.199h1.101l3.527,4.464V367.457z"
			/>
		<path fill="#FFFFFF" d="M591.088,369.227c-0.482-0.463-1.203-0.72-1.83-0.72c-1.543,0-2.479,1.172-2.479,2.652
			c0,1.184,0.688,2.406,2.479,2.406c0.565,0,1.06-0.123,1.625-0.576v-1.273h-1.841v-1.214h3.085v3.033
			c-0.71,0.813-1.604,1.295-2.869,1.295c-2.705,0-3.806-1.777-3.806-3.671c0-2.025,1.266-3.896,3.806-3.896
			c0.967,0,1.935,0.37,2.674,1.1L591.088,369.227z"/>
		<path fill="#FFFFFF" d="M597.947,374.666h-5.39c0-2.396,0-4.803,0-7.198h5.39v1.315h-4.041v1.656h3.896v1.265h-3.896v1.625h4.041
			V374.666z"/>
		<path fill="#FFFFFF" d="M603.45,373.31h-3.765l-0.616,1.356h-1.472l3.229-7.198h1.479l3.229,7.198h-1.481L603.45,373.31z
			 M601.568,368.979l-1.337,3.065h2.674L601.568,368.979z"/>
		<path fill="#FFFFFF" d="M610.229,367.457h1.357v7.21h-0.844v0.011l-3.785-4.865v4.854H605.6v-7.199h1.102l3.526,4.464
			L610.229,367.457L610.229,367.457z"/>
		<path fill="#FFFFFF" d="M614.034,368.701h-2.283v-1.233c2.078,0,3.836,0,5.924,0v1.233h-2.283v5.965h-1.356L614.034,368.701
			L614.034,368.701z"/>
	</g>
	<g>
		<path fill="#FFFFFF" d="M256.7,482.581v-7.198h1.347v7.198H256.7z"/>
		<path fill="#FFFFFF" d="M264.054,475.372h1.357v7.209h-0.843v0.012l-3.785-4.865v4.854h-1.357v-7.198h1.1l3.528,4.464
			L264.054,475.372L264.054,475.372z"/>
		<path fill="#FFFFFF" d="M273.002,481.677c-0.741,0.729-1.697,1.068-2.736,1.068c-2.674,0-3.805-1.841-3.815-3.712
			c-0.01-1.882,1.213-3.795,3.815-3.795c0.977,0,1.903,0.37,2.643,1.102l-0.905,0.874c-0.473-0.464-1.111-0.68-1.738-0.68
			c-1.738,0-2.489,1.296-2.479,2.499c0.01,1.192,0.699,2.438,2.479,2.438c0.627,0,1.337-0.258,1.81-0.73L273.002,481.677z"/>
		<path fill="#FFFFFF" d="M280.839,479.023c-0.021,1.861-1.162,3.723-3.692,3.723s-3.703-1.819-3.703-3.712s1.213-3.795,3.703-3.795
			C279.626,475.239,280.86,477.142,280.839,479.023z M274.782,479.055c0.031,1.183,0.668,2.447,2.366,2.447
			c1.697,0,2.334-1.275,2.355-2.458c0.021-1.214-0.658-2.571-2.355-2.571C275.45,476.473,274.751,477.841,274.782,479.055z"/>
		<path fill="#FFFFFF" d="M288.111,477.367l-2.345,3.126h-0.268l-2.293-3.137v5.235h-1.357v-7.199h1.563l2.252,3.096l2.252-3.096
			h1.553v7.199h-1.357V477.367L288.111,477.367z"/>
		<path fill="#FFFFFF" d="M294.139,480.464h-2.037v2.117h-1.357v-7.198c1.131,0,2.263-0.011,3.394-0.011
			C297.656,475.372,297.667,480.464,294.139,480.464z M292.103,479.219h2.037c1.738,0,1.728-2.55,0-2.55h-2.037V479.219z"/>
		<path fill="#FFFFFF" d="M304.085,482.581h-1.615l-2.098-2.405h-1.306v2.405h-1.357v-7.209c1.142,0,2.283,0.011,3.425,0.011
			c1.697,0.011,2.592,1.142,2.592,2.386c0,0.987-0.453,1.985-1.82,2.263l2.18,2.458L304.085,482.581L304.085,482.581z
			 M299.066,476.647v2.304h2.067c0.864,0,1.234-0.575,1.234-1.15c0-0.576-0.38-1.152-1.234-1.152L299.066,476.647L299.066,476.647z"
			/>
		<path fill="#FFFFFF" d="M310.01,482.581h-5.389c0-2.396,0-4.803,0-7.198h5.389v1.315h-4.042v1.656h3.898v1.265h-3.898v1.625h4.042
			V482.581z M309.012,473.192h-1.48l-0.761,1.398v0.062h1.111l1.131-1.408L309.012,473.192L309.012,473.192z"/>
		<path fill="#FFFFFF" d="M315.914,482.593v-2.911h-3.538v2.911h-1.357v-7.199h1.357v3.033h3.538v-3.033h1.347v7.199H315.914z"/>
		<path fill="#FFFFFF" d="M323.906,482.581h-5.389c0-2.396,0-4.803,0-7.198h5.389v1.315h-4.042v1.656h3.898v1.265h-3.898v1.625
			h4.042V482.581z"/>
		<path fill="#FFFFFF" d="M329.902,475.372h1.357v7.209h-0.843v0.012l-3.785-4.865v4.854h-1.357v-7.198h1.1l3.528,4.464V475.372
			L329.902,475.372z"/>
		<path fill="#FFFFFF" d="M337.06,477.12c-0.247-0.41-0.926-0.803-1.707-0.803c-1.008,0-1.491,0.422-1.491,0.957
			c0,0.627,0.74,0.802,1.604,0.905c1.502,0.185,2.9,0.575,2.9,2.293c0,1.604-1.419,2.294-3.023,2.294
			c-1.471,0-2.602-0.453-3.137-1.771l1.131-0.586c0.319,0.792,1.152,1.143,2.026,1.143c0.854,0,1.656-0.299,1.656-1.08
			c0-0.679-0.709-0.956-1.666-1.061c-1.471-0.175-2.829-0.564-2.829-2.18c0-1.48,1.46-2.088,2.787-2.099
			c1.121,0,2.283,0.318,2.829,1.43L337.06,477.12z"/>
		<path fill="#FFFFFF" d="M339.426,482.581v-7.198h1.347v7.198H339.426z"/>
		<path fill="#FFFFFF" d="M347.902,477.471c0,0.556-0.268,1.09-0.936,1.389c0.843,0.257,1.152,1.151,1.152,1.604
			c0,1.604-1.203,2.118-2.694,2.118c-1.142,0-2.273,0-3.415,0v-7.199c1.131,0,2.273,0,3.415,0
			C346.842,475.383,347.902,476.021,347.902,477.471z M343.346,478.272h2.078c0.854,0,1.131-0.359,1.131-0.771
			c0-0.329-0.267-0.886-1.131-0.886h-2.078V478.272z M343.346,481.317h2.078c0.555,0,1.347-0.186,1.347-0.864
			c0-0.646-0.792-0.986-1.347-0.986h-2.078V481.317z"/>
		<path fill="#FFFFFF" d="M350.432,475.383v5.943h3.703v1.255h-5.06v-7.198H350.432z"/>
		<path fill="#FFFFFF" d="M360.46,482.581h-5.389c0-2.396,0-4.803,0-7.198h5.389v1.315h-4.042v1.656h3.898v1.265h-3.898v1.625h4.042
			V482.581z"/>
	</g>
	<g>
		<path fill="#FFFFFF" d="M129.772,421.945h-2.283v-1.233c2.078,0,3.836,0,5.924,0v1.233h-2.283v5.965h-1.358V421.945z"/>
		<path fill="#FFFFFF" d="M139.605,427.909h-5.389c0-2.396,0-4.803,0-7.198h5.389v1.315h-4.042v1.656h3.898v1.265h-3.898v1.625
			h4.042V427.909L139.605,427.909z"/>
		<path fill="#FFFFFF" d="M147.042,427.909h-1.615l-2.098-2.405h-1.306v2.405h-1.357V420.7c1.142,0,2.283,0.011,3.425,0.011
			c1.697,0.011,2.592,1.142,2.592,2.386c0,0.987-0.453,1.984-1.82,2.263l2.18,2.458L147.042,427.909L147.042,427.909z
			 M142.022,421.976v2.304h2.067c0.864,0,1.234-0.575,1.234-1.15c0-0.576-0.38-1.152-1.234-1.152L142.022,421.976L142.022,421.976z"
			/>
		<path fill="#FFFFFF" d="M153.984,427.909h-1.615l-2.098-2.405h-1.306v2.405h-1.357V420.7c1.142,0,2.283,0.011,3.425,0.011
			c1.697,0.011,2.592,1.142,2.592,2.386c0,0.987-0.453,1.984-1.82,2.263l2.18,2.458L153.984,427.909L153.984,427.909z
			 M148.965,421.976v2.304h2.067c0.864,0,1.234-0.575,1.234-1.15c0-0.576-0.38-1.152-1.234-1.152L148.965,421.976L148.965,421.976z"
			/>
		<path fill="#FFFFFF" d="M154.551,427.909v-7.198h1.347v7.198H154.551z"/>
		<path fill="#FFFFFF" d="M163.026,422.799c0,0.556-0.268,1.09-0.936,1.389c0.843,0.257,1.152,1.151,1.152,1.604
			c0,1.604-1.203,2.117-2.694,2.117c-1.142,0-2.273,0-3.415,0v-7.198c1.131,0,2.273,0,3.415,0
			C161.966,420.711,163.026,421.349,163.026,422.799z M158.47,423.601h2.078c0.854,0,1.131-0.359,1.131-0.771
			c0-0.328-0.267-0.885-1.131-0.885h-2.078V423.601z M158.47,426.646h2.078c0.555,0,1.347-0.186,1.347-0.864
			c0-0.646-0.792-0.986-1.347-0.986h-2.078V426.646z"/>
		<path fill="#FFFFFF" d="M165.556,420.711v5.943h3.703v1.255h-5.06v-7.198H165.556z"/>
		<path fill="#FFFFFF" d="M175.584,427.909h-5.389c0-2.396,0-4.803,0-7.198h5.389v1.315h-4.042v1.656h3.898v1.265h-3.898v1.625
			h4.042V427.909L175.584,427.909z"/>
	</g>
	<g>
		<path fill="#FFFFFF" d="M269.483,386.467h-2.037v2.118h-1.357v-7.199c1.131,0,2.263-0.01,3.394-0.01
			C273,381.376,273.01,386.467,269.483,386.467z M267.446,385.222h2.037c1.738,0,1.728-2.55,0-2.55h-2.037V385.222z"/>
		<path fill="#FFFFFF" d="M278.153,387.228h-3.764l-0.617,1.357h-1.47l3.229-7.199h1.48l3.229,7.199h-1.481L278.153,387.228z
			 M276.271,382.897l-1.337,3.065h2.674L276.271,382.897z"/>
		<path fill="#FFFFFF" d="M285.189,383.123c-0.247-0.41-0.926-0.803-1.707-0.803c-1.008,0-1.491,0.422-1.491,0.957
			c0,0.627,0.74,0.802,1.604,0.905c1.501,0.185,2.9,0.575,2.9,2.293c0,1.604-1.419,2.294-3.023,2.294
			c-1.471,0-2.602-0.453-3.137-1.77l1.131-0.587c0.319,0.792,1.152,1.143,2.026,1.143c0.854,0,1.656-0.299,1.656-1.08
			c0-0.679-0.71-0.956-1.666-1.06c-1.471-0.176-2.828-0.565-2.828-2.181c0-1.48,1.46-2.088,2.787-2.099
			c1.121,0,2.283,0.318,2.829,1.43L285.189,383.123z"/>
		<path fill="#FFFFFF" d="M294.734,387.228h-3.764l-0.617,1.357h-1.471l3.229-7.199h1.481l3.229,7.199h-1.481L294.734,387.228z
			 M292.852,382.897l-1.337,3.065h2.674L292.852,382.897z"/>
		<path fill="#FFFFFF" d="M301.77,383.123c-0.247-0.41-0.926-0.803-1.707-0.803c-1.008,0-1.491,0.422-1.491,0.957
			c0,0.627,0.74,0.802,1.604,0.905c1.502,0.185,2.9,0.575,2.9,2.293c0,1.604-1.419,2.294-3.023,2.294
			c-1.471,0-2.602-0.453-3.137-1.77l1.131-0.587c0.319,0.792,1.152,1.143,2.026,1.143c0.854,0,1.656-0.299,1.656-1.08
			c0-0.679-0.709-0.956-1.666-1.06c-1.471-0.176-2.829-0.565-2.829-2.181c0-1.48,1.46-2.088,2.787-2.099
			c1.121,0,2.283,0.318,2.829,1.43L301.77,383.123z"/>
		<path fill="#FFFFFF" d="M308.568,383.123c-0.247-0.41-0.926-0.803-1.707-0.803c-1.008,0-1.491,0.422-1.491,0.957
			c0,0.627,0.74,0.802,1.604,0.905c1.502,0.185,2.9,0.575,2.9,2.293c0,1.604-1.419,2.294-3.023,2.294
			c-1.471,0-2.602-0.453-3.137-1.77l1.131-0.587c0.319,0.792,1.152,1.143,2.026,1.143c0.854,0,1.656-0.299,1.656-1.08
			c0-0.679-0.709-0.956-1.666-1.06c-1.471-0.176-2.829-0.565-2.829-2.181c0-1.48,1.46-2.088,2.787-2.099
			c1.121,0,2.283,0.318,2.829,1.43L308.568,383.123z"/>
		<path fill="#FFFFFF" d="M316.293,388.585h-5.389c0-2.396,0-4.804,0-7.199h5.389v1.315h-4.042v1.656h3.898v1.265h-3.898v1.625
			h4.042V388.585z"/>
		<path fill="#FFFFFF" d="M317.013,381.386h5.533v0.638l-3.733,5.276h3.733v1.285h-5.626v-0.781l3.651-5.144h-3.559v-1.274H317.013z
			"/>
		<path fill="#FFFFFF" d="M269.442,399.619h-2.283v-1.233c2.078,0,3.836,0,5.924,0v1.233H270.8v5.966h-1.358V399.619z"/>
		<path fill="#FFFFFF" d="M280.293,405.585h-1.615l-2.098-2.406h-1.306v2.406h-1.357v-7.21c1.142,0,2.283,0.011,3.425,0.011
			c1.697,0.011,2.592,1.142,2.592,2.386c0,0.987-0.453,1.985-1.82,2.263l2.18,2.458L280.293,405.585L280.293,405.585z
			 M275.274,399.65v2.304h2.067c0.864,0,1.234-0.574,1.234-1.15s-0.38-1.152-1.234-1.152L275.274,399.65L275.274,399.65z"/>
		<path fill="#FFFFFF" d="M285.96,404.228h-3.764l-0.617,1.357h-1.471l3.229-7.199h1.481l3.229,7.199h-1.481L285.96,404.228z
			 M284.079,399.897l-1.337,3.065h2.674L284.079,399.897z"/>
		<path fill="#FFFFFF" d="M291.392,405.615h-1.409l-2.993-7.229h1.521l2.17,5.604l2.18-5.604h1.522L291.392,405.615z"/>
		<path fill="#FFFFFF" d="M300.33,404.228h-3.764l-0.617,1.357h-1.471l3.229-7.199h1.481l3.229,7.199h-1.481L300.33,404.228z
			 M298.448,399.897l-1.337,3.065h2.674L298.448,399.897z"/>
		<path fill="#FFFFFF" d="M302.933,405.585v-7.199h1.347v7.199H302.933z"/>
		<path fill="#FFFFFF" d="M306.913,398.386v5.943h3.703v1.256h-5.06v-7.199H306.913z"/>
		<path fill="#FFFFFF" d="M312.93,398.386v5.943h3.703v1.256h-5.06v-7.199H312.93z"/>
		<path fill="#FFFFFF" d="M322.958,405.585h-5.389c0-2.396,0-4.804,0-7.199h5.389v1.315h-4.042v1.656h3.898v1.265h-3.898v1.625
			h4.042V405.585z M321.961,396.195h-1.481l-0.761,1.398v0.062h1.111l1.131-1.408V396.195L321.961,396.195z"/>
	</g>
	<g>
		<path fill="#FFFFFF" d="M185.412,375.095c-0.741,0.729-1.697,1.068-2.736,1.068c-2.674,0-3.805-1.841-3.815-3.712
			c-0.01-1.882,1.213-3.795,3.815-3.795c0.977,0,1.903,0.37,2.643,1.102l-0.905,0.874c-0.473-0.463-1.111-0.68-1.738-0.68
			c-1.738,0-2.489,1.296-2.479,2.499c0.01,1.192,0.699,2.438,2.479,2.438c0.627,0,1.337-0.258,1.81-0.73L185.412,375.095z"/>
		<path fill="#FFFFFF" d="M193.25,372.441c-0.021,1.861-1.162,3.723-3.692,3.723c-2.53,0-3.703-1.819-3.703-3.712
			s1.214-3.795,3.703-3.795C192.036,368.656,193.27,370.56,193.25,372.441z M187.192,372.473c0.031,1.183,0.668,2.447,2.366,2.447
			c1.697,0,2.334-1.275,2.355-2.458c0.021-1.214-0.658-2.571-2.355-2.571C187.86,369.891,187.161,371.259,187.192,372.473z"/>
		<path fill="#FFFFFF" d="M200.521,370.785l-2.345,3.126h-0.268l-2.293-3.137v5.235h-1.357v-7.199h1.563l2.252,3.096l2.252-3.096
			h1.553v7.199h-1.357V370.785z"/>
		<path fill="#FFFFFF" d="M206.549,373.882h-2.037V376h-1.357v-7.199c1.131,0,2.263-0.011,3.394-0.011
			C210.066,368.79,210.077,373.882,206.549,373.882z M204.513,372.637h2.037c1.738,0,1.728-2.55,0-2.55h-2.037V372.637z"/>
		<path fill="#FFFFFF" d="M211.466,368.801v5.943h3.703V376h-5.06v-7.199H211.466z"/>
		<path fill="#FFFFFF" d="M216.136,376v-7.199h1.347V376H216.136z"/>
		<path fill="#FFFFFF" d="M225.814,372.308c0.01,0.823-0.206,1.677-0.668,2.345l0.854,0.844l-0.957,0.956l-0.874-0.862
			c-0.545,0.35-1.234,0.533-2.047,0.533c-2.561,0-3.692-1.86-3.702-3.731c-0.01-1.883,1.172-3.765,3.702-3.765
			C224.652,368.626,225.783,370.456,225.814,372.308z M219.756,372.421c0.021,1.183,0.802,2.447,2.365,2.447
			c1.625,0,2.407-1.368,2.355-2.603c-0.052-1.162-0.658-2.417-2.355-2.417C220.425,369.85,219.736,371.206,219.756,372.421z"/>
		<path fill="#FFFFFF" d="M233.117,368.812v4.124c0,2.129-1.306,3.219-3.116,3.219c-1.728,0-3.198-1.049-3.198-3.219v-4.124h1.347
			v4.124c0,1.296,0.741,1.984,1.862,1.984c1.121,0,1.758-0.751,1.758-1.984v-4.124H233.117z"/>
		<path fill="#FFFFFF" d="M239.813,376h-5.389c0-2.396,0-4.804,0-7.199h5.389v1.315h-4.042v1.656h3.898v1.265h-3.898v1.625h4.042
			V376z M238.815,366.61h-1.481l-0.761,1.398v0.062h1.111l1.131-1.408V366.61z"/>
	</g>
	<g>
		<path fill="#FFFFFF" d="M526.68,525.118l-2.345,3.126h-0.268l-2.293-3.137v5.235h-1.357v-7.199h1.563l2.253,3.096l2.252-3.096
			h1.553v7.199h-1.357L526.68,525.118L526.68,525.118z"/>
		<path fill="#FFFFFF" d="M533.767,528.976h-3.764l-0.617,1.356h-1.471l3.229-7.198h1.479l3.229,7.198h-1.481L533.767,528.976z
			 M531.885,524.646l-1.337,3.065h2.674L531.885,524.646z"/>
		<path fill="#FFFFFF" d="M537.274,523.134v5.943h3.701v1.255h-5.06v-7.198H537.274z"/>
		<path fill="#FFFFFF" d="M520.251,547.428c-0.74,0.729-1.697,1.068-2.736,1.068c-2.674,0-3.805-1.841-3.814-3.712
			c-0.011-1.882,1.214-3.795,3.814-3.795c0.979,0,1.903,0.37,2.645,1.102l-0.905,0.874c-0.473-0.463-1.11-0.68-1.738-0.68
			c-1.736,0-2.487,1.297-2.479,2.499c0.011,1.192,0.7,2.438,2.479,2.438c0.628,0,1.338-0.258,1.812-0.73L520.251,547.428z"/>
		<path fill="#FFFFFF" d="M527.43,544.774c-0.021,1.861-1.163,3.723-3.691,3.723c-2.53,0-3.702-1.819-3.702-3.712
			s1.213-3.795,3.702-3.795C526.216,540.99,527.45,542.893,527.43,544.774z M521.372,544.806c0.03,1.183,0.668,2.447,2.365,2.447
			c1.695,0,2.334-1.275,2.354-2.458c0.021-1.213-0.658-2.571-2.354-2.571C522.04,542.224,521.341,543.592,521.372,544.806z"/>
		<path fill="#FFFFFF" d="M532.5,541.123h1.358v7.209h-0.845v0.012l-3.785-4.865v4.854h-1.356v-7.198h1.101l3.527,4.464V541.123z"/>
		<path fill="#FFFFFF" d="M536.976,549.957c0.299,0.401,1.102,0.452,1.225,0.041c0.112-0.391-0.483-0.638-0.874-0.359l-0.299-0.236
			l0.318-0.956c-2.17-0.288-3.096-1.965-3.105-3.661c-0.011-1.882,1.214-3.795,3.815-3.795c0.978,0,1.902,0.37,2.644,1.102
			l-0.905,0.874c-0.473-0.463-1.11-0.68-1.737-0.68c-1.737,0-2.488,1.297-2.479,2.499c0.011,1.192,0.7,2.438,2.479,2.438
			c0.627,0,1.337-0.258,1.811-0.73l0.926,0.937c-0.699,0.688-1.584,1.028-2.551,1.068l-0.145,0.464
			c0.945,0.03,1.151,0.669,1.06,1.184c-0.257,1.192-2.099,1.295-2.726,0.277L536.976,549.957z"/>
		<path fill="#FFFFFF" d="M547.106,541.145v4.124c0,2.129-1.307,3.219-3.116,3.219c-1.729,0-3.198-1.049-3.198-3.219v-4.124h1.348
			v4.124c0,1.296,0.74,1.984,1.861,1.984s1.759-0.751,1.759-1.984v-4.124H547.106z"/>
	</g>
	<g>
		<path fill="#FFFFFF" d="M631.489,403.549h-2.036v2.118h-1.357v-7.199c1.131,0,2.264-0.011,3.395-0.011
			C635.007,398.457,635.018,403.549,631.489,403.549z M629.453,402.304h2.036c1.737,0,1.729-2.55,0-2.55h-2.036V402.304z"/>
		<path fill="#FFFFFF" d="M640.777,405.666h-1.614l-2.099-2.405h-1.307v2.405h-1.356v-7.209c1.142,0,2.281,0.011,3.424,0.011
			c1.696,0.011,2.592,1.142,2.592,2.386c0,0.987-0.452,1.985-1.82,2.263l2.182,2.458L640.777,405.666L640.777,405.666z
			 M635.759,399.732v2.304h2.066c0.864,0,1.233-0.574,1.233-1.15s-0.38-1.152-1.233-1.152L635.759,399.732L635.759,399.732z"/>
		<path fill="#FFFFFF" d="M646.043,405.666h-5.389c0-2.396,0-4.803,0-7.198h5.389v1.315h-4.041v1.656h3.897v1.265h-3.897v1.625
			h4.041V405.666z"/>
		<path fill="#FFFFFF" d="M651.094,400.205c-0.247-0.41-0.926-0.803-1.708-0.803c-1.008,0-1.491,0.422-1.491,0.957
			c0,0.627,0.741,0.802,1.604,0.905c1.502,0.185,2.9,0.575,2.9,2.293c0,1.604-1.419,2.294-3.023,2.294
			c-1.471,0-2.603-0.453-3.137-1.771l1.131-0.586c0.318,0.792,1.151,1.143,2.025,1.143c0.854,0,1.655-0.299,1.655-1.08
			c0-0.679-0.709-0.956-1.666-1.061c-1.471-0.175-2.828-0.564-2.828-2.18c0-1.48,1.461-2.088,2.787-2.099
			c1.121,0,2.283,0.318,2.828,1.43L651.094,400.205z"/>
		<path fill="#FFFFFF" d="M659.846,401.975c0.012,0.823-0.205,1.677-0.668,2.345l0.854,0.844l-0.956,0.956l-0.875-0.862
			c-0.545,0.35-1.233,0.533-2.046,0.533c-2.563,0-3.692-1.86-3.703-3.731c-0.01-1.883,1.173-3.765,3.703-3.765
			C658.684,398.293,659.815,400.123,659.846,401.975z M653.789,402.088c0.021,1.183,0.802,2.447,2.365,2.447
			c1.625,0,2.405-1.367,2.354-2.603c-0.051-1.162-0.658-2.417-2.354-2.417C654.457,399.517,653.768,400.873,653.789,402.088z"/>
		<path fill="#FFFFFF" d="M666.49,398.479v4.124c0,2.129-1.307,3.219-3.116,3.219c-1.729,0-3.198-1.049-3.198-3.219v-4.124h1.349
			v4.124c0,1.296,0.739,1.984,1.86,1.984s1.759-0.751,1.759-1.984v-4.124H666.49z"/>
		<path fill="#FFFFFF" d="M672.527,405.666h-5.39c0-2.396,0-4.803,0-7.198h5.39v1.315h-4.041v1.656h3.896v1.265h-3.896v1.625h4.041
			V405.666z"/>
		<path fill="#FFFFFF" d="M634.75,422.762c-0.74,0.729-1.697,1.068-2.736,1.068c-2.674,0-3.805-1.841-3.814-3.712
			c-0.01-1.882,1.214-3.795,3.814-3.795c0.979,0,1.903,0.37,2.645,1.102l-0.905,0.874c-0.473-0.463-1.11-0.68-1.738-0.68
			c-1.736,0-2.487,1.296-2.479,2.499c0.011,1.192,0.7,2.438,2.479,2.438c0.628,0,1.338-0.258,1.812-0.73L634.75,422.762z"/>
		<path fill="#FFFFFF" d="M641.929,420.108c-0.021,1.861-1.163,3.723-3.691,3.723c-2.53,0-3.702-1.819-3.702-3.712
			s1.213-3.795,3.702-3.795C640.715,416.323,641.949,418.227,641.929,420.108z M635.871,420.14c0.03,1.183,0.668,2.447,2.365,2.447
			c1.695,0,2.334-1.275,2.354-2.458c0.021-1.214-0.658-2.571-2.354-2.571C636.539,417.558,635.84,418.926,635.871,420.14z"/>
		<path fill="#FFFFFF" d="M648.655,423.666h-1.614l-2.099-2.405h-1.307v2.405h-1.356v-7.209c1.142,0,2.283,0.011,3.424,0.011
			c1.697,0.011,2.592,1.142,2.592,2.386c0,0.987-0.452,1.985-1.82,2.263l2.182,2.458L648.655,423.666L648.655,423.666z
			 M643.637,417.732v2.304h2.066c0.864,0,1.234-0.574,1.234-1.15s-0.381-1.152-1.234-1.152L643.637,417.732L643.637,417.732z"/>
		<path fill="#FFFFFF" d="M654.939,423.666h-1.614l-2.1-2.405h-1.306v2.405h-1.357v-7.209c1.143,0,2.282,0.011,3.425,0.011
			c1.696,0.011,2.592,1.142,2.592,2.386c0,0.987-0.452,1.985-1.82,2.263l2.182,2.458L654.939,423.666L654.939,423.666z
			 M649.921,417.732v2.304h2.066c0.863,0,1.233-0.574,1.233-1.15s-0.38-1.152-1.233-1.152L649.921,417.732L649.921,417.732z"/>
		<path fill="#FFFFFF" d="M660.205,423.666h-5.389c0-2.396,0-4.803,0-7.198h5.389v1.315h-4.041v1.656h3.896v1.265h-3.896v1.625
			h4.041V423.666z"/>
		<path fill="#FFFFFF" d="M666.942,422.762c-0.74,0.729-1.697,1.068-2.735,1.068c-2.675,0-3.806-1.841-3.816-3.712
			c-0.01-1.882,1.215-3.795,3.816-3.795c0.977,0,1.902,0.37,2.643,1.102l-0.904,0.874c-0.474-0.463-1.11-0.68-1.737-0.68
			c-1.738,0-2.489,1.296-2.479,2.499c0.012,1.192,0.7,2.438,2.479,2.438c0.627,0,1.337-0.258,1.81-0.73L666.942,422.762z"/>
		<path fill="#FFFFFF" d="M668.804,417.701h-2.282v-1.233c2.077,0,3.836,0,5.924,0v1.233h-2.283v5.965h-1.357L668.804,417.701
			L668.804,417.701z"/>
	</g>
	<g>
		<path fill="#FFFFFF" d="M270.817,536.976h-3.764l-0.617,1.356h-1.471l3.229-7.198h1.481l3.229,7.198h-1.481L270.817,536.976z
			 M268.936,532.646l-1.337,3.065h2.674L268.936,532.646z"/>
		<path fill="#FFFFFF" d="M278.634,531.145v4.124c0,2.129-1.306,3.219-3.116,3.219c-1.728,0-3.199-1.049-3.199-3.219v-4.124h1.347
			v4.124c0,1.296,0.741,1.984,1.862,1.984c1.121,0,1.758-0.751,1.758-1.984v-4.124H278.634z"/>
		<path fill="#FFFFFF" d="M285.649,537.428c-0.741,0.729-1.697,1.068-2.736,1.068c-2.674,0-3.805-1.841-3.815-3.712
			c-0.01-1.882,1.213-3.795,3.815-3.795c0.977,0,1.903,0.37,2.643,1.102l-0.905,0.874c-0.473-0.463-1.111-0.68-1.738-0.68
			c-1.738,0-2.489,1.297-2.479,2.499c0.01,1.192,0.699,2.438,2.479,2.438c0.627,0,1.337-0.258,1.81-0.73L285.649,537.428z"/>
		<path fill="#FFFFFF" d="M291.964,531.145v4.124c0,2.129-1.306,3.219-3.116,3.219c-1.728,0-3.199-1.049-3.199-3.219v-4.124h1.347
			v4.124c0,1.296,0.741,1.984,1.862,1.984s1.758-0.751,1.758-1.984v-4.124H291.964z"/>
		<path fill="#FFFFFF" d="M297.365,531.123h1.357v7.209h-0.843v0.012l-3.785-4.865v4.854h-1.357v-7.198h1.1l3.528,4.464V531.123z"/>
		<path fill="#FFFFFF" d="M242.368,556.332v-7.198h1.347v7.198H242.368z"/>
		<path fill="#FFFFFF" d="M249.064,549.123h1.357v7.209h-0.843v0.012l-3.785-4.865v4.854h-1.357v-7.198h1.1l3.528,4.464V549.123z"/>
		<path fill="#FFFFFF" d="M254.917,556.364h-1.409l-2.993-7.229h1.522l2.17,5.604l2.18-5.604h1.522L254.917,556.364z"/>
		<path fill="#FFFFFF" d="M263.453,556.332h-5.389c0-2.396,0-4.803,0-7.198h5.389v1.315h-4.042v1.656h3.898v1.265h-3.898v1.625
			h4.042V556.332z"/>
		<path fill="#FFFFFF" d="M268.503,550.871c-0.247-0.41-0.926-0.803-1.707-0.803c-1.008,0-1.491,0.422-1.491,0.957
			c0,0.627,0.74,0.802,1.604,0.905c1.501,0.185,2.9,0.575,2.9,2.293c0,1.604-1.419,2.294-3.023,2.294
			c-1.471,0-2.602-0.453-3.137-1.77l1.131-0.587c0.319,0.792,1.152,1.143,2.026,1.143c0.854,0,1.656-0.299,1.656-1.08
			c0-0.679-0.71-0.956-1.666-1.06c-1.471-0.176-2.828-0.565-2.828-2.181c0-1.48,1.46-2.088,2.787-2.099
			c1.121,0,2.283,0.318,2.829,1.43L268.503,550.871z"/>
		<path fill="#FFFFFF" d="M272.062,550.367h-2.283v-1.233c2.077,0,3.836,0,5.924,0v1.233h-2.283v5.965h-1.358V550.367z"/>
		<path fill="#FFFFFF" d="M275.878,556.332v-7.198h1.347v7.198H275.878z"/>
		<path fill="#FFFFFF" d="M282.492,550.871c-0.247-0.41-0.926-0.803-1.707-0.803c-1.008,0-1.491,0.422-1.491,0.957
			c0,0.627,0.74,0.802,1.604,0.905c1.502,0.185,2.9,0.575,2.9,2.293c0,1.604-1.419,2.294-3.023,2.294
			c-1.471,0-2.602-0.453-3.137-1.77l1.131-0.587c0.319,0.792,1.152,1.143,2.026,1.143c0.854,0,1.656-0.299,1.656-1.08
			c0-0.679-0.709-0.956-1.666-1.06c-1.471-0.176-2.829-0.565-2.829-2.181c0-1.48,1.46-2.088,2.787-2.099
			c1.121,0,2.283,0.318,2.829,1.43L282.492,550.871z"/>
		<path fill="#FFFFFF" d="M288.632,550.871c-0.247-0.41-0.926-0.803-1.707-0.803c-1.008,0-1.491,0.422-1.491,0.957
			c0,0.627,0.74,0.802,1.604,0.905c1.502,0.185,2.9,0.575,2.9,2.293c0,1.604-1.419,2.294-3.023,2.294
			c-1.471,0-2.602-0.453-3.137-1.77l1.131-0.587c0.319,0.792,1.152,1.143,2.026,1.143c0.854,0,1.656-0.299,1.656-1.08
			c0-0.679-0.709-0.956-1.666-1.06c-1.471-0.176-2.829-0.565-2.829-2.181c0-1.48,1.46-2.088,2.787-2.099
			c1.121,0,2.283,0.318,2.829,1.43L288.632,550.871z"/>
		<path fill="#FFFFFF" d="M295.698,556.332h-5.389c0-2.396,0-4.803,0-7.198h5.389v1.315h-4.042v1.656h3.898v1.265h-3.898v1.625
			h4.042V556.332z"/>
		<path fill="#FFFFFF" d="M302.363,551.118l-2.345,3.126h-0.268l-2.293-3.137v5.235H296.1v-7.199h1.563l2.252,3.096l2.252-3.096
			h1.553v7.199h-1.357V551.118z"/>
		<path fill="#FFFFFF" d="M309.707,556.332h-5.389c0-2.396,0-4.803,0-7.198h5.389v1.315h-4.042v1.656h3.898v1.265h-3.898v1.625
			h4.042V556.332z"/>
		<path fill="#FFFFFF" d="M315.045,549.123h1.357v7.209h-0.843v0.012l-3.785-4.865v4.854h-1.357v-7.198h1.1l3.528,4.464V549.123z"/>
		<path fill="#FFFFFF" d="M318.851,550.367h-2.283v-1.233c2.077,0,3.836,0,5.924,0v1.233h-2.283v5.965h-1.358V550.367
			L318.851,550.367z"/>
	</g>
</g>
</svg>
