<?xml version="1.0" encoding="UTF-8" standalone="no"?>
<!-- Generator: Adobe Illustrator 16.0.0, SVG Export Plug-In . SVG Version: 6.00 Build 0)  -->

<svg
   xmlns:dc="http://purl.org/dc/elements/1.1/"
   xmlns:cc="http://creativecommons.org/ns#"
   xmlns:rdf="http://www.w3.org/1999/02/22-rdf-syntax-ns#"
   xmlns:svg="http://www.w3.org/2000/svg"
   xmlns="http://www.w3.org/2000/svg"
   xmlns:xlink="http://www.w3.org/1999/xlink"
   xmlns:sodipodi="http://sodipodi.sourceforge.net/DTD/sodipodi-0.dtd"
   xmlns:inkscape="http://www.inkscape.org/namespaces/inkscape"
   version="1.1"
   x="0px"
   y="0px"
   width="800px"
   height="600px"
   viewBox="0 0 800 600"
   enable-background="new 0 0 800 600"
   xml:space="preserve"
   id="svg2"
   inkscape:version="0.48.5 r10040"
   sodipodi:docname="QuentinBrunet_TweetPalette.svg"><script
   xlink:href="js/Quentin.js"
   id="script3723" /><script
   xlink:href="js/d3.js"
   id="script3721" /><metadata
   id="metadata744"><rdf:RDF><cc:Work
       rdf:about=""><dc:format>image/svg+xml</dc:format><dc:type
         rdf:resource="http://purl.org/dc/dcmitype/StillImage" /></cc:Work></rdf:RDF></metadata><defs
   id="defs742" /><sodipodi:namedview
   pagecolor="#ffffff"
   bordercolor="#666666"
   borderopacity="1"
   objecttolerance="10"
   gridtolerance="10"
   guidetolerance="10"
   inkscape:pageopacity="0"
   inkscape:pageshadow="2"
   inkscape:window-width="640"
   inkscape:window-height="480"
   id="namedview740"
   showgrid="false"
   inkscape:zoom="0.39333333"
   inkscape:cx="400"
   inkscape:cy="300"
   inkscape:window-x="0"
   inkscape:window-y="0"
   inkscape:window-maximized="0"
   inkscape:current-layer="svg2" />
<g
   id="Layer_2">
	<path
   fill="#07D85B"
   d="M400,300V10.113C383.857,6.766,367.135,5,350,5C214.688,5,105,114.688,105,250   c0,17.135,1.766,33.857,5.113,50H400z"
   id="path5" />
	<path
   fill="#41AF51"
   d="M400,300V82.26C384.156,77.545,367.376,75,350,75c-96.648,0-175,78.352-175,175   c0,17.376,2.545,34.156,7.26,50H400z"
   id="path7" />
	<path
   fill="#82E882"
   d="M400,157.646C385.134,149.581,368.103,145,350,145c-57.99,0-105,47.01-105,105   c0,16.897,3.997,32.859,11.088,47H400V157.646z"
   id="path9" />
	<path
   fill="#2559A5"
   d="M691.479,297c2.956-15.213,4.521-30.922,4.521-47C696,114.688,586.316,5,451,5   c-17.49,0-34.548,1.847-51,5.331V297H691.479z"
   id="path11" />
	<path
   fill="#2D899E"
   d="M619.608,297c4.159-14.957,6.392-30.717,6.392-47c0-96.648-78.344-175-175-175   c-17.742,0-34.863,2.649-51,7.559V297H619.608z"
   id="path13" />
	<path
   fill="#2DC7D3"
   d="M544.912,297C552.003,282.859,556,266.897,556,250c0-57.99-47.008-105-105-105   c-18.511,0-35.898,4.796-51,13.204V297H544.912z"
   id="path15" />
	<path
   fill="#F43D53"
   d="M111.681,293c-4.358,18.292-6.681,37.373-6.681,57c0,135.316,109.688,245,245,245   c17.135,0,33.857-1.766,50-5.112V293H111.681z"
   id="path17" />
	<path
   fill="#C12323"
   d="M183.18,297c-5.308,16.72-8.18,34.523-8.18,53c0,96.656,78.352,175,175,175c17.011,0,33.451-2.437,49-6.962   V297H183.18z"
   id="path19" />
	<path
   fill="#E2607C"
   d="M400,297H259.346C250.231,312.558,245,330.667,245,350c0,57.992,47.01,105,105,105   c18.103,0,35.134-4.581,50-12.646V297z"
   id="path21" />
	<path
   fill="#E2762D"
   d="M400,293v297h-2.481c15.981,3.277,32.53,5,49.481,5c135.316,0,245-109.684,245-245   c0-19.627-2.322-38.708-6.681-57H400z"
   id="path23" />
	<path
   fill="#BA6519"
   d="M400,293v225.607c14.957,4.16,30.717,6.393,47,6.393c96.656,0,175-78.344,175-175   c0-19.958-3.349-39.132-9.502-57H400z"
   id="path25" />
	<path
   fill="#D89545"
   d="M400,297v146.912C414.142,451.003,430.103,455,447,455c57.992,0,105-47.008,105-105   c0-19.333-5.23-37.442-14.346-53H400z"
   id="path27" />
	<rect
   x="385"
   fill="#FFFFFF"
   width="30"
   height="633"
   id="rect29" />
	<rect
   y="285"
   fill="#FFFFFF"
   width="901"
   height="30"
   id="rect31" />
	<rect
   x="350"
   y="250"
   fill="#FFFFFF"
   width="97"
   height="98"
   id="rect33" />
</g>
<g
   id="Layer_1">
	<circle
   fill="#883F99"
   cx="400"
   cy="300"
   r="30"
   id="circle36" />
	<g
   id="g38">
		<path
   fill="#FFFFFF"
   d="M391.514,291.189c-0.524-0.843-1.368-0.967-2.18-0.977c-0.843,0-2.18,0.309-2.18,1.46    c0,0.915,0.987,1.131,2.201,1.357c1.389,0.267,2.828,0.514,2.828,2.067c-0.01,1.625-1.646,2.016-2.849,2.016    c-1.121,0-2.396-0.463-2.952-1.563l0.494-0.247c0.442,0.874,1.574,1.306,2.458,1.306s2.293-0.247,2.293-1.522    c0.01-1.08-1.183-1.316-2.365-1.542c-1.316-0.257-2.664-0.524-2.664-1.851c-0.031-1.522,1.553-1.995,2.736-1.995    c1.028,0,1.923,0.165,2.633,1.224L391.514,291.189z"
   id="path40" />
		<path
   fill="#FFFFFF"
   d="M399.084,297l-0.792-1.769h-4.299L393.211,297h-0.596l3.229-7.199h0.607L399.68,297H399.084z     M398.076,294.716l-1.934-4.381l-1.934,4.381H398.076z"
   id="path42" />
		<path
   fill="#FFFFFF"
   d="M400.854,289.8l4.844,5.955V289.8h0.545V297h-0.216l-4.854-5.944V297h-0.555V289.8H400.854z"
   id="path44" />
		<path
   fill="#FFFFFF"
   d="M412.629,291.189c-0.524-0.843-1.367-0.967-2.18-0.977c-0.844,0-2.181,0.309-2.181,1.46    c0,0.915,0.987,1.131,2.201,1.357c1.388,0.267,2.828,0.514,2.828,2.067c-0.011,1.625-1.646,2.016-2.849,2.016    c-1.121,0-2.396-0.463-2.952-1.563l0.494-0.247c0.441,0.874,1.573,1.306,2.458,1.306c0.884,0,2.293-0.247,2.293-1.522    c0.011-1.08-1.183-1.316-2.365-1.542c-1.316-0.257-2.664-0.524-2.664-1.851c-0.03-1.522,1.553-1.995,2.736-1.995    c1.028,0,1.923,0.165,2.633,1.224L412.629,291.189z"
   id="path46" />
		<path
   fill="#FFFFFF"
   d="M395.458,314l-0.792-1.769h-4.299L389.586,314h-0.597l3.229-7.199h0.607l3.229,7.199H395.458z     M394.451,311.717l-1.934-4.381l-1.934,4.381H394.451z"
   id="path48" />
		<path
   fill="#FFFFFF"
   d="M401.773,306.801l-2.962,7.22h-0.596l-2.962-7.22h0.596l2.664,6.582l2.663-6.582H401.773z"
   id="path50" />
		<path
   fill="#FFFFFF"
   d="M402.742,314v-7.199h0.545V314H402.742z"
   id="path52" />
		<path
   fill="#FFFFFF"
   d="M409.745,308.189c-0.524-0.844-1.367-0.967-2.18-0.978c-0.844,0-2.181,0.309-2.181,1.461    c0,0.915,0.987,1.131,2.201,1.357c1.388,0.268,2.828,0.515,2.828,2.067c-0.011,1.625-1.646,2.016-2.849,2.016    c-1.121,0-2.396-0.463-2.952-1.563l0.494-0.247c0.441,0.875,1.573,1.307,2.458,1.307c0.884,0,2.293-0.247,2.293-1.522    c0.011-1.08-1.183-1.316-2.365-1.542c-1.316-0.258-2.664-0.525-2.664-1.852c-0.03-1.522,1.553-1.995,2.736-1.995    c1.028,0,1.923,0.164,2.633,1.224L409.745,308.189z"
   id="path54" />
	</g>
	<circle
   fill="#EF2039"
   stroke="#FFFFFF"
   stroke-width="10"
   stroke-miterlimit="10"
   cx="350"
   cy="350"
   r="35"
   id="circle56" />
	<circle
   fill="#2BD664"
   stroke="#FFFFFF"
   stroke-width="10"
   stroke-miterlimit="10"
   cx="350"
   cy="250"
   r="35"
   id="circle58" />
	<circle
   fill="#F96A2B"
   stroke="#FFFFFF"
   stroke-width="10"
   stroke-miterlimit="10"
   cx="450"
   cy="350"
   r="35"
   id="circle60" />
	<circle
   fill="#2F76F4"
   stroke="#FFFFFF"
   stroke-width="10"
   stroke-miterlimit="10"
   cx="450"
   cy="250"
   r="35"
   id="circle62" />
	<g
   id="g64">
		<path
   fill="#4C4C4C"
   d="M455.05,300.332h4.027v0.51h-4.027v3.168h-0.54v-7.006h4.707v0.54h-4.167V300.332z"
   id="path66" />
		<path
   fill="#4C4C4C"
   d="M470.376,300.511c-0.01,1.839-1.179,3.608-3.527,3.608s-3.528-1.779-3.528-3.628    c0-1.879,1.169-3.598,3.528-3.598C469.207,296.894,470.387,298.623,470.376,300.511z M463.85,300.501    c0.011,1.579,1.01,3.118,2.999,3.118c1.999,0,3.008-1.539,3.008-3.118c0-1.619-0.999-3.108-3.008-3.108    S463.84,298.853,463.85,300.501z"
   id="path68" />
		<path
   fill="#4C4C4C"
   d="M474.9,297.003l4.707,5.787v-5.787h0.529V304h-0.209l-4.718-5.777V304h-0.54v-6.997H474.9z"
   id="path70" />
		<path
   fill="#4C4C4C"
   d="M490.477,303.03c-0.699,0.699-1.629,1.05-2.548,1.05c-2.359,0-3.588-1.65-3.599-3.539    c-0.02-1.869,1.199-3.618,3.599-3.618c0.919,0,1.849,0.35,2.548,1.049l-0.369,0.32c-0.6-0.6-1.39-0.889-2.179-0.889    c-2.039,0-3.089,1.439-3.078,3.118c0.02,1.639,1.059,3.059,3.078,3.059c0.789,0,1.589-0.301,2.188-0.89L490.477,303.03z"
   id="path72" />
		<path
   fill="#4C4C4C"
   d="M496.629,297.493H494.1v-0.48h5.598v0.48h-2.529V304h-0.539V297.493z"
   id="path74" />
		<path
   fill="#4C4C4C"
   d="M503.729,304v-6.997h0.53V304H503.729z"
   id="path76" />
		<path
   fill="#4C4C4C"
   d="M515.766,300.511c-0.01,1.839-1.179,3.608-3.527,3.608s-3.528-1.779-3.528-3.628    c0-1.879,1.169-3.598,3.528-3.598C514.597,296.894,515.776,298.623,515.766,300.511z M509.239,300.501    c0.011,1.579,1.01,3.118,2.999,3.118c1.999,0,3.008-1.539,3.008-3.118c0-1.619-0.999-3.108-3.008-3.108    S509.229,298.853,509.239,300.501z"
   id="path78" />
		<path
   fill="#4C4C4C"
   d="M520.29,297.003l4.707,5.787v-5.787h0.529V304h-0.209l-4.718-5.777V304h-0.54v-6.997H520.29z"
   id="path80" />
		<path
   fill="#4C4C4C"
   d="M530.33,297.003l4.707,5.787v-5.787h0.529V304h-0.209l-4.718-5.777V304h-0.54v-6.997H530.33z"
   id="path82" />
		<path
   fill="#4C4C4C"
   d="M540.659,300.231h4.099v0.49h-4.099v2.759h4.418V304h-4.947v-6.997h4.827v0.51h-4.298V300.231z"
   id="path84" />
		<path
   fill="#4C4C4C"
   d="M549.81,297.003v6.487h3.938V304h-4.478v-6.997H549.81z"
   id="path86" />
	</g>
	<g
   id="g88">
		<path
   fill="#4C4C4C"
   d="M402.013,148.687c-0.51-0.819-1.33-0.939-2.119-0.949c-0.819,0-2.119,0.3-2.119,1.419    c0,0.89,0.959,1.1,2.139,1.319c1.35,0.26,2.749,0.5,2.749,2.009c-0.01,1.579-1.6,1.959-2.769,1.959    c-1.089,0-2.329-0.45-2.868-1.519l0.479-0.24c0.43,0.849,1.529,1.269,2.389,1.269c0.86,0,2.229-0.24,2.229-1.479    c0.01-1.049-1.15-1.279-2.299-1.5c-1.279-0.25-2.588-0.509-2.588-1.799c-0.03-1.479,1.509-1.939,2.658-1.939    c1,0,1.869,0.16,2.559,1.189L402.013,148.687z"
   id="path90" />
		<path
   fill="#4C4C4C"
   d="M399.589,159.827h-2.528v-0.48h5.597v0.48h-2.528v6.506h-0.54V159.827z"
   id="path92" />
		<path
   fill="#4C4C4C"
   d="M402.982,178.333h-0.71l-2.419-2.648h-1.909v2.648h-0.54v-6.996c1.03,0,2.049,0,3.079,0    c1.519,0,2.288,1.089,2.299,2.179c0.01,1.14-0.739,2.139-2.269,2.139L402.982,178.333z M397.945,175.175h2.479    c1.219,0,1.759-0.689,1.769-1.669c0.01-0.82-0.55-1.669-1.709-1.669h-2.539V175.175z"
   id="path94" />
		<path
   fill="#4C4C4C"
   d="M402.582,183.337v4.348c0,3.658-5.357,3.668-5.357,0v-4.348h0.53v4.348c0,3.008,4.298,2.998,4.298,0    v-4.348H402.582z"
   id="path96" />
		<path
   fill="#4C4C4C"
   d="M403.053,201.364c-0.7,0.699-1.629,1.049-2.549,1.049c-2.358,0-3.588-1.649-3.598-3.538    c-0.02-1.869,1.199-3.618,3.598-3.618c0.92,0,1.849,0.35,2.549,1.049l-0.37,0.32c-0.601-0.6-1.39-0.889-2.179-0.889    c-2.039,0-3.088,1.439-3.078,3.118c0.02,1.639,1.06,3.058,3.078,3.058c0.79,0,1.589-0.3,2.189-0.889L403.053,201.364z"
   id="path98" />
		<path
   fill="#4C4C4C"
   d="M399.589,207.827h-2.528v-0.48h5.597v0.48h-2.528v6.506h-0.54V207.827z"
   id="path100" />
		<path
   fill="#4C4C4C"
   d="M402.582,219.337v4.348c0,3.658-5.357,3.668-5.357,0v-4.348h0.53v4.348c0,3.008,4.298,2.998,4.298,0    v-4.348H402.582z"
   id="path102" />
		<path
   fill="#4C4C4C"
   d="M402.982,238.333h-0.71l-2.419-2.648h-1.909v2.648h-0.54v-6.996c1.03,0,2.049,0,3.079,0    c1.519,0,2.288,1.089,2.299,2.179c0.01,1.14-0.739,2.139-2.269,2.139L402.982,238.333z M397.945,235.175h2.479    c1.219,0,1.759-0.689,1.769-1.669c0.01-0.82-0.55-1.669-1.709-1.669h-2.539V235.175z"
   id="path104" />
		<path
   fill="#4C4C4C"
   d="M398.1,246.565h4.097v0.49H398.1v2.759h4.417v0.52h-4.947v-6.996h4.827v0.51H398.1V246.565z     M400.139,242.558l0.92-1.229v-0.01h-0.65l-0.75,1.199v0.04H400.139z"
   id="path106" />
	</g>
	<g
   id="g108">
		<path
   fill="#4C4C4C"
   d="M229.139,300.422c0.04,1.779-1.099,3.578-3.548,3.578c-0.79,0-1.579,0-2.369,0v-6.996    c0.79,0,1.579,0,2.369,0C227.96,297.004,229.099,298.703,229.139,300.422z M223.762,297.514v5.967h1.829    c2.079,0,3.038-1.56,3.008-3.059c-0.03-1.459-0.99-2.908-3.008-2.908H223.762z"
   id="path110" />
		<path
   fill="#4C4C4C"
   d="M233.482,304v-6.996h0.53V304H233.482z"
   id="path112" />
		<path
   fill="#4C4C4C"
   d="M243.29,298.353c-0.51-0.819-1.33-0.939-2.119-0.949c-0.819,0-2.119,0.3-2.119,1.419    c0,0.89,0.959,1.1,2.139,1.319c1.35,0.26,2.749,0.5,2.749,2.008c-0.01,1.58-1.599,1.96-2.769,1.96c-1.089,0-2.329-0.45-2.868-1.52    l0.479-0.239c0.43,0.849,1.529,1.269,2.389,1.269c0.86,0,2.229-0.239,2.229-1.479c0.01-1.049-1.149-1.279-2.299-1.499    c-1.279-0.25-2.588-0.509-2.588-1.799c-0.03-1.479,1.509-1.939,2.658-1.939c1,0,1.869,0.16,2.559,1.189L243.29,298.353z"
   id="path114" />
		<path
   fill="#4C4C4C"
   d="M248.622,300.332h4.028v0.51h-4.028v3.168h-0.54v-7.006h4.708v0.54h-4.168V300.332z"
   id="path116" />
		<path
   fill="#4C4C4C"
   d="M263.948,300.512c-0.01,1.84-1.179,3.608-3.528,3.608c-2.349,0-3.528-1.779-3.528-3.628    c0-1.879,1.169-3.598,3.528-3.598C262.779,296.894,263.958,298.623,263.948,300.512z M257.422,300.502    c0.01,1.579,1.009,3.118,2.998,3.118c1.999,0,3.008-1.539,3.008-3.118c0-1.619-0.999-3.108-3.008-3.108    C258.411,297.394,257.412,298.853,257.422,300.502z"
   id="path118" />
		<path
   fill="#4C4C4C"
   d="M268.472,297.004l4.708,5.787v-5.787h0.53V304h-0.21l-4.717-5.777V304h-0.54v-6.996H268.472z"
   id="path120" />
		<path
   fill="#4C4C4C"
   d="M284.049,303.031c-0.7,0.699-1.629,1.049-2.549,1.049c-2.358,0-3.588-1.649-3.598-3.538    c-0.02-1.869,1.199-3.618,3.598-3.618c0.92,0,1.849,0.35,2.549,1.049l-0.37,0.32c-0.6-0.6-1.39-0.889-2.179-0.889    c-2.039,0-3.088,1.439-3.078,3.118c0.02,1.639,1.06,3.058,3.078,3.058c0.79,0,1.589-0.3,2.189-0.889L284.049,303.031z"
   id="path122" />
		<path
   fill="#4C4C4C"
   d="M290.201,297.494h-2.528v-0.48h5.597v0.48h-2.528V304h-0.54V297.494z"
   id="path124" />
		<path
   fill="#4C4C4C"
   d="M297.302,304v-6.996h0.53V304H297.302z"
   id="path126" />
		<path
   fill="#4C4C4C"
   d="M309.338,300.512c-0.01,1.84-1.179,3.608-3.528,3.608c-2.349,0-3.528-1.779-3.528-3.628    c0-1.879,1.169-3.598,3.528-3.598C308.169,296.894,309.348,298.623,309.338,300.512z M302.812,300.502    c0.01,1.579,1.009,3.118,2.998,3.118c1.999,0,3.009-1.539,3.009-3.118c0-1.619-1-3.108-3.009-3.108    C303.801,297.394,302.802,298.853,302.812,300.502z"
   id="path128" />
		<path
   fill="#4C4C4C"
   d="M313.862,297.004l4.708,5.787v-5.787h0.53V304h-0.21l-4.717-5.777V304h-0.54v-6.996H313.862z"
   id="path130" />
		<path
   fill="#4C4C4C"
   d="M323.902,297.004l4.708,5.787v-5.787h0.53V304h-0.21l-4.717-5.777V304h-0.54v-6.996H323.902z"
   id="path132" />
		<path
   fill="#4C4C4C"
   d="M334.232,300.232h4.098v0.49h-4.098v2.759h4.417V304h-4.947v-6.996h4.827v0.51h-4.297V300.232z"
   id="path134" />
		<path
   fill="#4C4C4C"
   d="M343.382,297.004v6.486h3.938V304h-4.478v-6.996H343.382z"
   id="path136" />
	</g>
	<g
   id="g138">
		<path
   fill="#4C4C4C"
   d="M402.961,354.756c0.041,1.779-1.099,3.578-3.547,3.578c-0.79,0-1.579,0-2.369,0v-6.996    c0.79,0,1.579,0,2.369,0C401.782,351.338,402.922,353.037,402.961,354.756z M397.584,351.848v5.967h1.829    c2.079,0,3.038-1.56,3.008-3.059c-0.03-1.459-0.99-2.908-3.008-2.908H397.584z"
   id="path140" />
		<path
   fill="#4C4C4C"
   d="M398.1,366.565h4.098v0.489H398.1v2.76h4.418v0.52h-4.948v-6.996h4.827v0.51H398.1V366.565z"
   id="path142" />
		<path
   fill="#4C4C4C"
   d="M402.012,376.687c-0.51-0.819-1.329-0.939-2.119-0.949c-0.819,0-2.119,0.3-2.119,1.419    c0,0.89,0.959,1.1,2.139,1.319c1.35,0.26,2.749,0.5,2.749,2.009c-0.01,1.579-1.6,1.959-2.769,1.959    c-1.089,0-2.329-0.449-2.868-1.52l0.479-0.239c0.43,0.85,1.529,1.269,2.389,1.269c0.86,0,2.229-0.239,2.229-1.479    c0.01-1.049-1.149-1.279-2.299-1.499c-1.279-0.25-2.588-0.51-2.588-1.8c-0.03-1.479,1.509-1.938,2.658-1.938    c1,0,1.869,0.16,2.558,1.189L402.012,376.687z"
   id="path144" />
		<path
   fill="#4C4C4C"
   d="M399.588,387.827h-2.528v-0.479h5.596v0.479h-2.528v6.507h-0.54V387.827z"
   id="path146" />
		<path
   fill="#4C4C4C"
   d="M402.981,406.334h-0.71l-2.418-2.648h-1.909v2.648h-0.54v-6.996c1.03,0,2.049,0,3.079,0    c1.519,0,2.289,1.089,2.298,2.178c0.01,1.14-0.739,2.139-2.269,2.139L402.981,406.334z M397.944,403.176h2.479    c1.22,0,1.759-0.689,1.769-1.67c0.01-0.819-0.549-1.669-1.708-1.669h-2.539V403.176z"
   id="path148" />
		<path
   fill="#4C4C4C"
   d="M402.582,411.338v4.348c0,3.657-5.357,3.668-5.357,0v-4.348h0.53v4.348c0,3.008,4.297,2.998,4.297,0    v-4.348H402.582z"
   id="path150" />
		<path
   fill="#4C4C4C"
   d="M403.052,429.364c-0.7,0.699-1.629,1.05-2.549,1.05c-2.358,0-3.588-1.65-3.598-3.539    c-0.02-1.869,1.199-3.617,3.598-3.617c0.92,0,1.849,0.35,2.549,1.049l-0.37,0.32c-0.6-0.6-1.389-0.89-2.179-0.89    c-2.039,0-3.088,1.438-3.078,3.118c0.02,1.639,1.06,3.059,3.078,3.059c0.79,0,1.589-0.301,2.188-0.89L403.052,429.364z"
   id="path152" />
		<path
   fill="#4C4C4C"
   d="M399.588,435.828h-2.528v-0.48h5.596v0.48h-2.528v6.506h-0.54V435.828z"
   id="path154" />
		<path
   fill="#4C4C4C"
   d="M402.582,447.338v4.348c0,3.658-5.357,3.668-5.357,0v-4.348h0.53v4.348c0,3.008,4.297,2.998,4.297,0    v-4.348H402.582z"
   id="path156" />
		<path
   fill="#4C4C4C"
   d="M402.981,466.334h-0.71l-2.418-2.648h-1.909v2.648h-0.54v-6.996c1.03,0,2.049,0,3.079,0    c1.519,0,2.289,1.089,2.298,2.179c0.01,1.14-0.739,2.139-2.269,2.139L402.981,466.334z M397.944,463.176h2.479    c1.22,0,1.759-0.689,1.769-1.669c0.01-0.819-0.549-1.669-1.708-1.669h-2.539V463.176z"
   id="path158" />
		<path
   fill="#4C4C4C"
   d="M398.1,474.566h4.098v0.489H398.1v2.759h4.418v0.52h-4.948v-6.996h4.827v0.51H398.1V474.566z     M400.138,470.559l0.92-1.229v-0.01h-0.65l-0.75,1.199v0.04H400.138z"
   id="path160" />
	</g>
	<g
   id="g162">
		<path
   fill="#FFFFFF"
   d="M436.521,237.663l1.597-1.245c1.338,1.787,2.388,2.681,3.149,2.681c0.293,0,0.581-0.103,0.864-0.308    c0.449-0.928,1.079-1.392,1.89-1.392c0.586,0,1.072,0.244,1.457,0.732c0.387,0.488,0.579,1.094,0.579,1.816    c0,0.674-0.257,1.262-0.769,1.765c-0.514,0.503-1.106,0.755-1.78,0.755c-1.24,0-2.37-0.291-3.392-0.872    C439.098,241.015,437.898,239.704,436.521,237.663z M455.784,237.033c0.732,0,1.354,0.256,1.868,0.77    c0.512,0.512,0.769,1.135,0.769,1.867s-0.257,1.355-0.769,1.867c-0.514,0.514-1.136,0.77-1.868,0.77s-1.357-0.256-1.875-0.77    c-0.518-0.512-0.776-1.135-0.776-1.867s0.259-1.355,0.776-1.867C454.427,237.289,455.052,237.033,455.784,237.033z"
   id="path164" />
		<path
   fill="#FFFFFF"
   d="M435.335,256.888h2.476c2.148,1.934,6.26,2.9,12.334,2.9c5.107,0,9.014-0.967,11.719-2.9h2.021    c-1.006,2.002-2.863,3.687-5.574,5.054c-2.709,1.367-5.422,2.051-8.137,2.051c-3.174,0-6.05-0.607-8.628-1.824    C438.968,260.953,436.897,259.192,435.335,256.888z"
   id="path166" />
	</g>
	<g
   id="g168">
		<path
   fill="#FFFFFF"
   d="M343.919,237.008c0.732,0,1.355,0.256,1.868,0.769s0.769,1.135,0.769,1.868s-0.256,1.355-0.769,1.868    s-1.135,0.769-1.868,0.769s-1.357-0.256-1.875-0.769s-0.776-1.135-0.776-1.868s0.259-1.355,0.776-1.868    S343.187,237.008,343.919,237.008z M355.784,237.008c0.732,0,1.355,0.256,1.868,0.769s0.769,1.135,0.769,1.868    s-0.256,1.355-0.769,1.868s-1.135,0.769-1.868,0.769s-1.357-0.256-1.875-0.769s-0.776-1.135-0.776-1.868s0.259-1.355,0.776-1.868    S355.052,237.008,355.784,237.008z"
   id="path170" />
		<path
   fill="#FFFFFF"
   d="M347.896,260.481H340v-3.809h21.445c0.107,2.539,0.161,4.023,0.161,4.453c0,3.389-0.52,5.867-1.56,7.434    s-2.664,2.351-4.871,2.351c-4.922,0-7.383-2.9-7.383-8.701C347.793,261.78,347.827,261.204,347.896,260.481z M358.149,260.481    h-6.87c-0.068,0.645-0.103,1.152-0.103,1.523c0,1.738,0.291,3.008,0.872,3.809s1.526,1.201,2.834,1.201    c2.227,0,3.34-1.792,3.34-5.376C358.223,261.238,358.198,260.852,358.149,260.481z"
   id="path172" />
	</g>
	<g
   id="g174">
		<path
   fill="#FFFFFF"
   d="M343.919,337.367c0.732,0,1.355,0.256,1.868,0.77c0.513,0.512,0.769,1.135,0.769,1.867    s-0.256,1.355-0.769,1.867c-0.513,0.514-1.135,0.77-1.868,0.77s-1.357-0.256-1.875-0.77c-0.518-0.512-0.776-1.135-0.776-1.867    s0.259-1.355,0.776-1.867C342.562,337.623,343.187,337.367,343.919,337.367z M355.784,337.367c0.732,0,1.355,0.256,1.868,0.77    c0.513,0.512,0.769,1.135,0.769,1.867s-0.256,1.355-0.769,1.867c-0.513,0.514-1.135,0.77-1.868,0.77s-1.357-0.256-1.875-0.77    c-0.518-0.512-0.776-1.135-0.776-1.867s0.259-1.355,0.776-1.867C354.427,337.623,355.052,337.367,355.784,337.367z"
   id="path176" />
		<path
   fill="#FFFFFF"
   d="M363.885,364.326h-2.021c-2.705-1.934-6.611-2.9-11.719-2.9c-6.074,0-10.186,0.967-12.334,2.9h-2.476    c1.563-2.305,3.633-4.064,6.211-5.281c2.578-1.215,5.454-1.823,8.628-1.823c2.715,0,5.427,0.684,8.137,2.051    S362.879,362.324,363.885,364.326z"
   id="path178" />
	</g>
	<g
   id="g180">
		<path
   fill="#FFFFFF"
   d="M443.919,337.023c0.732,0,1.354,0.256,1.868,0.77c0.512,0.512,0.769,1.135,0.769,1.867    s-0.257,1.355-0.769,1.867c-0.514,0.514-1.136,0.77-1.868,0.77s-1.357-0.256-1.875-0.77c-0.518-0.512-0.776-1.135-0.776-1.867    s0.259-1.355,0.776-1.867C442.562,337.279,443.187,337.023,443.919,337.023z M455.784,337.023c0.732,0,1.354,0.256,1.868,0.77    c0.512,0.512,0.769,1.135,0.769,1.867s-0.257,1.355-0.769,1.867c-0.514,0.514-1.136,0.77-1.868,0.77s-1.357-0.256-1.875-0.77    c-0.518-0.512-0.776-1.135-0.776-1.867s0.259-1.355,0.776-1.867C454.427,337.279,455.052,337.023,455.784,337.023z"
   id="path182" />
		<path
   fill="#FFFFFF"
   d="M440,358.021v-3.296l21.548,8.101v3.267L440,358.021z"
   id="path184" />
	</g>
	<g
   id="g186">
		<path
   fill="#FFFFFF"
   d="M621.709,152.987c0,0.556-0.268,1.09-0.936,1.389c0.844,0.257,1.152,1.151,1.152,1.604    c0,1.604-1.203,2.118-2.695,2.118c-1.141,0-2.272,0-3.414,0v-7.199c1.131,0,2.273,0,3.414,0    C620.65,150.899,621.709,151.537,621.709,152.987z M617.153,153.789h2.077c0.854,0,1.131-0.359,1.131-0.771    c0-0.329-0.267-0.885-1.131-0.885h-2.077V153.789z M617.153,156.834h2.077c0.556,0,1.348-0.186,1.348-0.864    c0-0.647-0.792-0.987-1.348-0.987h-2.077V156.834z"
   id="path188" />
		<path
   fill="#FFFFFF"
   d="M629.27,158.099h-1.615l-2.098-2.406h-1.307v2.406h-1.357v-7.209c1.142,0,2.283,0.01,3.425,0.01    c1.696,0.011,2.592,1.142,2.592,2.386c0,0.987-0.452,1.985-1.82,2.263l2.181,2.458V158.099z M624.25,152.164v2.304h2.067    c0.864,0,1.233-0.575,1.233-1.151s-0.38-1.152-1.233-1.152H624.25z"
   id="path190" />
		<path
   fill="#FFFFFF"
   d="M629.836,158.099v-7.199h1.347v7.199H629.836z"
   id="path192" />
		<path
   fill="#FFFFFF"
   d="M633.816,150.899v5.944h3.702v1.255h-5.06v-7.199H633.816z"
   id="path194" />
		<path
   fill="#FFFFFF"
   d="M639.833,150.899v5.944h3.702v1.255h-5.06v-7.199H639.833z"
   id="path196" />
		<path
   fill="#FFFFFF"
   d="M649.604,156.741h-3.764l-0.617,1.357h-1.471l3.229-7.199h1.481l3.229,7.199h-1.48L649.604,156.741z     M647.723,152.411l-1.338,3.065h2.674L647.723,152.411z"
   id="path198" />
		<path
   fill="#FFFFFF"
   d="M657.041,150.89h1.357v7.209h-0.844v0.011l-3.785-4.865v4.854h-1.357v-7.199h1.101l3.528,4.464V150.89z"
   id="path200" />
		<path
   fill="#FFFFFF"
   d="M661.504,152.134h-2.282v-1.234c2.077,0,3.836,0,5.924,0v1.234h-2.283v5.965h-1.358V152.134z"
   id="path202" />
	</g>
	<g
   id="g204">
		<path
   fill="#FFFFFF"
   d="M626.629,233.418v-7.188h5.173v1.306h-3.815v1.965h3.609v1.254h-3.609v2.664H626.629z"
   id="path206" />
		<path
   fill="#FFFFFF"
   d="M637.305,232.061h-3.764l-0.617,1.357h-1.471l3.229-7.199h1.481l3.229,7.199h-1.48L637.305,232.061z     M635.424,227.73l-1.338,3.065h2.674L635.424,227.73z"
   id="path208" />
		<path
   fill="#FFFFFF"
   d="M644.196,226.209h1.357v7.209h-0.843v0.011l-3.785-4.865v4.854h-1.357v-7.199h1.1l3.528,4.464V226.209z"
   id="path210" />
		<path
   fill="#FFFFFF"
   d="M648.115,227.453h-2.283v-1.234c2.078,0,3.836,0,5.924,0v1.234h-2.283v5.965h-1.357V227.453z"
   id="path212" />
		<path
   fill="#FFFFFF"
   d="M657.146,232.061h-3.765l-0.616,1.357h-1.471l3.229-7.199h1.48l3.229,7.199h-1.481L657.146,232.061z     M655.264,227.73l-1.337,3.065h2.674L655.264,227.73z"
   id="path214" />
		<path
   fill="#FFFFFF"
   d="M663.637,227.957c-0.247-0.411-0.926-0.803-1.707-0.803c-1.008,0-1.492,0.422-1.492,0.957    c0,0.627,0.74,0.802,1.604,0.905c1.502,0.185,2.9,0.575,2.9,2.293c0,1.604-1.419,2.294-3.023,2.294    c-1.471,0-2.603-0.453-3.137-1.77l1.131-0.586c0.319,0.792,1.151,1.142,2.026,1.142c0.854,0,1.656-0.299,1.656-1.08    c0-0.679-0.71-0.956-1.666-1.06c-1.471-0.175-2.829-0.565-2.829-2.18c0-1.481,1.46-2.088,2.787-2.099    c1.121,0,2.283,0.319,2.829,1.43L663.637,227.957z"
   id="path216" />
		<path
   fill="#FFFFFF"
   d="M667.309,227.453h-2.283v-1.234c2.077,0,3.836,0,5.924,0v1.234h-2.283v5.965h-1.357V227.453z"
   id="path218" />
		<path
   fill="#FFFFFF"
   d="M671.238,233.418v-7.199h1.347v7.199H671.238z"
   id="path220" />
		<path
   fill="#FFFFFF"
   d="M680.371,229.726c0.01,0.823-0.206,1.677-0.669,2.345l0.854,0.844l-0.956,0.956l-0.875-0.863    c-0.545,0.35-1.234,0.534-2.046,0.534c-2.562,0-3.692-1.861-3.702-3.732c-0.011-1.883,1.172-3.765,3.702-3.765    S680.34,227.875,680.371,229.726z M674.313,229.839c0.021,1.183,0.803,2.448,2.366,2.448c1.624,0,2.406-1.368,2.354-2.603    c-0.051-1.162-0.658-2.417-2.354-2.417C674.981,227.268,674.293,228.625,674.313,229.839z"
   id="path222" />
		<path
   fill="#FFFFFF"
   d="M687.129,226.229v4.124c0,2.129-1.307,3.219-3.116,3.219c-1.728,0-3.198-1.049-3.198-3.219v-4.124h1.347    v4.124c0,1.296,0.741,1.984,1.862,1.984c1.12,0,1.758-0.751,1.758-1.984v-4.124H687.129z"
   id="path224" />
		<path
   fill="#FFFFFF"
   d="M693.279,233.418h-5.389c0-2.396,0-4.803,0-7.199h5.389v1.316h-4.041v1.656h3.897v1.265h-3.897v1.625    h4.041V233.418z"
   id="path226" />
	</g>
	<g
   id="g228">
		<path
   fill="#FFFFFF"
   d="M559.514,250v-7.199h1.347V250H559.514z"
   id="path230" />
		<path
   fill="#FFFFFF"
   d="M566.354,242.791h1.357V250h-0.844v0.011l-3.785-4.865V250h-1.357v-7.199h1.101l3.528,4.464V242.791z"
   id="path232" />
		<path
   fill="#FFFFFF"
   d="M570.303,244.035h-2.283v-1.234c2.077,0,3.836,0,5.924,0v1.234h-2.283V250h-1.357V244.035z"
   id="path234" />
		<path
   fill="#FFFFFF"
   d="M579.621,250h-5.389c0-2.396,0-4.803,0-7.199h5.389v1.316h-4.042v1.656h3.897v1.265h-3.897v1.625h4.042    V250z M578.623,240.61h-1.48l-0.762,1.398v0.062h1.111l1.131-1.408V240.61z"
   id="path236" />
		<path
   fill="#FFFFFF"
   d="M586.492,250h-1.615l-2.098-2.406h-1.307V250h-1.357v-7.209c1.142,0,2.283,0.01,3.425,0.01    c1.696,0.011,2.592,1.142,2.592,2.386c0,0.987-0.452,1.985-1.82,2.263l2.181,2.458V250z M581.473,244.065v2.304h2.067    c0.864,0,1.233-0.575,1.233-1.151s-0.38-1.152-1.233-1.152H581.473z"
   id="path238" />
		<path
   fill="#FFFFFF"
   d="M591.902,250h-5.389c0-2.396,0-4.803,0-7.199h5.389v1.316h-4.042v1.656h3.897v1.265h-3.897v1.625h4.042    V250z"
   id="path240" />
		<path
   fill="#FFFFFF"
   d="M597.096,244.539c-0.246-0.411-0.926-0.803-1.707-0.803c-1.008,0-1.491,0.422-1.491,0.957    c0,0.627,0.74,0.802,1.604,0.905c1.502,0.185,2.9,0.575,2.9,2.293c0,1.604-1.42,2.294-3.023,2.294    c-1.471,0-2.603-0.453-3.137-1.77l1.131-0.586c0.318,0.792,1.151,1.142,2.025,1.142c0.854,0,1.656-0.299,1.656-1.08    c0-0.679-0.709-0.956-1.666-1.06c-1.471-0.175-2.828-0.565-2.828-2.18c0-1.481,1.46-2.088,2.787-2.099    c1.121,0,2.283,0.319,2.828,1.43L597.096,244.539z"
   id="path242" />
		<path
   fill="#FFFFFF"
   d="M603.381,244.539c-0.247-0.411-0.926-0.803-1.707-0.803c-1.008,0-1.492,0.422-1.492,0.957    c0,0.627,0.74,0.802,1.604,0.905c1.501,0.185,2.9,0.575,2.9,2.293c0,1.604-1.419,2.294-3.023,2.294    c-1.471,0-2.603-0.453-3.137-1.77l1.131-0.586c0.319,0.792,1.151,1.142,2.026,1.142c0.854,0,1.656-0.299,1.656-1.08    c0-0.679-0.711-0.956-1.666-1.06c-1.471-0.175-2.828-0.565-2.828-2.18c0-1.481,1.459-2.088,2.786-2.099    c1.121,0,2.283,0.319,2.829,1.43L603.381,244.539z"
   id="path244" />
		<path
   fill="#FFFFFF"
   d="M610.334,248.643h-3.765L605.953,250h-1.471l3.229-7.199h1.48l3.23,7.199h-1.481L610.334,248.643z     M608.451,244.313l-1.336,3.065h2.674L608.451,244.313z"
   id="path246" />
		<path
   fill="#FFFFFF"
   d="M617.256,242.791h1.357V250h-0.843v0.011l-3.784-4.865V250h-1.357v-7.199h1.1l3.527,4.464V242.791z"
   id="path248" />
		<path
   fill="#FFFFFF"
   d="M621.205,244.035h-2.283v-1.234c2.078,0,3.837,0,5.924,0v1.234h-2.282V250h-1.358V244.035z"
   id="path250" />
	</g>
	<g
   id="g252">
		<path
   fill="#FFFFFF"
   d="M529.953,149.222c0,0.556-0.268,1.09-0.936,1.389c0.843,0.257,1.151,1.151,1.151,1.604    c0,1.604-1.203,2.118-2.694,2.118c-1.142,0-2.273,0-3.414,0v-7.199c1.131,0,2.272,0,3.414,0    C528.894,147.134,529.953,147.772,529.953,149.222z M525.396,150.024h2.078c0.854,0,1.131-0.359,1.131-0.771    c0-0.329-0.268-0.885-1.131-0.885h-2.078V150.024z M525.396,153.069h2.078c0.555,0,1.348-0.186,1.348-0.864    c0-0.647-0.793-0.987-1.348-0.987h-2.078V153.069z"
   id="path254" />
		<path
   fill="#FFFFFF"
   d="M531.137,154.333v-7.199h1.347v7.199H531.137z"
   id="path256" />
		<path
   fill="#FFFFFF"
   d="M539.128,154.333h-5.39c0-2.396,0-4.803,0-7.199h5.39v1.316h-4.042v1.656h3.898v1.265h-3.898v1.625h4.042    V154.333z"
   id="path258" />
		<path
   fill="#FFFFFF"
   d="M545.124,147.125h1.357v7.209h-0.843v0.011l-3.785-4.865v4.854h-1.357v-7.199h1.1l3.528,4.464V147.125z"
   id="path260" />
		<path
   fill="#FFFFFF"
   d="M549.805,154.333v-7.188h5.172v1.306h-3.814v1.965h3.609v1.254h-3.609v2.664H549.805z"
   id="path262" />
		<path
   fill="#FFFFFF"
   d="M561.025,152.976h-3.764l-0.617,1.357h-1.471l3.229-7.199h1.481l3.229,7.199h-1.48L561.025,152.976z     M559.144,148.646l-1.337,3.065h2.674L559.144,148.646z"
   id="path264" />
		<path
   fill="#FFFFFF"
   d="M563.629,154.333v-7.199h1.347v7.199H563.629z"
   id="path266" />
		<path
   fill="#FFFFFF"
   d="M568.441,148.369h-2.283v-1.234c2.078,0,3.837,0,5.924,0v1.234H569.8v5.965h-1.358V148.369z"
   id="path268" />
	</g>
	<g
   id="g270">
		<path
   fill="#FFFFFF"
   d="M448.678,186h-5.39c0-2.396,0-4.803,0-7.199h5.39v1.316h-4.043v1.656h3.898v1.265h-3.898v1.625h4.043V186z     M447.68,176.61h-1.48l-0.762,1.398v0.062h1.111l1.131-1.408V176.61z"
   id="path272" />
		<path
   fill="#FFFFFF"
   d="M451.033,178.801v5.944h3.702V186h-5.06v-7.199H451.033z"
   id="path274" />
		<path
   fill="#FFFFFF"
   d="M461.061,186h-5.389c0-2.396,0-4.803,0-7.199h5.389v1.316h-4.041v1.656h3.897v1.265h-3.897v1.625h4.041    V186z M460.063,176.61h-1.481l-0.761,1.398v0.062h1.11l1.132-1.408V176.61z"
   id="path276" />
		<path
   fill="#FFFFFF"
   d="M467.407,180.56c-0.483-0.463-1.204-0.72-1.831-0.72c-1.543,0-2.479,1.172-2.479,2.653    c0,1.183,0.689,2.406,2.479,2.406c0.566,0,1.06-0.123,1.625-0.576v-1.274h-1.841v-1.214h3.085v3.034    c-0.709,0.813-1.604,1.295-2.869,1.295c-2.705,0-3.805-1.778-3.805-3.671c0-2.026,1.265-3.897,3.805-3.897    c0.967,0,1.934,0.37,2.674,1.1L467.407,180.56z"
   id="path278" />
		<path
   fill="#FFFFFF"
   d="M474.668,184.643h-3.764L470.287,186h-1.471l3.229-7.199h1.481l3.229,7.199h-1.48L474.668,184.643z     M472.787,180.313l-1.338,3.065h2.674L472.787,180.313z"
   id="path280" />
		<path
   fill="#FFFFFF"
   d="M482.105,178.791h1.357V186h-0.844v0.011l-3.785-4.865V186h-1.357v-7.199h1.101l3.528,4.464V178.791z"
   id="path282" />
		<path
   fill="#FFFFFF"
   d="M486.568,180.035h-2.282v-1.234c2.077,0,3.836,0,5.924,0v1.234h-2.283V186h-1.358V180.035z"
   id="path284" />
	</g>
	<g
   id="g286">
		<path
   fill="#FFFFFF"
   d="M498.627,242.282v-7.199h1.347v7.199H498.627z"
   id="path288" />
		<path
   fill="#FFFFFF"
   d="M505.98,235.073h1.357v7.209h-0.844v0.011l-3.784-4.865v4.854h-1.357v-7.199h1.101l3.527,4.464V235.073z"
   id="path290" />
		<path
   fill="#FFFFFF"
   d="M513.139,236.821c-0.246-0.411-0.926-0.803-1.707-0.803c-1.008,0-1.491,0.422-1.491,0.957    c0,0.627,0.74,0.802,1.604,0.905c1.502,0.185,2.9,0.575,2.9,2.293c0,1.604-1.42,2.294-3.023,2.294    c-1.471,0-2.603-0.453-3.137-1.77l1.131-0.586c0.318,0.792,1.151,1.142,2.025,1.142c0.854,0,1.656-0.299,1.656-1.08    c0-0.679-0.709-0.956-1.666-1.06c-1.471-0.175-2.828-0.565-2.828-2.18c0-1.481,1.46-2.088,2.787-2.099    c1.121,0,2.283,0.319,2.828,1.43L513.139,236.821z"
   id="path292" />
		<path
   fill="#FFFFFF"
   d="M518.889,240.164h-2.037v2.118h-1.357v-7.199c1.132,0,2.264-0.01,3.395-0.01    C522.406,235.073,522.416,240.164,518.889,240.164z M516.852,238.918h2.037c1.738,0,1.728-2.55,0-2.55h-2.037V238.918z"
   id="path294" />
		<path
   fill="#FFFFFF"
   d="M522.458,242.282v-7.199h1.347v7.199H522.458z"
   id="path296" />
		<path
   fill="#FFFFFF"
   d="M531.468,242.282h-1.614l-2.099-2.406h-1.306v2.406h-1.357v-7.209c1.141,0,2.283,0.01,3.424,0.01    c1.697,0.011,2.592,1.142,2.592,2.386c0,0.987-0.452,1.985-1.82,2.263l2.181,2.458V242.282z M526.449,236.347v2.304h2.066    c0.864,0,1.234-0.575,1.234-1.151s-0.381-1.152-1.234-1.152H526.449z"
   id="path298" />
		<path
   fill="#FFFFFF"
   d="M537.393,242.282h-5.389c0-2.396,0-4.803,0-7.199h5.389v1.316h-4.042v1.656h3.897v1.265h-3.897v1.625    h4.042V242.282z M536.395,232.892h-1.48l-0.762,1.398v0.062h1.111l1.131-1.408V232.892z"
   id="path300" />
	</g>
	<g
   id="g302">
		<path
   fill="#FFFFFF"
   d="M443.564,45.854v-7.199h1.348v7.199H443.564z"
   id="path304" />
		<path
   fill="#FFFFFF"
   d="M450.918,38.644h1.357v7.209h-0.843v0.01l-3.784-4.865v4.854h-1.357v-7.199h1.1l3.527,4.463V38.644z"
   id="path306" />
		<path
   fill="#FFFFFF"
   d="M459.867,44.948c-0.741,0.73-1.697,1.07-2.736,1.07c-2.674,0-3.805-1.841-3.815-3.713    c-0.011-1.882,1.214-3.795,3.815-3.795c0.977,0,1.902,0.371,2.643,1.101l-0.904,0.874c-0.473-0.462-1.111-0.679-1.738-0.679    c-1.738,0-2.488,1.296-2.479,2.499c0.01,1.193,0.699,2.438,2.479,2.438c0.627,0,1.337-0.257,1.811-0.73L459.867,44.948z"
   id="path308" />
		<path
   fill="#FFFFFF"
   d="M467.016,45.854H465.4l-2.098-2.407h-1.307v2.407h-1.357v-7.209c1.142,0,2.283,0.01,3.425,0.01    c1.696,0.01,2.592,1.142,2.592,2.386c0,0.987-0.452,1.985-1.82,2.262l2.181,2.458V45.854z M461.996,39.919v2.304h2.067    c0.864,0,1.233-0.576,1.233-1.152c0-0.576-0.38-1.152-1.233-1.152H461.996z"
   id="path310" />
		<path
   fill="#FFFFFF"
   d="M474.646,42.295c-0.02,1.862-1.162,3.723-3.691,3.723c-2.53,0-3.703-1.82-3.703-3.713    c0-1.892,1.214-3.795,3.703-3.795C473.434,38.51,474.668,40.413,474.646,42.295z M468.59,42.326    c0.03,1.183,0.668,2.447,2.365,2.447s2.334-1.275,2.355-2.458c0.02-1.213-0.658-2.571-2.355-2.571S468.559,41.112,468.59,42.326z"
   id="path312" />
		<path
   fill="#FFFFFF"
   d="M478.145,41.626l1.913-2.972h1.636v0.062l-2.869,4.165v2.972h-1.358v-2.972l-2.767-4.165v-0.062h1.615    L478.145,41.626z"
   id="path314" />
		<path
   fill="#FFFFFF"
   d="M487.401,44.496h-3.765l-0.616,1.357h-1.471l3.229-7.199h1.48l3.229,7.199h-1.481L487.401,44.496z     M485.52,40.166l-1.337,3.065h2.674L485.52,40.166z"
   id="path316" />
		<path
   fill="#FFFFFF"
   d="M495.846,40.742c0,0.555-0.268,1.09-0.936,1.388c0.844,0.257,1.152,1.152,1.152,1.604    c0,1.604-1.203,2.119-2.695,2.119c-1.141,0-2.272,0-3.414,0v-7.199c1.131,0,2.273,0,3.414,0    C494.787,38.654,495.846,39.292,495.846,40.742z M491.29,41.544h2.077c0.854,0,1.131-0.36,1.131-0.771    c0-0.329-0.267-0.884-1.131-0.884h-2.077V41.544z M491.29,44.588h2.077c0.556,0,1.348-0.185,1.348-0.864    c0-0.648-0.792-0.987-1.348-0.987h-2.077V44.588z"
   id="path318" />
		<path
   fill="#FFFFFF"
   d="M498.377,38.654v5.944h3.702v1.255h-5.06v-7.199H498.377z"
   id="path320" />
		<path
   fill="#FFFFFF"
   d="M508.404,45.854h-5.389c0-2.396,0-4.803,0-7.199h5.389v1.316h-4.041v1.656h3.897v1.265h-3.897v1.625h4.041    V45.854z"
   id="path322" />
	</g>
	<g
   id="g324">
		<path
   fill="#FFFFFF"
   d="M560.607,77.078c-0.482-0.463-1.203-0.72-1.83-0.72c-1.543,0-2.479,1.172-2.479,2.653    c0,1.183,0.689,2.406,2.479,2.406c0.565,0,1.059-0.123,1.625-0.576v-1.275h-1.842v-1.213h3.086v3.034    c-0.709,0.813-1.604,1.296-2.869,1.296c-2.705,0-3.806-1.779-3.806-3.671c0-2.026,1.265-3.898,3.806-3.898    c0.967,0,1.934,0.37,2.674,1.101L560.607,77.078z"
   id="path326" />
		<path
   fill="#FFFFFF"
   d="M568.127,82.518h-5.39c0-2.396,0-4.803,0-7.199h5.39v1.316h-4.043v1.656h3.898v1.265h-3.898v1.625h4.043    V82.518z M567.129,73.128h-1.48l-0.762,1.398v0.062h1.111l1.131-1.409V73.128z"
   id="path328" />
		<path
   fill="#FFFFFF"
   d="M574.071,75.309h1.357v7.209h-0.843v0.01l-3.785-4.865v4.854h-1.357v-7.199h1.1l3.528,4.463V75.309z"
   id="path330" />
		<path
   fill="#FFFFFF"
   d="M576.684,82.518v-7.199h1.348v7.199H576.684z"
   id="path332" />
		<path
   fill="#FFFFFF"
   d="M584.418,81.161h-3.764l-0.617,1.357h-1.471l3.229-7.199h1.481l3.229,7.199h-1.48L584.418,81.161z     M582.537,76.831l-1.338,3.065h2.674L582.537,76.831z"
   id="path334" />
		<path
   fill="#FFFFFF"
   d="M588.585,75.319v5.944h3.702v1.255h-5.06v-7.199H588.585z"
   id="path336" />
	</g>
	<g
   id="g338">
		<path
   fill="#FFFFFF"
   d="M449.479,111.539c-0.246-0.411-0.926-0.803-1.707-0.803c-1.008,0-1.49,0.422-1.49,0.957    c0,0.627,0.74,0.802,1.604,0.905c1.502,0.185,2.9,0.575,2.9,2.293c0,1.604-1.42,2.294-3.023,2.294    c-1.471,0-2.602-0.453-3.137-1.77l1.131-0.586c0.318,0.792,1.152,1.142,2.026,1.142c0.854,0,1.655-0.299,1.655-1.08    c0-0.679-0.709-0.956-1.666-1.06c-1.471-0.175-2.828-0.565-2.828-2.18c0-1.481,1.461-2.088,2.787-2.099    c1.121,0,2.283,0.319,2.828,1.43L449.479,111.539z"
   id="path340" />
		<path
   fill="#FFFFFF"
   d="M458.91,113.441c-0.02,1.861-1.162,3.723-3.691,3.723c-2.53,0-3.703-1.82-3.703-3.712    c0-1.893,1.215-3.795,3.703-3.795C457.697,109.657,458.932,111.56,458.91,113.441z M452.854,113.473    c0.03,1.183,0.668,2.447,2.365,2.447s2.334-1.275,2.355-2.458c0.02-1.213-0.658-2.571-2.355-2.571    S452.822,112.259,452.854,113.473z"
   id="path342" />
		<path
   fill="#FFFFFF"
   d="M459.92,117v-7.199h1.347V117H459.92z"
   id="path344" />
		<path
   fill="#FFFFFF"
   d="M467.891,111.56c-0.483-0.463-1.203-0.72-1.831-0.72c-1.542,0-2.479,1.172-2.479,2.653    c0,1.183,0.689,2.406,2.479,2.406c0.565,0,1.06-0.123,1.625-0.576v-1.274h-1.841v-1.214h3.086v3.034    c-0.71,0.813-1.605,1.295-2.87,1.295c-2.704,0-3.806-1.778-3.806-3.671c0-2.026,1.266-3.897,3.806-3.897    c0.967,0,1.934,0.37,2.675,1.1L467.891,111.56z"
   id="path346" />
		<path
   fill="#FFFFFF"
   d="M474.771,109.791h1.357V117h-0.844v0.011l-3.784-4.865V117h-1.357v-7.199h1.101l3.527,4.464V109.791z"
   id="path348" />
		<path
   fill="#FFFFFF"
   d="M482.742,117h-5.389c0-2.396,0-4.803,0-7.199h5.389v1.316h-4.041v1.656h3.897v1.265h-3.897v1.625h4.041    V117z M481.745,107.61h-1.481l-0.761,1.398v0.062h1.11l1.132-1.408V107.61z"
   id="path350" />
	</g>
	<g
   id="g352">
		<path
   fill="#FFFFFF"
   d="M482.436,393.141c0,0.556-0.268,1.09-0.936,1.389c0.844,0.257,1.151,1.151,1.151,1.604    c0,1.604-1.203,2.118-2.694,2.118c-1.142,0-2.272,0-3.414,0v-7.199c1.131,0,2.272,0,3.414,0    C481.377,391.053,482.436,391.69,482.436,393.141z M477.88,393.942h2.077c0.854,0,1.132-0.359,1.132-0.771    c0-0.329-0.268-0.885-1.132-0.885h-2.077V393.942z M477.88,396.987h2.077c0.556,0,1.348-0.186,1.348-0.864    c0-0.647-0.792-0.987-1.348-0.987h-2.077V396.987z"
   id="path354" />
		<path
   fill="#FFFFFF"
   d="M483.62,398.252v-7.199h1.347v7.199H483.62z"
   id="path356" />
		<path
   fill="#FFFFFF"
   d="M486.129,391.053h5.533v0.638l-3.733,5.276h3.733v1.285h-5.626v-0.781l3.651-5.143h-3.559V391.053z"
   id="path358" />
		<path
   fill="#FFFFFF"
   d="M497.597,396.895h-3.764l-0.617,1.357h-1.471l3.229-7.199h1.48l3.229,7.199h-1.481L497.597,396.895z     M495.715,392.564l-1.337,3.065h2.674L495.715,392.564z"
   id="path360" />
		<path
   fill="#FFFFFF"
   d="M506.679,398.252h-1.614l-2.099-2.406h-1.306v2.406h-1.357v-7.209c1.142,0,2.283,0.01,3.424,0.01    c1.697,0.011,2.592,1.142,2.592,2.386c0,0.987-0.452,1.985-1.82,2.263l2.181,2.458V398.252z M501.66,392.317v2.304h2.066    c0.864,0,1.234-0.575,1.234-1.151s-0.38-1.152-1.234-1.152H501.66z"
   id="path362" />
		<path
   fill="#FFFFFF"
   d="M513.621,398.252h-1.614l-2.099-2.406h-1.306v2.406h-1.357v-7.209c1.142,0,2.282,0.01,3.424,0.01    c1.697,0.011,2.592,1.142,2.592,2.386c0,0.987-0.452,1.985-1.82,2.263l2.181,2.458V398.252z M508.603,392.317v2.304h2.066    c0.864,0,1.234-0.575,1.234-1.151s-0.38-1.152-1.234-1.152H508.603z"
   id="path364" />
		<path
   fill="#FFFFFF"
   d="M519.545,398.252h-5.389c0-2.396,0-4.803,0-7.199h5.389v1.316h-4.041v1.656h3.897v1.265h-3.897v1.625    h4.041V398.252z"
   id="path366" />
	</g>
	<g
   id="g368">
		<path
   fill="#FFFFFF"
   d="M457.311,489.249h-5.389c0-2.396,0-4.803,0-7.199h5.389v1.316h-4.041v1.656h3.897v1.265h-3.897v1.625    h4.041V489.249z M456.313,479.859h-1.481l-0.761,1.398v0.062h1.11l1.132-1.408V479.859z"
   id="path370" />
		<path
   fill="#FFFFFF"
   d="M460.593,483.284h-2.283v-1.234c2.078,0,3.836,0,5.924,0v1.234h-2.283v5.965h-1.357V483.284z"
   id="path372" />
		<path
   fill="#FFFFFF"
   d="M471.443,489.249h-1.614l-2.099-2.406h-1.306v2.406h-1.357v-7.209c1.142,0,2.282,0.01,3.424,0.01    c1.697,0.011,2.592,1.142,2.592,2.386c0,0.987-0.452,1.985-1.82,2.263l2.181,2.458V489.249z M466.425,483.314v2.304h2.066    c0.864,0,1.234-0.575,1.234-1.151s-0.38-1.152-1.234-1.152H466.425z"
   id="path374" />
		<path
   fill="#FFFFFF"
   d="M477.11,487.892h-3.764l-0.617,1.357h-1.471l3.229-7.199h1.48l3.229,7.199h-1.481L477.11,487.892z     M475.229,483.562l-1.337,3.065h2.674L475.229,483.562z"
   id="path376" />
		<path
   fill="#FFFFFF"
   d="M484.546,482.04h1.358v7.209h-0.844v0.011l-3.785-4.865v4.854h-1.357v-7.199h1.101l3.527,4.464V482.04z"
   id="path378" />
		<path
   fill="#FFFFFF"
   d="M492.497,483.809c-0.483-0.463-1.203-0.72-1.83-0.72c-1.543,0-2.479,1.172-2.479,2.653    c0,1.183,0.688,2.406,2.479,2.406c0.565,0,1.059-0.123,1.625-0.576v-1.274h-1.841v-1.214h3.085v3.034    c-0.71,0.813-1.604,1.295-2.869,1.295c-2.705,0-3.806-1.778-3.806-3.671c0-2.026,1.266-3.897,3.806-3.897    c0.967,0,1.934,0.37,2.674,1.1L492.497,483.809z"
   id="path380" />
		<path
   fill="#FFFFFF"
   d="M500.016,489.249h-5.389c0-2.396,0-4.803,0-7.199h5.389v1.316h-4.041v1.656h3.897v1.265h-3.897v1.625    h4.041V489.249z"
   id="path382" />
	</g>
	<g
   id="g384">
		<path
   fill="#FFFFFF"
   d="M121.383,186v-7.199h1.347V186H121.383z"
   id="path386" />
		<path
   fill="#FFFFFF"
   d="M130.279,180.786l-2.345,3.126h-0.268l-2.293-3.137v5.235h-1.357v-7.199h1.563l2.252,3.096l2.252-3.096    h1.553v7.199h-1.357V180.786z"
   id="path388" />
		<path
   fill="#FFFFFF"
   d="M136.307,183.881h-2.037V186h-1.357v-7.199c1.131,0,2.263-0.01,3.394-0.01    C139.824,178.791,139.834,183.881,136.307,183.881z M134.271,182.637h2.037c1.738,0,1.728-2.551,0-2.551h-2.037V182.637z"
   id="path390" />
		<path
   fill="#FFFFFF"
   d="M146.942,182.441c-0.021,1.862-1.162,3.723-3.692,3.723c-2.53,0-3.703-1.82-3.703-3.713    c0-1.892,1.213-3.795,3.703-3.795C145.729,178.657,146.962,180.56,146.942,182.441z M140.884,182.473    c0.031,1.183,0.668,2.447,2.366,2.447c1.697,0,2.334-1.275,2.355-2.458c0.021-1.214-0.658-2.571-2.355-2.571    C141.553,179.891,140.854,181.259,140.884,182.473z"
   id="path392" />
		<path
   fill="#FFFFFF"
   d="M152.589,180.539c-0.247-0.412-0.926-0.802-1.707-0.802c-1.008,0-1.491,0.422-1.491,0.957    c0,0.627,0.74,0.802,1.604,0.905c1.501,0.185,2.9,0.576,2.9,2.293c0,1.604-1.419,2.293-3.023,2.293    c-1.471,0-2.602-0.453-3.137-1.769l1.131-0.586c0.319,0.792,1.152,1.142,2.026,1.142c0.854,0,1.656-0.298,1.656-1.08    c0-0.679-0.71-0.957-1.666-1.059c-1.471-0.175-2.828-0.566-2.828-2.181c0-1.48,1.46-2.087,2.787-2.098    c1.121,0,2.283,0.319,2.829,1.429L152.589,180.539z"
   id="path394" />
		<path
   fill="#FFFFFF"
   d="M159.388,180.539c-0.247-0.412-0.926-0.802-1.707-0.802c-1.008,0-1.491,0.422-1.491,0.957    c0,0.627,0.74,0.802,1.604,0.905c1.501,0.185,2.9,0.576,2.9,2.293c0,1.604-1.419,2.293-3.023,2.293    c-1.471,0-2.602-0.453-3.137-1.769l1.131-0.586c0.319,0.792,1.152,1.142,2.026,1.142c0.854,0,1.656-0.298,1.656-1.08    c0-0.679-0.71-0.957-1.666-1.059c-1.471-0.175-2.828-0.566-2.828-2.181c0-1.48,1.46-2.087,2.787-2.098    c1.121,0,2.283,0.319,2.829,1.429L159.388,180.539z"
   id="path396" />
		<path
   fill="#FFFFFF"
   d="M161.754,186v-7.199h1.347V186H161.754z"
   id="path398" />
		<path
   fill="#FFFFFF"
   d="M170.229,180.889c0,0.555-0.268,1.09-0.936,1.388c0.843,0.257,1.152,1.152,1.152,1.604    c0,1.604-1.203,2.119-2.694,2.119c-1.142,0-2.273,0-3.415,0v-7.199c1.131,0,2.273,0,3.415,0    C169.169,178.801,170.229,179.438,170.229,180.889z M165.673,181.691h2.078c0.854,0,1.131-0.36,1.131-0.771    c0-0.329-0.267-0.884-1.131-0.884h-2.078V181.691z M165.673,184.735h2.078c0.555,0,1.347-0.185,1.347-0.864    c0-0.648-0.792-0.987-1.347-0.987h-2.078V184.735z"
   id="path400" />
		<path
   fill="#FFFFFF"
   d="M172.759,178.801v5.944h3.703V186h-5.06v-7.199H172.759z"
   id="path402" />
		<path
   fill="#FFFFFF"
   d="M182.788,186h-5.389c0-2.396,0-4.803,0-7.199h5.389v1.316h-4.042v1.656h3.898v1.265h-3.898v1.625h4.042    V186z"
   id="path404" />
	</g>
	<g
   id="g406">
		<path
   fill="#FFFFFF"
   d="M228.881,149.643h-3.764L224.5,151h-1.471l3.229-7.199h1.481l3.229,7.199h-1.481L228.881,149.643z     M226.999,145.313l-1.337,3.065h2.674L226.999,145.313z"
   id="path408" />
		<path
   fill="#FFFFFF"
   d="M237.326,145.889c0,0.555-0.268,1.09-0.936,1.388c0.843,0.257,1.152,1.152,1.152,1.604    c0,1.604-1.203,2.119-2.694,2.119c-1.142,0-2.273,0-3.415,0v-7.199c1.131,0,2.273,0,3.415,0    C236.266,143.801,237.326,144.438,237.326,145.889z M232.77,146.691h2.078c0.854,0,1.131-0.36,1.131-0.771    c0-0.329-0.267-0.884-1.131-0.884h-2.078V146.691z M232.77,149.735h2.078c0.555,0,1.347-0.185,1.347-0.864    c0-0.648-0.792-0.987-1.347-0.987h-2.078V149.735z"
   id="path410" />
		<path
   fill="#FFFFFF"
   d="M243.157,145.539c-0.247-0.412-0.926-0.802-1.707-0.802c-1.008,0-1.491,0.422-1.491,0.957    c0,0.627,0.74,0.802,1.604,0.905c1.501,0.185,2.9,0.576,2.9,2.293c0,1.604-1.419,2.293-3.023,2.293    c-1.471,0-2.602-0.453-3.137-1.769l1.131-0.586c0.319,0.792,1.152,1.142,2.026,1.142c0.854,0,1.656-0.298,1.656-1.08    c0-0.679-0.71-0.957-1.666-1.059c-1.471-0.175-2.828-0.566-2.828-2.181c0-1.48,1.46-2.087,2.787-2.098    c1.121,0,2.283,0.319,2.829,1.429L243.157,145.539z"
   id="path412" />
		<path
   fill="#FFFFFF"
   d="M247.375,145.035h-2.283v-1.234c2.077,0,3.836,0,5.924,0v1.234h-2.283V151h-1.358V145.035z"
   id="path414" />
		<path
   fill="#FFFFFF"
   d="M258.226,151h-1.615l-2.098-2.407h-1.306V151h-1.357v-7.209c1.142,0,2.283,0.01,3.425,0.01    c1.697,0.01,2.592,1.142,2.592,2.386c0,0.987-0.453,1.985-1.82,2.263l2.18,2.458V151z M253.207,145.066v2.304h2.067    c0.864,0,1.234-0.576,1.234-1.152c0-0.576-0.38-1.152-1.234-1.152H253.207z"
   id="path416" />
		<path
   fill="#FFFFFF"
   d="M263.893,149.643h-3.764L259.512,151h-1.47l3.229-7.199h1.481l3.229,7.199H264.5L263.893,149.643z     M262.011,145.313l-1.337,3.065h2.674L262.011,145.313z"
   id="path418" />
		<path
   fill="#FFFFFF"
   d="M266.496,151v-7.199h1.347V151H266.496z"
   id="path420" />
		<path
   fill="#FFFFFF"
   d="M271.31,145.035h-2.283v-1.234c2.078,0,3.836,0,5.924,0v1.234h-2.283V151h-1.358V145.035z"
   id="path422" />
	</g>
	<g
   id="g424">
		<path
   fill="#FFFFFF"
   d="M247.235,59.667h-5.389c0-2.396,0-4.803,0-7.199h5.389v1.316h-4.042v1.656h3.898v1.265h-3.898v1.625h4.042    V59.667z M246.237,50.277h-1.481l-0.761,1.398v0.062h1.111l1.131-1.409V50.277z"
   id="path426" />
		<path
   fill="#FFFFFF"
   d="M249.59,52.468v5.944h3.703v1.255h-5.06v-7.199H249.59z"
   id="path428" />
		<path
   fill="#FFFFFF"
   d="M259.361,58.31h-3.764l-0.617,1.357h-1.471l3.229-7.199h1.481l3.229,7.199h-1.481L259.361,58.31z     M257.479,53.979l-1.337,3.065h2.674L257.479,53.979z"
   id="path430" />
		<path
   fill="#FFFFFF"
   d="M267.806,54.556c0,0.555-0.268,1.09-0.936,1.388c0.843,0.257,1.152,1.152,1.152,1.604    c0,1.604-1.203,2.119-2.694,2.119c-1.142,0-2.273,0-3.415,0v-7.199c1.131,0,2.273,0,3.415,0    C266.747,52.468,267.806,53.105,267.806,54.556z M263.25,55.358h2.078c0.854,0,1.131-0.36,1.131-0.771    c0-0.329-0.267-0.884-1.131-0.884h-2.078V55.358z M263.25,58.402h2.078c0.555,0,1.347-0.185,1.347-0.864    c0-0.648-0.792-0.987-1.347-0.987h-2.078V58.402z"
   id="path432" />
		<path
   fill="#FFFFFF"
   d="M276.167,56.108c-0.021,1.862-1.162,3.723-3.692,3.723c-2.53,0-3.703-1.82-3.703-3.713    c0-1.892,1.213-3.795,3.703-3.795C274.954,52.324,276.188,54.227,276.167,56.108z M270.11,56.14    c0.031,1.183,0.668,2.447,2.366,2.447c1.697,0,2.334-1.275,2.355-2.458c0.021-1.213-0.658-2.571-2.355-2.571    C270.778,53.558,270.079,54.926,270.11,56.14z"
   id="path434" />
		<path
   fill="#FFFFFF"
   d="M283.553,59.667h-1.615l-2.098-2.407h-1.306v2.407h-1.357v-7.209c1.142,0,2.283,0.01,3.425,0.01    c1.697,0.01,2.592,1.142,2.592,2.386c0,0.987-0.453,1.985-1.82,2.262l2.18,2.458V59.667z M278.534,53.733v2.304h2.067    c0.864,0,1.234-0.576,1.234-1.152c0-0.576-0.38-1.152-1.234-1.152H278.534z"
   id="path436" />
		<path
   fill="#FFFFFF"
   d="M289.478,59.667h-5.389c0-2.396,0-4.803,0-7.199h5.389v1.316h-4.042v1.656h3.898v1.265h-3.898v1.625h4.042    V59.667z M288.48,50.277h-1.481l-0.761,1.398v0.062h1.111l1.131-1.409V50.277z"
   id="path438" />
	</g>
	<g
   id="g440">
		<path
   fill="#FFFFFF"
   d="M310.978,193.333h-5.389c0-2.396,0-4.803,0-7.199h5.389v1.316h-4.042v1.656h3.898v1.265h-3.898v1.625    h4.042V193.333z M309.98,183.944h-1.481l-0.761,1.398v0.062h1.111l1.131-1.409V183.944z"
   id="path442" />
		<path
   fill="#FFFFFF"
   d="M314.258,187.369h-2.283v-1.234c2.078,0,3.836,0,5.924,0v1.234h-2.283v5.965h-1.358V187.369z"
   id="path444" />
		<path
   fill="#FFFFFF"
   d="M325.109,193.333h-1.615l-2.098-2.407h-1.306v2.407h-1.357v-7.209c1.142,0,2.283,0.01,3.425,0.01    c1.697,0.01,2.592,1.142,2.592,2.386c0,0.987-0.453,1.985-1.82,2.263l2.18,2.458V193.333z M320.09,187.399v2.304h2.067    c0.864,0,1.234-0.576,1.234-1.152c0-0.576-0.38-1.152-1.234-1.152H320.09z"
   id="path446" />
		<path
   fill="#FFFFFF"
   d="M330.777,191.976h-3.764l-0.617,1.357h-1.471l3.229-7.199h1.481l3.229,7.199h-1.481L330.777,191.976z     M328.895,187.646l-1.337,3.065h2.674L328.895,187.646z"
   id="path448" />
		<path
   fill="#FFFFFF"
   d="M338.214,186.124h1.357v7.209h-0.843v0.01l-3.785-4.864v4.854h-1.357v-7.199h1.1l3.528,4.463V186.124z"
   id="path450" />
		<path
   fill="#FFFFFF"
   d="M346.165,187.893c-0.483-0.463-1.204-0.72-1.831-0.72c-1.542,0-2.479,1.172-2.479,2.653    c0,1.183,0.689,2.406,2.479,2.406c0.566,0,1.06-0.123,1.625-0.576v-1.275h-1.841v-1.213h3.085v3.034    c-0.709,0.813-1.604,1.296-2.87,1.296c-2.705,0-3.805-1.779-3.805-3.671c0-2.026,1.265-3.898,3.805-3.898    c0.967,0,1.934,0.37,2.674,1.101L346.165,187.893z"
   id="path452" />
		<path
   fill="#FFFFFF"
   d="M353.683,193.333h-5.389c0-2.396,0-4.803,0-7.199h5.389v1.316h-4.042v1.656h3.898v1.265h-3.898v1.625    h4.042V193.333z"
   id="path454" />
	</g>
	<g
   id="g456">
		<path
   fill="#FFFFFF"
   d="M311.739,111.889c0,0.555-0.268,1.09-0.936,1.388c0.843,0.257,1.152,1.152,1.152,1.604    c0,1.604-1.203,2.119-2.694,2.119c-1.142,0-2.273,0-3.415,0v-7.199c1.131,0,2.273,0,3.415,0    C310.68,109.801,311.739,110.438,311.739,111.889z M307.183,112.691h2.078c0.854,0,1.131-0.36,1.131-0.771    c0-0.329-0.267-0.884-1.131-0.884h-2.078V112.691z M307.183,115.735h2.078c0.555,0,1.347-0.185,1.347-0.864    c0-0.648-0.792-0.987-1.347-0.987h-2.078V115.735z"
   id="path458" />
		<path
   fill="#FFFFFF"
   d="M312.922,117v-7.199h1.347V117H312.922z"
   id="path460" />
		<path
   fill="#FFFFFF"
   d="M320.914,117h-5.389c0-2.396,0-4.803,0-7.199h5.389v1.316h-4.042v1.656h3.898v1.265h-3.898v1.625h4.042    V117z"
   id="path462" />
		<path
   fill="#FFFFFF"
   d="M326.91,109.791h1.357V117h-0.843v0.01l-3.785-4.864V117h-1.357v-7.199h1.1l3.528,4.463V109.791z"
   id="path464" />
		<path
   fill="#FFFFFF"
   d="M334.984,114.881h-2.037V117h-1.357v-7.199c1.131,0,2.263-0.01,3.394-0.01    C338.501,109.791,338.512,114.881,334.984,114.881z M332.948,113.637h2.037c1.738,0,1.728-2.551,0-2.551h-2.037V113.637z"
   id="path466" />
		<path
   fill="#FFFFFF"
   d="M343.912,117h-5.389c0-2.396,0-4.803,0-7.199h5.389v1.316h-4.042v1.656h3.898v1.265h-3.898v1.625h4.042    V117z"
   id="path468" />
		<path
   fill="#FFFFFF"
   d="M349.909,109.791h1.357V117h-0.843v0.01l-3.785-4.864V117h-1.357v-7.199h1.1l3.528,4.463V109.791z"
   id="path470" />
		<path
   fill="#FFFFFF"
   d="M357.067,111.539c-0.247-0.412-0.926-0.802-1.707-0.802c-1.008,0-1.491,0.422-1.491,0.957    c0,0.627,0.74,0.802,1.604,0.905c1.501,0.185,2.9,0.576,2.9,2.293c0,1.604-1.419,2.293-3.023,2.293    c-1.471,0-2.602-0.453-3.137-1.769l1.131-0.586c0.319,0.792,1.152,1.142,2.026,1.142c0.854,0,1.656-0.298,1.656-1.08    c0-0.679-0.71-0.957-1.666-1.059c-1.471-0.175-2.828-0.566-2.828-2.181c0-1.48,1.46-2.087,2.787-2.098    c1.121,0,2.283,0.319,2.829,1.429L357.067,111.539z"
   id="path472" />
		<path
   fill="#FFFFFF"
   d="M364.792,117h-5.389c0-2.396,0-4.803,0-7.199h5.389v1.316h-4.042v1.656h3.898v1.265h-3.898v1.625h4.042    V117z M363.794,107.61h-1.481l-0.761,1.398v0.062h1.111l1.131-1.409V107.61z"
   id="path474" />
	</g>
	<g
   id="g476">
		<path
   fill="#FFFFFF"
   d="M199.445,230.453h-2.283v-1.234c2.078,0,3.836,0,5.924,0v1.234h-2.283v5.965h-1.358V230.453z"
   id="path478" />
		<path
   fill="#FFFFFF"
   d="M210.296,236.418h-1.615l-2.098-2.407h-1.306v2.407h-1.357v-7.209c1.142,0,2.283,0.01,3.425,0.01    c1.697,0.01,2.592,1.142,2.592,2.386c0,0.987-0.453,1.985-1.82,2.263l2.18,2.458V236.418z M205.277,230.484v2.304h2.067    c0.864,0,1.234-0.576,1.234-1.152c0-0.576-0.38-1.152-1.234-1.152H205.277z"
   id="path480" />
		<path
   fill="#FFFFFF"
   d="M217.928,232.859c-0.021,1.862-1.162,3.723-3.692,3.723c-2.53,0-3.703-1.82-3.703-3.713    c0-1.892,1.213-3.795,3.703-3.795C216.715,229.075,217.949,230.978,217.928,232.859z M211.871,232.891    c0.031,1.183,0.668,2.447,2.366,2.447c1.697,0,2.334-1.275,2.355-2.458c0.021-1.214-0.658-2.571-2.355-2.571    C212.539,230.309,211.84,231.677,211.871,232.891z"
   id="path482" />
		<path
   fill="#FFFFFF"
   d="M222.321,234.299h-2.037v2.119h-1.357v-7.199c1.131,0,2.263-0.01,3.394-0.01    C225.838,229.208,225.848,234.299,222.321,234.299z M220.284,233.055h2.037c1.738,0,1.728-2.551,0-2.551h-2.037V233.055z"
   id="path484" />
		<path
   fill="#FFFFFF"
   d="M186.444,247.453h-2.283v-1.234c2.078,0,3.836,0,5.924,0v1.234h-2.283v5.965h-1.358V247.453z"
   id="path486" />
		<path
   fill="#FFFFFF"
   d="M197.295,253.418h-1.615l-2.098-2.407h-1.306v2.407h-1.357v-7.209c1.142,0,2.283,0.01,3.425,0.01    c1.697,0.01,2.592,1.142,2.592,2.386c0,0.987-0.453,1.985-1.82,2.263l2.18,2.458V253.418z M192.276,247.484v2.304h2.067    c0.864,0,1.234-0.576,1.234-1.152c0-0.576-0.38-1.152-1.234-1.152H192.276z"
   id="path488" />
		<path
   fill="#FFFFFF"
   d="M202.963,252.061h-3.764l-0.617,1.357h-1.471l3.229-7.199h1.481l3.229,7.199h-1.481L202.963,252.061z     M201.081,247.73l-1.337,3.065h2.674L201.081,247.73z"
   id="path490" />
		<path
   fill="#FFFFFF"
   d="M208.394,253.449h-1.409l-2.993-7.23h1.522l2.17,5.605l2.18-5.605h1.522L208.394,253.449z"
   id="path492" />
		<path
   fill="#FFFFFF"
   d="M217.332,252.061h-3.764l-0.617,1.357h-1.471l3.229-7.199h1.481l3.229,7.199h-1.481L217.332,252.061z     M215.45,247.73l-1.337,3.065h2.674L215.45,247.73z"
   id="path494" />
		<path
   fill="#FFFFFF"
   d="M219.935,253.418v-7.199h1.347v7.199H219.935z"
   id="path496" />
		<path
   fill="#FFFFFF"
   d="M223.916,246.219v5.944h3.703v1.255h-5.06v-7.199H223.916z"
   id="path498" />
		<path
   fill="#FFFFFF"
   d="M229.933,246.219v5.944h3.703v1.255h-5.06v-7.199H229.933z"
   id="path500" />
		<path
   fill="#FFFFFF"
   d="M239.961,253.418h-5.389c0-2.396,0-4.803,0-7.199h5.389v1.316h-4.042v1.656h3.898v1.265h-3.898v1.625    h4.042V253.418z M238.963,244.028h-1.481l-0.761,1.398v0.062h1.111l1.131-1.409V244.028z"
   id="path502" />
	</g>
	<g
   id="g504">
		<path
   fill="#FFFFFF"
   d="M276.082,234.431l-2.345,3.126h-0.268l-2.293-3.137v5.235h-1.357v-7.199h1.563l2.252,3.096l2.252-3.096    h1.553v7.199h-1.357V234.431z"
   id="path506" />
		<path
   fill="#FFFFFF"
   d="M283.827,238.288h-3.764l-0.617,1.357h-1.47l3.229-7.199h1.481l3.229,7.199h-1.481L283.827,238.288z     M281.945,233.958l-1.337,3.065h2.674L281.945,233.958z"
   id="path508" />
		<path
   fill="#FFFFFF"
   d="M287.993,232.446v5.944h3.703v1.255h-5.06v-7.199H287.993z"
   id="path510" />
		<path
   fill="#FFFFFF"
   d="M268.563,254.527h-2.037v2.118h-1.357v-7.199c1.131,0,2.263-0.01,3.394-0.01    C272.081,249.436,272.091,254.527,268.563,254.527z M266.527,253.282h2.037c1.738,0,1.728-2.55,0-2.55h-2.037V253.282z"
   id="path512" />
		<path
   fill="#FFFFFF"
   d="M277.491,256.645h-5.389c0-2.396,0-4.803,0-7.199h5.389v1.316h-4.042v1.656h3.898v1.265h-3.898v1.625    h4.042V256.645z"
   id="path514" />
		<path
   fill="#FFFFFF"
   d="M283.487,249.436h1.357v7.209h-0.843v0.011l-3.785-4.865v4.854h-1.357v-7.199h1.1l3.528,4.464V249.436z"
   id="path516" />
		<path
   fill="#FFFFFF"
   d="M290.646,251.184c-0.247-0.411-0.926-0.803-1.707-0.803c-1.008,0-1.491,0.422-1.491,0.957    c0,0.627,0.74,0.802,1.604,0.905c1.502,0.185,2.9,0.575,2.9,2.293c0,1.604-1.419,2.294-3.023,2.294    c-1.471,0-2.602-0.453-3.137-1.77l1.131-0.586c0.319,0.792,1.152,1.142,2.026,1.142c0.854,0,1.656-0.299,1.656-1.08    c0-0.679-0.709-0.956-1.666-1.06c-1.471-0.175-2.829-0.565-2.829-2.18c0-1.481,1.46-2.088,2.787-2.099    c1.121,0,2.283,0.319,2.829,1.43L290.646,251.184z"
   id="path518" />
		<path
   fill="#FFFFFF"
   d="M298.371,256.645h-5.389c0-2.396,0-4.803,0-7.199h5.389v1.316h-4.042v1.656h3.898v1.265h-3.898v1.625    h4.042V256.645z M297.373,247.255h-1.481l-0.761,1.398v0.062h1.111l1.131-1.408V247.255z"
   id="path520" />
	</g>
	<g
   id="g522">
		<path
   fill="#FFFFFF"
   d="M559.675,371.006c0.031,1.82-1.08,3.661-3.6,3.661c-0.884,0-1.943,0-2.828,0v-7.199    c0.885,0,1.944,0,2.828,0C558.544,367.468,559.645,369.227,559.675,371.006z M554.595,373.361h1.48    c1.636,0,2.283-1.193,2.253-2.366c-0.031-1.121-0.689-2.241-2.253-2.241h-1.48V373.361z"
   id="path524" />
		<path
   fill="#FFFFFF"
   d="M565.28,374.667h-5.389c0-2.396,0-4.803,0-7.199h5.389v1.316h-4.041v1.656h3.897v1.265h-3.897v1.625h4.041    V374.667z M564.283,365.277h-1.481l-0.761,1.398v0.062h1.11l1.132-1.408V365.277z"
   id="path526" />
		<path
   fill="#FFFFFF"
   d="M572.008,374.667h-1.614l-2.099-2.406h-1.306v2.406h-1.357v-7.209c1.142,0,2.283,0.01,3.424,0.01    c1.697,0.011,2.592,1.142,2.592,2.386c0,0.987-0.452,1.985-1.82,2.263l2.181,2.458V374.667z M566.989,368.732v2.304h2.066    c0.864,0,1.234-0.575,1.234-1.151s-0.38-1.152-1.234-1.152H566.989z"
   id="path528" />
		<path
   fill="#FFFFFF"
   d="M577.017,373.31h-3.764l-0.617,1.357h-1.471l3.229-7.199h1.48l3.229,7.199h-1.481L577.017,373.31z     M575.135,368.979l-1.337,3.065h2.674L575.135,368.979z"
   id="path530" />
		<path
   fill="#FFFFFF"
   d="M583.795,367.458h1.358v7.209h-0.844v0.011l-3.785-4.865v4.854h-1.357v-7.199h1.101l3.527,4.464V367.458z"
   id="path532" />
		<path
   fill="#FFFFFF"
   d="M591.088,369.227c-0.483-0.463-1.203-0.72-1.83-0.72c-1.543,0-2.479,1.172-2.479,2.653    c0,1.183,0.688,2.406,2.479,2.406c0.565,0,1.059-0.123,1.625-0.576v-1.274h-1.841v-1.214h3.085v3.034    c-0.71,0.813-1.604,1.295-2.869,1.295c-2.705,0-3.806-1.778-3.806-3.671c0-2.026,1.266-3.897,3.806-3.897    c0.967,0,1.934,0.37,2.674,1.1L591.088,369.227z"
   id="path534" />
		<path
   fill="#FFFFFF"
   d="M597.947,374.667h-5.389c0-2.396,0-4.803,0-7.199h5.389v1.316h-4.041v1.656h3.897v1.265h-3.897v1.625    h4.041V374.667z"
   id="path536" />
		<path
   fill="#FFFFFF"
   d="M603.45,373.31h-3.764l-0.617,1.357h-1.471l3.229-7.199h1.48l3.229,7.199h-1.481L603.45,373.31z     M601.568,368.979l-1.337,3.065h2.674L601.568,368.979z"
   id="path538" />
		<path
   fill="#FFFFFF"
   d="M610.228,367.458h1.358v7.209h-0.844v0.011l-3.785-4.865v4.854H605.6v-7.199h1.101l3.527,4.464V367.458z"
   id="path540" />
		<path
   fill="#FFFFFF"
   d="M614.034,368.702h-2.283v-1.234c2.078,0,3.836,0,5.924,0v1.234h-2.283v5.965h-1.357V368.702z"
   id="path542" />
	</g>
	<g
   id="g544">
		<path
   fill="#FFFFFF"
   d="M256.7,482.582v-7.199h1.347v7.199H256.7z"
   id="path546" />
		<path
   fill="#FFFFFF"
   d="M264.054,475.373h1.357v7.209h-0.843v0.011l-3.785-4.865v4.854h-1.357v-7.199h1.1l3.528,4.464V475.373z"
   id="path548" />
		<path
   fill="#FFFFFF"
   d="M273.002,481.677c-0.741,0.73-1.697,1.069-2.736,1.069c-2.674,0-3.805-1.841-3.815-3.712    c-0.01-1.882,1.213-3.795,3.815-3.795c0.977,0,1.903,0.37,2.643,1.101l-0.905,0.874c-0.473-0.463-1.111-0.679-1.738-0.679    c-1.738,0-2.489,1.296-2.479,2.499c0.01,1.192,0.699,2.438,2.479,2.438c0.627,0,1.337-0.258,1.81-0.73L273.002,481.677z"
   id="path550" />
		<path
   fill="#FFFFFF"
   d="M280.839,479.023c-0.021,1.861-1.162,3.723-3.692,3.723c-2.53,0-3.703-1.82-3.703-3.712    c0-1.893,1.213-3.795,3.703-3.795C279.626,475.239,280.86,477.142,280.839,479.023z M274.782,479.055    c0.031,1.183,0.668,2.447,2.366,2.447c1.697,0,2.334-1.275,2.355-2.458c0.021-1.213-0.658-2.571-2.355-2.571    C275.45,476.473,274.751,477.841,274.782,479.055z"
   id="path552" />
		<path
   fill="#FFFFFF"
   d="M288.111,477.368l-2.345,3.126h-0.268l-2.293-3.137v5.235h-1.357v-7.199h1.563l2.252,3.096l2.252-3.096    h1.553v7.199h-1.357V477.368z"
   id="path554" />
		<path
   fill="#FFFFFF"
   d="M294.139,480.464h-2.037v2.118h-1.357v-7.199c1.131,0,2.263-0.01,3.394-0.01    C297.656,475.373,297.667,480.464,294.139,480.464z M292.103,479.219h2.037c1.738,0,1.728-2.55,0-2.55h-2.037V479.219z"
   id="path556" />
		<path
   fill="#FFFFFF"
   d="M304.085,482.582h-1.615l-2.098-2.406h-1.306v2.406h-1.357v-7.209c1.142,0,2.283,0.01,3.425,0.01    c1.697,0.011,2.592,1.142,2.592,2.386c0,0.987-0.453,1.985-1.82,2.263l2.18,2.458V482.582z M299.066,476.647v2.304h2.067    c0.864,0,1.234-0.575,1.234-1.151s-0.38-1.152-1.234-1.152H299.066z"
   id="path558" />
		<path
   fill="#FFFFFF"
   d="M310.01,482.582h-5.389c0-2.396,0-4.803,0-7.199h5.389v1.316h-4.042v1.656h3.898v1.265h-3.898v1.625h4.042    V482.582z M309.012,473.192h-1.481l-0.761,1.398v0.062h1.111l1.131-1.408V473.192z"
   id="path560" />
		<path
   fill="#FFFFFF"
   d="M315.914,482.593v-2.911h-3.538v2.911h-1.357v-7.199h1.357v3.033h3.538v-3.033h1.347v7.199H315.914z"
   id="path562" />
		<path
   fill="#FFFFFF"
   d="M323.906,482.582h-5.389c0-2.396,0-4.803,0-7.199h5.389v1.316h-4.042v1.656h3.898v1.265h-3.898v1.625    h4.042V482.582z"
   id="path564" />
		<path
   fill="#FFFFFF"
   d="M329.902,475.373h1.357v7.209h-0.843v0.011l-3.785-4.865v4.854h-1.357v-7.199h1.1l3.528,4.464V475.373z"
   id="path566" />
		<path
   fill="#FFFFFF"
   d="M337.06,477.121c-0.247-0.411-0.926-0.803-1.707-0.803c-1.008,0-1.491,0.422-1.491,0.957    c0,0.627,0.74,0.802,1.604,0.905c1.502,0.185,2.9,0.575,2.9,2.293c0,1.604-1.419,2.294-3.023,2.294    c-1.471,0-2.602-0.453-3.137-1.77l1.131-0.586c0.319,0.792,1.152,1.142,2.026,1.142c0.854,0,1.656-0.299,1.656-1.08    c0-0.679-0.709-0.956-1.666-1.06c-1.471-0.175-2.829-0.565-2.829-2.18c0-1.481,1.46-2.088,2.787-2.099    c1.121,0,2.283,0.319,2.829,1.43L337.06,477.121z"
   id="path568" />
		<path
   fill="#FFFFFF"
   d="M339.426,482.582v-7.199h1.347v7.199H339.426z"
   id="path570" />
		<path
   fill="#FFFFFF"
   d="M347.902,477.471c0,0.556-0.268,1.09-0.936,1.389c0.843,0.257,1.152,1.151,1.152,1.604    c0,1.604-1.203,2.118-2.694,2.118c-1.142,0-2.273,0-3.415,0v-7.199c1.131,0,2.273,0,3.415,0    C346.842,475.383,347.902,476.021,347.902,477.471z M343.346,478.272h2.078c0.854,0,1.131-0.359,1.131-0.771    c0-0.329-0.267-0.885-1.131-0.885h-2.078V478.272z M343.346,481.317h2.078c0.555,0,1.347-0.186,1.347-0.864    c0-0.647-0.792-0.987-1.347-0.987h-2.078V481.317z"
   id="path572" />
		<path
   fill="#FFFFFF"
   d="M350.432,475.383v5.944h3.703v1.255h-5.06v-7.199H350.432z"
   id="path574" />
		<path
   fill="#FFFFFF"
   d="M360.46,482.582h-5.389c0-2.396,0-4.803,0-7.199h5.389v1.316h-4.042v1.656h3.898v1.265h-3.898v1.625h4.042    V482.582z"
   id="path576" />
	</g>
	<g
   id="g578">
		<path
   fill="#FFFFFF"
   d="M129.772,421.945h-2.283v-1.234c2.078,0,3.836,0,5.924,0v1.234h-2.283v5.965h-1.358V421.945z"
   id="path580" />
		<path
   fill="#FFFFFF"
   d="M139.605,427.91h-5.389c0-2.396,0-4.803,0-7.199h5.389v1.316h-4.042v1.656h3.898v1.265h-3.898v1.625h4.042    V427.91z"
   id="path582" />
		<path
   fill="#FFFFFF"
   d="M147.042,427.91h-1.615l-2.098-2.406h-1.306v2.406h-1.357v-7.209c1.142,0,2.283,0.01,3.425,0.01    c1.697,0.011,2.592,1.142,2.592,2.386c0,0.987-0.453,1.985-1.82,2.263l2.18,2.458V427.91z M142.022,421.976v2.304h2.067    c0.864,0,1.234-0.575,1.234-1.151s-0.38-1.152-1.234-1.152H142.022z"
   id="path584" />
		<path
   fill="#FFFFFF"
   d="M153.984,427.91h-1.615l-2.098-2.406h-1.306v2.406h-1.357v-7.209c1.142,0,2.283,0.01,3.425,0.01    c1.697,0.011,2.592,1.142,2.592,2.386c0,0.987-0.453,1.985-1.82,2.263l2.18,2.458V427.91z M148.965,421.976v2.304h2.067    c0.864,0,1.234-0.575,1.234-1.151s-0.38-1.152-1.234-1.152H148.965z"
   id="path586" />
		<path
   fill="#FFFFFF"
   d="M154.551,427.91v-7.199h1.347v7.199H154.551z"
   id="path588" />
		<path
   fill="#FFFFFF"
   d="M163.026,422.799c0,0.556-0.268,1.09-0.936,1.389c0.843,0.257,1.152,1.151,1.152,1.604    c0,1.604-1.203,2.118-2.694,2.118c-1.142,0-2.273,0-3.415,0v-7.199c1.131,0,2.273,0,3.415,0    C161.966,420.711,163.026,421.349,163.026,422.799z M158.47,423.601h2.078c0.854,0,1.131-0.359,1.131-0.771    c0-0.329-0.267-0.885-1.131-0.885h-2.078V423.601z M158.47,426.646h2.078c0.555,0,1.347-0.186,1.347-0.864    c0-0.647-0.792-0.987-1.347-0.987h-2.078V426.646z"
   id="path590" />
		<path
   fill="#FFFFFF"
   d="M165.556,420.711v5.944h3.703v1.255h-5.06v-7.199H165.556z"
   id="path592" />
		<path
   fill="#FFFFFF"
   d="M175.584,427.91h-5.389c0-2.396,0-4.803,0-7.199h5.389v1.316h-4.042v1.656h3.898v1.265h-3.898v1.625h4.042    V427.91z"
   id="path594" />
	</g>
	<g
   id="g596">
		<path
   fill="#FFFFFF"
   d="M269.483,386.467h-2.037v2.118h-1.357v-7.199c1.131,0,2.263-0.01,3.394-0.01    C273,381.376,273.01,386.467,269.483,386.467z M267.446,385.222h2.037c1.738,0,1.728-2.55,0-2.55h-2.037V385.222z"
   id="path598" />
		<path
   fill="#FFFFFF"
   d="M278.153,387.228h-3.764l-0.617,1.357h-1.47l3.229-7.199h1.481l3.229,7.199h-1.481L278.153,387.228z     M276.271,382.897l-1.337,3.065h2.674L276.271,382.897z"
   id="path600" />
		<path
   fill="#FFFFFF"
   d="M285.189,383.124c-0.247-0.411-0.926-0.803-1.707-0.803c-1.008,0-1.491,0.422-1.491,0.957    c0,0.627,0.74,0.802,1.604,0.905c1.501,0.185,2.9,0.575,2.9,2.293c0,1.604-1.419,2.294-3.023,2.294    c-1.471,0-2.602-0.453-3.137-1.77l1.131-0.586c0.319,0.792,1.152,1.142,2.026,1.142c0.854,0,1.656-0.299,1.656-1.08    c0-0.679-0.71-0.956-1.666-1.06c-1.471-0.175-2.828-0.565-2.828-2.18c0-1.481,1.46-2.088,2.787-2.099    c1.121,0,2.283,0.319,2.829,1.43L285.189,383.124z"
   id="path602" />
		<path
   fill="#FFFFFF"
   d="M294.734,387.228h-3.764l-0.617,1.357h-1.471l3.229-7.199h1.481l3.229,7.199h-1.481L294.734,387.228z     M292.852,382.897l-1.337,3.065h2.674L292.852,382.897z"
   id="path604" />
		<path
   fill="#FFFFFF"
   d="M301.77,383.124c-0.247-0.411-0.926-0.803-1.707-0.803c-1.008,0-1.491,0.422-1.491,0.957    c0,0.627,0.74,0.802,1.604,0.905c1.502,0.185,2.9,0.575,2.9,2.293c0,1.604-1.419,2.294-3.023,2.294    c-1.471,0-2.602-0.453-3.137-1.77l1.131-0.586c0.319,0.792,1.152,1.142,2.026,1.142c0.854,0,1.656-0.299,1.656-1.08    c0-0.679-0.709-0.956-1.666-1.06c-1.471-0.175-2.829-0.565-2.829-2.18c0-1.481,1.46-2.088,2.787-2.099    c1.121,0,2.283,0.319,2.829,1.43L301.77,383.124z"
   id="path606" />
		<path
   fill="#FFFFFF"
   d="M308.568,383.124c-0.247-0.411-0.926-0.803-1.707-0.803c-1.008,0-1.491,0.422-1.491,0.957    c0,0.627,0.74,0.802,1.604,0.905c1.502,0.185,2.9,0.575,2.9,2.293c0,1.604-1.419,2.294-3.023,2.294    c-1.471,0-2.602-0.453-3.137-1.77l1.131-0.586c0.319,0.792,1.152,1.142,2.026,1.142c0.854,0,1.656-0.299,1.656-1.08    c0-0.679-0.709-0.956-1.666-1.06c-1.471-0.175-2.829-0.565-2.829-2.18c0-1.481,1.46-2.088,2.787-2.099    c1.121,0,2.283,0.319,2.829,1.43L308.568,383.124z"
   id="path608" />
		<path
   fill="#FFFFFF"
   d="M316.293,388.585h-5.389c0-2.396,0-4.803,0-7.199h5.389v1.316h-4.042v1.656h3.898v1.265h-3.898v1.625    h4.042V388.585z"
   id="path610" />
		<path
   fill="#FFFFFF"
   d="M317.013,381.386h5.533v0.638l-3.733,5.276h3.733v1.285h-5.626v-0.781l3.651-5.143h-3.559V381.386z"
   id="path612" />
		<path
   fill="#FFFFFF"
   d="M269.442,399.62h-2.283v-1.234c2.078,0,3.836,0,5.924,0v1.234H270.8v5.965h-1.358V399.62z"
   id="path614" />
		<path
   fill="#FFFFFF"
   d="M280.293,405.585h-1.615l-2.098-2.406h-1.306v2.406h-1.357v-7.209c1.142,0,2.283,0.01,3.425,0.01    c1.697,0.011,2.592,1.142,2.592,2.386c0,0.987-0.453,1.985-1.82,2.263l2.18,2.458V405.585z M275.274,399.65v2.304h2.067    c0.864,0,1.234-0.575,1.234-1.151s-0.38-1.152-1.234-1.152H275.274z"
   id="path616" />
		<path
   fill="#FFFFFF"
   d="M285.96,404.228h-3.764l-0.617,1.357h-1.471l3.229-7.199h1.481l3.229,7.199h-1.481L285.96,404.228z     M284.079,399.897l-1.337,3.065h2.674L284.079,399.897z"
   id="path618" />
		<path
   fill="#FFFFFF"
   d="M291.392,405.616h-1.409l-2.993-7.23h1.522l2.17,5.605l2.18-5.605h1.522L291.392,405.616z"
   id="path620" />
		<path
   fill="#FFFFFF"
   d="M300.33,404.228h-3.764l-0.617,1.357h-1.471l3.229-7.199h1.481l3.229,7.199h-1.481L300.33,404.228z     M298.448,399.897l-1.337,3.065h2.674L298.448,399.897z"
   id="path622" />
		<path
   fill="#FFFFFF"
   d="M302.933,405.585v-7.199h1.347v7.199H302.933z"
   id="path624" />
		<path
   fill="#FFFFFF"
   d="M306.913,398.386v5.944h3.703v1.255h-5.06v-7.199H306.913z"
   id="path626" />
		<path
   fill="#FFFFFF"
   d="M312.93,398.386v5.944h3.703v1.255h-5.06v-7.199H312.93z"
   id="path628" />
		<path
   fill="#FFFFFF"
   d="M322.958,405.585h-5.389c0-2.396,0-4.803,0-7.199h5.389v1.316h-4.042v1.656h3.898v1.265h-3.898v1.625    h4.042V405.585z M321.961,396.195h-1.481l-0.761,1.398v0.062h1.111l1.131-1.408V396.195z"
   id="path630" />
	</g>
	<g
   id="g632">
		<path
   fill="#FFFFFF"
   d="M185.412,375.095c-0.741,0.73-1.697,1.069-2.736,1.069c-2.674,0-3.805-1.841-3.815-3.712    c-0.01-1.882,1.213-3.795,3.815-3.795c0.977,0,1.903,0.37,2.643,1.101l-0.905,0.874c-0.473-0.463-1.111-0.679-1.738-0.679    c-1.738,0-2.489,1.296-2.479,2.499c0.01,1.192,0.699,2.438,2.479,2.438c0.627,0,1.337-0.258,1.81-0.73L185.412,375.095z"
   id="path634" />
		<path
   fill="#FFFFFF"
   d="M193.25,372.441c-0.021,1.861-1.162,3.723-3.692,3.723c-2.53,0-3.703-1.82-3.703-3.712    c0-1.893,1.214-3.795,3.703-3.795C192.036,368.657,193.27,370.56,193.25,372.441z M187.192,372.473    c0.031,1.183,0.668,2.447,2.366,2.447c1.697,0,2.334-1.275,2.355-2.458c0.021-1.213-0.658-2.571-2.355-2.571    C187.86,369.891,187.161,371.259,187.192,372.473z"
   id="path636" />
		<path
   fill="#FFFFFF"
   d="M200.521,370.786l-2.345,3.126h-0.268l-2.293-3.137v5.235h-1.357v-7.199h1.563l2.252,3.096l2.252-3.096    h1.553v7.199h-1.357V370.786z"
   id="path638" />
		<path
   fill="#FFFFFF"
   d="M206.549,373.882h-2.037V376h-1.357v-7.199c1.131,0,2.263-0.01,3.394-0.01    C210.066,368.791,210.077,373.882,206.549,373.882z M204.513,372.637h2.037c1.738,0,1.728-2.55,0-2.55h-2.037V372.637z"
   id="path640" />
		<path
   fill="#FFFFFF"
   d="M211.466,368.801v5.944h3.703V376h-5.06v-7.199H211.466z"
   id="path642" />
		<path
   fill="#FFFFFF"
   d="M216.136,376v-7.199h1.347V376H216.136z"
   id="path644" />
		<path
   fill="#FFFFFF"
   d="M225.814,372.308c0.01,0.823-0.206,1.677-0.668,2.345l0.854,0.844l-0.957,0.956l-0.874-0.863    c-0.545,0.35-1.234,0.534-2.047,0.534c-2.561,0-3.692-1.861-3.702-3.732c-0.01-1.883,1.172-3.765,3.702-3.765    C224.652,368.626,225.783,370.457,225.814,372.308z M219.756,372.421c0.021,1.183,0.802,2.448,2.365,2.448    c1.625,0,2.407-1.368,2.355-2.603c-0.052-1.162-0.658-2.417-2.355-2.417C220.425,369.85,219.736,371.207,219.756,372.421z"
   id="path646" />
		<path
   fill="#FFFFFF"
   d="M233.117,368.812v4.124c0,2.129-1.306,3.219-3.116,3.219c-1.728,0-3.198-1.049-3.198-3.219v-4.124h1.347    v4.124c0,1.296,0.741,1.984,1.862,1.984c1.121,0,1.758-0.751,1.758-1.984v-4.124H233.117z"
   id="path648" />
		<path
   fill="#FFFFFF"
   d="M239.813,376h-5.389c0-2.396,0-4.803,0-7.199h5.389v1.316h-4.042v1.656h3.898v1.265h-3.898v1.625h4.042    V376z M238.815,366.61h-1.481l-0.761,1.398v0.062h1.111l1.131-1.408V366.61z"
   id="path650" />
	</g>
	<g
   id="g652">
		<path
   fill="#FFFFFF"
   d="M526.68,525.119l-2.345,3.126h-0.268l-2.293-3.137v5.235h-1.357v-7.199h1.563l2.253,3.096l2.252-3.096    h1.553v7.199h-1.357V525.119z"
   id="path654" />
		<path
   fill="#FFFFFF"
   d="M533.767,528.976h-3.764l-0.617,1.357h-1.471l3.229-7.199h1.48l3.229,7.199h-1.481L533.767,528.976z     M531.885,524.646l-1.337,3.065h2.674L531.885,524.646z"
   id="path656" />
		<path
   fill="#FFFFFF"
   d="M537.274,523.134v5.944h3.702v1.255h-5.06v-7.199H537.274z"
   id="path658" />
		<path
   fill="#FFFFFF"
   d="M520.251,547.428c-0.74,0.73-1.697,1.069-2.736,1.069c-2.674,0-3.805-1.841-3.815-3.712    c-0.01-1.882,1.214-3.795,3.815-3.795c0.978,0,1.903,0.37,2.644,1.101l-0.905,0.874c-0.473-0.463-1.11-0.679-1.738-0.679    c-1.737,0-2.488,1.296-2.479,2.499c0.011,1.192,0.7,2.438,2.479,2.438c0.628,0,1.338-0.258,1.811-0.73L520.251,547.428z"
   id="path660" />
		<path
   fill="#FFFFFF"
   d="M527.43,544.774c-0.021,1.861-1.163,3.723-3.692,3.723c-2.53,0-3.702-1.82-3.702-3.712    c0-1.893,1.213-3.795,3.702-3.795C526.216,540.99,527.45,542.893,527.43,544.774z M521.372,544.806    c0.03,1.183,0.668,2.447,2.365,2.447c1.696,0,2.334-1.275,2.354-2.458c0.021-1.213-0.658-2.571-2.354-2.571    C522.04,542.224,521.341,543.592,521.372,544.806z"
   id="path662" />
		<path
   fill="#FFFFFF"
   d="M532.5,541.124h1.358v7.209h-0.844v0.011l-3.785-4.865v4.854h-1.357v-7.199h1.101l3.527,4.464V541.124z"
   id="path664" />
		<path
   fill="#FFFFFF"
   d="M536.976,549.958c0.298,0.401,1.101,0.452,1.224,0.041c0.113-0.391-0.483-0.638-0.874-0.36l-0.299-0.236    l0.319-0.956c-2.17-0.288-3.096-1.965-3.106-3.661c-0.01-1.882,1.214-3.795,3.816-3.795c0.977,0,1.902,0.37,2.643,1.101    l-0.905,0.874c-0.473-0.463-1.11-0.679-1.737-0.679c-1.738,0-2.489,1.296-2.479,2.499c0.011,1.192,0.7,2.438,2.479,2.438    c0.627,0,1.337-0.258,1.81-0.73l0.926,0.936c-0.699,0.689-1.584,1.028-2.551,1.069l-0.144,0.463    c0.945,0.031,1.151,0.669,1.059,1.184c-0.257,1.192-2.098,1.295-2.725,0.277L536.976,549.958z"
   id="path666" />
		<path
   fill="#FFFFFF"
   d="M547.106,541.145v4.124c0,2.129-1.306,3.219-3.116,3.219c-1.728,0-3.198-1.049-3.198-3.219v-4.124h1.348    v4.124c0,1.296,0.74,1.984,1.861,1.984s1.759-0.751,1.759-1.984v-4.124H547.106z"
   id="path668" />
	</g>
	<g
   id="g670">
		<path
   fill="#FFFFFF"
   d="M631.489,403.549h-2.036v2.118h-1.357v-7.199c1.131,0,2.263-0.01,3.394-0.01    C635.007,398.458,635.018,403.549,631.489,403.549z M629.453,402.304h2.036c1.738,0,1.729-2.55,0-2.55h-2.036V402.304z"
   id="path672" />
		<path
   fill="#FFFFFF"
   d="M640.777,405.667h-1.614l-2.099-2.406h-1.306v2.406h-1.357v-7.209c1.142,0,2.282,0.01,3.424,0.01    c1.697,0.011,2.592,1.142,2.592,2.386c0,0.987-0.452,1.985-1.82,2.263l2.181,2.458V405.667z M635.759,399.732v2.304h2.066    c0.864,0,1.234-0.575,1.234-1.151s-0.38-1.152-1.234-1.152H635.759z"
   id="path674" />
		<path
   fill="#FFFFFF"
   d="M646.043,405.667h-5.389c0-2.396,0-4.803,0-7.199h5.389v1.316h-4.041v1.656h3.897v1.265h-3.897v1.625    h4.041V405.667z"
   id="path676" />
		<path
   fill="#FFFFFF"
   d="M651.094,400.206c-0.247-0.411-0.926-0.803-1.708-0.803c-1.008,0-1.491,0.422-1.491,0.957    c0,0.627,0.741,0.802,1.604,0.905c1.502,0.185,2.9,0.575,2.9,2.293c0,1.604-1.419,2.294-3.023,2.294    c-1.471,0-2.603-0.453-3.137-1.77l1.131-0.586c0.319,0.792,1.152,1.142,2.026,1.142c0.854,0,1.655-0.299,1.655-1.08    c0-0.679-0.709-0.956-1.666-1.06c-1.471-0.175-2.828-0.565-2.828-2.18c0-1.481,1.461-2.088,2.787-2.099    c1.121,0,2.283,0.319,2.828,1.43L651.094,400.206z"
   id="path678" />
		<path
   fill="#FFFFFF"
   d="M659.846,401.975c0.011,0.823-0.205,1.677-0.668,2.345l0.854,0.844l-0.956,0.956l-0.875-0.863    c-0.545,0.35-1.233,0.534-2.046,0.534c-2.562,0-3.692-1.861-3.703-3.732c-0.01-1.883,1.173-3.765,3.703-3.765    C658.684,398.293,659.815,400.124,659.846,401.975z M653.789,402.088c0.021,1.183,0.802,2.448,2.365,2.448    c1.625,0,2.406-1.368,2.354-2.603c-0.051-1.162-0.658-2.417-2.354-2.417C654.457,399.517,653.768,400.874,653.789,402.088z"
   id="path680" />
		<path
   fill="#FFFFFF"
   d="M666.49,398.479v4.124c0,2.129-1.306,3.219-3.116,3.219c-1.728,0-3.198-1.049-3.198-3.219v-4.124h1.348    v4.124c0,1.296,0.74,1.984,1.861,1.984s1.759-0.751,1.759-1.984v-4.124H666.49z"
   id="path682" />
		<path
   fill="#FFFFFF"
   d="M672.527,405.667h-5.389c0-2.396,0-4.803,0-7.199h5.389v1.316h-4.041v1.656h3.897v1.265h-3.897v1.625    h4.041V405.667z"
   id="path684" />
		<path
   fill="#FFFFFF"
   d="M634.75,422.762c-0.74,0.73-1.697,1.069-2.736,1.069c-2.674,0-3.805-1.841-3.815-3.712    c-0.01-1.882,1.214-3.795,3.815-3.795c0.978,0,1.903,0.37,2.644,1.101l-0.905,0.874c-0.473-0.463-1.11-0.679-1.738-0.679    c-1.737,0-2.488,1.296-2.479,2.499c0.011,1.192,0.7,2.438,2.479,2.438c0.628,0,1.338-0.258,1.811-0.73L634.75,422.762z"
   id="path686" />
		<path
   fill="#FFFFFF"
   d="M641.929,420.108c-0.021,1.861-1.163,3.723-3.692,3.723c-2.53,0-3.702-1.82-3.702-3.712    c0-1.893,1.213-3.795,3.702-3.795C640.715,416.324,641.949,418.227,641.929,420.108z M635.871,420.14    c0.03,1.183,0.668,2.447,2.365,2.447c1.696,0,2.334-1.275,2.354-2.458c0.021-1.213-0.658-2.571-2.354-2.571    C636.539,417.558,635.84,418.926,635.871,420.14z"
   id="path688" />
		<path
   fill="#FFFFFF"
   d="M648.655,423.667h-1.614l-2.099-2.406h-1.306v2.406h-1.357v-7.209c1.142,0,2.283,0.01,3.424,0.01    c1.697,0.011,2.592,1.142,2.592,2.386c0,0.987-0.452,1.985-1.82,2.263l2.181,2.458V423.667z M643.637,417.732v2.304h2.066    c0.864,0,1.234-0.575,1.234-1.151s-0.38-1.152-1.234-1.152H643.637z"
   id="path690" />
		<path
   fill="#FFFFFF"
   d="M654.939,423.667h-1.614l-2.099-2.406h-1.306v2.406h-1.357v-7.209c1.142,0,2.282,0.01,3.424,0.01    c1.697,0.011,2.592,1.142,2.592,2.386c0,0.987-0.452,1.985-1.82,2.263l2.181,2.458V423.667z M649.921,417.732v2.304h2.066    c0.864,0,1.234-0.575,1.234-1.151s-0.38-1.152-1.234-1.152H649.921z"
   id="path692" />
		<path
   fill="#FFFFFF"
   d="M660.205,423.667h-5.389c0-2.396,0-4.803,0-7.199h5.389v1.316h-4.041v1.656h3.897v1.265h-3.897v1.625    h4.041V423.667z"
   id="path694" />
		<path
   fill="#FFFFFF"
   d="M666.942,422.762c-0.74,0.73-1.697,1.069-2.735,1.069c-2.675,0-3.806-1.841-3.816-3.712    c-0.01-1.882,1.214-3.795,3.816-3.795c0.977,0,1.902,0.37,2.643,1.101l-0.905,0.874c-0.473-0.463-1.11-0.679-1.737-0.679    c-1.738,0-2.489,1.296-2.479,2.499c0.011,1.192,0.7,2.438,2.479,2.438c0.627,0,1.337-0.258,1.81-0.73L666.942,422.762z"
   id="path696" />
		<path
   fill="#FFFFFF"
   d="M668.804,417.702h-2.283v-1.234c2.078,0,3.836,0,5.924,0v1.234h-2.283v5.965h-1.357V417.702z"
   id="path698" />
	</g>
	<g
   id="g700">
		<path
   fill="#FFFFFF"
   d="M270.817,536.976h-3.764l-0.617,1.357h-1.471l3.229-7.199h1.481l3.229,7.199h-1.481L270.817,536.976z     M268.936,532.646l-1.337,3.065h2.674L268.936,532.646z"
   id="path702" />
		<path
   fill="#FFFFFF"
   d="M278.634,531.145v4.124c0,2.129-1.306,3.219-3.116,3.219c-1.728,0-3.199-1.049-3.199-3.219v-4.124h1.347    v4.124c0,1.296,0.741,1.984,1.862,1.984c1.121,0,1.758-0.751,1.758-1.984v-4.124H278.634z"
   id="path704" />
		<path
   fill="#FFFFFF"
   d="M285.649,537.428c-0.741,0.73-1.697,1.069-2.736,1.069c-2.674,0-3.805-1.841-3.815-3.712    c-0.01-1.882,1.213-3.795,3.815-3.795c0.977,0,1.903,0.37,2.643,1.101l-0.905,0.874c-0.473-0.463-1.111-0.679-1.738-0.679    c-1.738,0-2.489,1.296-2.479,2.499c0.01,1.192,0.699,2.438,2.479,2.438c0.627,0,1.337-0.258,1.81-0.73L285.649,537.428z"
   id="path706" />
		<path
   fill="#FFFFFF"
   d="M291.964,531.145v4.124c0,2.129-1.306,3.219-3.116,3.219c-1.728,0-3.199-1.049-3.199-3.219v-4.124h1.347    v4.124c0,1.296,0.741,1.984,1.862,1.984c1.121,0,1.758-0.751,1.758-1.984v-4.124H291.964z"
   id="path708" />
		<path
   fill="#FFFFFF"
   d="M297.365,531.124h1.357v7.209h-0.843v0.011l-3.785-4.865v4.854h-1.357v-7.199h1.1l3.528,4.464V531.124z"
   id="path710" />
		<path
   fill="#FFFFFF"
   d="M242.368,556.333v-7.199h1.347v7.199H242.368z"
   id="path712" />
		<path
   fill="#FFFFFF"
   d="M249.064,549.124h1.357v7.209h-0.843v0.011l-3.785-4.865v4.854h-1.357v-7.199h1.1l3.528,4.464V549.124z"
   id="path714" />
		<path
   fill="#FFFFFF"
   d="M254.917,556.364h-1.409l-2.993-7.23h1.522l2.17,5.605l2.18-5.605h1.522L254.917,556.364z"
   id="path716" />
		<path
   fill="#FFFFFF"
   d="M263.453,556.333h-5.389c0-2.396,0-4.803,0-7.199h5.389v1.316h-4.042v1.656h3.898v1.265h-3.898v1.625    h4.042V556.333z"
   id="path718" />
		<path
   fill="#FFFFFF"
   d="M268.503,550.872c-0.247-0.411-0.926-0.803-1.707-0.803c-1.008,0-1.491,0.422-1.491,0.957    c0,0.627,0.74,0.802,1.604,0.905c1.501,0.185,2.9,0.575,2.9,2.293c0,1.604-1.419,2.294-3.023,2.294    c-1.471,0-2.602-0.453-3.137-1.77l1.131-0.586c0.319,0.792,1.152,1.142,2.026,1.142c0.854,0,1.656-0.299,1.656-1.08    c0-0.679-0.71-0.956-1.666-1.06c-1.471-0.175-2.828-0.565-2.828-2.18c0-1.481,1.46-2.088,2.787-2.099    c1.121,0,2.283,0.319,2.829,1.43L268.503,550.872z"
   id="path720" />
		<path
   fill="#FFFFFF"
   d="M272.062,550.368h-2.283v-1.234c2.077,0,3.836,0,5.924,0v1.234h-2.283v5.965h-1.358V550.368z"
   id="path722" />
		<path
   fill="#FFFFFF"
   d="M275.878,556.333v-7.199h1.347v7.199H275.878z"
   id="path724" />
		<path
   fill="#FFFFFF"
   d="M282.492,550.872c-0.247-0.411-0.926-0.803-1.707-0.803c-1.008,0-1.491,0.422-1.491,0.957    c0,0.627,0.74,0.802,1.604,0.905c1.502,0.185,2.9,0.575,2.9,2.293c0,1.604-1.419,2.294-3.023,2.294    c-1.471,0-2.602-0.453-3.137-1.77l1.131-0.586c0.319,0.792,1.152,1.142,2.026,1.142c0.854,0,1.656-0.299,1.656-1.08    c0-0.679-0.709-0.956-1.666-1.06c-1.471-0.175-2.829-0.565-2.829-2.18c0-1.481,1.46-2.088,2.787-2.099    c1.121,0,2.283,0.319,2.829,1.43L282.492,550.872z"
   id="path726" />
		<path
   fill="#FFFFFF"
   d="M288.632,550.872c-0.247-0.411-0.926-0.803-1.707-0.803c-1.008,0-1.491,0.422-1.491,0.957    c0,0.627,0.74,0.802,1.604,0.905c1.502,0.185,2.9,0.575,2.9,2.293c0,1.604-1.419,2.294-3.023,2.294    c-1.471,0-2.602-0.453-3.137-1.77l1.131-0.586c0.319,0.792,1.152,1.142,2.026,1.142c0.854,0,1.656-0.299,1.656-1.08    c0-0.679-0.709-0.956-1.666-1.06c-1.471-0.175-2.829-0.565-2.829-2.18c0-1.481,1.46-2.088,2.787-2.099    c1.121,0,2.283,0.319,2.829,1.43L288.632,550.872z"
   id="path728" />
		<path
   fill="#FFFFFF"
   d="M295.698,556.333h-5.389c0-2.396,0-4.803,0-7.199h5.389v1.316h-4.042v1.656h3.898v1.265h-3.898v1.625    h4.042V556.333z"
   id="path730" />
		<path
   fill="#FFFFFF"
   d="M302.363,551.119l-2.345,3.126h-0.268l-2.293-3.137v5.235H296.1v-7.199h1.563l2.252,3.096l2.252-3.096    h1.553v7.199h-1.357V551.119z"
   id="path732" />
		<path
   fill="#FFFFFF"
   d="M309.707,556.333h-5.389c0-2.396,0-4.803,0-7.199h5.389v1.316h-4.042v1.656h3.898v1.265h-3.898v1.625    h4.042V556.333z"
   id="path734" />
		<path
   fill="#FFFFFF"
   d="M315.045,549.124h1.357v7.209h-0.843v0.011l-3.785-4.865v4.854h-1.357v-7.199h1.1l3.528,4.464V549.124z"
   id="path736" />
		<path
   fill="#FFFFFF"
   d="M318.851,550.368h-2.283v-1.234c2.077,0,3.836,0,5.924,0v1.234h-2.283v5.965h-1.358V550.368z"
   id="path738" />
	</g>
</g>
</svg>