<?xml version="1.0" encoding="UTF-8" standalone="no"?>
<!-- Created with Inkscape (http://www.inkscape.org/) -->

<svg
   xmlns:dc="http://purl.org/dc/elements/1.1/"
   xmlns:cc="http://creativecommons.org/ns#"
   xmlns:rdf="http://www.w3.org/1999/02/22-rdf-syntax-ns#"
   xmlns:svg="http://www.w3.org/2000/svg"
   xmlns="http://www.w3.org/2000/svg"
   xmlns:sodipodi="http://sodipodi.sourceforge.net/DTD/sodipodi-0.dtd"
   xmlns:inkscape="http://www.inkscape.org/namespaces/inkscape"
   width="800px"
   height="600px"
   id="svg2985"
   version="1.1"
   inkscape:version="0.48.5 r10040"
   sodipodi:docname="tweet palette.svg">
  <defs
     id="defs2987" />
  <sodipodi:namedview
     id="base"
     pagecolor="#ffffff"
     bordercolor="#666666"
     borderopacity="1.0"
     inkscape:pageopacity="0.0"
     inkscape:pageshadow="2"
     inkscape:zoom="0.84852814"
     inkscape:cx="604.1449"
     inkscape:cy="300"
     inkscape:current-layer="layer1"
     inkscape:document-units="px"
     showgrid="false"
     inkscape:window-width="1366"
     inkscape:window-height="705"
     inkscape:window-x="-8"
     inkscape:window-y="-8"
     inkscape:window-maximized="1"
     inkscape:snap-grids="false"
     inkscape:snap-bbox="true" />
  <metadata
     id="metadata2990">
    <rdf:RDF>
      <cc:Work
         rdf:about="">
        <dc:format>image/svg+xml</dc:format>
        <dc:type
           rdf:resource="http://purl.org/dc/dcmitype/StillImage" />
        <dc:title />
      </cc:Work>
    </rdf:RDF>
  </metadata>
  <g
     id="layer1"
     inkscape:label="Layer 1"
     inkscape:groupmode="layer">
    <rect
       style="fill:#008000"
       id="rect2993"
       width="766.66669"
       height="73.333336"
       x="18.7978"
       y="111.51186"
       ry="0" />
    <rect
       style="fill:#00ff00;fill-opacity:1"
       id="rect2993-7"
       width="766.66669"
       height="73.333336"
       x="18.333319"
       y="199.99998"
       ry="0" />
    <rect
       style="fill:#ffff00"
       id="rect2993-4"
       width="766.66669"
       height="73.333336"
       x="18.333324"
       y="288.33334"
       ry="0" />
    <rect
       style="fill:#ff5555"
       id="rect2993-0"
       width="766.66669"
       height="73.333336"
       x="17.666656"
       y="379"
       ry="0" />
    <path
       sodipodi:type="star"
       style="fill:#f9f9f9"
       id="path3074-4"
       sodipodi:sides="5"
       sodipodi:cx="53.333332"
       sodipodi:cy="131.66667"
       sodipodi:r1="41.666668"
       sodipodi:r2="20.833332"
       sodipodi:arg1="0.92729522"
       sodipodi:arg2="1.5556137"
       inkscape:flatsided="false"
       inkscape:rounded="0"
       inkscape:randomized="0"
       d="M 78.333333,165.00001 53.649625,152.4976 29.356872,165.74365 33.619679,138.4046 13.515064,119.39407 40.833332,115.00001 52.700749,90.004806 65.32156,114.62818 l 27.439082,3.56264 -19.518178,19.61215 z"
       inkscape:transform-center-x="0.17080384"
       inkscape:transform-center-y="-3.2082613"
       transform="matrix(0.87380999,0,0,0.84596192,119.90095,42.823272)" />
    <rect
       style="fill:#ff0000;fill-opacity:1"
       id="rect2993-9"
       width="766.66669"
       height="73.333336"
       x="17.666656"
       y="472.33334"
       ry="0" />
    <text
       xml:space="preserve"
       style="font-size:40px;font-style:normal;font-weight:normal;line-height:125%;letter-spacing:0px;word-spacing:0px;fill:#000000;fill-opacity:1;stroke:none;font-family:Sans"
       x="657.33331"
       y="156"
       id="text3052"
       sodipodi:linespacing="125%"><tspan
         sodipodi:role="line"
         id="tspan3054"
         x="657.33331"
         y="156"
         style="fill:#000000">parfait</tspan></text>
    <text
       xml:space="preserve"
       style="font-size:40px;font-style:normal;font-weight:normal;line-height:125%;letter-spacing:0px;word-spacing:0px;fill:#000000;fill-opacity:1;stroke:none;font-family:Sans"
       x="699"
       y="250.33333"
       id="text3056"
       sodipodi:linespacing="125%"><tspan
         sodipodi:role="line"
         id="tspan3058"
         x="699"
         y="250.33333"
         style="fill:#000000">bon</tspan></text>
    <text
       xml:space="preserve"
       style="font-size:40px;font-style:normal;font-weight:normal;line-height:125%;letter-spacing:0px;word-spacing:0px;fill:#000000;fill-opacity:1;stroke:none;font-family:Sans"
       x="646"
       y="332.33334"
       id="text3060"
       sodipodi:linespacing="125%"><tspan
         sodipodi:role="line"
         id="tspan3062"
         x="646"
         y="332.33334">moyen</tspan></text>
    <text
       xml:space="preserve"
       style="font-size:40px;font-style:normal;font-weight:normal;line-height:125%;letter-spacing:0px;word-spacing:0px;fill:#000000;fill-opacity:1;stroke:none;font-family:Sans"
       x="531.66669"
       y="429.66666"
       id="text3064"
       sodipodi:linespacing="125%"><tspan
         sodipodi:role="line"
         id="tspan3066"
         x="531.66669"
         y="429.66666">insatisfaisant</tspan></text>
    <text
       xml:space="preserve"
       style="font-size:40px;font-style:normal;font-weight:normal;line-height:125%;letter-spacing:0px;word-spacing:0px;fill:#000000;fill-opacity:1;stroke:none;font-family:Sans"
       x="600.33331"
       y="521.33331"
       id="text3068"
       sodipodi:linespacing="125%"><tspan
         sodipodi:role="line"
         id="tspan3070"
         x="600.33331"
         y="521.33331">médiocre</tspan></text>
    <path
       sodipodi:type="star"
       style="fill:#f9f9f9"
       id="path3074"
       sodipodi:sides="5"
       sodipodi:cx="53.333332"
       sodipodi:cy="131.66667"
       sodipodi:r1="41.666668"
       sodipodi:r2="20.833332"
       sodipodi:arg1="0.92729522"
       sodipodi:arg2="1.5556137"
       inkscape:flatsided="false"
       inkscape:rounded="0"
       inkscape:randomized="0"
       d="M 78.333333,165.00001 53.649625,152.4976 29.356872,165.74365 33.619679,138.4046 13.515064,119.39407 40.833332,115.00001 52.700749,90.004806 65.32156,114.62818 l 27.439082,3.56264 -19.518178,19.61215 z"
       inkscape:transform-center-x="0.17081156"
       inkscape:transform-center-y="-3.2082613"
       transform="matrix(0.87380999,0,0,0.84596192,27.705466,41.864168)" />
    <path
       sodipodi:type="star"
       style="fill:#f9f9f9"
       id="path3074-8"
       sodipodi:sides="5"
       sodipodi:cx="53.333332"
       sodipodi:cy="131.66667"
       sodipodi:r1="41.666668"
       sodipodi:r2="20.833332"
       sodipodi:arg1="0.92729522"
       sodipodi:arg2="1.5556137"
       inkscape:flatsided="false"
       inkscape:rounded="0"
       inkscape:randomized="0"
       d="M 78.333333,165.00001 53.649625,152.4976 29.356872,165.74365 33.619679,138.4046 13.515064,119.39407 40.833332,115.00001 52.700749,90.004806 65.32156,114.62818 l 27.439082,3.56264 -19.518178,19.61215 z"
       transform="matrix(0.87380999,0,0,0.84596192,211.56761,41.823272)" />
    <path
       sodipodi:type="star"
       style="fill:#f9f9f9"
       id="path3074-82"
       sodipodi:sides="5"
       sodipodi:cx="53.333332"
       sodipodi:cy="131.66667"
       sodipodi:r1="41.666668"
       sodipodi:r2="20.833332"
       sodipodi:arg1="0.92729522"
       sodipodi:arg2="1.5556137"
       inkscape:flatsided="false"
       inkscape:rounded="0"
       inkscape:randomized="0"
       d="M 78.333333,165.00001 53.649625,152.4976 29.356872,165.74365 33.619679,138.4046 13.515064,119.39407 40.833332,115.00001 52.700749,90.004806 65.32156,114.62818 l 27.439082,3.56264 -19.518178,19.61215 z"
       inkscape:transform-center-x="0.17081156"
       inkscape:transform-center-y="-3.2082613"
       transform="matrix(0.87380999,0,0,0.84596192,304.90095,41.489938)" />
    <path
       sodipodi:type="star"
       style="fill:#f9f9f9"
       id="path3074-45"
       sodipodi:sides="5"
       sodipodi:cx="53.333332"
       sodipodi:cy="131.66667"
       sodipodi:r1="41.666668"
       sodipodi:r2="20.833332"
       sodipodi:arg1="0.92729522"
       sodipodi:arg2="1.5556137"
       inkscape:flatsided="false"
       inkscape:rounded="0"
       inkscape:randomized="0"
       d="M 78.333333,165.00001 53.649625,152.4976 29.356872,165.74365 33.619679,138.4046 13.515064,119.39407 40.833332,115.00001 52.700749,90.004806 65.32156,114.62818 l 27.439082,3.56264 -19.518178,19.61215 z"
       inkscape:transform-center-x="0.17081156"
       inkscape:transform-center-y="-3.2082613"
       transform="matrix(0.87380999,0,0,0.84596192,400.56762,42.489938)" />
    <path
       sodipodi:type="star"
       style="fill:#f9f9f9"
       id="path3074-5"
       sodipodi:sides="5"
       sodipodi:cx="53.333332"
       sodipodi:cy="131.66667"
       sodipodi:r1="41.666668"
       sodipodi:r2="20.833332"
       sodipodi:arg1="0.92729522"
       sodipodi:arg2="1.5556137"
       inkscape:flatsided="false"
       inkscape:rounded="0"
       inkscape:randomized="0"
       d="M 78.333333,165.00001 53.649625,152.4976 29.356872,165.74365 33.619679,138.4046 13.515064,119.39407 40.833332,115.00001 52.700749,90.004806 65.32156,114.62818 l 27.439082,3.56264 -19.518178,19.61215 z"
       inkscape:transform-center-x="0.17081156"
       inkscape:transform-center-y="-3.2082613"
       transform="matrix(0.87380999,0,0,0.84596192,27.900947,132.82327)" />
    <path
       sodipodi:type="star"
       style="fill:#f9f9f9"
       id="path3074-1"
       sodipodi:sides="5"
       sodipodi:cx="53.333332"
       sodipodi:cy="131.66667"
       sodipodi:r1="41.666668"
       sodipodi:r2="20.833332"
       sodipodi:arg1="0.92729522"
       sodipodi:arg2="1.5556137"
       inkscape:flatsided="false"
       inkscape:rounded="0"
       inkscape:randomized="0"
       d="M 78.333333,165.00001 53.649625,152.4976 29.356872,165.74365 33.619679,138.4046 13.515064,119.39407 40.833332,115.00001 52.700749,90.004806 65.32156,114.62818 l 27.439082,3.56264 -19.518178,19.61215 z"
       inkscape:transform-center-x="0.17080384"
       inkscape:transform-center-y="-3.2082613"
       transform="matrix(0.87380999,0,0,0.84596192,120.90095,132.48994)" />
    <path
       sodipodi:type="star"
       style="fill:#f9f9f9"
       id="path3074-7"
       sodipodi:sides="5"
       sodipodi:cx="53.333332"
       sodipodi:cy="131.66667"
       sodipodi:r1="41.666668"
       sodipodi:r2="20.833332"
       sodipodi:arg1="0.92729522"
       sodipodi:arg2="1.5556137"
       inkscape:flatsided="false"
       inkscape:rounded="0"
       inkscape:randomized="0"
       d="M 78.333333,165.00001 53.649625,152.4976 29.356872,165.74365 33.619679,138.4046 13.515064,119.39407 40.833332,115.00001 52.700749,90.004806 65.32156,114.62818 l 27.439082,3.56264 -19.518178,19.61215 z"
       inkscape:transform-center-x="0.17081156"
       inkscape:transform-center-y="-3.2082613"
       transform="matrix(0.87380999,0,0,0.84596192,211.56761,132.82327)" />
    <path
       sodipodi:type="star"
       style="fill:#f9f9f9"
       id="path3074-11"
       sodipodi:sides="5"
       sodipodi:cx="53.333332"
       sodipodi:cy="131.66667"
       sodipodi:r1="41.666668"
       sodipodi:r2="20.833332"
       sodipodi:arg1="0.92729522"
       sodipodi:arg2="1.5556137"
       inkscape:flatsided="false"
       inkscape:rounded="0"
       inkscape:randomized="0"
       d="M 78.333333,165.00001 53.649625,152.4976 29.356872,165.74365 33.619679,138.4046 13.515064,119.39407 40.833332,115.00001 52.700749,90.004806 65.32156,114.62818 l 27.439082,3.56264 -19.518178,19.61215 z"
       inkscape:transform-center-x="0.17081156"
       inkscape:transform-center-y="-3.2082613"
       transform="matrix(0.87380999,0,0,0.84596192,307.23428,132.48994)" />
    <path
       sodipodi:type="star"
       style="fill:#f9f9f9"
       id="path3074-52"
       sodipodi:sides="5"
       sodipodi:cx="53.333332"
       sodipodi:cy="131.66667"
       sodipodi:r1="41.666668"
       sodipodi:r2="20.833332"
       sodipodi:arg1="0.92729522"
       sodipodi:arg2="1.5556137"
       inkscape:flatsided="false"
       inkscape:rounded="0"
       inkscape:randomized="0"
       d="M 78.333333,165.00001 53.649625,152.4976 29.356872,165.74365 33.619679,138.4046 13.515064,119.39407 40.833332,115.00001 52.700749,90.004806 65.32156,114.62818 l 27.439082,3.56264 -19.518178,19.61215 z"
       inkscape:transform-center-x="0.17081156"
       inkscape:transform-center-y="-3.2082613"
       transform="matrix(0.87380999,0,0,0.84596192,27.56761,221.1566)" />
    <path
       sodipodi:type="star"
       style="fill:#f9f9f9"
       id="path3074-76"
       sodipodi:sides="5"
       sodipodi:cx="53.333332"
       sodipodi:cy="131.66667"
       sodipodi:r1="41.666668"
       sodipodi:r2="20.833332"
       sodipodi:arg1="0.92729522"
       sodipodi:arg2="1.5556137"
       inkscape:flatsided="false"
       inkscape:rounded="0"
       inkscape:randomized="0"
       d="M 78.333333,165.00001 53.649625,152.4976 29.356872,165.74365 33.619679,138.4046 13.515064,119.39407 40.833332,115.00001 52.700749,90.004806 65.32156,114.62818 l 27.439082,3.56264 -19.518178,19.61215 z"
       inkscape:transform-center-x="0.17081156"
       inkscape:transform-center-y="-3.2082613"
       transform="matrix(0.87380999,0,0,0.84596192,29.234279,310.48994)" />
    <path
       sodipodi:type="star"
       style="fill:#f9f9f9"
       id="path3074-14"
       sodipodi:sides="5"
       sodipodi:cx="53.333332"
       sodipodi:cy="131.66667"
       sodipodi:r1="41.666668"
       sodipodi:r2="20.833332"
       sodipodi:arg1="0.92729522"
       sodipodi:arg2="1.5556137"
       inkscape:flatsided="false"
       inkscape:rounded="0"
       inkscape:randomized="0"
       d="M 78.333333,165.00001 53.649625,152.4976 29.356872,165.74365 33.619679,138.4046 13.515064,119.39407 40.833332,115.00001 52.700749,90.004806 65.32156,114.62818 l 27.439082,3.56264 -19.518178,19.61215 z"
       inkscape:transform-center-x="0.17081156"
       inkscape:transform-center-y="-3.2082613"
       transform="matrix(0.87380999,0,0,0.84596192,30.567617,404.1566)" />
    <path
       sodipodi:type="star"
       style="fill:#f9f9f9"
       id="path3074-2"
       sodipodi:sides="5"
       sodipodi:cx="53.333332"
       sodipodi:cy="131.66667"
       sodipodi:r1="41.666668"
       sodipodi:r2="20.833332"
       sodipodi:arg1="0.92729522"
       sodipodi:arg2="1.5556137"
       inkscape:flatsided="false"
       inkscape:rounded="0"
       inkscape:randomized="0"
       d="M 78.333333,165.00001 53.649625,152.4976 29.356872,165.74365 33.619679,138.4046 13.515064,119.39407 40.833332,115.00001 52.700749,90.004806 65.32156,114.62818 l 27.439082,3.56264 -19.518178,19.61215 z"
       inkscape:transform-center-x="0.17080384"
       inkscape:transform-center-y="-3.2082613"
       transform="matrix(0.87380999,0,0,0.84596192,124.56761,310.48994)" />
    <path
       sodipodi:type="star"
       style="fill:#f9f9f9"
       id="path3074-3"
       sodipodi:sides="5"
       sodipodi:cx="53.333332"
       sodipodi:cy="131.66667"
       sodipodi:r1="41.666668"
       sodipodi:r2="20.833332"
       sodipodi:arg1="0.92729522"
       sodipodi:arg2="1.5556137"
       inkscape:flatsided="false"
       inkscape:rounded="0"
       inkscape:randomized="0"
       d="M 78.333333,165.00001 53.649625,152.4976 29.356872,165.74365 33.619679,138.4046 13.515064,119.39407 40.833332,115.00001 52.700749,90.004806 65.32156,114.62818 l 27.439082,3.56264 -19.518178,19.61215 z"
       inkscape:transform-center-x="0.17080384"
       inkscape:transform-center-y="-3.2082613"
       transform="matrix(0.87380999,0,0,0.84596192,121.90094,216.82327)" />
    <path
       sodipodi:type="star"
       style="fill:#f9f9f9"
       id="path3074-22"
       sodipodi:sides="5"
       sodipodi:cx="53.333332"
       sodipodi:cy="131.66667"
       sodipodi:r1="41.666668"
       sodipodi:r2="20.833332"
       sodipodi:arg1="0.92729522"
       sodipodi:arg2="1.5556137"
       inkscape:flatsided="false"
       inkscape:rounded="0"
       inkscape:randomized="0"
       d="M 78.333333,165.00001 53.649625,152.4976 29.356872,165.74365 33.619679,138.4046 13.515064,119.39407 40.833332,115.00001 52.700749,90.004806 65.32156,114.62818 l 27.439082,3.56264 -19.518178,19.61215 z"
       inkscape:transform-center-x="0.17081156"
       inkscape:transform-center-y="-3.2082613"
       transform="matrix(0.87380999,0,0,0.84596192,214.56761,220.82327)" />
    <path
       transform="matrix(0.87380999,0,0,0.84596192,121.90094,220.82327)"
       inkscape:transform-center-y="-3.2082613"
       inkscape:transform-center-x="0.17080384"
       d="M 78.333333,165.00001 53.649625,152.4976 29.356872,165.74365 33.619679,138.4046 13.515064,119.39407 40.833332,115.00001 52.700749,90.004806 65.32156,114.62818 l 27.439082,3.56264 -19.518178,19.61215 z"
       inkscape:randomized="0"
       inkscape:rounded="0"
       inkscape:flatsided="false"
       sodipodi:arg2="1.5556137"
       sodipodi:arg1="0.92729522"
       sodipodi:r2="20.833332"
       sodipodi:r1="41.666668"
       sodipodi:cy="131.66667"
       sodipodi:cx="53.333332"
       sodipodi:sides="5"
       id="path3191"
       style="fill:#f9f9f9"
       sodipodi:type="star" />
    <text
       xml:space="preserve"
       style="font-size:40px;font-style:normal;font-weight:normal;line-height:125%;letter-spacing:0px;word-spacing:0px;fill:#000000;fill-opacity:1;stroke:none;font-family:Sans"
       x="258.66669"
       y="57.333336"
       id="text3193"
       sodipodi:linespacing="125%"><tspan
         sodipodi:role="line"
         id="tspan3195"
         x="258.66669"
         y="57.333336"
         style="font-size:48px;font-style:normal;font-variant:normal;font-weight:normal;font-stretch:normal;font-family:Arial;-inkscape-font-specification:Arial">-- Notation --</tspan></text>
    <path
       style="fill:#ff5555;fill-opacity:1"
       d="m 450.33333,416 0,-35 36.66667,0 36.66667,0 0,35 0,35 -36.66667,0 -36.66667,0 0,-35 z m 55.93145,29.19834 c 2.71636,-2.07246 2.85154,-2.72029 0.8429,-4.03933 -1.9479,-1.27915 -1.26876,-2.81463 3.65583,-8.26556 17.49627,-19.36628 3.70907,-49.03631 -22.78641,-49.03631 -9.27585,0 -16.38376,2.91748 -22.14755,9.09058 C 461.29417,397.80517 457,407.80058 457,413.5 c 0,6.05774 4.42091,15.87748 9.5669,21.25 4.04688,4.22503 4.13002,4.58333 1.06347,4.58333 -1.82963,0 -4.78245,1.07331 -6.56182,2.38514 -3.14523,2.31879 -3.11933,2.43175 0.93145,4.06102 6.89291,2.77242 40.44668,2.33189 44.26478,-0.58115 z"
       id="path3228"
       inkscape:connector-curvature="0" />
    <path
       style="fill:#ff5555;fill-opacity:1"
       d="m 18.666667,415.19342 0,-35.80658 382.500003,0.10873 382.5,0.10872 0,35.69786 0,35.69785 -294.84864,0 -294.84865,0 -2.09916,-11.74625 -2.09917,-11.74624 8.79762,-8.90829 8.79763,-8.90828 -12.21415,-1.4288 -12.21415,-1.42881 -5.88567,-10.40503 c -3.23711,-5.72277 -6.28127,-10.41027 -6.76479,-10.41667 -0.48352,-0.006 -2.97348,4.79582 -5.53324,10.67159 l -4.65412,10.68322 -10.30009,1.1686 c -15.6719,1.77806 -16.05321,2.51853 -5.80543,11.27348 l 8.97469,7.66732 -1.6257,11.76208 -1.6257,11.76208 -25.40748,0 -25.407477,0 -1.890393,-9.58333 c -1.039715,-5.27084 -2.129503,-10.33334 -2.421752,-11.25 -0.292248,-0.91667 3.27381,-5.58562 7.924572,-10.37544 4.65077,-4.78982 8.08645,-9.07825 7.63486,-9.52984 -0.45159,-0.45159 -5.28264,-1.31973 -10.735675,-1.92919 C 87.727725,407.02599 85.519403,405.40581 80.332938,394.33249 78.186437,389.74962 75.969385,386 75.406157,386 c -0.563229,0 -3.399204,4.81656 -6.302167,10.70346 l -5.278115,10.70346 -9.662937,1.16642 c -14.910388,1.79986 -15.250106,2.50728 -5.439763,11.32762 l 8.658523,7.78475 -1.176755,9.41843 C 54.38009,451.70977 55.412705,451 35.988352,451 l -17.321685,0 0,-35.80658 z m 486.905503,30.67876 c 1.91618,-1.02551 2.96023,-2.81809 2.43641,-4.18317 -0.50415,-1.31377 1.50019,-5.81743 4.45407,-10.00814 4.78103,-6.78291 5.37068,-8.86843 5.37068,-18.99546 0,-10.21123 -0.526,-12.03178 -5.13728,-17.78071 -6.41435,-7.99681 -19.64563,-13.01841 -30.15728,-11.44543 -22.39189,3.35075 -32.66862,29.3047 -19.18049,48.44045 4.42262,6.27442 4.77724,7.43361 2.27404,7.43361 -2.99195,0 -6.96565,2.9728 -6.96565,5.21113 0,2.10225 5.29233,2.72999 24.6929,2.92887 10.67821,0.10947 20.31413,-0.58512 22.2126,-1.60115 z m 33.0945,-26.53885 c 0,-9.25926 -0.51587,-11.66666 -2.5,-11.66666 -1.98414,0 -2.5,2.4074 -2.5,11.66666 0,9.25926 0.51586,11.66667 2.5,11.66667 1.98413,0 2.5,-2.40741 2.5,-11.66667 z M 547,424.46964 c 0,-8.68053 1.36992,-11.80297 5.17832,-11.80297 2.71315,0 3.15501,1.2838 3.15501,9.16666 0,7.03704 0.5808,9.16667 2.5,9.16667 1.93865,0 2.5,-2.19955 2.5,-9.79593 0,-11.50874 -1.59318,-13.37549 -11.30098,-13.24151 l -7.03235,0.0971 0,11.4702 c 0,9.08461 0.51995,11.47019 2.5,11.47019 1.79685,0 2.5,-1.83671 2.5,-6.53036 z m 31.77623,4.80505 c 4.45132,-2.38227 4.142,-8.98913 -0.52623,-11.24053 -2.98562,-1.43991 -3.15548,-1.83155 -0.83333,-1.92136 4.74608,-0.18355 3.62658,-6.53778 -1.3729,-7.79257 -5.59665,-1.40467 -12.3771,1.75807 -12.3771,5.7733 0,3.8587 2.62401,6.07739 8.99106,7.60225 3.68267,0.88197 4.36309,1.61674 2.87509,3.10474 -1.48802,1.48801 -2.72302,1.46618 -5.21847,-0.0923 -4.33802,-2.70913 -6.64768,-2.57864 -6.64768,0.37559 0,4.95486 9.01163,7.45436 15.10956,4.19084 l 0,0 z m 24.89044,-7.60661 c 0,-9.92986 -2.78325,-14.00141 -9.57115,-14.00141 -4.23109,0 -10.42885,4.11544 -10.42885,6.92498 0,0.77459 1.5,1.40835 3.33333,1.40835 1.83333,0 3.33333,-0.75 3.33333,-1.66667 0,-0.91666 1.5,-1.66666 3.33334,-1.66666 4.899,0 4.05886,2.78987 -1.24069,4.11997 -5.88506,1.47706 -8.75931,3.91099 -8.75931,7.41743 0,4.74006 3.45961,6.6041 11.9002,6.41183 l 8.0998,-0.18449 0,-8.76333 z M 617,428.67831 c 0,-1.27692 -1.125,-2.75338 -2.5,-3.28102 -1.56915,-0.60214 -2.5,-3.15079 -2.5,-6.84498 0,-4.12057 0.74973,-5.88564 2.5,-5.88564 3.14083,0 3.25367,-2.73365 0.18578,-4.50052 -1.27281,-0.73305 -2.58531,-2.62557 -2.91666,-4.2056 -0.43972,-2.09674 -1.27779,-2.45053 -3.10245,-1.30966 -2.88734,1.80529 -2.832,19.72415 0.0777,25.16097 1.96422,3.67009 8.25567,4.3304 8.25567,0.86645 z m 6.66667,-9.34498 c 0,-9.25926 -0.51587,-11.66666 -2.5,-11.66666 -1.98414,0 -2.5,2.4074 -2.5,11.66666 0,9.25926 0.51586,11.66667 2.5,11.66667 1.98413,0 2.5,-2.40741 2.5,-11.66667 z m 18.2572,9.25841 c 3.57523,-4.30791 1.4135,-9.83657 -4.5072,-11.52722 C 634.4375,416.21382 632,414.87629 632,414.09223 c 0,-2.02085 2.8333,-1.76609 6.61348,0.59468 3.80407,2.37568 5.5609,1.24214 4.07525,-2.62942 -1.26536,-3.29746 -7.44901,-5.11472 -12.23511,-3.59567 -2.43134,0.77168 -3.45362,2.50466 -3.45362,5.85457 0,3.9604 0.9783,5.08131 5.83333,6.68361 3.20834,1.05884 5.83334,2.61701 5.83334,3.46259 0,2.07268 -6.20522,1.96574 -7.5,-0.12925 -1.29795,-2.10013 -5.83334,-2.19269 -5.83334,-0.11905 0,5.78911 12.64909,9.1266 16.59054,4.37745 l 0,0 z m 11.41323,-7.30608 c 0.27707,-4.74045 1.21457,-8.61899 2.08333,-8.61899 0.86877,0 1.57957,-1.125 1.57957,-2.5 0,-1.375 -0.75,-2.5 -1.66667,-2.5 -0.91666,0 -1.66666,-0.75 -1.66666,-1.66667 0,-0.91667 1.125,-1.66667 2.5,-1.66667 2.83798,0 3.34978,-2.61141 0.81841,-4.17588 -2.82796,-1.74779 -7.38448,0.61963 -9.33861,4.85205 -1.67109,3.61932 -1.47815,18.42958 0.31323,24.04576 1.62647,5.09917 4.90185,0.36669 5.3774,-7.7696 l 0,0 z M 677,421.66808 c 0,-10.11005 -2.78608,-14.00141 -10.02453,-14.00141 -5.89959,0 -12.14585,7.06467 -7.16777,8.1069 1.59435,0.3338 3.17735,-0.2287 3.51778,-1.25 0.7625,-2.28754 7.00785,-2.48538 7.00785,-0.22199 0,0.8992 -2.0625,2.12762 -4.58333,2.72981 -5.96455,1.42486 -8.75,3.70818 -8.75,7.17268 0,4.74006 3.45962,6.6041 11.9002,6.41183 l 8.0998,-0.18449 0,-8.76333 z m 8.33333,-2.33475 c 0,-9.25926 -0.51586,-11.66666 -2.5,-11.66666 -1.98413,0 -2.5,2.4074 -2.5,11.66666 0,9.25926 0.51587,11.66667 2.5,11.66667 1.98414,0 2.5,-2.40741 2.5,-11.66667 z m 19.25495,8.23578 c 3.94137,-4.35516 1.75529,-8.41563 -5.67866,-10.54766 -5.8625,-1.68134 -7.03484,-4.35478 -1.90962,-4.35478 1.83333,0 3.33333,0.75 3.33333,1.66666 0,0.91667 1.125,1.66667 2.5,1.66667 3.00045,0 3.2809,-3.55244 0.5,-6.33333 -2.76153,-2.76153 -10.50175,-2.51022 -12.93355,0.41993 -3.18438,3.83695 -1.35343,8.21253 4.51819,10.79751 C 701.01648,423.56898 702.00583,426 697,426 c -1.83333,0 -3.33333,-0.75 -3.33333,-1.66667 0,-0.91666 -1.125,-1.66666 -2.5,-1.66666 -3.00045,0 -3.2809,3.55243 -0.5,6.33333 3.11473,3.11473 10.4943,2.35625 13.92161,-1.43089 l 0,0 z m 23.31367,0.50872 C 727.40588,426.78508 727,422.053 727,417.56211 c 0,-7.31964 -0.43152,-8.27357 -4.16667,-9.21104 -5.63143,-1.4134 -11.90008,0.34828 -13.18873,3.70642 -1.48565,3.87156 0.27118,5.0051 4.07525,2.62942 3.7305,-2.32974 8.28015,-2.66897 8.28015,-0.61739 0,0.77157 -3,2.30168 -6.66667,3.40024 -5.76978,1.72867 -6.66666,2.64235 -6.66666,6.79159 0,5.63444 1.48351,6.39945 12.15195,6.26647 6.1619,-0.0768 7.77933,-0.63625 7.08333,-2.44999 l 0,0 z m 9.42762,-5.82783 c 0.43013,-7.47097 0.99101,-8.75 3.8371,-8.75 2.84608,0 3.40696,1.27903 3.8371,8.75 0.36238,6.29431 1.18095,8.75 2.91666,8.75 1.80294,0 2.40645,-2.21196 2.38739,-8.75 -0.034,-11.65211 -1.55827,-13.63312 -10.72744,-13.94176 L 732,408.05308 l 0,11.47346 c 0,8.90345 0.54048,11.47346 2.4129,11.47346 1.73572,0 2.55428,-2.45569 2.91667,-8.75 z m 26.3371,6.42831 c 0,-1.27692 -1.125,-2.75338 -2.5,-3.28102 -1.56915,-0.60214 -2.5,-3.15079 -2.5,-6.84498 0,-4.12057 0.74973,-5.88564 2.5,-5.88564 1.375,0 2.5,-1.125 2.5,-2.5 0,-1.375 -1.07284,-2.5 -2.38409,-2.5 -1.31125,0 -2.62375,-1.48077 -2.91666,-3.2906 -0.39929,-2.46695 -1.15834,-2.89901 -3.03259,-1.72618 -2.84805,1.7822 -2.89113,16.5792 -0.0698,23.99968 1.75592,4.61848 8.40317,6.2233 8.40317,2.02874 z m -225,-25.17831 c 0,-1.375 -1.125,-2.5 -2.5,-2.5 -1.375,0 -2.5,1.125 -2.5,2.5 0,1.375 1.125,2.5 2.5,2.5 1.375,0 2.5,-1.125 2.5,-2.5 z m 85,0 c 0,-1.375 -1.125,-2.5 -2.5,-2.5 -1.375,0 -2.5,1.125 -2.5,2.5 0,1.375 1.125,2.5 2.5,2.5 1.375,0 2.5,-1.125 2.5,-2.5 z m 61.66666,0 c 0,-1.375 -1.125,-2.5 -2.5,-2.5 -1.375,0 -2.5,1.125 -2.5,2.5 0,1.375 1.125,2.5 2.5,2.5 1.375,0 2.5,-1.125 2.5,-2.5 z"
       id="path3230"
       inkscape:connector-curvature="0" />
    <path
       style="fill:#ff0000;fill-opacity:1"
       d="m 580.23766,511.41667 c -0.8145,-10.64206 -2.08187,-16.33223 -4.46848,-20.06235 -3.87256,-6.05256 -6.49628,-8.68765 -8.65013,-8.68765 -0.98215,0 -1.78572,-0.64151 -1.78572,-1.42557 0,-0.78406 -2.4375,-2.20749 -5.41666,-3.16319 -4.73829,-1.52 -3.69462,-1.75893 8.33333,-1.90776 L 582,476 l 0,18.33333 c 0,10.08334 -0.375,18.33334 -0.83333,18.33334 -0.45834,0 -0.87639,-0.5625 -0.92901,-1.25 z"
       id="path3232"
       inkscape:connector-curvature="0" />
    <path
       style="fill:#ff0000;fill-opacity:1"
       d="M 510.33537,486.41667 510.33333,476 523.25,476.15031 c 10.27268,0.11955 11.89319,0.45039 7.91667,1.61628 -5.07086,1.48675 -9.28727,5.0348 -16.71651,14.06674 l -4.11276,5 -0.002,-10.41666 0,0 z"
       id="path3234"
       inkscape:connector-curvature="0" />
    <path
       style="fill:#ff0000;fill-opacity:1"
       d="m 573.50307,540.55876 c 2.20169,-1.13232 4.82669,-3.40275 5.83334,-5.04541 1.4855,-2.42407 1.0927,-3.54775 -2.08531,-5.96539 -3.58859,-2.72999 -3.69297,-3.20133 -1.25,-5.6443 1.46606,-1.46606 2.66557,-4.21914 2.66557,-6.11795 0,-1.89881 0.75,-3.45238 1.66666,-3.45238 0.9804,0 1.66667,5.83334 1.66667,14.16667 l 0,14.16667 -6.25,-0.0246 c -6.01403,-0.0236 -6.09886,-0.1023 -2.24693,-2.08334 z"
       id="path3236"
       inkscape:connector-curvature="0" />
    <path
       style="fill:#ff0000;fill-opacity:1"
       d="m 210.05023,544.75005 c 105.7193,-0.23691 278.2193,-0.2369 383.33334,3e-5 105.11403,0.23693 18.61643,0.43077 -192.2169,0.43076 -210.83334,-2e-5 -296.83573,-0.19387 -191.11644,-0.43079 z"
       id="path3238"
       inkscape:connector-curvature="0" />
    <path
       style="fill:#ff0000;fill-opacity:1"
       d="m 576.92505,535.26416 c -0.0624,-0.76459 -0.35618,-2.07709 -0.6528,-2.91666 -0.41632,-1.17836 -0.3052,-1.31085 0.48722,-0.58094 0.5646,0.52006 0.85836,1.83256 0.6528,2.91667 -0.20555,1.08411 -0.4248,1.34553 -0.48722,0.58093 z"
       id="path3256"
       inkscape:connector-curvature="0" />
    <path
       style="fill:#ff0000;fill-opacity:1"
       d="m 511.04402,522.72886 c 0.0362,-2.42432 0.25309,-3.84535 0.48201,-3.15785 1.61706,4.8564 1.67455,5.48973 0.59022,6.50264 -0.95277,0.89003 -1.12731,0.34557 -1.07223,-3.34479 z"
       id="path3258"
       inkscape:connector-curvature="0" />
    <path
       style="fill:#ff0000;fill-opacity:1"
       d="m 577.43811,538.70984 c 3.00662,-0.80998 6.32118,-2.3273 7.3657,-3.37182 2.62755,-2.62755 2.38902,-6.4672 -0.4579,-7.37078 -2.61588,-0.83025 -3.38602,-6.48181 -0.88327,-6.48181 0.88598,0 1.51651,-1.68879 1.58097,-4.23442 0.059,-2.32894 0.82009,-4.675 1.69138,-5.21348 1.3073,-0.80797 1.31473,-1.30369 0.0425,-2.83665 -1.24267,-1.49734 -1.25357,-2.20471 -0.0562,-3.64746 1.2043,-1.45109 1.15901,-2.17606 -0.23926,-3.83017 -0.9486,-1.12215 -1.79372,-3.35825 -1.87805,-4.96911 -0.0843,-1.61085 -0.70722,-3.11345 -1.38421,-3.33911 -0.67698,-0.22566 -1.23087,-1.42676 -1.23087,-2.66911 0,-1.24234 -0.39775,-2.25946 -0.88389,-2.26025 -1.41448,-0.002 -7.98082,-6.04674 -7.69687,-7.08511 0.14195,-0.51906 -0.65355,-0.79404 -1.76776,-0.61106 -1.11422,0.18298 -2.92051,-0.44865 -4.01398,-1.4036 -1.09348,-0.95496 -2.51524,-1.41052 -3.15948,-1.01236 -0.64423,0.39816 -1.50445,0.18495 -1.91158,-0.47381 -0.4851,-0.78492 3.95491,-1.19773 12.88219,-1.19773 l 13.62244,0 0,31.8198 0,31.81981 -8.54421,-0.0795 -8.54421,-0.0795 5.46657,-1.47269 0,0 z"
       id="path3292"
       inkscape:connector-curvature="0" />
    <path
       style="fill:#ff0000;fill-opacity:1"
       d=""
       id="path3294"
       inkscape:connector-curvature="0" />
    <path
       style="fill:#ff0000;fill-opacity:1"
       d="m 517.17077,486.13009 0,-9.42809 13.25825,0.018 c 8.21042,0.0112 12.62735,0.41746 11.60117,1.06712 -0.91139,0.57699 -2.8167,0.83879 -4.23403,0.58178 -1.75674,-0.31856 -3.5883,0.66777 -5.75444,3.0989 -1.85123,2.07769 -3.77324,3.22417 -4.60481,2.74676 -0.78502,-0.45068 -1.05672,-0.40801 -0.60378,0.0948 0.45294,0.50284 -1.00547,2.63923 -3.24091,4.74751 -2.23544,2.10829 -4.06443,4.43355 -4.06443,5.16724 0,0.73369 -0.53033,1.33399 -1.17851,1.33399 -0.68747,0 -1.17851,-3.92837 -1.17851,-9.42809 z"
       id="path3296"
       inkscape:connector-curvature="0" />
    <path
       style="fill:#ff0000;fill-opacity:1"
       d="m 517.31077,527.08335 c 0.13921,-13.18325 0.14856,-13.22492 1.65463,-7.36569 0.83305,3.2409 1.56554,5.41737 1.62777,4.83658 0.0622,-0.58078 1.3833,0.31456 2.93573,1.98966 1.55242,1.6751 3.14341,2.72481 3.53553,2.33269 0.39212,-0.39211 0.71294,0.17095 0.71294,1.25125 0,1.0803 0.79549,1.96419 1.76776,1.96419 0.97228,0 1.76777,0.48647 1.76777,1.08104 0,0.59457 2.40381,1.99906 5.34179,3.12108 2.93798,1.12203 5.62093,2.49172 5.96211,3.04375 0.34117,0.55204 -5.24461,1.00371 -12.41286,1.00371 l -13.03317,0 0.14,-13.25826 z"
       id="path3298"
       inkscape:connector-curvature="0" />
    <path
       style="fill:#00ff00;fill-opacity:1"
       d="m 607.91614,238.05346 0,-32.40906 37.1231,0 37.12311,0 0,32.40906 0,32.40906 -37.12311,0 -37.1231,0 0,-32.40906 z m 52.64573,28.81697 c 10.44548,-2.92455 19.24346,-14.28434 19.24346,-24.84682 0,-2.5703 -1.05701,-6.86101 -2.3489,-9.53493 -1.2919,-2.67391 -2.11927,-5.09129 -1.83861,-5.37194 0.93625,-0.93626 -8.12433,-10.86574 -9.91491,-10.86574 -0.67003,0 -1.21823,-0.51552 -1.21823,-1.14559 0,-1.88989 -13.07719,-5.1273 -20.18619,-4.99733 -6.73702,0.12317 -23.81248,5.73089 -22.73907,7.4677 0.29606,0.47903 -0.50755,1.6035 -1.78579,2.49882 -3.63232,2.54417 -7.43828,12.46888 -7.34654,19.15737 0.13929,10.15433 1.43317,14.06188 5.80043,17.5174 1.527,1.20821 2.4973,2.47582 2.15621,2.8169 -0.74362,0.74362 6.27529,4.66681 12.9905,7.26098 5.61631,2.16966 19.51378,2.19173 27.18764,0.0432 l 0,0 z"
       id="path3365"
       inkscape:connector-curvature="0" />
    <path
       style="fill:#00ff00;fill-opacity:1"
       d="m 18.660485,236.87495 0,-35.9446 383.016175,0 383.01617,0 0,35.9446 0,35.94459 -204.19878,0 -204.19878,0 -2.16814,-11.94251 -2.16815,-11.9425 8.67166,-7.96172 c 4.76941,-4.37894 8.40648,-8.20342 8.08239,-8.49883 -0.32409,-0.29542 -5.89255,-1.2822 -12.37436,-2.19287 l -11.78512,-1.65574 -5.3033,-10.30911 c -2.91681,-5.67001 -5.59195,-10.3104 -5.94475,-10.31197 -0.3528,-0.002 -2.97098,4.74973 -5.81817,10.55847 -4.18692,8.54196 -5.75429,10.67032 -8.19739,11.13135 -1.66136,0.31351 -6.86555,1.17729 -11.56487,1.91951 -4.69931,0.74222 -8.55761,1.69933 -8.57401,2.1269 -0.0164,0.42757 3.76875,4.25152 8.41143,8.49766 l 8.44124,7.72026 -1.3693,8.18964 c -0.75311,4.50431 -1.66358,9.64806 -2.02326,11.43055 l -0.65396,3.24091 -25.61747,0 -25.61748,0 -2.13107,-11.31462 -2.13106,-11.31462 8.6153,-8.67319 c 5.83229,-5.87147 8.06883,-8.84724 6.92362,-9.21199 -0.93044,-0.29635 -6.41162,-1.10408 -12.18041,-1.79497 -5.76879,-0.69089 -10.59628,-1.3976 -10.72774,-1.57047 -0.13147,-0.17287 -2.79032,-5.03501 -5.90855,-10.80476 l -5.66951,-10.49044 -5.25895,10.49044 c -2.8924,5.76975 -5.79052,10.82895 -6.44024,11.24268 -0.64973,0.41373 -6.15143,1.41005 -12.22602,2.21405 -9.83806,1.30212 -13.13896,2.52659 -10.0066,3.71195 0.57094,0.21606 4.5598,3.69989 8.86412,7.74185 l 7.82602,7.34901 -1.22471,7.97163 c -0.67359,4.3844 -1.5226,9.43005 -1.88668,11.21254 l -0.66198,3.24091 -23.2793,0 -23.2793,0 -2.19907,-11.98527 -2.19907,-11.98527 8.49755,-7.75479 c 4.67365,-4.26514 8.49126,-8.07538 8.48359,-8.46721 -0.008,-0.39183 -5.49686,-1.36221 -12.19819,-2.15641 l -12.18424,-1.44399 -4.59308,-9.42063 c -2.5262,-5.18135 -5.16324,-9.89382 -5.86008,-10.47215 -0.84565,-0.70183 -2.98192,2.44721 -6.4239,9.46938 -4.16174,8.49062 -5.73981,10.63311 -8.17756,11.10242 -1.66136,0.31984 -7.24064,1.22619 -12.39841,2.01413 l -9.37775,1.4326 9.14684,8.38047 9.14684,8.38046 -1.26315,8.21223 c -0.69472,4.51672 -1.56103,9.67063 -1.92511,11.45312 l -0.66198,3.24091 -24.46361,0 -24.463601,0 -2.034009,-11.38752 -2.03401,-11.38752 8.54289,-8.60029 c 5.78666,-5.82554 7.99709,-8.77412 6.85119,-9.13909 -0.93044,-0.29635 -6.41162,-1.10408 -12.18041,-1.79497 -5.768789,-0.69089 -10.612173,-1.3976 -10.763077,-1.57047 -0.150904,-0.17287 -2.149351,-4.02662 -4.440994,-8.56389 -7.15479,-14.16591 -6.759179,-14.08621 -11.962,-2.40979 -2.49368,5.59644 -5.382935,10.61725 -6.420564,11.15734 -1.03763,0.5401 -6.526987,1.66247 -12.198572,2.49416 -5.671586,0.8317 -10.311974,1.91415 -10.311974,2.40546 0,0.49131 3.768736,4.33295 8.374969,8.53697 l 8.374969,7.64367 -1.356816,8.65632 c -2.463321,15.71567 -0.0052,13.95962 -19.540365,13.95962 l -17.065961,0 0,-35.94459 z m 626.378755,-31.23055 37.08582,0 0.33269,32.70369 0.33269,32.70368 0.27521,-33.29294 0.27521,-33.29294 -38.30162,0 -38.30161,0 0.2752,33.29294 0.27522,33.29294 0.33268,-32.70368 0.33269,-32.70369 37.08582,0 z m 18.89745,60.20723 c 9.39961,-4.15789 15.86864,-13.62003 15.86864,-23.21081 0,-3.03813 -1.14298,-8.65861 -2.53997,-12.48995 -6.29868,-17.27475 -26.08356,-24.65231 -46.95751,-17.50993 -12.15869,4.16031 -18.06138,13.23672 -18.05944,27.76954 0.002,14.45114 7.89093,23.68478 23.63907,27.66825 6.65685,1.68384 21.9536,0.46928 28.04921,-2.2271 l 0,0 z m 51.13969,-15.96947 c 3.81903,-1.9749 4.79833,-3.91634 4.79833,-9.51261 0,-8.26433 -4.09006,-12.22484 -11.21764,-10.86232 -2.70526,0.51714 -2.9245,0.21791 -2.9245,-3.99157 0,-3.76494 -0.40694,-4.55062 -2.35702,-4.55062 -2.23067,0 -2.35702,0.78568 -2.35702,14.65673 l 0,14.65672 3.83016,0.47532 c 2.10659,0.26142 4.51942,0.56019 5.36183,0.66392 0.84241,0.10373 3.03205,-0.58727 4.86586,-1.53557 l 0,0 z m 22.39171,0 c 3.89214,-2.0127 4.79833,-3.90097 4.79833,-9.99839 0,-6.8098 -3.62356,-10.66915 -10.01734,-10.66915 -4.14074,0 -5.60411,0.59989 -7.57479,3.10521 -2.684,3.41216 -3.2803,10.80506 -1.18701,14.71642 2.33837,4.36926 8.57858,5.63951 13.98081,2.84591 l 0,0 z m 13.04791,-6.97035 c 0,-8.209 1.64922,-10.91918 5.836,-9.59035 2.12667,0.67498 2.41358,1.73727 2.41358,8.9362 0,7.38449 0.22667,8.17017 2.35703,8.17017 2.14549,0 2.35702,-0.78568 2.35702,-8.75466 0,-11.18571 -1.14035,-12.4924 -10.67287,-12.22968 l -7.0048,0.19306 0,10.39564 c 0,9.60996 0.17813,10.39564 2.35702,10.39564 2.11063,0 2.35702,-0.78568 2.35702,-7.51602 z"
       id="path3367"
       inkscape:connector-curvature="0" />
    <path
       style="fill:#00ff00;fill-opacity:1"
       d="m 18.660485,236.87495 0,-35.9446 383.016175,0 383.01617,0 0,35.9446 0,35.94459 -204.26655,0 -204.26656,0 -2.108,-12.04409 -2.10802,-12.0441 8.67929,-7.88402 c 4.77362,-4.33621 8.41413,-8.12498 8.09004,-8.41948 -0.32409,-0.2945 -5.58402,-1.16179 -11.68873,-1.92732 -6.10471,-0.76552 -11.55484,-1.67328 -12.1114,-2.01725 -0.55655,-0.34397 -3.10474,-4.78784 -5.66265,-9.87526 -2.55791,-5.08742 -5.09981,-9.5274 -5.64867,-9.86662 -0.54886,-0.33921 -3.31387,4.10812 -6.14446,9.88297 -4.15954,8.48613 -5.7258,10.60904 -8.16718,11.06974 -1.66136,0.31351 -6.86555,1.17729 -11.56487,1.91951 -4.69931,0.74222 -8.55048,1.69933 -8.55816,2.1269 -0.008,0.42757 3.77336,4.23379 8.40229,8.45827 l 8.41625,7.68087 -1.38414,8.81829 c -0.76127,4.85006 -1.6356,10.01153 -1.94293,11.46994 l -0.55879,2.65165 -25.76564,0 -25.76563,0 -2.03953,-11.32729 -2.03952,-11.32729 7.79292,-7.85309 c 4.2861,-4.31921 7.79292,-8.42947 7.79292,-9.13391 0,-0.71807 -3.49514,-1.62564 -7.95495,-2.06563 -15.42911,-1.52219 -14.42404,-0.90469 -20.81112,-12.78596 l -5.77018,-10.73369 -5.27196,10.51634 c -2.89956,5.78399 -5.78687,10.84456 -6.41623,11.2457 -0.62937,0.40114 -5.8659,1.40612 -11.63676,2.23329 -5.77085,0.82716 -10.49246,1.9077 -10.49246,2.4012 0,0.4935 3.7295,4.35021 8.28776,8.57047 l 8.28778,7.6732 -1.23763,8.05243 c -0.68068,4.42883 -1.5355,9.51083 -1.89958,11.29332 l -0.66198,3.24091 -23.2793,0 -23.2793,0 -2.19891,-11.98443 -2.19892,-11.98442 8.48344,-7.94671 c 4.66589,-4.37069 8.48344,-8.18132 8.48344,-8.46806 0,-0.28673 -5.44831,-1.16703 -12.10734,-1.95622 l -12.10736,-1.43487 -5.08594,-9.93245 c -2.79727,-5.46285 -5.56317,-9.93245 -6.14644,-9.93245 -0.58325,0 -3.24935,4.37522 -5.92466,9.72272 -2.6753,5.34749 -5.00467,9.88065 -5.17637,10.07368 -0.1717,0.19303 -5.78486,1.20469 -12.47371,2.24813 l -12.16153,1.89717 9.23442,8.43333 9.23442,8.43333 -1.36669,8.17472 c -0.75168,4.49609 -1.66098,9.63313 -2.02067,11.41562 l -0.65395,3.24091 -24.46361,0 -24.463601,0 -2.033716,-11.38588 -2.033716,-11.38588 7.734773,-7.7945 c 4.25413,-4.28698 7.73478,-8.37088 7.73478,-9.07532 0,-0.71807 -3.49513,-1.62564 -7.95495,-2.06563 -15.356124,-1.51499 -14.470664,-0.99019 -20.232465,-11.99147 -2.863547,-5.46751 -5.62227,-9.94093 -6.130495,-9.94093 -0.508226,0 -3.010791,4.453 -5.561257,9.89555 -2.800544,5.9762 -5.506954,10.15274 -6.83313,10.5449 -1.207755,0.35715 -6.571141,1.29921 -11.918636,2.09347 -5.347495,0.79426 -9.722718,1.83876 -9.722718,2.3211 0,0.48234 3.76241,4.27698 8.360912,8.43254 l 8.360912,7.55555 -1.361585,9.33586 c -2.169776,14.87731 -0.110717,13.46064 -19.564446,13.46064 l -17.008997,0 0,-35.94459 z m 626.378755,-31.23055 37.08523,0 0.33331,32.11443 0.33332,32.11443 0.27487,-32.70369 0.27489,-32.70368 -38.30162,0 -38.30161,0 0.27488,32.70368 0.27488,32.70369 0.33332,-32.11443 0.3333,-32.11443 37.08523,0 z m 17.91045,60.67526 c 9.4748,-3.95197 16.7791,-14.22168 16.82976,-23.66229 0.0355,-6.60342 -4.05803,-17.95349 -7.95358,-22.05318 -8.33318,-8.76988 -21.48268,-12.45096 -34.639,-9.69687 -13.54161,2.83474 -19.46541,7.32288 -23.12838,17.5231 -2.2824,6.35575 -2.19942,19.47128 0.15123,23.9035 3.99232,7.52766 11.90093,13.27177 21.67776,15.74481 6.05673,1.53204 21.59298,0.52217 27.06221,-1.75907 l 0,0 z m 51.40457,-16.08434 c 4.0273,-2.14495 5.44243,-4.71572 5.48297,-9.96053 0.0249,-3.21766 -0.81299,-5.93094 -2.48968,-8.06252 -2.12329,-2.69932 -3.25336,-3.14351 -7.07107,-2.77944 l -4.54391,0.43334 0,-4.45057 c 0,-3.66488 -0.41609,-4.45056 -2.35702,-4.45056 -2.23067,0 -2.35702,0.78568 -2.35702,14.65673 l 0,14.65672 3.83016,0.47532 c 2.10659,0.26142 4.52794,0.56019 5.38078,0.66392 0.85284,0.10373 2.70899,-0.42835 4.12479,-1.18241 l 0,0 z m 23.11383,-0.35316 c 3.92149,-2.02788 4.79833,-3.89382 4.79833,-10.21089 0,-3.38823 -0.79451,-5.46574 -2.89271,-7.56394 -6.30852,-6.30852 -17.14198,-1.87477 -17.14198,7.01562 0,10.1197 6.96372,15.03715 15.23636,10.75921 z m 13.2887,-7.28626 c 0.36566,-8.2184 2.14432,-10.99162 6.08084,-9.48103 1.53199,0.58788 1.92795,2.44172 1.92795,9.02639 0,7.50089 0.22348,8.28657 2.35703,8.28657 2.14308,0 2.35702,-0.78568 2.35702,-8.65618 0,-10.98658 -1.40765,-12.56866 -10.95927,-12.31736 l -6.7184,0.17677 0,10.39838 c 0,9.53168 0.19197,10.39839 2.30318,10.39839 2.01922,0 2.34614,-0.96559 2.65165,-7.83193 l 0,0 z"
       id="path3369"
       inkscape:connector-curvature="0" />
    <path
       style="fill:#00ff00;fill-opacity:1"
       d=""
       id="path3371"
       inkscape:connector-curvature="0" />
    <path
       style="fill:#00ff00;fill-opacity:1"
       d=""
       id="path3373"
       inkscape:connector-curvature="0" />
    <path
       style="fill:#00ff00;fill-opacity:1"
       d=""
       id="path3375"
       inkscape:connector-curvature="0" />
    <path
       style="fill:#00ff00;fill-opacity:1"
       d="m 18.660485,236.87495 0,-35.9446 383.016175,0 383.01617,0 0,35.9446 0,35.94459 -204.26655,0 -204.26656,0 -2.1127,-12.07095 -2.11272,-12.07095 8.66789,-7.88164 c 4.76734,-4.33491 8.40996,-8.11159 8.09473,-8.39263 -0.31522,-0.28104 -5.56791,-1.13731 -11.67262,-1.90284 -6.10471,-0.76552 -11.52503,-1.65486 -12.04514,-1.9763 -0.52011,-0.32145 -3.14165,-4.80542 -5.82563,-9.96438 -2.68399,-5.15895 -5.34529,-9.37992 -5.914,-9.37992 -0.56873,0 -3.22293,4.37522 -5.89823,9.72272 -2.6753,5.34749 -4.99301,9.86898 -5.15045,10.04775 -0.15742,0.17877 -5.24203,1.12657 -11.2991,2.10623 -6.05709,0.97966 -11.26194,2.03026 -11.56635,2.33467 -0.30441,0.3044 3.31053,4.12957 8.0332,8.50037 l 8.58667,7.9469 -1.38287,9.42809 c -0.76058,5.18545 -1.6515,10.35617 -1.97981,11.49049 -0.54501,1.88301 -2.83567,2.06239 -26.33584,2.06239 l -25.7389,0 -2.02437,-11.24316 -2.02438,-11.24316 7.89359,-8.17634 c 4.34147,-4.49698 7.60177,-8.64849 7.24512,-9.22558 -0.35666,-0.57708 -3.97491,-1.40556 -8.04053,-1.84106 -15.00635,-1.60744 -14.08037,-1.04887 -19.84048,-11.96812 -2.8761,-5.45213 -5.6211,-9.91954 -6.1,-9.92758 -0.4789,-0.008 -3.0649,4.36061 -5.74668,9.70811 -2.68177,5.34749 -5.3907,10.05093 -6.01984,10.45207 -0.62915,0.40114 -5.86551,1.40612 -11.63637,2.23329 -5.77085,0.82716 -10.49246,1.9077 -10.49246,2.4012 0,0.4935 3.76816,4.38601 8.37368,8.65002 l 8.37369,7.75274 -1.33156,7.97288 c -0.73235,4.38508 -1.62582,9.43129 -1.98551,11.21378 l -0.65395,3.24091 -23.2793,0 -23.2793,0 -2.1726,-11.84101 -2.1726,-11.84102 7.86787,-7.92862 c 4.32732,-4.36075 7.86787,-8.25341 7.86787,-8.65036 0,-0.39695 -5.17518,-1.35568 -11.50038,-2.13052 l -11.50037,-1.40878 -5.19656,-9.91965 c -2.8581,-5.45581 -5.63198,-9.91965 -6.16415,-9.91965 -0.53216,0 -3.15646,4.37522 -5.83177,9.72272 -2.6753,5.34749 -5.00467,9.88065 -5.17637,10.07368 -0.1717,0.19303 -5.76957,1.2023 -12.43969,2.24283 l -12.12753,1.89186 9.20588,8.40726 9.20587,8.40726 -1.37215,8.20609 c -0.7547,4.51336 -1.66645,9.66451 -2.02614,11.447 l -0.65395,3.24091 -24.43897,0 -24.438967,0 -2.130743,-11.31293 -2.130744,-11.31293 7.950974,-8.01237 c 4.37303,-4.4068 7.63296,-8.52691 7.24428,-9.15581 -0.38868,-0.62889 -4.03311,-1.49976 -8.098751,-1.93526 -14.853661,-1.59108 -13.934695,-1.03385 -19.740075,-11.9698 -2.902317,-5.46728 -5.580365,-9.94051 -5.951219,-9.94051 -0.370854,0 -2.767984,4.29429 -5.326954,9.54286 -2.558971,5.24857 -5.449388,9.95078 -6.423149,10.44936 -0.973762,0.49857 -6.155401,1.57393 -11.514756,2.38968 -5.359354,0.81575 -10.002403,1.90083 -10.317887,2.4113 -0.315484,0.51046 3.224065,4.35998 7.865665,8.55448 l 8.439269,7.62637 -1.43802,9.27038 c -2.300203,14.82857 -0.199334,13.39518 -19.632901,13.39518 l -17.008997,0 0,-35.94459 z m 644.046035,29.54307 c 5.60514,-2.34197 12.49267,-8.91123 14.90091,-14.21232 2.83164,-6.23313 2.74951,-13.17876 -0.25067,-21.19748 -5.0304,-13.44491 -13.72509,-19.63304 -28.67343,-20.40727 -17.69215,-0.91635 -30.17999,5.3323 -34.19283,17.10937 -2.29441,6.7337 -2.41382,19.14625 -0.23308,24.2285 3.19122,7.43718 12.33434,13.87826 23.1215,16.28847 5.47566,1.22344 20.66643,0.13829 25.3276,-1.80927 z m -17.66728,-60.77362 37.0812,0 0.33754,28.5789 0.33754,28.57889 0.27267,-29.16815 0.27267,-29.16815 -38.30162,0 -38.30161,0 0.27267,29.16815 0.27267,29.16815 0.33754,-28.57889 0.33753,-28.5789 37.0812,0 z m 72.18382,41.72706 c 3.49313,-3.90938 3.54975,-10.80467 0.12449,-15.15919 -2.11437,-2.68798 -3.26039,-3.14284 -7.01595,-2.78469 -4.37744,0.41745 -4.49746,0.32512 -4.83853,-3.7226 -0.23159,-2.74838 -0.94699,-4.15068 -2.11752,-4.15068 -1.45656,0 -1.82591,2.52796 -2.09804,14.35943 l -0.33028,14.35944 3.86581,0.49836 c 6.03412,0.77789 9.5336,-0.18089 12.41002,-3.40007 l 0,0 z m 19.55466,2.92641 c 3.49115,-1.59068 5.4887,-5.65765 5.4887,-11.17492 0,-5.54518 -4.33007,-9.90833 -9.83321,-9.90833 -5.92946,0 -9.13669,3.1543 -9.87595,9.71295 -0.55864,4.95621 -0.26711,5.84743 2.97243,9.08696 3.82405,3.82405 6.62058,4.39174 11.24803,2.28334 l 0,0 z m 13.73828,-8.0096 c 0.61604,-7.87128 2.51895,-10.63263 6.32163,-9.1734 1.53199,0.58788 1.92795,2.44172 1.92795,9.02639 0,7.50089 0.22348,8.28657 2.35703,8.28657 2.12517,0 2.35702,-0.78568 2.35702,-7.98736 0,-11.31189 -1.5876,-13.24737 -10.66111,-12.9973 l -7.01656,0.19338 0,10.48205 c 0,9.34642 0.22344,10.43962 2.06239,10.09043 1.62998,-0.3095 2.18594,-1.97024 2.65165,-7.92076 z"
       id="path3377"
       inkscape:connector-curvature="0" />
    <path
       style="fill:#00ff00;fill-opacity:1"
       d="m 18.660485,236.87495 0,-35.9446 383.016175,0 383.01617,0 0,35.9446 0,35.94459 -204.29167,0 -204.29167,0 -2.11631,-12.04805 -2.1163,-12.04806 7.82883,-7.2726 c 4.30584,-3.99993 7.82881,-7.7897 7.82881,-8.42171 0,-0.63201 -4.86218,-1.77266 -10.80485,-2.53478 -5.94266,-0.76211 -11.2155,-1.63946 -11.71741,-1.94965 -0.5019,-0.3102 -3.16649,-4.79417 -5.92128,-9.96438 -2.75481,-5.17021 -5.37783,-9.40038 -5.82894,-9.40038 -0.45112,0 -3.07639,4.37522 -5.83394,9.72272 -2.75757,5.34749 -5.14435,9.88489 -5.30397,10.08311 -0.15963,0.19821 -5.41995,1.21339 -11.68962,2.25594 l -11.39939,1.89556 8.4986,8.55569 8.49859,8.5557 -1.43039,9.22305 c -0.7867,5.07268 -1.69721,10.15113 -2.02332,11.28545 -0.5414,1.88313 -2.83016,2.06239 -26.33185,2.06239 l -25.7389,0 -2.01643,-11.19905 -2.01643,-11.19905 7.83383,-8.30428 c 4.30861,-4.56735 7.56534,-8.73871 7.23717,-9.26969 -0.32816,-0.53097 -3.92309,-1.32173 -7.98871,-1.75723 -15.01607,-1.60847 -14.20653,-1.14011 -19.6596,-11.37441 -2.72597,-5.11608 -5.43964,-9.60069 -6.0304,-9.9658 -0.59074,-0.3651 -3.27886,3.73249 -5.9736,9.10576 -2.69472,5.37327 -5.39677,10.08697 -6.00452,10.4749 -0.60777,0.38793 -5.58188,1.37137 -11.0536,2.18543 -5.47171,0.81405 -10.21384,1.90933 -10.53809,2.43396 -0.32423,0.52462 3.18812,4.40164 7.80525,8.61559 l 8.39475,7.66174 -1.34588,8.05516 c -0.74022,4.43034 -1.64015,9.51357 -1.99984,11.29606 l -0.65395,3.24091 -23.2793,0 -23.2793,0 -2.1726,-11.84101 -2.1726,-11.84102 7.86787,-7.92862 c 4.32732,-4.36075 7.86787,-8.22731 7.86787,-8.59237 0,-0.36505 -5.17436,-1.32315 -11.49858,-2.1291 l -11.49859,-1.46537 -5.26884,-9.92106 c -2.89786,-5.45658 -5.63125,-9.92106 -6.07421,-9.92106 -0.44294,0 -3.10042,4.48208 -5.9055,9.96017 -3.31997,6.48363 -5.92753,10.15784 -7.47058,10.52651 -1.30374,0.31149 -6.84319,1.20799 -12.30989,1.99222 l -9.93945,1.42586 9.22029,8.42042 9.22028,8.42043 -1.37215,8.20609 c -0.7547,4.51336 -1.66645,9.66451 -2.02614,11.447 l -0.65395,3.24091 -24.43897,0 -24.438967,0 -2.119884,-11.25527 -2.119885,-11.25528 8.023436,-8.31083 c 6.14567,-6.36581 7.62551,-8.52709 6.32317,-9.23483 -0.93514,-0.5082 -6.16451,-1.51519 -11.620805,-2.23776 -5.456297,-0.72256 -10.012464,-1.44571 -10.124814,-1.60698 -0.11235,-0.16127 -2.439975,-4.39062 -5.172499,-9.39855 -2.732525,-5.00794 -5.375074,-9.35678 -5.872331,-9.6641 -0.497259,-0.30733 -2.984948,3.70913 -5.5282,8.92547 -2.543252,5.21633 -5.420808,9.88734 -6.394569,10.38003 -0.973762,0.49268 -6.013116,1.55767 -11.198566,2.36664 -5.18545,0.80897 -9.927012,1.77387 -10.536805,2.14423 -0.609794,0.37035 2.789452,4.21794 7.55388,8.5502 l 8.662595,7.87684 -1.442427,9.2977 c -2.305428,14.8605 -0.201595,13.42249 -19.637307,13.42249 l -17.008997,0 0,-35.94459 z M 661.01171,266.8505 c 9.45276,-2.41073 18.79362,-14.54349 18.79362,-24.41087 0,-7.56168 -4.33576,-17.62278 -10.06213,-23.34916 -8.61199,-8.61198 -23.37147,-11.06893 -38.47324,-6.40448 -12.46813,3.85102 -18.56685,12.87641 -18.6139,27.54638 -0.0305,9.50857 1.98582,14.5059 7.97425,19.7638 9.58423,8.41507 24.40035,10.92996 40.3814,6.85433 l 0,0 z m -15.97247,-61.2061 37.07328,0 0.34593,23.27559 0.34593,23.2756 0.26824,-23.86485 0.26824,-23.86485 -38.30162,0 -38.30161,0 0.26824,23.86485 0.26824,23.86485 0.34593,-23.2756 0.34592,-23.27559 37.07328,0 z m 72.18382,41.72706 c 6.59916,-7.38553 0.0106,-20.20661 -9.15238,-17.81042 -1.98791,0.51985 -2.33811,0.0206 -2.33811,-3.33348 0,-4.32126 -2.02384,-6.50656 -3.64924,-3.94036 -0.5658,0.89327 -1.03683,7.55673 -1.04676,14.80771 l -0.018,13.18358 3.83016,0.4957 c 5.99571,0.77597 9.50213,-0.18823 12.37437,-3.40273 z m 22.39171,0.0456 c 1.75807,-1.99782 2.65165,-4.52554 2.65165,-7.50088 0,-10.58526 -13.61884,-14.97593 -18.31051,-5.90325 -2.81139,5.43663 -2.18631,10.24149 1.85857,14.28637 2.99569,2.99568 4.20263,3.46381 7.36569,2.85688 2.08063,-0.39922 4.9762,-2.08183 6.4346,-3.73912 l 0,0 z m 10.18589,1.14658 c 0.39345,-1.02528 0.71534,-4.40749 0.71534,-7.51602 0,-6.03997 1.88051,-8.78519 5.54132,-8.08935 1.72807,0.32847 2.22771,1.92274 2.70826,8.64153 0.44886,6.27576 1.01045,8.23874 2.35703,8.23874 1.36106,0 1.84765,-1.81805 2.11503,-7.9023 0.45986,-10.46421 -1.51748,-12.72403 -10.91716,-12.47672 l -6.51852,0.17151 0,9.61271 c 0,5.28699 0.35355,9.96626 0.78568,10.39838 1.29055,1.29056 2.45376,0.90012 3.21302,-1.07848 l 0,0 z"
       id="path3379"
       inkscape:connector-curvature="0" />
    <path
       style="fill:#00ff00;fill-opacity:1"
       d="m 18.660485,236.87495 0,-35.9446 383.016175,0 383.01617,0 0,35.9446 0,35.94459 -204.27441,0 -204.27443,0 -2.1726,-11.84101 -2.17261,-11.84102 8.13089,-8.19368 c 4.47199,-4.50652 7.87995,-8.25595 7.57325,-8.33208 -0.30671,-0.0761 -5.59179,-1.00419 -11.74464,-2.06239 l -11.18698,-1.92399 -5.31217,-9.70908 c -2.9217,-5.33999 -5.58921,-9.71521 -5.9278,-9.72271 -0.33858,-0.008 -2.99023,4.46762 -5.89255,9.94472 -3.37334,6.36599 -6.12721,10.15865 -7.63396,10.51354 -1.29637,0.30535 -6.50763,1.20668 -11.58058,2.00297 l -9.22354,1.44779 8.5158,8.57303 8.51581,8.57302 -1.43039,9.22305 c -0.7867,5.07268 -1.69721,10.15113 -2.02332,11.28545 -0.54139,1.88308 -2.82941,2.06239 -26.31598,2.06239 l -25.72304,0 -2.08805,-11.08626 -2.08805,-11.08626 7.85554,-8.60711 c 5.29194,-5.79823 7.37489,-8.86054 6.38268,-9.3837 -0.81008,-0.42713 -4.38969,-1.12956 -7.95468,-1.56095 -14.1289,-1.70969 -13.34291,-1.23265 -18.74934,-11.37943 -2.72597,-5.11608 -5.39913,-9.57565 -5.94035,-9.91015 -0.54123,-0.3345 -3.24649,3.76309 -6.0117,9.10576 -2.7652,5.34266 -5.50776,10.03132 -6.09458,10.41925 -0.5868,0.38793 -5.54377,1.37137 -11.01549,2.18543 -5.47171,0.81405 -10.21348,1.90873 -10.53725,2.43261 -0.32377,0.52388 3.19384,4.37069 7.81692,8.54846 l 8.40562,7.59596 -1.35756,8.12229 c -0.74666,4.46726 -1.65185,9.5807 -2.01154,11.36319 l -0.65395,3.24091 -23.32685,0 -23.32685,0 -1.9175,-10.48089 c -1.05463,-5.76449 -1.91751,-11.2157 -1.91751,-12.11379 0,-0.89809 3.44152,-5.04382 7.64783,-9.21274 4.20631,-4.16892 7.25571,-7.94485 6.77644,-8.39096 -0.47926,-0.44612 -5.63651,-1.43144 -11.46056,-2.18961 -5.82405,-0.75817 -10.66441,-1.47472 -10.75637,-1.59233 -0.0919,-0.11762 -1.37081,-2.60034 -2.8419,-5.51715 -1.47107,-2.91682 -3.98418,-7.37881 -5.58467,-9.91555 l -2.90998,-4.61225 -5.14648,9.32629 c -2.83058,5.12947 -5.29534,9.74543 -5.47727,10.25771 -0.18192,0.51228 -5.35169,1.73963 -11.48836,2.72745 -6.13667,0.98781 -11.41082,2.04924 -11.72031,2.35874 -0.3095,0.30949 3.33615,4.12906 8.10142,8.48793 l 8.66413,7.92522 -1.37632,8.23006 c -0.75698,4.52653 -1.67062,9.68847 -2.03031,11.47096 l -0.65395,3.24091 -24.51594,0 -24.515933,0 -2.02128,-11.22596 -2.021282,-11.22597 7.914015,-8.38927 c 5.75842,-6.10422 7.47481,-8.61683 6.30154,-9.22472 -0.88687,-0.4595 -6.07556,-1.44321 -11.530428,-2.18603 -5.454871,-0.74282 -10.011037,-1.4837 -10.124815,-1.6464 -0.113777,-0.1627 -2.449558,-4.40588 -5.190623,-9.42929 -2.741066,-5.0234 -5.47102,-9.13346 -6.066564,-9.13346 -0.595545,0 -3.19571,4.20235 -5.778146,9.33856 -2.587155,5.1456 -5.635645,9.60327 -6.789592,9.92811 -1.151841,0.32425 -5.962975,1.24923 -10.691408,2.0555 -4.728433,0.80628 -8.921946,1.99148 -9.318917,2.63379 -0.396971,0.64232 2.897469,4.4322 7.320977,8.42198 l 8.042741,7.25413 -1.451206,9.35212 c -2.315839,14.92414 -0.206127,13.47691 -19.646087,13.47691 l -17.008997,0 0,-35.94459 z m 641.944695,29.84877 c 11.24899,-2.84425 20.14442,-15.80911 18.77576,-27.36521 -2.09883,-17.72139 -15.21545,-29.00007 -33.72584,-29.00007 -19.789,0 -31.5052,9.68889 -32.74974,27.08287 -0.95463,13.34216 3.19378,21.13089 14.23451,26.72565 9.75571,4.94359 20.71419,5.78082 33.46531,2.55676 l 0,0 z m 57.52018,-20.21536 c 2.24544,-3.20582 2.22957,-8.23257 -0.0398,-12.62114 -1.85936,-3.59561 -5.98818,-5.37917 -10.01482,-4.32618 -1.89578,0.49576 -2.34153,0.0192 -2.35615,-2.51914 -0.009,-1.72182 -0.48327,-3.86514 -1.05185,-4.76293 -2.11494,-3.33947 -3.64418,3.21777 -3.64418,15.62587 l 0,12.3807 4.41942,0.37347 c 5.79502,0.4897 10.51984,-1.05601 12.68741,-4.15065 l 0,0 z m 21.48941,0.8631 c 4.45666,-4.98772 2.8996,-14.23457 -2.83705,-16.84837 -6.71682,-3.06038 -12.636,0.0758 -14.01481,7.42547 -2.06633,11.01447 9.60065,17.53819 16.85186,9.4229 l 0,0 z m 10.27336,0.40472 c 0.32754,-1.45841 0.7354,-4.98413 0.90633,-7.83493 0.33037,-5.50966 2.64904,-8.12883 6.04317,-6.82638 1.47411,0.56567 1.9322,2.34373 1.946,7.55325 0.009,3.74739 0.54025,7.60892 1.17851,8.58119 2.12128,3.2314 3.65024,-1.18889 3.20849,-9.27593 -0.50224,-9.19486 -2.13107,-10.74323 -11.05455,-10.50845 l -6.31412,0.16613 0,9.61271 c 0,5.28699 0.35355,9.96626 0.78568,10.39838 1.47876,1.47877 2.70499,0.78551 3.30049,-1.86597 l 0,0 z m -104.84889,-42.13178 37.06325,0 0.35673,18.56155 0.35672,18.56155 0.26245,-19.15081 0.26247,-19.1508 -38.30162,0 -38.30161,0 0.26246,19.1508 0.26246,19.15081 0.35672,-18.56155 0.35672,-18.56155 37.06325,0 z"
       id="path3381"
       inkscape:connector-curvature="0" />
    <path
       style="fill:#00ff00;fill-opacity:1"
       d="m 18.660485,236.87495 0,-35.9446 383.016175,0 383.01617,0 0,35.9446 0,35.94459 -204.27441,0 -204.27443,0 -2.1726,-11.84101 -2.17261,-11.84102 8.13089,-8.19368 c 4.47199,-4.50652 7.87995,-8.25595 7.57325,-8.33208 -0.30671,-0.0761 -5.59579,-1.00419 -11.75351,-2.06239 l -11.19586,-1.92399 -2.94628,-5.37424 c -1.62045,-2.95583 -4.17672,-7.42443 -5.68061,-9.93022 l -2.73433,-4.55599 -5.36514,9.93022 c -2.95083,5.46163 -5.49039,10.07632 -5.64348,10.25488 -0.15309,0.17856 -4.9898,1.14703 -10.74826,2.15215 -5.75844,1.00512 -10.70972,2.06731 -11.00284,2.36042 -0.29311,0.29312 3.09679,4.19068 7.5331,8.66125 l 8.06603,8.12832 -1.4301,9.22129 c -0.78655,5.07172 -1.69693,10.14938 -2.02304,11.2837 -0.54139,1.88308 -2.82941,2.06239 -26.31598,2.06239 l -25.72304,0 -2.08648,-11.07796 -2.08649,-11.07795 7.3764,-8.29977 c 4.05701,-4.56487 7.07296,-8.79072 6.7021,-9.39078 -0.37086,-0.60006 -4.00072,-1.46659 -8.06635,-1.92563 -13.70641,-1.54753 -13.19042,-1.23261 -18.65504,-11.38561 -2.75403,-5.11687 -5.43857,-9.3034 -5.96565,-9.3034 -0.52706,0 -3.06017,3.8449 -5.62912,8.54421 -2.56894,4.69931 -5.15802,9.09848 -5.75349,9.77593 -0.59548,0.67744 -5.41447,1.93519 -10.70888,2.79498 -5.29439,0.85979 -9.97786,2.13232 -10.40772,2.82783 -0.42996,0.6957 2.8195,4.52855 7.22331,8.52013 l 8.00488,7.25555 -0.78858,5.18405 c -0.43373,2.85123 -1.32677,7.96829 -1.98454,11.37124 l -1.19597,6.18718 -23.36423,0 -23.36423,0 -1.8926,-10.31197 c -1.04093,-5.67159 -1.89152,-11.0932 -1.8902,-12.04804 0.001,-0.95483 3.24868,-5.01146 7.21638,-9.01474 3.96769,-4.00328 6.90117,-7.78485 6.51883,-8.40349 -0.38235,-0.61864 -5.36427,-1.76286 -11.07094,-2.54272 l -10.37578,-1.41791 -3.21408,-6.12021 c -1.76774,-3.36611 -4.32838,-7.94477 -5.6903,-10.17479 l -2.47622,-4.05459 -5.16383,9.35789 c -2.84012,5.14684 -5.30876,9.76522 -5.48588,10.26308 -0.17712,0.49785 -5.35697,1.75606 -11.51079,2.79601 -6.15381,1.03995 -11.41335,2.09464 -11.68785,2.34376 -0.2745,0.24912 3.39582,4.05115 8.15625,8.44896 l 8.65534,7.99601 -1.45553,9.37898 c -0.80055,5.15844 -1.72237,10.30706 -2.04849,11.44138 -0.54025,1.87913 -2.7726,2.06239 -25.1231,2.06239 l -24.530153,0 -2.020088,-11.21934 -2.020088,-11.21934 7.184226,-7.67996 c 3.951323,-4.22397 7.184223,-8.18078 7.184223,-8.7929 0,-1.27682 -2.08918,-1.82854 -13.518926,-3.57008 -4.518597,-0.6885 -8.278729,-1.35548 -8.355848,-1.48218 -0.07712,-0.12671 -2.451818,-4.34043 -5.277104,-9.36384 -2.825288,-5.0234 -5.55578,-9.13346 -6.067763,-9.13346 -0.511983,0 -3.043779,4.20235 -5.626215,9.33856 -5.059326,10.0625 -4.870248,9.93055 -17.133428,11.95726 -4.537268,0.74986 -8.736924,1.81706 -9.33257,2.37156 -0.633128,0.58939 2.250534,4.11996 6.942085,8.49946 l 8.025074,7.49129 -1.425562,9.74947 c -0.784059,5.36221 -1.710833,10.49288 -2.059498,11.40149 -0.503127,1.31113 -4.134036,1.65201 -17.596264,1.65201 l -16.962326,0 0,-35.94459 z m 641.248775,30.03314 c 6.46672,-1.79628 11.79371,-5.91103 15.5792,-12.03393 4.5374,-7.33908 5.17713,-13.86361 2.19115,-22.34758 -3.16918,-9.00452 -7.23844,-14.03699 -14.66297,-18.13373 -5.60253,-3.0914 -7.25857,-3.41816 -17.38814,-3.43098 -10.09819,-0.0128 -11.88912,0.33246 -18.26693,3.52136 -5.54119,2.7706 -7.836,4.79007 -10.6066,9.33397 -3.21639,5.27505 -3.53553,6.72819 -3.53553,16.09864 0,9.52407 0.26653,10.68558 3.53724,15.41477 2.49432,3.60659 5.76235,6.24384 11.08409,8.94472 6.7808,3.44138 8.575,3.8295 17.67596,3.82359 5.57101,-0.004 12.04765,-0.53949 14.39253,-1.19083 l 0,0 z m 75.9207,-17.01252 c 7.09015,-2.96245 8.595,-11.63265 2.99158,-17.23607 -4.04111,-4.04112 -8.00053,-4.38907 -12.2156,-1.07349 -5.86975,4.61714 -5.10187,14.72666 1.38641,18.25298 3.81974,2.07598 3.01835,2.0702 7.83761,0.0566 l 0,0 z m -19.80006,-1.26938 c 1.41471,-0.99091 2.91922,-3.65139 3.34335,-5.9122 1.4648,-7.80806 -3.87796,-14.51397 -10.54777,-13.23896 -2.59205,0.49551 -3.01501,0.11444 -3.32593,-2.9965 -0.19593,-1.96031 -0.95161,-3.75931 -1.67932,-3.99778 -2.01067,-0.6589 -2.7679,3.81462 -2.78561,16.45659 l -0.0161,11.49049 6.21958,0 c 3.67311,0 7.27272,-0.73765 8.79179,-1.80164 l 0,0 z m 33.7433,-0.85001 c 0.39084,-1.45841 0.71787,-4.84062 0.72672,-7.51602 0.0173,-5.23774 2.09115,-7.96186 5.5574,-7.30006 1.70384,0.32532 2.25286,1.95984 2.80224,8.34266 0.37577,4.36595 1.06752,8.32238 1.53721,8.79207 2.80467,2.80466 4.24646,-11.14442 1.72411,-16.68038 -1.37325,-3.01393 -3.83943,-3.80645 -12.48876,-4.01333 l -3.83016,-0.0916 0,9.77349 c 0,5.37541 0.35355,10.12704 0.78568,10.55916 1.42811,1.42811 2.46565,0.82035 3.18556,-1.86598 l 0,0 z m -104.73396,-42.13178 37.05056,0 0.37071,14.43676 0.37071,14.43676 0.25482,-15.02602 0.25482,-15.02601 -38.30162,0 -38.30161,0 0.25481,15.02601 0.25482,15.02602 0.37071,-14.43676 0.37072,-14.43676 37.05055,0 z"
       id="path3383"
       inkscape:connector-curvature="0" />
    <rect
       style="fill:#00ff00;fill-opacity:1"
       id="rect3050"
       width="74.246208"
       height="36.533852"
       x="692.96466"
       y="216.98383" />
    <text
       xml:space="preserve"
       style="font-size:40px;font-style:normal;font-weight:normal;line-height:125%;letter-spacing:0px;word-spacing:0px;fill:#000000;fill-opacity:1;stroke:none;font-family:Sans"
       x="700.53827"
       y="244.19704"
       id="text3053"
       sodipodi:linespacing="125%"><tspan
         sodipodi:role="line"
         id="tspan3055"
         x="700.53827"
         y="244.19704">bon</tspan></text>
    <rect
       style="fill:#ff5555;fill-opacity:1"
       id="rect3057"
       width="242.77333"
       height="45.961941"
       x="522.08051"
       y="396.11755" />
    <text
       xml:space="preserve"
       style="font-size:40px;font-style:normal;font-weight:normal;line-height:125%;letter-spacing:0px;word-spacing:0px;fill:#000000;fill-opacity:1;stroke:none;font-family:Sans"
       x="540.43414"
       y="427.68777"
       id="text3059"
       sodipodi:linespacing="125%"><tspan
         sodipodi:role="line"
         id="tspan3061"
         x="540.43414"
         y="427.68777">insatisfaisant</tspan></text>
  </g>
</svg>
